<svg width="395" height="433" viewBox="0 0 395 433" fill="none" xmlns="http://www.w3.org/2000/svg">
<mask id="mask0_828_280" style="mask-type:luminance" maskUnits="userSpaceOnUse" x="0" y="0" width="395" height="395">
<path d="M394.5 0.700195H0.5V394.6H394.5V0.700195Z" fill="white"/>
</mask>
<g mask="url(#mask0_828_280)">
<path d="M394.5 197.5C394.5 306.1 306.3 394.2 197.5 394.2C88.7 394.2 0.5 306.1 0.5 197.5C0.5 88.8998 88.7 0.799805 197.5 0.799805C306.3 0.799805 394.5 88.7998 394.5 197.5Z" fill="white"/>
</g>
<mask id="mask1_828_280" style="mask-type:luminance" maskUnits="userSpaceOnUse" x="82" y="283" width="232" height="150">
<path d="M313.3 283.9H82.6001V432.7H313.3V283.9Z" fill="white"/>
</mask>
<g mask="url(#mask1_828_280)">
<path d="M312.5 394.7C302.8 402 292.3 408.3 281.2 413.7C279.5 414.5 277.8 415.3 276.1 416.1C252.1 426.9 225.5 432.8 197.5 432.8C169.5 432.8 142.9 426.8 118.9 416.1C117.2 415.3 115.5 414.6 113.8 413.7C102.7 408.4 92.3001 402 82.6001 394.7C84.3001 356.7 104.5 323.5 134.5 303.8C152.6 291.9 174.2 285 197.5 285C201 285 204.6 285.2 208 285.5C227.3 287.2 245.2 293.7 260.5 303.8C274.3 312.8 286 324.7 294.8 338.7C305.2 355.1 311.5 374.2 312.5 394.7Z" fill="black"/>
</g>
<path d="M260.6 303.9C258.8 317.2 253 329.1 244.3 338.5C232.7 351.1 216.1 358.9 197.6 358.9C168 358.9 143.1 338.7 136 311.3C135.4 308.9 134.9 306.4 134.5 303.9C152.6 292 174.2 285.1 197.5 285.1C201 285.1 204.6 285.3 208 285.6C208.6 285.6 209.2 285.7 209.8 285.8C210.2 285.8 210.6 285.9 210.9 285.9C211.3 285.9 211.7 286 212.1 286C212.3 286 212.6 286.1 212.9 286.1C213.3 286.1 213.6 286.2 214 286.2C214.3 286.2 214.6 286.3 214.9 286.3C215.2 286.3 215.4 286.4 215.7 286.4C216.1 286.5 216.5 286.5 217 286.6C218.8 286.9 220.7 287.3 222.4 287.7L223.6 288C223.8 288.1 224.1 288.1 224.3 288.2C224.7 288.3 225.2 288.4 225.6 288.5C225.7 288.5 225.7 288.5 225.8 288.5C226.3 288.6 226.9 288.8 227.4 288.9C228 289 228.5 289.2 229.1 289.4C229.7 289.6 230.4 289.8 231 290C231.5 290.1 232 290.3 232.5 290.5C232.8 290.6 233.1 290.7 233.4 290.8C233.9 291 234.4 291.1 234.9 291.3C235.5 291.5 236.1 291.7 236.8 292C236.9 292 236.9 292 236.9 292.1C237.5 292.3 238.2 292.6 238.8 292.8C239.3 293 239.7 293.2 240.2 293.4C241.4 293.9 242.7 294.4 243.9 294.9L245.5 295.6C246 295.8 246.5 296 246.9 296.3C247.3 296.5 247.8 296.7 248.2 296.9C248.6 297.1 249 297.3 249.4 297.5C249.7 297.6 249.9 297.7 250.2 297.9C251.2 298.4 252.3 299 253.3 299.5C253.7 299.7 254 299.9 254.4 300.1C254.6 300.2 254.9 300.4 255.1 300.5L255.9 301L256.8 301.5L257.4 301.8C257.9 302.1 258.5 302.4 259 302.8C259.4 303.1 260 303.5 260.6 303.9Z" fill="#FFC6A6"/>
<path d="M225.6 253.6V308.6C225.6 322.5 214.2 333.9 200.3 333.9H195C181.1 333.9 169.7 322.5 169.7 308.6V253.6C169.7 239.7 181.1 228.3 195 228.3H200.3C214.2 228.3 225.6 239.7 225.6 253.6Z" fill="#FFC6A6"/>
<path d="M225.6 253.6V282.7C217.3 287.3 208.4 290 199.5 290C188.9 290 178.8 287.1 169.6 281.9V253.5C169.6 239.6 181 228.2 194.9 228.2H200.2C214.2 228.3 225.6 239.7 225.6 253.6Z" fill="#FF9F9C"/>
<path d="M265.8 232.4C265.8 232.4 278.9 227.9 287.3 213.3C296.4 197.4 290.7 187.6 288.9 185.4C284 179.6 276.4 183.3 275.1 185.4C273.9 187.5 255.7 220.5 265.8 232.4Z" fill="#FFC6A6"/>
<path d="M278.7 190.7C278.7 190.7 287 191.8 284.1 203.5C281.2 215.2 273.5 219.8 263 225.8C252.6 231.7 268.2 193 278.7 190.7Z" fill="#FF9F9C"/>
<path d="M132.7 232.4C132.7 232.4 119.6 227.9 111.2 213.3C102.1 197.4 107.8 187.6 109.6 185.4C114.5 179.6 122.1 183.3 123.4 185.4C124.6 187.5 142.8 220.5 132.7 232.4Z" fill="#FFC6A6"/>
<path d="M119.8 190.7C119.8 190.7 111.5 191.8 114.4 203.5C117.3 215.2 125 219.8 135.5 225.8C145.9 231.7 130.3 193 119.8 190.7Z" fill="#FF9F9C"/>
<path d="M206.6 147.9C206.6 147.9 221.5 195.8 277.6 191.1C277.6 191.1 287.4 177 284.1 146.2C280.4 111.5 249.6 82.3996 199.5 92.7996C199.4 92.7996 194.9 117.4 206.6 147.9Z" fill="#3F2463"/>
<path d="M209.1 95.9997C209.1 95.9997 211.2 86.8997 203.7 79.7997C196.2 72.6997 96.5002 87.2997 120.2 182.9C120.2 182.9 143.4 125.7 204.9 120.7L209.1 95.9997Z" fill="#3F2463"/>
<path d="M278.7 182.9C278.7 134.9 243.2 96 199.4 96C155.6 96 120.1 134.9 120.1 182.9C120.1 230.9 155.6 281.1 199.4 281.1C240.6 281.1 278.7 230.5 278.7 182.9Z" fill="#FFC6A6"/>
<path d="M116.5 128.5C116.5 128.5 107.7 159.9 115.2 190.7C115.2 190.7 172 196.5 194.7 188.6C194.7 188.6 206.7 165.1 206.7 134.8C206.7 134.8 210.1 171.7 203.6 188.6C203.6 188.6 210.2 190.2 212.7 186.7C215.2 183.3 233.4 153.5 227.8 115.3C227.8 115.3 257 160 255.7 188.6C255.7 188.6 265.4 185.8 267.3 171.1C267.3 171.1 272.5 184.1 272.1 190.7C272.1 190.7 274.5 193.1 283.3 188.6C283.3 188.6 297.4 98.0996 209.3 93.3996C209.3 93.3996 131 75.4996 116.5 128.5Z" fill="#3F2463"/>
<path d="M152.3 201.1C154.3 198.9 155.3 198.6 158.1 197.9C161.7 196.9 165.7 196.1 169.5 196.5C171.3 196.7 172.8 197.2 174 198.2C175.2 199.2 176.4 201.1 175.6 202.4C175.5 202.5 175.4 202.7 175.3 202.7C175 202.8 173.5 202.1 173.3 202C171.4 200.7 170.5 200.2 168.2 199.8C165 199.2 163.8 200 160.6 200.8C159.2 201.1 156.5 202 155.1 202C153.7 202.1 152.9 201.5 152.3 201.1Z" fill="black"/>
<path d="M249.1 201.1C247.1 198.9 246.1 198.6 243.3 197.9C239.7 196.9 235.7 196.1 231.9 196.5C230.1 196.7 228.6 197.2 227.4 198.2C226.3 199.3 225 201.1 225.8 202.4C225.9 202.5 226 202.7 226.1 202.7C226.4 202.8 227.9 202.1 228.1 202C230 200.7 230.9 200.2 233.2 199.8C236.4 199.2 237.6 200 240.8 200.8C242.2 201.1 244.9 202 246.3 202C247.6 202.1 248.5 201.5 249.1 201.1Z" fill="black"/>
<path d="M168.3 225.5C172.663 225.5 176.2 221.023 176.2 215.5C176.2 209.977 172.663 205.5 168.3 205.5C163.937 205.5 160.4 209.977 160.4 215.5C160.4 221.023 163.937 225.5 168.3 225.5Z" fill="black"/>
<path d="M235.1 225.5C239.463 225.5 243 221.023 243 215.5C243 209.977 239.463 205.5 235.1 205.5C230.737 205.5 227.2 209.977 227.2 215.5C227.2 221.023 230.737 225.5 235.1 225.5Z" fill="black"/>
<path d="M187.3 249.4C187 251.4 188 252.8 189.2 254.4C190.5 256 192.2 257.4 194.1 258.2C199.8 260.7 205.9 260 211 256.6C212.4 255.7 213.4 254.5 214.1 252.9C214.8 251.4 215.4 249.9 214.3 248.7C214.1 248.5 213.9 248.3 213.7 248.2C212.6 247.8 212.9 249.5 212.3 250.6C211.2 252.7 209.3 255.2 207.1 255.9C202.7 257.4 197.6 257 193.4 255.2C193 255.1 191.4 253.6 191.2 253.3C190.9 252.9 190.4 252.2 190.3 251.7C190.2 250.9 189.9 250.5 189.5 249.8C189.1 249 189.1 248 188.2 248C187.4 248 186.5 249.1 187.3 249.4Z" fill="black"/>
<path d="M166.8 211.2C167.518 211.2 168.1 210.618 168.1 209.9C168.1 209.182 167.518 208.6 166.8 208.6C166.082 208.6 165.5 209.182 165.5 209.9C165.5 210.618 166.082 211.2 166.8 211.2Z" fill="white"/>
<path d="M237.3 211.2C238.018 211.2 238.6 210.618 238.6 209.9C238.6 209.182 238.018 208.6 237.3 208.6C236.582 208.6 236 209.182 236 209.9C236 210.618 236.582 211.2 237.3 211.2Z" fill="white"/>
</svg>
