<svg width="35" height="41" viewBox="0 0 35 41" fill="none" xmlns="http://www.w3.org/2000/svg">
<path fill-rule="evenodd" clip-rule="evenodd" d="M12.0775 1.39469C13.6821 0.506297 15.5314 0 17.5 0C19.4686 0 21.3179 0.506297 22.9225 1.39469L24.0966 0.230935C24.4073 -0.0769783 24.9109 -0.0769783 25.2216 0.230935C25.5322 0.538848 25.5322 1.03807 25.2216 1.34599L24.2791 2.28015C26.9286 4.29803 28.6364 7.47057 28.6364 11.0385H6.36364C6.36364 7.47057 8.07139 4.29803 10.7209 2.28015L9.77844 1.34599C9.46779 1.03807 9.46779 0.538848 9.77844 0.230935C10.0891 -0.0769783 10.5927 -0.0769783 10.9034 0.230935L12.0775 1.39469ZM14.3182 6.30769C14.3182 7.1786 13.6059 7.88462 12.7273 7.88462C11.8486 7.88462 11.1364 7.1786 11.1364 6.30769C11.1364 5.43678 11.8486 4.73077 12.7273 4.73077C13.6059 4.73077 14.3182 5.43678 14.3182 6.30769ZM22.2727 7.88462C23.1514 7.88462 23.8636 7.1786 23.8636 6.30769C23.8636 5.43678 23.1514 4.73077 22.2727 4.73077C21.3941 4.73077 20.6818 5.43678 20.6818 6.30769C20.6818 7.1786 21.3941 7.88462 22.2727 7.88462Z" fill="black"/>
<path d="M0 14.9808C0 13.6744 1.06841 12.6154 2.38636 12.6154C3.70432 12.6154 4.77273 13.6744 4.77273 14.9808V24.4423C4.77273 25.7487 3.70432 26.8077 2.38636 26.8077C1.06841 26.8077 0 25.7487 0 24.4423V14.9808Z" fill="black"/>
<path d="M11.1364 33.1154V38.6346C11.1364 39.941 12.2048 41 13.5227 41C14.8407 41 15.9091 39.941 15.9091 38.6346V33.1154H19.0909V38.6346C19.0909 39.941 20.1593 41 21.4773 41C22.7952 41 23.8636 39.941 23.8636 38.6346V33.1154H25.4545C27.2118 33.1154 28.6364 31.7034 28.6364 29.9615V12.6154H6.36364V29.9615C6.36364 31.7034 7.78819 33.1154 9.54545 33.1154H11.1364Z" fill="black"/>
<path d="M30.2273 14.9808C30.2273 13.6744 31.2957 12.6154 32.6136 12.6154C33.9316 12.6154 35 13.6744 35 14.9808V24.4423C35 25.7487 33.9316 26.8077 32.6136 26.8077C31.2957 26.8077 30.2273 25.7487 30.2273 24.4423V14.9808Z" fill="black"/>
</svg>
