<svg width="34" height="39" viewBox="0 0 34 39" fill="none" xmlns="http://www.w3.org/2000/svg">
<path d="M32.9366 13.3024C32.751 13.411 28.3343 15.7036 28.3343 20.7866C28.5425 26.5836 33.908 28.6166 34 28.6166C33.908 28.7252 33.19 31.3859 31.0631 34.1751C29.3751 36.5777 27.5017 39 24.6568 39C21.9506 39 20.9792 37.3987 17.8567 37.3987C14.5035 37.3987 13.5547 39 10.9873 39C8.14244 39 6.13019 36.4479 4.35023 34.0679C2.03781 30.9528 0.0723176 26.0644 0.00292968 21.3707C-0.0438317 18.8835 0.466018 16.4386 1.76025 14.3619C3.58697 11.4627 6.8482 9.49465 10.4096 9.42975C13.1384 9.34369 15.5669 11.182 17.2323 11.182C18.8282 11.182 21.8119 9.42975 25.1877 9.42975C26.6449 9.43116 30.5306 9.8417 32.9366 13.3024ZM17.0015 8.93315C16.5158 6.66177 17.8567 4.39039 19.1057 2.94151C20.7017 1.1893 23.2222 0 25.3959 0C25.5347 2.27138 24.6553 4.49902 23.0835 6.12144C21.6731 7.87364 19.2445 9.19274 17.0015 8.93315Z" fill="black"/>
</svg>
