<svg width="71" height="71" viewBox="0 0 71 71" fill="none" xmlns="http://www.w3.org/2000/svg">
<rect width="71" height="71" rx="22" fill="url(#paint0_linear_237_107)"/>
<path d="M26.966 27.666L22.522 43H20.278L16.714 30.658L13.018 43L10.796 43.022L6.506 27.666H8.64L11.984 40.668L15.68 27.666H17.924L21.444 40.624L24.81 27.666H26.966ZM40.1569 36.51C40.1569 36.8913 40.1349 37.2947 40.0909 37.72H30.4549C30.5282 38.908 30.9316 39.8393 31.6649 40.514C32.4129 41.174 33.3149 41.504 34.3709 41.504C35.2362 41.504 35.9549 41.306 36.5269 40.91C37.1136 40.4993 37.5242 39.9567 37.7589 39.282H39.9149C39.5922 40.4407 38.9469 41.3867 37.9789 42.12C37.0109 42.8387 35.8082 43.198 34.3709 43.198C33.2269 43.198 32.2002 42.9413 31.2909 42.428C30.3962 41.9147 29.6922 41.1887 29.1789 40.25C28.6656 39.2967 28.4089 38.1967 28.4089 36.95C28.4089 35.7033 28.6582 34.6107 29.1569 33.672C29.6556 32.7333 30.3522 32.0147 31.2469 31.516C32.1562 31.0027 33.1976 30.746 34.3709 30.746C35.5149 30.746 36.5269 30.9953 37.4069 31.494C38.2869 31.9927 38.9616 32.682 39.4309 33.562C39.9149 34.4273 40.1569 35.41 40.1569 36.51ZM38.0889 36.092C38.0889 35.3293 37.9202 34.6767 37.5829 34.134C37.2456 33.5767 36.7836 33.1587 36.1969 32.88C35.6249 32.5867 34.9869 32.44 34.2829 32.44C33.2709 32.44 32.4056 32.7627 31.6869 33.408C30.9829 34.0533 30.5796 34.948 30.4769 36.092H38.0889ZM42.0515 36.928C42.0515 35.696 42.3008 34.618 42.7995 33.694C43.2981 32.7553 43.9801 32.0293 44.8455 31.516C45.7255 31.0027 46.7008 30.746 47.7715 30.746C48.8275 30.746 49.7441 30.9733 50.5215 31.428C51.2988 31.8827 51.8781 32.4547 52.2595 33.144V30.944H54.2835V43H52.2595V40.756C51.8635 41.46 51.2695 42.0467 50.4775 42.516C49.7001 42.9707 48.7908 43.198 47.7495 43.198C46.6788 43.198 45.7108 42.934 44.8455 42.406C43.9801 41.878 43.2981 41.1373 42.7995 40.184C42.3008 39.2307 42.0515 38.1453 42.0515 36.928ZM52.2595 36.95C52.2595 36.0407 52.0761 35.2487 51.7095 34.574C51.3428 33.8993 50.8441 33.386 50.2135 33.034C49.5975 32.6673 48.9155 32.484 48.1675 32.484C47.4195 32.484 46.7375 32.66 46.1215 33.012C45.5055 33.364 45.0141 33.8773 44.6475 34.552C44.2808 35.2267 44.0975 36.0187 44.0975 36.928C44.0975 37.852 44.2808 38.6587 44.6475 39.348C45.0141 40.0227 45.5055 40.5433 46.1215 40.91C46.7375 41.262 47.4195 41.438 48.1675 41.438C48.9155 41.438 49.5975 41.262 50.2135 40.91C50.8441 40.5433 51.3428 40.0227 51.7095 39.348C52.0761 38.6587 52.2595 37.8593 52.2595 36.95ZM59.6687 32.902C60.0207 32.2127 60.5193 31.6773 61.1647 31.296C61.8247 30.9147 62.624 30.724 63.5627 30.724V32.792H63.0347C60.7907 32.792 59.6687 34.0093 59.6687 36.444V43H57.6667V30.944H59.6687V32.902Z" fill="white"/>
<defs>
<linearGradient id="paint0_linear_237_107" x1="35.5" y1="0" x2="35.5" y2="71" gradientUnits="userSpaceOnUse">
<stop stop-color="#4D71ED"/>
<stop offset="1" stop-color="#162C77"/>
</linearGradient>
</defs>
</svg>
