<svg width="1536" height="834" viewBox="0 0 1534 834" fill="none" xmlns="http://www.w3.org/2000/svg">
<path d="M0.5 -7.5H1535.5V825.5H0.5V-7.5Z" fill="url(#paint0_linear_510_305)" stroke="white"/>
<mask id="mask0_510_305" style="mask-type:luminance" maskUnits="userSpaceOnUse" x="-59" y="-41" width="429" height="430">
<path d="M-59 -41H369.38V388.333H-59V-41Z" fill="white"/>
</mask>
<g mask="url(#mask0_510_305)">
<path d="M160.344 74.078C160.672 77.0676 161.12 80.0364 161.698 82.9843C162.276 85.9374 162.979 88.8593 163.802 91.7499C164.625 94.6405 165.573 97.4895 166.635 100.302C167.703 103.115 168.885 105.875 170.182 108.588C171.484 111.297 172.896 113.948 174.417 116.542C175.943 119.13 177.568 121.656 179.307 124.109C181.042 126.562 182.88 128.937 184.818 131.234C186.755 133.536 188.786 135.745 190.911 137.87C193.036 140 195.245 142.031 197.542 143.969C199.839 145.906 202.214 147.745 204.667 149.484C207.12 151.224 209.641 152.854 212.229 154.375C214.818 155.901 217.469 157.312 220.177 158.615C222.891 159.911 225.646 161.099 228.458 162.161C231.266 163.229 234.115 164.172 237.005 165C239.896 165.823 242.812 166.526 245.766 167.104C248.714 167.682 251.682 168.13 254.667 168.458C292.766 172.26 330.958 174 369.245 173.687C330.958 173.37 292.766 175.115 254.667 178.911C251.682 179.24 248.714 179.693 245.766 180.271C242.812 180.844 239.896 181.547 237.005 182.375C234.115 183.198 231.266 184.141 228.458 185.208C225.646 186.276 222.891 187.458 220.177 188.76C217.469 190.057 214.818 191.469 212.229 192.995C209.641 194.521 207.12 196.151 204.667 197.885C202.214 199.625 199.839 201.463 197.542 203.401C195.25 205.344 193.036 207.375 190.911 209.5C188.786 211.625 186.755 213.838 184.818 216.135C182.88 218.432 181.042 220.807 179.307 223.266C177.573 225.719 175.943 228.24 174.417 230.833C172.896 233.422 171.484 236.073 170.182 238.786C168.885 241.495 167.703 244.26 166.635 247.068C165.573 249.88 164.625 252.729 163.802 255.625C162.979 258.516 162.276 261.437 161.698 264.385C161.12 267.338 160.672 270.307 160.344 273.297C156.547 311.417 154.807 349.635 155.12 387.948C155.438 349.635 153.693 311.417 149.896 273.297C149.573 270.307 149.12 267.338 148.542 264.385C147.964 261.437 147.266 258.516 146.443 255.625C145.615 252.729 144.672 249.88 143.604 247.068C142.542 244.255 141.359 241.495 140.057 238.786C138.76 236.073 137.349 233.422 135.828 230.828C134.302 228.24 132.672 225.713 130.938 223.26C129.198 220.807 127.365 218.432 125.427 216.135C123.49 213.838 121.458 211.625 119.333 209.5C117.208 207.375 114.995 205.338 112.698 203.401C110.401 201.463 108.031 199.625 105.578 197.885C103.125 196.146 100.604 194.516 98.0156 192.995C95.4219 191.469 92.776 190.057 90.0677 188.755C87.3542 187.458 84.5938 186.271 81.7865 185.208C78.9792 184.141 76.1302 183.193 73.2396 182.37C70.349 181.547 67.4323 180.844 64.4792 180.266C61.5312 179.687 58.5625 179.234 55.5781 178.911C17.4792 175.109 -20.7135 173.37 -59 173.682C-20.7135 174 17.4792 172.255 55.5781 168.458C58.5625 168.13 61.5312 167.677 64.4792 167.099C67.4271 166.521 70.349 165.823 73.2396 164.995C76.125 164.172 78.9792 163.224 81.7865 162.161C84.5938 161.094 87.3542 159.911 90.0625 158.609C92.776 157.312 95.4219 155.901 98.0156 154.375C100.604 152.849 103.125 151.219 105.578 149.484C108.026 147.745 110.401 145.906 112.698 143.969C114.995 142.026 117.208 139.995 119.333 137.87C121.453 135.745 123.484 133.531 125.422 131.234C127.359 128.937 129.198 126.562 130.938 124.109C132.672 121.651 134.302 119.13 135.823 116.542C137.349 113.948 138.76 111.297 140.057 108.583C141.359 105.875 142.542 103.115 143.604 100.302C144.672 97.4895 145.615 94.6405 146.438 91.7499C147.266 88.8593 147.964 85.9374 148.542 82.9843C149.12 80.0364 149.573 77.0676 149.896 74.078C153.693 35.953 155.438 -2.26571 155.12 -40.573C154.807 -2.26571 156.547 35.953 160.344 74.078Z" fill="#FFDA7A"/>
</g>
<mask id="mask1_510_305" style="mask-type:luminance" maskUnits="userSpaceOnUse" x="288" y="173" width="217" height="219">
<path d="M288.047 173.667H505V391H288.047V173.667Z" fill="white"/>
</mask>
<g mask="url(#mask1_510_305)">
<path d="M399.401 231.703C399.568 233.214 399.797 234.719 400.089 236.214C400.38 237.703 400.734 239.183 401.151 240.646C401.568 242.11 402.047 243.552 402.589 244.974C403.125 246.396 403.724 247.792 404.38 249.167C405.037 250.537 405.755 251.881 406.526 253.193C407.297 254.506 408.12 255.782 409 257.021C409.875 258.261 410.807 259.464 411.787 260.631C412.766 261.792 413.797 262.912 414.87 263.985C415.948 265.063 417.063 266.089 418.229 267.073C419.391 268.052 420.589 268.985 421.833 269.865C423.073 270.74 424.349 271.568 425.656 272.339C426.969 273.11 428.307 273.823 429.682 274.485C431.052 275.141 432.448 275.74 433.87 276.276C435.292 276.818 436.734 277.297 438.198 277.714C439.656 278.131 441.135 278.485 442.625 278.776C444.12 279.073 445.62 279.302 447.135 279.464C466.412 281.386 485.74 282.266 505.115 282.11C485.74 281.953 466.412 282.834 447.135 284.756C445.62 284.917 444.12 285.146 442.625 285.438C441.135 285.729 439.656 286.089 438.198 286.506C436.734 286.922 435.292 287.401 433.87 287.938C432.448 288.479 431.052 289.078 429.682 289.735C428.307 290.391 426.969 291.11 425.656 291.881C424.349 292.651 423.073 293.474 421.833 294.354C420.589 295.235 419.391 296.167 418.229 297.146C417.063 298.125 415.948 299.157 414.87 300.229C413.797 301.308 412.766 302.427 411.787 303.589C410.807 304.756 409.875 305.953 409 307.198C408.12 308.438 407.297 309.714 406.526 311.026C405.755 312.339 405.037 313.677 404.38 315.052C403.724 316.422 403.125 317.823 402.589 319.245C402.047 320.667 401.568 322.11 401.151 323.573C400.734 325.037 400.38 326.516 400.089 328.006C399.797 329.5 399.568 331 399.401 332.516C397.479 351.808 396.599 371.146 396.76 390.537C396.917 371.146 396.037 351.808 394.115 332.516C393.948 331 393.719 329.5 393.427 328.006C393.135 326.511 392.781 325.037 392.365 323.573C391.948 322.11 391.469 320.667 390.932 319.245C390.391 317.823 389.792 316.422 389.135 315.052C388.479 313.677 387.766 312.339 386.995 311.026C386.224 309.714 385.396 308.438 384.521 307.198C383.641 305.953 382.708 304.75 381.729 303.589C380.75 302.427 379.719 301.308 378.646 300.229C377.573 299.157 376.453 298.125 375.292 297.146C374.13 296.167 372.927 295.235 371.688 294.354C370.443 293.474 369.167 292.651 367.859 291.881C366.547 291.11 365.208 290.391 363.833 289.735C362.464 289.078 361.068 288.479 359.646 287.938C358.224 287.401 356.781 286.922 355.323 286.506C353.859 286.089 352.38 285.729 350.891 285.438C349.396 285.146 347.896 284.917 346.385 284.756C327.104 282.834 307.776 281.953 288.401 282.11C307.776 282.266 327.104 281.386 346.385 279.464C347.896 279.302 349.396 279.073 350.891 278.782C352.38 278.485 353.859 278.131 355.323 277.714C356.781 277.297 358.224 276.818 359.646 276.276C361.068 275.74 362.464 275.141 363.833 274.485C365.208 273.823 366.547 273.11 367.859 272.339C369.167 271.568 370.443 270.745 371.688 269.865C372.927 268.985 374.13 268.052 375.292 267.073C376.453 266.089 377.573 265.063 378.646 263.985C379.719 262.912 380.75 261.792 381.729 260.631C382.708 259.464 383.641 258.266 384.521 257.021C385.396 255.782 386.224 254.506 386.995 253.193C387.766 251.881 388.479 250.537 389.135 249.167C389.792 247.797 390.391 246.396 390.932 244.974C391.469 243.552 391.948 242.11 392.365 240.646C392.781 239.183 393.135 237.703 393.427 236.214C393.719 234.719 393.948 233.214 394.115 231.703C396.042 212.412 396.927 193.073 396.771 173.683C396.609 193.068 397.484 212.412 399.401 231.703Z" fill="#FFDA7A"/>
</g>
<path d="M317.953 17.7393C318.156 19.5882 318.511 21.4111 319.021 23.1976C319.531 24.9893 320.188 26.7236 320.99 28.4007C321.797 30.0778 322.735 31.6768 323.813 33.1976C324.886 34.7184 326.078 36.1351 327.396 37.4476C328.714 38.7653 330.13 39.9632 331.646 41.0361C333.162 42.1143 334.761 43.0518 336.438 43.8591C338.115 44.6611 339.849 45.3226 341.636 45.833C343.427 46.3434 345.245 46.6976 347.094 46.9007C358.865 48.0726 370.667 48.6143 382.495 48.5153C370.667 48.4164 358.865 48.958 347.094 50.1299C345.245 50.333 343.427 50.6872 341.636 51.1976C339.849 51.708 338.115 52.3643 336.438 53.1716C334.761 53.9736 333.162 54.9164 331.646 55.9945C330.125 57.0674 328.709 58.2653 327.396 59.583C326.078 60.8955 324.886 62.3122 323.813 63.833C322.735 65.3539 321.797 66.9528 320.99 68.6299C320.188 70.307 319.531 72.0414 319.021 73.833C318.511 75.6195 318.151 77.4424 317.953 79.2914C316.781 91.0726 316.24 102.88 316.339 114.713C316.438 102.88 315.896 91.0726 314.724 79.2914C314.521 77.4424 314.167 75.6195 313.656 73.833C313.146 72.0414 312.49 70.307 311.682 68.6299C310.88 66.9528 309.938 65.3539 308.865 63.833C307.792 62.3122 306.594 60.8955 305.281 59.583C303.964 58.2653 302.547 57.0674 301.031 55.9945C299.511 54.9164 297.912 53.9736 296.235 53.1716C294.557 52.3643 292.828 51.708 291.037 51.1976C289.25 50.6872 287.427 50.333 285.578 50.1299C273.807 48.958 262.005 48.4164 250.177 48.5153C262.005 48.6143 273.807 48.0726 285.578 46.9007C287.427 46.6976 289.245 46.3434 291.037 45.8278C292.823 45.3174 294.557 44.6611 296.235 43.8538C297.912 43.0518 299.505 42.1091 301.026 41.0361C302.542 39.958 303.959 38.7653 305.271 37.4476C306.589 36.1299 307.781 34.7132 308.854 33.1924C309.932 31.6768 310.87 30.0778 311.672 28.4007C312.479 26.7236 313.136 24.9893 313.646 23.1976C314.156 21.4111 314.511 19.5882 314.714 17.7393C315.891 5.95801 316.432 -5.85449 316.339 -17.6982C316.24 -5.85449 316.776 5.95801 317.953 17.7393Z" fill="#FFDA7A"/>
<mask id="mask2_510_305" style="mask-type:luminance" maskUnits="userSpaceOnUse" x="1083" y="474" width="429" height="430">
<path d="M1083 474H1511.38V903.333H1083V474Z" fill="white"/>
</mask>
<g mask="url(#mask2_510_305)">
<path d="M1302.34 589.078C1302.67 592.068 1303.12 595.036 1303.7 597.984C1304.28 600.937 1304.98 603.859 1305.8 606.75C1306.62 609.641 1307.57 612.49 1308.64 615.302C1309.7 618.115 1310.89 620.875 1312.18 623.588C1313.48 626.297 1314.9 628.948 1316.42 631.542C1317.94 634.13 1319.57 636.656 1321.31 639.109C1323.04 641.562 1324.88 643.937 1326.82 646.234C1328.76 648.536 1330.79 650.745 1332.91 652.87C1335.04 655 1337.24 657.031 1339.54 658.969C1341.84 660.906 1344.21 662.745 1346.67 664.484C1349.12 666.224 1351.64 667.854 1354.23 669.375C1356.82 670.901 1359.47 672.312 1362.18 673.615C1364.89 674.911 1367.65 676.099 1370.46 677.161C1373.27 678.229 1376.11 679.172 1379.01 680C1381.9 680.823 1384.81 681.526 1387.77 682.104C1390.71 682.682 1393.68 683.13 1396.67 683.458C1434.77 687.26 1472.96 689 1511.24 688.687C1472.96 688.37 1434.77 690.115 1396.67 693.911C1393.68 694.24 1390.71 694.693 1387.77 695.271C1384.81 695.844 1381.9 696.547 1379.01 697.375C1376.11 698.198 1373.27 699.141 1370.46 700.208C1367.65 701.276 1364.89 702.458 1362.18 703.76C1359.47 705.057 1356.82 706.469 1354.23 707.995C1351.64 709.521 1349.12 711.151 1346.67 712.885C1344.21 714.625 1341.84 716.463 1339.54 718.401C1337.25 720.344 1335.04 722.375 1332.91 724.5C1330.79 726.625 1328.76 728.838 1326.82 731.135C1324.88 733.432 1323.04 735.807 1321.31 738.266C1319.57 740.719 1317.94 743.24 1316.42 745.833C1314.9 748.422 1313.48 751.073 1312.18 753.786C1310.89 756.495 1309.7 759.26 1308.64 762.068C1307.57 764.88 1306.62 767.729 1305.8 770.625C1304.98 773.516 1304.28 776.437 1303.7 779.385C1303.12 782.338 1302.67 785.307 1302.34 788.297C1298.55 826.417 1296.81 864.635 1297.12 902.948C1297.44 864.635 1295.69 826.417 1291.9 788.297C1291.57 785.307 1291.12 782.338 1290.54 779.385C1289.96 776.437 1289.27 773.516 1288.44 770.625C1287.61 767.729 1286.67 764.88 1285.6 762.068C1284.54 759.255 1283.36 756.495 1282.06 753.786C1280.76 751.073 1279.35 748.422 1277.83 745.828C1276.3 743.24 1274.67 740.713 1272.94 738.26C1271.2 735.807 1269.36 733.432 1267.43 731.135C1265.49 728.838 1263.46 726.625 1261.33 724.5C1259.21 722.375 1256.99 720.338 1254.7 718.401C1252.4 716.463 1250.03 714.625 1247.58 712.885C1245.12 711.146 1242.6 709.516 1240.02 707.995C1237.42 706.469 1234.78 705.057 1232.07 703.755C1229.35 702.458 1226.59 701.271 1223.79 700.208C1220.98 699.141 1218.13 698.193 1215.24 697.37C1212.35 696.547 1209.43 695.844 1206.48 695.266C1203.53 694.687 1200.56 694.234 1197.58 693.911C1159.48 690.109 1121.29 688.37 1083 688.682C1121.29 689 1159.48 687.255 1197.58 683.458C1200.56 683.13 1203.53 682.677 1206.48 682.099C1209.43 681.521 1212.35 680.823 1215.24 679.995C1218.12 679.172 1220.98 678.224 1223.79 677.161C1226.59 676.094 1229.35 674.911 1232.06 673.609C1234.78 672.312 1237.42 670.901 1240.02 669.375C1242.6 667.849 1245.12 666.219 1247.58 664.484C1250.03 662.745 1252.4 660.906 1254.7 658.969C1256.99 657.026 1259.21 654.995 1261.33 652.87C1263.45 650.745 1265.48 648.531 1267.42 646.234C1269.36 643.937 1271.2 641.562 1272.94 639.109C1274.67 636.651 1276.3 634.13 1277.82 631.542C1279.35 628.948 1280.76 626.297 1282.06 623.583C1283.36 620.875 1284.54 618.115 1285.6 615.302C1286.67 612.49 1287.61 609.641 1288.44 606.75C1289.27 603.859 1289.96 600.937 1290.54 597.984C1291.12 595.036 1291.57 592.068 1291.9 589.078C1295.69 550.953 1297.44 512.734 1297.12 474.427C1296.81 512.734 1298.55 550.953 1302.34 589.078Z" fill="#FFDA7A"/>
</g>
<mask id="mask3_510_305" style="mask-type:luminance" maskUnits="userSpaceOnUse" x="1430" y="688" width="217" height="219">
<path d="M1430.05 688.667H1647V906H1430.05V688.667Z" fill="white"/>
</mask>
<g mask="url(#mask3_510_305)">
<path d="M1541.4 746.703C1541.57 748.214 1541.8 749.719 1542.09 751.214C1542.38 752.703 1542.73 754.183 1543.15 755.646C1543.57 757.11 1544.05 758.552 1544.59 759.974C1545.12 761.396 1545.72 762.792 1546.38 764.167C1547.04 765.537 1547.76 766.881 1548.53 768.193C1549.3 769.506 1550.12 770.782 1551 772.021C1551.87 773.261 1552.81 774.464 1553.79 775.631C1554.77 776.792 1555.8 777.912 1556.87 778.985C1557.95 780.063 1559.06 781.089 1560.23 782.073C1561.39 783.052 1562.59 783.985 1563.83 784.865C1565.07 785.74 1566.35 786.568 1567.66 787.339C1568.97 788.11 1570.31 788.823 1571.68 789.485C1573.05 790.141 1574.45 790.74 1575.87 791.276C1577.29 791.818 1578.73 792.297 1580.2 792.714C1581.66 793.131 1583.14 793.485 1584.62 793.776C1586.12 794.073 1587.62 794.302 1589.14 794.464C1608.41 796.386 1627.74 797.266 1647.11 797.11C1627.74 796.953 1608.41 797.834 1589.14 799.756C1587.62 799.917 1586.12 800.146 1584.62 800.438C1583.14 800.729 1581.66 801.089 1580.2 801.506C1578.73 801.922 1577.29 802.401 1575.87 802.938C1574.45 803.479 1573.05 804.078 1571.68 804.735C1570.31 805.391 1568.97 806.11 1567.66 806.881C1566.35 807.651 1565.07 808.474 1563.83 809.354C1562.59 810.235 1561.39 811.167 1560.23 812.146C1559.06 813.125 1557.95 814.157 1556.87 815.229C1555.8 816.308 1554.77 817.427 1553.79 818.589C1552.81 819.756 1551.87 820.953 1551 822.198C1550.12 823.438 1549.3 824.714 1548.53 826.026C1547.76 827.339 1547.04 828.677 1546.38 830.052C1545.72 831.422 1545.12 832.823 1544.59 834.245C1544.05 835.667 1543.57 837.11 1543.15 838.573C1542.73 840.037 1542.38 841.516 1542.09 843.006C1541.8 844.5 1541.57 846 1541.4 847.516C1539.48 866.808 1538.6 886.146 1538.76 905.537C1538.92 886.146 1538.04 866.808 1536.11 847.516C1535.95 846 1535.72 844.5 1535.43 843.006C1535.14 841.511 1534.78 840.037 1534.36 838.573C1533.95 837.11 1533.47 835.667 1532.93 834.245C1532.39 832.823 1531.79 831.422 1531.14 830.052C1530.48 828.677 1529.77 827.339 1528.99 826.026C1528.22 824.714 1527.4 823.438 1526.52 822.198C1525.64 820.953 1524.71 819.75 1523.73 818.589C1522.75 817.427 1521.72 816.308 1520.65 815.229C1519.57 814.157 1518.45 813.125 1517.29 812.146C1516.13 811.167 1514.93 810.235 1513.69 809.354C1512.44 808.474 1511.17 807.651 1509.86 806.881C1508.55 806.11 1507.21 805.391 1505.83 804.735C1504.46 804.078 1503.07 803.479 1501.65 802.938C1500.22 802.401 1498.78 801.922 1497.32 801.506C1495.86 801.089 1494.38 800.729 1492.89 800.438C1491.4 800.146 1489.9 799.917 1488.39 799.756C1469.1 797.834 1449.78 796.953 1430.4 797.11C1449.78 797.266 1469.1 796.386 1488.39 794.464C1489.9 794.302 1491.4 794.073 1492.89 793.782C1494.38 793.485 1495.86 793.131 1497.32 792.714C1498.78 792.297 1500.22 791.818 1501.65 791.276C1503.07 790.74 1504.46 790.141 1505.83 789.485C1507.21 788.823 1508.55 788.11 1509.86 787.339C1511.17 786.568 1512.44 785.745 1513.69 784.865C1514.93 783.985 1516.13 783.052 1517.29 782.073C1518.45 781.089 1519.57 780.063 1520.65 778.985C1521.72 777.912 1522.75 776.792 1523.73 775.631C1524.71 774.464 1525.64 773.266 1526.52 772.021C1527.4 770.782 1528.22 769.506 1528.99 768.193C1529.77 766.881 1530.48 765.537 1531.14 764.167C1531.79 762.797 1532.39 761.396 1532.93 759.974C1533.47 758.552 1533.95 757.11 1534.36 755.646C1534.78 754.183 1535.14 752.703 1535.43 751.214C1535.72 749.719 1535.95 748.214 1536.11 746.703C1538.04 727.412 1538.93 708.073 1538.77 688.683C1538.61 708.068 1539.48 727.412 1541.4 746.703Z" fill="#FFDA7A"/>
</g>
<path d="M1459.95 532.739C1460.16 534.588 1460.51 536.411 1461.02 538.198C1461.53 539.989 1462.19 541.724 1462.99 543.401C1463.8 545.078 1464.73 546.677 1465.81 548.198C1466.89 549.718 1468.08 551.135 1469.4 552.448C1470.71 553.765 1472.13 554.963 1473.65 556.036C1475.16 557.114 1476.76 558.052 1478.44 558.859C1480.11 559.661 1481.85 560.323 1483.64 560.833C1485.43 561.343 1487.24 561.698 1489.09 561.901C1500.86 563.073 1512.67 563.614 1524.49 563.515C1512.67 563.416 1500.86 563.958 1489.09 565.13C1487.24 565.333 1485.43 565.687 1483.64 566.198C1481.85 566.708 1480.11 567.364 1478.44 568.172C1476.76 568.974 1475.16 569.916 1473.65 570.994C1472.13 572.067 1470.71 573.265 1469.4 574.583C1468.08 575.896 1466.89 577.312 1465.81 578.833C1464.73 580.354 1463.8 581.953 1462.99 583.63C1462.19 585.307 1461.53 587.041 1461.02 588.833C1460.51 590.619 1460.15 592.442 1459.95 594.291C1458.78 606.073 1458.24 617.88 1458.34 629.713C1458.44 617.88 1457.9 606.073 1456.72 594.291C1456.52 592.442 1456.17 590.619 1455.66 588.833C1455.15 587.041 1454.49 585.307 1453.68 583.63C1452.88 581.953 1451.94 580.354 1450.86 578.833C1449.79 577.312 1448.59 575.896 1447.28 574.583C1445.96 573.265 1444.55 572.067 1443.03 570.994C1441.51 569.916 1439.91 568.974 1438.23 568.172C1436.56 567.364 1434.83 566.708 1433.04 566.198C1431.25 565.687 1429.43 565.333 1427.58 565.13C1415.81 563.958 1404.01 563.416 1392.18 563.515C1404.01 563.614 1415.81 563.073 1427.58 561.901C1429.43 561.698 1431.24 561.343 1433.04 560.828C1434.82 560.317 1436.56 559.661 1438.23 558.854C1439.91 558.052 1441.51 557.109 1443.03 556.036C1444.54 554.958 1445.96 553.765 1447.27 552.448C1448.59 551.13 1449.78 549.713 1450.85 548.192C1451.93 546.677 1452.87 545.078 1453.67 543.401C1454.48 541.724 1455.14 539.989 1455.65 538.198C1456.16 536.411 1456.51 534.588 1456.71 532.739C1457.89 520.958 1458.43 509.146 1458.34 497.302C1458.24 509.146 1458.78 520.958 1459.95 532.739Z" fill="#FFDA7A"/>
<defs>
<linearGradient id="paint0_linear_510_305" x1="768" y1="-8" x2="768" y2="826" gradientUnits="userSpaceOnUse">
<stop stop-color="#270D07"/>
<stop offset="1" stop-color="#A23E27"/>
</linearGradient>
</defs>
</svg>
