<svg width="350" height="326" viewBox="0 0 350 316" fill="none" xmlns="http://www.w3.org/2000/svg">
<path fill-rule="evenodd" clip-rule="evenodd" d="M349.989 236.889C349.278 280.457 313.738 315.556 270 315.556H80C35.8172 315.556 0 279.739 0 235.556V174.195C65.0689 95.5211 187.941 42.9419 350 0V235.36L349.989 236.889Z" fill="#42030A"/>
<mask id="mask0_381_210" style="mask-type:luminance" maskUnits="userSpaceOnUse" x="245" y="239" width="71" height="50">
<path d="M245.21 269.922L306.615 239.934L315.858 258.86L254.453 288.848L245.21 269.922Z" fill="white"/>
</mask>
<g mask="url(#mask0_381_210)">
<path d="M311.316 249.7C311.462 250.001 311.56 250.325 311.609 250.673C311.653 251.02 311.653 251.392 311.601 251.781C311.55 252.174 311.45 252.582 311.297 253.012C311.148 253.443 310.948 253.892 310.702 254.354C310.454 254.821 310.157 255.304 309.815 255.8C309.473 256.296 309.082 256.807 308.648 257.326C308.211 257.851 307.732 258.384 307.208 258.925C306.687 259.47 306.125 260.021 305.52 260.581C304.914 261.14 304.267 261.703 303.585 262.274C302.907 262.844 302.187 263.416 301.437 263.99C300.684 264.565 299.899 265.139 299.083 265.711C298.269 266.286 297.427 266.857 296.554 267.426C295.684 267.994 294.79 268.556 293.875 269.111C292.957 269.668 292.021 270.215 291.065 270.756C290.11 271.292 289.14 271.822 288.158 272.336C287.174 272.856 286.181 273.358 285.175 273.849C284.172 274.339 283.166 274.813 282.151 275.27C281.141 275.728 280.127 276.167 279.117 276.591C278.103 277.013 277.096 277.414 276.092 277.796C275.092 278.176 274.099 278.536 273.113 278.874C272.131 279.211 271.162 279.524 270.208 279.812C269.256 280.104 268.321 280.37 267.404 280.611C266.49 280.849 265.596 281.065 264.726 281.252C263.86 281.437 263.019 281.601 262.205 281.734C261.392 281.868 260.612 281.972 259.861 282.048C259.109 282.13 258.397 282.179 257.715 282.2C257.038 282.223 256.395 282.217 255.794 282.182C255.192 282.147 254.629 282.084 254.108 281.993C253.589 281.904 253.115 281.785 252.684 281.637C252.25 281.493 251.867 281.321 251.527 281.12C251.188 280.922 250.891 280.695 250.648 280.445C250.403 280.193 250.207 279.916 250.061 279.615C249.914 279.315 249.816 278.99 249.767 278.642C249.718 278.294 249.723 277.923 249.776 277.534C249.826 277.142 249.926 276.734 250.078 276.301C250.228 275.872 250.425 275.425 250.673 274.958C250.922 274.494 251.219 274.012 251.561 273.516C251.903 273.02 252.294 272.509 252.729 271.989C253.165 271.465 253.641 270.933 254.166 270.387C254.69 269.846 255.251 269.294 255.857 268.735C256.462 268.175 257.107 267.609 257.787 267.043C258.469 266.472 259.189 265.9 259.939 265.326C260.693 264.75 261.477 264.176 262.291 263.601C263.107 263.03 263.949 262.459 264.819 261.891C265.692 261.322 266.586 260.76 267.501 260.205C268.419 259.648 269.355 259.1 270.311 258.559C271.266 258.024 272.236 257.494 273.217 256.976C274.202 256.46 275.195 255.958 276.198 255.468C277.204 254.977 278.211 254.502 279.224 254.042C280.235 253.587 281.25 253.148 282.259 252.724C283.273 252.303 284.281 251.902 285.284 251.52C286.284 251.139 287.277 250.78 288.26 250.443C289.246 250.104 290.214 249.792 291.166 249.5C292.12 249.211 293.055 248.945 293.972 248.705C294.886 248.466 295.78 248.25 296.646 248.066C297.514 247.875 298.357 247.715 299.171 247.581C299.984 247.448 300.765 247.344 301.513 247.264C302.264 247.187 302.979 247.137 303.661 247.115C304.338 247.092 304.981 247.098 305.583 247.133C306.184 247.168 306.747 247.231 307.266 247.319C307.784 247.413 308.261 247.531 308.691 247.675C309.126 247.822 309.509 247.994 309.85 248.196C310.189 248.394 310.48 248.619 310.729 248.87C310.973 249.123 311.169 249.4 311.316 249.7Z" fill="#A00A0D"/>
</g>
<mask id="mask1_381_210" style="mask-type:luminance" maskUnits="userSpaceOnUse" x="217" y="183" width="95" height="98">
<path d="M217.685 213.563L279.091 183.574L311.858 250.669L250.453 280.657L217.685 213.563Z" fill="white"/>
</mask>
<g mask="url(#mask1_381_210)">
<path d="M217.954 213.873L279.209 183.958L311.589 250.259L250.334 280.174L217.954 213.873Z" fill="#A00A0D"/>
</g>
<mask id="mask2_381_210" style="mask-type:luminance" maskUnits="userSpaceOnUse" x="220" y="188" width="72" height="52">
<path d="M220.307 218.93L281.712 188.942L291.761 209.517L230.355 239.506L220.307 218.93Z" fill="white"/>
</mask>
<g mask="url(#mask2_381_210)">
<path d="M255.671 213.436C239.386 221.389 224.216 224.072 220.894 219.734L220.831 219.765L225.842 230.025L225.905 229.994C229.228 234.335 244.399 231.652 260.683 223.7C276.967 215.747 288.414 205.43 287.034 200.14L287.097 200.11L282.086 189.85L282.023 189.881C283.402 195.167 271.955 205.483 255.671 213.436Z" fill="#EE87B4"/>
</g>
<mask id="mask3_381_210" style="mask-type:luminance" maskUnits="userSpaceOnUse" x="212" y="173" width="72" height="51">
<path d="M212.88 203.722L274.285 173.734L283.897 193.415L222.491 223.403L212.88 203.722Z" fill="white"/>
</mask>
<g mask="url(#mask3_381_210)">
<path d="M279.049 183.629C279.195 183.93 279.293 184.254 279.342 184.603C279.388 184.953 279.386 185.321 279.333 185.711C279.283 186.103 279.183 186.511 279.031 186.944C278.881 187.373 278.681 187.821 278.436 188.287C278.187 188.751 277.89 189.233 277.548 189.729C277.206 190.225 276.815 190.736 276.381 191.256C275.944 191.78 275.464 192.313 274.943 192.858C274.419 193.399 273.858 193.95 273.252 194.51C272.647 195.07 272.002 195.636 271.318 196.203C270.64 196.773 269.92 197.345 269.17 197.919C268.417 198.495 267.632 199.068 266.818 199.643C266.002 200.215 265.16 200.786 264.287 201.356C263.417 201.923 262.523 202.485 261.608 203.04C260.69 203.597 259.754 204.145 258.798 204.685C257.843 205.221 256.873 205.751 255.892 206.269C254.907 206.785 253.914 207.287 252.908 207.778C251.905 208.268 250.898 208.742 249.885 209.203C248.874 209.657 247.859 210.097 246.85 210.52C245.836 210.942 244.828 211.343 243.825 211.725C242.825 212.105 241.832 212.465 240.846 212.804C239.863 213.141 238.895 213.453 237.943 213.745C236.989 214.034 236.054 214.3 235.137 214.54C234.223 214.778 233.329 214.994 232.459 215.181C231.595 215.37 230.752 215.53 229.938 215.664C229.125 215.797 228.344 215.901 227.596 215.981C226.842 216.059 226.13 216.108 225.448 216.13C224.771 216.153 224.128 216.147 223.526 216.112C222.925 216.076 222.362 216.014 221.843 215.925C221.322 215.834 220.848 215.714 220.418 215.569C219.983 215.423 219.6 215.25 219.259 215.049C218.92 214.851 218.625 214.627 218.381 214.375C218.136 214.122 217.94 213.845 217.793 213.545C217.647 213.244 217.549 212.92 217.5 212.571C217.453 212.227 217.456 211.853 217.509 211.464C217.559 211.071 217.659 210.663 217.812 210.233C217.961 209.802 218.158 209.355 218.407 208.891C218.655 208.424 218.952 207.941 219.294 207.445C219.636 206.949 220.027 206.438 220.461 205.919C220.898 205.394 221.374 204.863 221.901 204.32C222.423 203.775 222.984 203.224 223.59 202.664C224.195 202.104 224.842 201.542 225.52 200.972C226.202 200.401 226.922 199.829 227.672 199.255C228.425 198.679 229.21 198.106 230.024 197.531C230.84 196.959 231.682 196.388 232.552 195.82C233.425 195.251 234.319 194.689 235.234 194.134C236.152 193.577 237.088 193.029 238.044 192.489C238.999 191.953 239.969 191.423 240.951 190.909C241.935 190.389 242.928 189.887 243.931 189.397C244.937 188.906 245.944 188.432 246.958 187.975C247.968 187.517 248.982 187.077 249.992 186.654C251.006 186.232 252.014 185.831 253.017 185.449C254.017 185.069 255.01 184.709 255.993 184.372C256.979 184.034 257.947 183.721 258.899 183.429C259.853 183.14 260.788 182.874 261.705 182.634C262.619 182.396 263.513 182.18 264.379 181.995C265.249 181.808 266.09 181.644 266.904 181.511C267.717 181.377 268.498 181.273 269.248 181.197C269.996 181.117 270.712 181.066 271.394 181.045C272.071 181.021 272.714 181.027 273.316 181.063C273.917 181.098 274.48 181.16 275.001 181.252C275.517 181.342 275.994 181.46 276.425 181.608C276.859 181.751 277.242 181.924 277.582 182.125C277.922 182.323 278.215 182.552 278.461 182.8C278.706 183.052 278.902 183.329 279.049 183.629Z" fill="#CA3935"/>
</g>
<path d="M277.301 184.483C277.426 184.738 277.502 185.017 277.535 185.316C277.566 185.618 277.552 185.936 277.49 186.278C277.427 186.62 277.316 186.977 277.163 187.355C277.007 187.734 276.806 188.131 276.562 188.544C276.313 188.956 276.021 189.384 275.688 189.828C275.35 190.27 274.971 190.728 274.551 191.197C274.128 191.668 273.664 192.145 273.164 192.636C272.66 193.129 272.116 193.628 271.536 194.132C270.957 194.64 270.338 195.154 269.688 195.675C269.036 196.193 268.353 196.717 267.635 197.241C266.919 197.768 266.171 198.293 265.396 198.823C264.619 199.35 263.821 199.878 262.995 200.403C262.169 200.927 261.319 201.446 260.45 201.962C259.582 202.48 258.696 202.987 257.795 203.492C256.889 203.995 255.975 204.489 255.044 204.974C254.116 205.457 253.179 205.932 252.232 206.395C251.288 206.856 250.338 207.302 249.383 207.739C248.431 208.173 247.479 208.59 246.525 208.996C245.574 209.395 244.629 209.783 243.686 210.148C242.746 210.517 241.814 210.868 240.892 211.197C239.971 211.526 239.06 211.832 238.17 212.119C237.275 212.405 236.401 212.672 235.545 212.912C234.691 213.157 233.857 213.373 233.048 213.569C232.238 213.762 231.452 213.933 230.696 214.078C229.938 214.227 229.213 214.347 228.515 214.442C227.816 214.536 227.155 214.608 226.526 214.651C225.898 214.694 225.305 214.711 224.748 214.706C224.194 214.695 223.676 214.662 223.198 214.606C222.722 214.544 222.286 214.458 221.891 214.348C221.499 214.237 221.148 214.105 220.84 213.944C220.532 213.783 220.273 213.598 220.054 213.389C219.839 213.178 219.665 212.947 219.541 212.691C219.416 212.436 219.34 212.157 219.307 211.858C219.277 211.557 219.29 211.239 219.352 210.897C219.416 210.558 219.526 210.197 219.679 209.819C219.835 209.44 220.036 209.044 220.28 208.63C220.529 208.219 220.821 207.79 221.154 207.346C221.492 206.904 221.871 206.447 222.291 205.977C222.711 205.508 223.174 205.031 223.678 204.538C224.184 204.049 224.722 203.548 225.306 203.042C225.885 202.534 226.504 202.02 227.154 201.499C227.806 200.982 228.491 200.461 229.207 199.934C229.923 199.407 230.671 198.881 231.446 198.351C232.22 197.826 233.021 197.296 233.847 196.772C234.673 196.247 235.523 195.728 236.392 195.213C237.26 194.694 238.146 194.187 239.047 193.683C239.953 193.18 240.867 192.686 241.795 192.202C242.726 191.717 243.663 191.242 244.607 190.781C245.554 190.319 246.504 189.872 247.456 189.437C248.411 189.001 249.363 188.584 250.317 188.179C251.268 187.779 252.213 187.391 253.156 187.026C254.096 186.657 255.029 186.306 255.95 185.977C256.871 185.649 257.779 185.344 258.672 185.055C259.567 184.769 260.441 184.503 261.297 184.262C262.153 184.021 262.985 183.801 263.794 183.605C264.604 183.413 265.39 183.241 266.146 183.097C266.901 182.949 267.631 182.831 268.327 182.733C269.022 182.64 269.684 182.568 270.316 182.523C270.944 182.481 271.537 182.464 272.094 182.469C272.648 182.479 273.166 182.512 273.644 182.568C274.12 182.63 274.556 182.716 274.951 182.826C275.343 182.937 275.695 183.073 276.002 183.231C276.31 183.392 276.569 183.577 276.788 183.786C277.003 183.997 277.177 184.228 277.301 184.483Z" fill="#622301"/>
<mask id="mask4_381_210" style="mask-type:luminance" maskUnits="userSpaceOnUse" x="195" y="150" width="54" height="71">
<path d="M195.009 162.592L220.057 150.359L248.36 208.312L223.311 220.545L195.009 162.592Z" fill="white"/>
</mask>
<g mask="url(#mask4_381_210)">
<mask id="mask5_381_210" style="mask-type:luminance" maskUnits="userSpaceOnUse" x="189" y="124" width="90" height="91">
<path d="M250.219 124.012L189.024 153.777L213.506 213.025C213.506 213.025 219.18 211.963 219.537 212.693C221.641 217.002 236.281 214.18 252.23 206.391C268.179 198.602 279.405 188.792 277.301 184.483C276.945 183.752 278.248 181.406 278.248 181.406L250.219 124.012Z" fill="white"/>
</mask>
<g mask="url(#mask5_381_210)">
<path d="M262.716 269.691L261.774 269.809L251.146 257.566L199.871 171.76L203.315 159.591L204.062 159.179L215.67 162.3L266.876 247.989L262.716 269.691Z" fill="#BC8A33"/>
</g>
</g>
<mask id="mask6_381_210" style="mask-type:luminance" maskUnits="userSpaceOnUse" x="195" y="149" width="55" height="72">
<path d="M195.903 162.155L220.952 149.922L249.254 207.875L224.206 220.108L195.903 162.155Z" fill="white"/>
</mask>
<g mask="url(#mask6_381_210)">
<mask id="mask7_381_210" style="mask-type:luminance" maskUnits="userSpaceOnUse" x="189" y="124" width="90" height="91">
<path d="M250.219 124.012L189.024 153.777L213.506 213.025C213.506 213.025 219.181 211.963 219.537 212.693C221.641 217.002 236.281 214.18 252.23 206.391C268.179 198.602 279.406 188.792 277.301 184.483C276.945 183.752 278.248 181.406 278.248 181.406L250.219 124.012Z" fill="white"/>
</mask>
<g mask="url(#mask7_381_210)">
<path d="M273.802 263.039L262.716 269.691L251.884 257.206L200.612 171.398L204.062 159.179L216.408 161.94L267.613 247.629L273.802 263.039Z" fill="#EC9D3C"/>
</g>
</g>
<mask id="mask8_381_210" style="mask-type:luminance" maskUnits="userSpaceOnUse" x="196" y="155" width="34" height="39">
<path d="M196.777 163.944L214.669 155.206L229.086 184.728L211.194 193.466L196.777 163.944Z" fill="white"/>
</mask>
<g mask="url(#mask8_381_210)">
<mask id="mask9_381_210" style="mask-type:luminance" maskUnits="userSpaceOnUse" x="189" y="124" width="90" height="91">
<path d="M250.219 124.012L189.024 153.777L213.506 213.025C213.506 213.025 219.181 211.963 219.537 212.693C221.642 217.002 236.281 214.18 252.23 206.391C268.179 198.602 279.406 188.792 277.301 184.483C276.945 183.752 278.248 181.406 278.248 181.406L250.219 124.012Z" fill="white"/>
</mask>
<g mask="url(#mask9_381_210)">
<path d="M228.118 182.967L213.592 191.667L201.593 171.599L204.764 160.359L216.117 162.895L228.118 182.967Z" fill="#CC5D90"/>
</g>
</g>
<mask id="mask10_381_210" style="mask-type:luminance" maskUnits="userSpaceOnUse" x="207" y="134" width="54" height="79">
<path d="M207.377 144.814L227.953 134.765L260.884 202.195L240.308 212.244L207.377 144.814Z" fill="white"/>
</mask>
<g mask="url(#mask10_381_210)">
<mask id="mask11_381_210" style="mask-type:luminance" maskUnits="userSpaceOnUse" x="189" y="124" width="90" height="91">
<path d="M250.219 124.012L189.024 153.777L213.506 213.025C213.506 213.025 219.181 211.963 219.537 212.693C221.641 217.002 236.281 214.18 252.23 206.391C268.179 198.602 279.406 188.791 277.301 184.483C276.945 183.752 278.248 181.406 278.248 181.406L250.219 124.012Z" fill="white"/>
</mask>
<g mask="url(#mask11_381_210)">
<path d="M274.77 250.764L275.417 250.067L271.66 234.3L231.784 142.636L219.889 138.344L219.119 138.716L214.893 149.968L254.714 241.511L274.77 250.764Z" fill="#BC8A33"/>
</g>
</g>
<mask id="mask12_381_210" style="mask-type:luminance" maskUnits="userSpaceOnUse" x="206" y="134" width="55" height="79">
<path d="M206.483 145.251L227.953 134.765L260.884 202.195L239.414 212.681L206.483 145.251Z" fill="white"/>
</mask>
<g mask="url(#mask12_381_210)">
<mask id="mask13_381_210" style="mask-type:luminance" maskUnits="userSpaceOnUse" x="189" y="124" width="90" height="91">
<path d="M250.219 124.012L189.024 153.777L213.506 213.025C213.506 213.025 219.18 211.963 219.537 212.693C221.641 217.002 236.281 214.18 252.23 206.391C268.179 198.602 279.405 188.792 277.301 184.483C276.945 183.752 278.248 181.406 278.248 181.406L250.219 124.012Z" fill="white"/>
</mask>
<g mask="url(#mask13_381_210)">
<path d="M262.909 255.907L274.77 250.764L270.931 234.687L231.06 143.025L219.122 138.714L214.171 150.36L253.987 241.901L262.909 255.907Z" fill="#E18A31"/>
</g>
</g>
<mask id="mask14_381_210" style="mask-type:luminance" maskUnits="userSpaceOnUse" x="210" y="135" width="32" height="39">
<path d="M210.321 144.034L227.318 135.733L241.735 165.255L224.738 173.556L210.321 144.034Z" fill="white"/>
</mask>
<g mask="url(#mask14_381_210)">
<mask id="mask15_381_210" style="mask-type:luminance" maskUnits="userSpaceOnUse" x="189" y="124" width="90" height="91">
<path d="M250.219 124.012L189.024 153.777L213.506 213.025C213.506 213.025 219.181 211.963 219.537 212.693C221.642 217.002 236.281 214.18 252.23 206.391C268.179 198.602 279.406 188.792 277.301 184.483C276.945 183.752 278.248 181.406 278.248 181.406L250.219 124.012Z" fill="white"/>
</mask>
<g mask="url(#mask15_381_210)">
<path d="M224.442 172.125L239.974 165.379L230.652 143.934L219.671 139.97L215.118 150.676L224.442 172.125Z" fill="#CC5D90"/>
</g>
</g>
<mask id="mask16_381_210" style="mask-type:luminance" maskUnits="userSpaceOnUse" x="228" y="127" width="54" height="76">
<path d="M228.629 138.417L250.099 127.932L281.46 192.147L259.989 202.632L228.629 138.417Z" fill="white"/>
</mask>
<g mask="url(#mask16_381_210)">
<mask id="mask17_381_210" style="mask-type:luminance" maskUnits="userSpaceOnUse" x="189" y="124" width="90" height="91">
<path d="M250.219 124.013L189.024 153.777L213.506 213.025C213.506 213.025 219.18 211.963 219.537 212.693C221.641 217.002 236.281 214.18 252.23 206.391C268.179 198.602 279.406 188.792 277.301 184.483C276.945 183.753 278.248 181.406 278.248 181.406L250.219 124.013Z" fill="white"/>
</mask>
<g mask="url(#mask17_381_210)">
<path d="M296.675 244.598L297.32 243.906L293.561 228.136L253.689 136.47L241.792 132.183L241.025 132.553L236.798 143.802L276.615 235.347L296.675 244.598Z" fill="#A4792A"/>
</g>
</g>
<mask id="mask18_381_210" style="mask-type:luminance" maskUnits="userSpaceOnUse" x="227" y="128" width="54" height="76">
<path d="M227.734 138.854L249.204 128.369L280.565 192.584L259.095 203.069L227.734 138.854Z" fill="white"/>
</mask>
<g mask="url(#mask18_381_210)">
<mask id="mask19_381_210" style="mask-type:luminance" maskUnits="userSpaceOnUse" x="189" y="124" width="90" height="91">
<path d="M250.219 124.012L189.024 153.777L213.506 213.025C213.506 213.025 219.181 211.963 219.537 212.693C221.642 217.002 236.281 214.18 252.23 206.391C268.179 198.602 279.406 188.792 277.301 184.483C276.945 183.752 278.248 181.406 278.248 181.406L250.219 124.012Z" fill="white"/>
</mask>
<g mask="url(#mask19_381_210)">
<path d="M284.814 249.741L296.675 244.598L292.837 228.524L252.967 136.862L241.025 132.553L236.076 144.193L275.892 235.735L284.814 249.741Z" fill="#E18A31"/>
</g>
</g>
<mask id="mask20_381_210" style="mask-type:luminance" maskUnits="userSpaceOnUse" x="231" y="129" width="33" height="39">
<path d="M231.749 138.001L248.746 129.7L263.164 159.222L246.167 167.523L231.749 138.001Z" fill="white"/>
</mask>
<g mask="url(#mask20_381_210)">
<mask id="mask21_381_210" style="mask-type:luminance" maskUnits="userSpaceOnUse" x="189" y="124" width="90" height="91">
<path d="M250.219 124.012L189.024 153.777L213.506 213.025C213.506 213.025 219.18 211.963 219.537 212.693C221.641 217.002 236.281 214.18 252.23 206.391C268.179 198.602 279.406 188.792 277.301 184.483C276.945 183.752 278.248 181.406 278.248 181.406L250.219 124.012Z" fill="white"/>
</mask>
<g mask="url(#mask21_381_210)">
<path d="M246.343 165.961L261.877 159.218L252.555 137.773L241.574 133.809L237.021 144.515L246.343 165.961Z" fill="#CC5D90"/>
</g>
</g>
<mask id="mask22_381_210" style="mask-type:luminance" maskUnits="userSpaceOnUse" x="228" y="142" width="48" height="64">
<path d="M228.046 153.105L249.516 142.62L275.197 195.205L253.727 205.69L228.046 153.105Z" fill="white"/>
</mask>
<g mask="url(#mask22_381_210)">
<mask id="mask23_381_210" style="mask-type:luminance" maskUnits="userSpaceOnUse" x="189" y="124" width="90" height="91">
<path d="M250.219 124.012L189.024 153.777L213.506 213.025C213.506 213.025 219.181 211.963 219.537 212.693C221.641 217.002 236.281 214.18 252.23 206.391C268.179 198.602 279.406 188.792 277.301 184.483C276.945 183.752 278.248 181.406 278.248 181.406L250.219 124.012Z" fill="white"/>
</mask>
<g mask="url(#mask23_381_210)">
<path d="M296.052 259.149L296.695 258.455L292.934 242.689L253.061 151.02L241.168 146.732L240.401 147.102L236.172 158.355L275.989 249.9L296.052 259.149Z" fill="#D79D38"/>
</g>
</g>
<mask id="mask24_381_210" style="mask-type:luminance" maskUnits="userSpaceOnUse" x="227" y="143" width="48" height="64">
<path d="M227.151 153.542L248.622 143.057L274.303 195.642L252.833 206.127L227.151 153.542Z" fill="white"/>
</mask>
<g mask="url(#mask24_381_210)">
<mask id="mask25_381_210" style="mask-type:luminance" maskUnits="userSpaceOnUse" x="189" y="124" width="90" height="91">
<path d="M250.219 124.012L189.024 153.777L213.506 213.025C213.506 213.025 219.181 211.963 219.537 212.693C221.641 217.002 236.281 214.18 252.23 206.391C268.179 198.602 279.406 188.792 277.301 184.483C276.945 183.752 278.248 181.406 278.248 181.406L250.219 124.012Z" fill="white"/>
</mask>
<g mask="url(#mask25_381_210)">
<path d="M284.187 264.295L296.052 259.149L292.211 243.077L252.339 151.412L240.401 147.102L235.45 158.747L275.265 250.288L284.187 264.295Z" fill="#F7B86D"/>
</g>
</g>
<mask id="mask26_381_210" style="mask-type:luminance" maskUnits="userSpaceOnUse" x="231" y="144" width="32" height="39">
<path d="M231.167 152.689L248.164 144.388L262.582 173.91L245.584 182.211L231.167 152.689Z" fill="white"/>
</mask>
<g mask="url(#mask26_381_210)">
<mask id="mask27_381_210" style="mask-type:luminance" maskUnits="userSpaceOnUse" x="189" y="124" width="90" height="91">
<path d="M250.219 124.013L189.024 153.777L213.506 213.025C213.506 213.025 219.181 211.963 219.537 212.693C221.642 217.002 236.281 214.18 252.23 206.391C268.179 198.602 279.406 188.792 277.301 184.483C276.945 183.753 278.248 181.406 278.248 181.406L250.219 124.013Z" fill="white"/>
</mask>
<g mask="url(#mask27_381_210)">
<path d="M245.72 180.513L261.252 173.767L251.927 152.323L240.947 148.363L236.395 159.069L245.72 180.513Z" fill="#EE87B4"/>
</g>
</g>
<mask id="mask28_381_210" style="mask-type:luminance" maskUnits="userSpaceOnUse" x="209" y="154" width="50" height="62">
<path d="M209.218 166.732L234.267 154.499L258.2 203.506L233.152 215.739L209.218 166.732Z" fill="white"/>
</mask>
<g mask="url(#mask28_381_210)">
<mask id="mask29_381_210" style="mask-type:luminance" maskUnits="userSpaceOnUse" x="189" y="124" width="90" height="91">
<path d="M250.219 124.013L189.024 153.777L213.506 213.025C213.506 213.025 219.181 211.963 219.537 212.693C221.641 217.002 236.281 214.18 252.23 206.391C268.179 198.602 279.406 188.792 277.301 184.483C276.945 183.753 278.248 181.406 278.248 181.406L250.219 124.013Z" fill="white"/>
</mask>
<g mask="url(#mask29_381_210)">
<path d="M277.374 273.322L276.435 273.439L265.809 261.199L214.532 175.398L217.973 163.222L218.721 162.814L230.332 165.929L281.539 251.622L277.374 273.322Z" fill="#D79D38"/>
</g>
</g>
<mask id="mask30_381_210" style="mask-type:luminance" maskUnits="userSpaceOnUse" x="210" y="154" width="50" height="62">
<path d="M210.113 166.295L235.161 154.062L259.095 203.069L234.046 215.302L210.113 166.295Z" fill="white"/>
</mask>
<g mask="url(#mask30_381_210)">
<mask id="mask31_381_210" style="mask-type:luminance" maskUnits="userSpaceOnUse" x="189" y="124" width="90" height="91">
<path d="M250.219 124.013L189.024 153.777L213.506 213.025C213.506 213.025 219.18 211.963 219.537 212.693C221.641 217.002 236.281 214.18 252.23 206.391C268.179 198.602 279.406 188.792 277.301 184.483C276.945 183.753 278.248 181.406 278.248 181.406L250.219 124.013Z" fill="white"/>
</mask>
<g mask="url(#mask31_381_210)">
<path d="M288.459 266.671L277.375 273.326L266.55 260.838L215.273 175.036L218.721 162.814L231.069 165.569L282.276 251.262L288.459 266.671Z" fill="#F7B86D"/>
</g>
</g>
<mask id="mask32_381_210" style="mask-type:luminance" maskUnits="userSpaceOnUse" x="211" y="158" width="34" height="40">
<path d="M211.881 167.647L229.773 158.91L244.19 188.431L226.298 197.169L211.881 167.647Z" fill="white"/>
</mask>
<g mask="url(#mask32_381_210)">
<mask id="mask33_381_210" style="mask-type:luminance" maskUnits="userSpaceOnUse" x="189" y="124" width="90" height="91">
<path d="M250.219 124.012L189.024 153.777L213.506 213.025C213.506 213.025 219.181 211.963 219.537 212.693C221.641 217.002 236.281 214.18 252.23 206.391C268.179 198.602 279.406 188.792 277.301 184.483C276.945 183.752 278.248 181.406 278.248 181.406L250.219 124.012Z" fill="white"/>
</mask>
<g mask="url(#mask33_381_210)">
<path d="M242.776 186.599L228.252 195.302L216.251 175.23L219.427 163.992L230.78 166.528L242.776 186.599Z" fill="#EE87B4"/>
</g>
</g>
<path d="M282.873 230.499C279.982 228.025 275.707 227.442 271.938 228.889C268.892 230.06 265.613 233.432 267.372 238.442C264.397 234.052 259.73 234.66 256.986 236.416C253.578 238.582 251.499 242.372 251.775 246.163C252.338 254.184 262.233 256.065 269.369 257.517L269.699 257.59C274.308 258.529 278.987 256.412 281.321 252.33L281.661 251.748C285.525 245.447 289.166 235.878 282.873 230.499Z" fill="#EE87B4"/>
<mask id="mask34_381_210" style="mask-type:luminance" maskUnits="userSpaceOnUse" x="154" y="167" width="105" height="132">
<path d="M154.997 193.212L207.429 167.606L258.982 273.168L206.551 298.774L154.997 193.212Z" fill="white"/>
</mask>
<g mask="url(#mask34_381_210)">
<path d="M252.582 275.519L251.738 275.953L237.627 268.008L160.551 204.496L159.69 191.859L160.256 191.219L172.214 190.227L249.192 253.652L252.582 275.519Z" fill="#D79D38"/>
</g>
<path d="M260.766 265.493L252.582 275.519L238.201 267.42L161.124 203.905L160.256 191.219L172.785 189.632L249.762 253.066L260.766 265.493Z" fill="#F7B86D"/>
<path d="M190.87 205.491L180.148 218.613L162.108 203.758L161.306 192.092L172.835 190.638L190.87 205.491Z" fill="#EE87B4"/>
<path d="M204.936 228.355L202.16 231.666L201.301 230.943L204.075 227.637L203.382 227.07L204.123 226.194L204.813 226.757L207.547 223.5L208.402 224.225L205.68 227.485L206.748 228.387L209.205 225.46L210.049 226.178L204.385 232.925L203.538 232.21L206.009 229.267L204.936 228.355ZM213.634 230.036L208.802 235.802C208.721 235.928 208.548 235.965 208.42 235.88C208.401 235.868 208.382 235.855 208.369 235.836L205.402 233.333C205.28 233.25 205.243 233.087 205.324 232.96C205.338 232.936 205.356 232.919 205.373 232.902L210.208 227.143C210.286 227.01 210.455 226.966 210.585 227.046C210.607 227.056 210.626 227.069 210.64 227.088L213.603 229.592C213.731 229.677 213.766 229.855 213.681 229.983C213.665 230.003 213.653 230.022 213.634 230.036ZM206.803 232.922C206.773 232.958 206.776 232.991 206.807 233.002L208.45 234.39C208.465 234.421 208.5 234.413 208.537 234.391L212.213 230.007L212.198 229.923L210.555 228.536C210.538 228.518 210.51 228.515 210.488 228.53C210.486 228.535 210.482 228.537 210.481 228.542L206.803 232.922Z" fill="#F7B86D"/>
<path d="M214.493 226.505C214.723 226.976 214.905 227.463 215.038 227.966C215.172 228.471 215.254 228.985 215.288 229.505C215.319 230.022 215.301 230.542 215.233 231.06C215.164 231.574 215.048 232.081 214.876 232.571C214.71 233.064 214.495 233.537 214.235 233.988C213.974 234.436 213.672 234.856 213.329 235.244C212.985 235.637 212.608 235.991 212.194 236.305C211.781 236.619 211.342 236.89 210.873 237.119C210.409 237.346 209.925 237.526 209.423 237.658C208.921 237.791 208.411 237.871 207.889 237.901C207.372 237.933 206.855 237.913 206.341 237.843C205.825 237.771 205.32 237.65 204.83 237.478C204.337 237.312 203.866 237.092 203.418 236.83C202.965 236.567 202.547 236.26 202.159 235.917C201.769 235.571 201.414 235.19 201.098 234.773C200.784 234.36 200.511 233.917 200.281 233.446C200.052 232.977 199.871 232.49 199.738 231.988C199.603 231.483 199.521 230.969 199.488 230.448C199.455 229.928 199.471 229.413 199.542 228.894C199.612 228.38 199.728 227.873 199.897 227.379C200.066 226.89 200.28 226.417 200.54 225.966C200.802 225.518 201.103 225.098 201.444 224.706C201.791 224.316 202.168 223.963 202.581 223.649C202.995 223.334 203.434 223.064 203.899 222.837C204.367 222.608 204.85 222.428 205.352 222.295C205.855 222.163 206.365 222.082 206.885 222.049C207.404 222.021 207.92 222.041 208.434 222.11C208.95 222.183 209.455 222.304 209.944 222.472C210.438 222.642 210.909 222.862 211.357 223.124C211.807 223.389 212.227 223.69 212.617 224.037C213.007 224.383 213.361 224.764 213.677 225.18C213.992 225.594 214.264 226.036 214.493 226.505Z" fill="#CA3935"/>
<mask id="mask35_381_210" style="mask-type:luminance" maskUnits="userSpaceOnUse" x="236" y="59" width="76" height="76">
<path d="M236 59H311.181V134.001H236V59Z" fill="white"/>
</mask>
<g mask="url(#mask35_381_210)">
<path d="M274.37 79.1167C274.483 80.1631 274.685 81.1946 274.973 82.2065C275.263 83.2184 275.635 84.2007 276.091 85.151C276.546 86.0989 277.078 87.0049 277.686 87.8641C278.294 88.7233 278.971 89.5259 279.717 90.2694C280.461 91.0154 281.263 91.69 282.122 92.3005C282.982 92.9087 283.885 93.4404 284.836 93.8959C285.786 94.3514 286.766 94.7231 287.78 95.0112C288.792 95.3017 289.821 95.5036 290.87 95.6168C297.534 96.2815 304.214 96.5868 310.913 96.5302C304.214 96.476 297.534 96.7813 290.87 97.4436C289.821 97.5593 288.792 97.7612 287.78 98.0492C286.766 98.3373 285.786 98.7115 284.836 99.1645C283.885 99.62 282.982 100.152 282.122 100.762C281.263 101.37 280.461 102.047 279.717 102.791C278.971 103.537 278.294 104.34 277.686 105.199C277.078 106.058 276.546 106.962 276.091 107.912C275.635 108.86 275.263 109.842 274.973 110.854C274.685 111.868 274.483 112.897 274.37 113.944C273.705 120.608 273.4 127.29 273.456 133.987C273.511 127.29 273.205 120.608 272.541 113.944C272.427 112.897 272.225 111.868 271.937 110.854C271.647 109.842 271.275 108.86 270.82 107.912C270.364 106.962 269.832 106.058 269.224 105.199C268.616 104.337 267.939 103.537 267.196 102.791C266.45 102.047 265.647 101.37 264.788 100.762C263.929 100.152 263.025 99.62 262.075 99.1645C261.124 98.709 260.145 98.3373 259.133 98.0492C258.118 97.7587 257.089 97.5593 256.043 97.4436C249.378 96.7789 242.697 96.476 236 96.5302C242.697 96.5844 249.378 96.2815 256.043 95.6168C257.089 95.5011 258.118 95.3017 259.133 95.0112C260.145 94.7231 261.124 94.3514 262.075 93.8959C263.025 93.4404 263.929 92.9087 264.788 92.3005C265.647 91.69 266.45 91.0129 267.196 90.2694C267.939 89.5259 268.616 88.7233 269.224 87.8641C269.832 87.0049 270.364 86.0989 270.82 85.151C271.275 84.2007 271.647 83.2184 271.937 82.2065C272.225 81.1946 272.427 80.1631 272.541 79.1167C273.205 72.4522 273.511 65.7704 273.456 59.0739C273.4 65.7704 273.705 72.4522 274.37 79.1167Z" fill="#FFDE59"/>
</g>
<mask id="mask36_381_210" style="mask-type:luminance" maskUnits="userSpaceOnUse" x="296" y="96" width="39" height="39">
<path d="M296.685 96.1855H334.794V134.632H296.685V96.1855Z" fill="white"/>
</mask>
<g mask="url(#mask36_381_210)">
<path d="M316.186 106.674C316.245 107.203 316.346 107.725 316.494 108.237C316.639 108.749 316.829 109.246 317.058 109.726C317.289 110.206 317.558 110.664 317.865 111.1C318.173 111.533 318.518 111.94 318.894 112.316C319.271 112.693 319.677 113.035 320.111 113.343C320.546 113.653 321.004 113.922 321.484 114.153C321.964 114.382 322.462 114.572 322.974 114.717C323.486 114.862 324.008 114.965 324.537 115.022C327.91 115.359 331.29 115.512 334.681 115.485C331.29 115.458 327.91 115.611 324.537 115.948C324.008 116.004 323.486 116.108 322.974 116.253C322.462 116.401 321.964 116.588 321.484 116.819C321.004 117.048 320.546 117.319 320.111 117.627C319.677 117.935 319.271 118.277 318.894 118.653C318.518 119.03 318.173 119.436 317.865 119.872C317.558 120.305 317.289 120.763 317.058 121.243C316.829 121.724 316.639 122.221 316.494 122.733C316.346 123.245 316.245 123.767 316.186 124.296C315.851 127.669 315.696 131.052 315.726 134.44C315.753 131.049 315.598 127.669 315.263 124.296C315.204 123.767 315.103 123.245 314.958 122.733C314.81 122.221 314.623 121.724 314.391 121.243C314.16 120.763 313.892 120.305 313.584 119.87C313.276 119.436 312.934 119.03 312.557 118.653C312.181 118.277 311.774 117.935 311.339 117.627C310.905 117.319 310.447 117.048 309.965 116.819C309.485 116.588 308.99 116.401 308.475 116.253C307.963 116.108 307.444 116.004 306.912 115.948C303.542 115.611 300.159 115.458 296.771 115.485C300.159 115.512 303.542 115.359 306.912 115.022C307.444 114.965 307.963 114.862 308.475 114.717C308.99 114.572 309.485 114.382 309.965 114.153C310.447 113.922 310.905 113.653 311.339 113.346C311.774 113.035 312.181 112.693 312.557 112.316C312.934 111.94 313.276 111.533 313.584 111.1C313.892 110.664 314.16 110.206 314.391 109.726C314.623 109.246 314.81 108.749 314.958 108.237C315.103 107.725 315.204 107.203 315.263 106.674C315.6 103.301 315.755 99.9204 315.728 96.5303C315.699 99.9204 315.851 103.301 316.186 106.674Z" fill="#FFDE59"/>
</g>
<path d="M301.939 69.2689C301.976 69.5914 302.037 69.909 302.126 70.2217C302.215 70.5368 302.33 70.8396 302.471 71.1326C302.611 71.4256 302.776 71.7062 302.965 71.9697C303.153 72.2356 303.362 72.4842 303.591 72.7132C303.822 72.9446 304.068 73.1539 304.334 73.341C304.6 73.5306 304.881 73.693 305.174 73.8334C305.467 73.9762 305.77 74.0894 306.082 74.1805C306.395 74.2691 306.715 74.3307 307.038 74.3652C309.096 74.572 311.161 74.6655 313.229 74.6483C311.161 74.6311 309.096 74.7246 307.038 74.9314C306.715 74.9659 306.395 75.0274 306.082 75.1185C305.77 75.2072 305.467 75.3229 305.174 75.4632C304.881 75.6035 304.6 75.7685 304.334 75.9556C304.068 76.1427 303.822 76.352 303.591 76.5834C303.362 76.8124 303.153 77.061 302.963 77.3269C302.776 77.5928 302.611 77.871 302.471 78.164C302.33 78.4594 302.215 78.7622 302.126 79.0749C302.037 79.3876 301.976 79.7052 301.939 80.0301C301.734 82.0883 301.641 84.1515 301.658 86.222C301.673 84.1515 301.579 82.0883 301.375 80.0301C301.338 79.7052 301.277 79.3876 301.188 79.0749C301.099 78.7622 300.984 78.4594 300.843 78.164C300.703 77.871 300.538 77.5928 300.351 77.3269C300.161 77.061 299.952 76.8124 299.723 76.5834C299.492 76.352 299.245 76.1427 298.98 75.9556C298.714 75.7685 298.433 75.6035 298.14 75.4632C297.847 75.3229 297.544 75.2072 297.232 75.1185C296.919 75.0274 296.601 74.9659 296.276 74.9314C294.218 74.7246 292.152 74.6311 290.084 74.6483C292.152 74.6655 294.218 74.572 296.276 74.3652C296.599 74.3307 296.919 74.2691 297.232 74.1781C297.544 74.0894 297.847 73.9737 298.14 73.8334C298.433 73.693 298.714 73.5281 298.977 73.341C299.243 73.1539 299.492 72.9446 299.721 72.7132C299.952 72.4842 300.161 72.2356 300.348 71.9697C300.535 71.7038 300.7 71.4256 300.841 71.1326C300.981 70.8396 301.097 70.5343 301.185 70.2217C301.274 69.909 301.338 69.5914 301.373 69.2689C301.579 67.2082 301.673 65.1426 301.658 63.0746C301.641 65.1426 301.734 67.2082 301.939 69.2689Z" fill="#FFDE59"/>
</svg>
