<svg width="334" height="227" viewBox="0 0 334 227" fill="none" xmlns="http://www.w3.org/2000/svg">
<path fill-rule="evenodd" clip-rule="evenodd" d="M334 48.9134V189C334 209.987 316.987 227 296 227H1.31726C0.447101 219.364 0 211.599 0 203.73C0 91.5901 90.7903 0.683105 202.786 0.683105C252.826 0.683105 298.633 18.8315 334 48.9134Z" fill="#FFF5F1"/>
<path d="M168.727 91.8362C164.748 83.9212 168.677 58.5462 169.66 47.366C170.637 36.1832 169.379 23.7381 182.467 14.2677C195.553 4.79737 222.597 6.92793 228.477 28.1031C234.358 49.2756 231.238 55.4728 234.358 70.7889C237.479 86.1077 233.645 96.3397 227.015 97.7006" fill="#071435"/>
<path d="M159.056 167.423C160.325 166.289 161.646 165.258 163.201 164.664C168.489 162.659 179.212 161.503 187.646 158.158C189.288 163.213 192.321 172.51 193.755 176.777C190.075 177.307 186.767 178.042 184.136 179.192C179.22 181.352 170.881 186.742 163.752 185.986C162.06 181.877 159.641 176.763 159.056 167.423Z" fill="#F2C1B8"/>
<path d="M174.817 77.4949C173.877 74.8424 172.685 72.0886 173.946 69.1618C174.261 68.6904 183.596 71.2817 183.667 71.2417C183.739 71.2044 188.356 69.4094 191.953 69.9634C195.551 70.52 212.165 68.9354 215.881 70.536C215.881 70.536 219.977 66.5332 222.803 65.9073C223.775 65.8647 224.851 68.1764 225.222 71.5906C225.402 73.09 224.57 75.4363 225.288 76.885C225.288 76.885 228.459 80.8639 229.481 89.0692C230.501 97.2719 223.569 118.037 223.569 118.037C223.741 122.133 223.569 129.782 223.569 129.782C223.569 129.782 241.375 131.435 245.203 133.108C249.025 134.783 224.657 170.686 199.588 167.823C174.515 164.96 155.782 135.574 155.782 135.574C155.782 135.574 164.134 132.037 169.217 132.037C174.298 132.037 178.393 130.493 178.393 130.493C178.393 130.493 177.296 122.282 177.085 118.037C177.085 118.037 171.551 102.295 171.381 96.4729C171.214 90.6538 174.817 77.4949 174.817 77.4949Z" fill="#FF9900"/>
<path d="M197.312 73.4119C193.484 73.0897 192.496 71.9738 191.418 71.0497C191.418 71.0497 195.961 66.8178 196.057 66.6288L208.83 66.4077L211.762 66.4983L212.811 69.9258C208.051 73.1509 202.088 73.8168 197.312 73.4119ZM252.535 140.298L246.331 135.473C237.084 131.68 213.598 143.563 200.443 151.146C187.288 143.563 163.803 131.68 154.555 135.473L148.354 140.298C143.008 150.464 147.641 170.992 186.775 174.888C188.727 175.093 190.719 175.261 192.711 175.421C193.169 175.959 193.614 176.417 194.019 176.779C196.064 176.486 198.226 176.257 200.449 176.057C202.668 176.257 204.833 176.486 206.878 176.779C207.283 176.422 207.725 175.959 208.186 175.421C210.178 175.261 212.165 175.088 214.12 174.888C253.242 170.992 257.876 150.458 252.535 140.298Z" fill="#FFAC83"/>
<path d="M237.121 185.988C229.995 186.745 221.399 181.355 216.488 179.197C213.858 178.041 210.549 177.306 206.87 176.779C208.303 172.515 211.336 163.218 212.978 158.163C221.415 161.506 232.141 162.659 237.423 164.67C238.978 165.258 240.435 166.182 241.701 167.317C241.121 176.654 238.819 181.877 237.121 185.988Z" fill="#F2C1B8"/>
<path d="M163.758 185.989C160.688 185.661 157.89 184.196 155.776 180.838C153.053 176.646 155.159 170.91 159.172 167.314C166.33 171.136 167.517 181.427 163.758 185.989ZM237.121 185.989C240.191 185.661 242.991 184.196 245.102 180.838C247.825 176.646 245.722 170.91 241.706 167.314C234.549 171.136 233.362 181.427 237.121 185.989Z" fill="#FF9900"/>
<path d="M190.827 65.0204L209.328 63.9844L210.742 63.9045C210.83 63.9418 210.917 63.9818 211.002 64.0191L211.219 64.7328L211.762 66.5038C209.402 68.5838 203.296 72.1205 197.307 73.4095C193.479 73.0846 190.409 72.0832 189.331 71.1591C189.333 71.1618 190.735 65.2095 190.827 65.0204Z" fill="#C8734A"/>
<path d="M222.173 49.1689C222.051 51.7948 216.695 68.6396 200.385 68.6396C183.164 68.6396 177.673 49.619 177.673 49.619C170.454 50.1543 168.748 40.13 175.699 39.6959C193.463 38.4921 201.577 34.6544 207.068 22.7366C207.068 22.7366 211.119 35.97 221.73 38.7504C218.986 35.6638 216.862 32.0205 215.542 28.0976C215.672 26.5343 217.969 33.0485 223.32 39.078C223.669 39.1313 224.022 39.1739 224.385 39.2032C229.028 39.9489 229.773 49.2541 222.173 49.1689ZM262.887 138.024C263.417 138.431 262.816 140.171 260.44 141.001C259.841 142.634 257.078 143.731 253.179 142.04C247.629 139.641 243.592 133.635 242.247 133.108C226.898 126.088 223.574 118.037 223.574 118.037C223.818 114.644 221.961 94.2649 221.839 93.2556C221.712 92.2435 225.1 87.7694 226.636 84.5655C228.17 81.359 225.357 77.255 225.293 76.8902C232.438 84.3844 237.908 105.501 237.908 105.501C241.627 109.656 250.76 124.056 252.334 126.255C253.907 128.452 256.835 128.016 259.102 129.592C261.37 131.166 262.681 133.686 262.681 133.686C263.436 133.579 264.283 134.647 263.436 135.931C264.222 136.679 262.887 138.024 262.887 138.024ZM260.813 134.748C260.813 134.748 260.09 134.45 259.682 134.056C259.277 133.659 258.914 133.142 258.705 133.113C258.501 133.084 256.856 133.366 256.856 133.366C256.842 133.441 258.252 135.257 258.689 135.417C259.123 135.582 260.824 135.076 260.813 134.748ZM179.05 91.6363L178.822 93.2556C178.698 94.2702 176.841 114.649 177.087 118.037C177.087 118.037 173.763 126.088 158.417 133.108C157.066 133.63 153.032 139.641 147.482 142.04C143.58 143.731 140.82 142.634 140.222 141.001C137.845 140.171 137.244 138.431 137.774 138.024C137.774 138.024 136.441 136.674 137.239 135.925C136.391 134.644 137.239 133.576 137.991 133.68C137.991 133.68 139.305 131.161 141.573 129.59C143.84 128.016 146.765 128.45 148.341 126.25C149.914 124.05 159.048 109.653 162.767 105.498C162.767 105.498 167.956 85.4604 174.83 77.4947C176.285 80.4189 171.291 85.7879 179.05 91.6363ZM143.798 133.366C143.798 133.366 142.155 133.084 141.949 133.113C141.745 133.142 141.379 133.656 140.971 134.056C140.563 134.45 139.84 134.748 139.84 134.748C139.832 135.076 141.535 135.582 141.965 135.417C142.402 135.257 143.806 133.441 143.798 133.366ZM181.053 36.6971C181.053 36.6971 195.333 34.0073 201.77 25.8019C202.313 25.1468 202.149 24.5822 201.222 25.4184C194.872 32.2096 187.365 34.4547 184.751 35.1578C182.136 35.8608 180.033 36.6305 181.053 36.6971Z" fill="#FFAC83"/>
<path d="M192.69 47.6137C193.368 47.1263 193.535 47.9386 193.408 48.0398C191.699 49.5392 187.816 49.0944 187 47.7282C186.788 47.0038 187.506 47.2222 187.993 47.6297C188.478 48.0425 191.469 48.5698 192.69 47.6137ZM212.03 158.163C212.97 157.764 200.69 151.002 200.69 151.002C201.026 151.481 211.089 158.563 212.03 158.163ZM173.895 42.9877C174.428 43.1555 176.322 43.1555 176.841 46.9372C176.944 47.4885 177.511 47.3953 177.519 46.5963C177.527 45.7974 176.756 43.1954 174.335 42.4577C173.691 42.2899 172.971 42.4497 173.895 42.9877ZM192.192 137.204C197.031 138.751 200.581 138.248 199.408 137.966C190.388 137.398 178.393 130.493 178.393 130.493L177.312 130.841C180.83 132.7 187.352 135.657 192.192 137.204ZM179.32 84.9731C179.707 84.7947 178.936 78.7572 183.667 71.2416L183.016 71.0872C178.942 76.2724 178.936 85.1489 179.32 84.9731ZM198.523 133.366C202.141 134.035 213.67 134.442 220.764 130.122C221.214 129.771 220.718 129.603 220.491 129.707C208.75 135.329 194.976 131.851 194.976 131.851C193.985 131.654 194.907 132.7 198.523 133.366ZM179.161 88.9972C178.95 88.8747 178.552 91.2476 178.552 91.2476L179.053 91.6365C179.05 91.6365 179.376 89.1197 179.161 88.9972ZM186.094 42.6388C188.414 41.2087 191.789 42.985 192.128 42.9877C192.51 42.9957 192.822 42.3991 192.631 42.0503C192.035 41.2513 188.073 40.2047 185.797 42.2953C185.545 42.5563 185.784 42.8066 186.094 42.6388ZM204.184 60.1707C204.459 59.915 204.255 59.4729 203.99 59.6247C199.548 62.2906 196.266 59.4596 196.382 59.4436C196.027 59.1321 195.871 59.7632 196.382 60.2346C196.894 60.7033 199.855 63.0842 204.184 60.1707ZM221.834 93.2557L222.281 91.988C222.281 91.988 221.545 88.6697 221.322 88.88C221.103 89.0904 221.897 92.217 221.834 93.2557ZM216.48 69.9766L215.879 70.5359C215.879 70.5359 219.111 73.9581 220.915 82.0835C221.32 82.9331 220.766 76.062 216.48 69.9766ZM227.699 110.367C227.699 110.367 231.102 109.704 231.947 108.02C232.223 107.424 231.969 107.997 230.734 108.588C229.5 109.176 226.618 109.957 227.699 110.367ZM223.921 46.0291C223.985 45.6616 224.125 43.539 226.003 43.824C226.689 43.8053 226.485 43.0676 225.799 42.9877C223.436 43.001 223.232 46.0078 223.232 46.0291C223.269 46.9372 223.858 46.3913 223.921 46.0291ZM206.576 42.9877C206.915 42.985 210.289 41.206 212.61 42.6388C212.92 42.8066 213.158 42.5563 212.909 42.2953C210.629 40.2047 206.663 41.2566 206.075 42.0503C205.882 42.3991 206.194 42.9957 206.576 42.9877ZM197.601 53.518C197.601 53.518 199.476 51.3395 202.276 53.2144C202.565 53.2144 202.748 52.6951 202.573 52.4341C202.377 52.1465 199.365 50.5033 197.331 52.8069C197.01 53.4035 197.445 53.6725 197.601 53.518ZM211.876 47.4805C212.038 47.2994 211.815 46.8121 211.161 47.1609C209.625 48.7775 207.392 48.1943 206.809 47.7282C206.229 47.2595 205.513 47.2435 205.815 47.7362C206.748 49.0279 210.038 49.6617 211.876 47.4805ZM261.24 137.681C260.331 138.147 260 138.573 259.248 138.621C258.495 138.677 257.11 138.53 256.861 138.488C256.609 138.45 256.48 138.647 256.734 138.727C256.734 138.727 258.887 139.089 259.809 138.714C260.729 138.341 261.499 137.254 262.89 138.024L263.049 137.843C263.049 137.843 262.143 137.215 261.24 137.681ZM216.835 160.997C216.305 160.616 210.478 176.145 211.64 176.678C211.85 176.771 217.37 161.38 216.835 160.997ZM261.878 135.292C261.073 135.553 260.201 136.868 260.056 136.986C259.91 137.103 257.955 137.188 257.695 137.233C257.436 137.281 257.637 137.412 257.833 137.412C257.902 137.412 259.801 137.356 260.106 137.233C260.411 137.113 261.083 136.032 261.762 135.633C262.442 135.233 263.423 135.926 263.423 135.926L263.555 135.699C263.555 135.699 262.681 135.031 261.878 135.292ZM199.633 175.98C199.974 175.573 193.296 174.289 193.217 175.101C193.167 175.637 199.288 176.388 199.633 175.98ZM172.989 110.596C173.49 110.686 173.909 110.258 173.199 110.005C172.486 109.754 171.479 109.586 170.475 108.955C169.472 108.324 168.338 107.858 168.727 108.588C168.727 108.585 170.266 110.175 172.989 110.596ZM244.546 135.233C245.923 138.227 254.04 142.89 252.464 141.292C250.302 140.464 244.689 135.06 244.546 135.233ZM258.776 139.63C257.584 139.926 256.654 140.099 255.534 139.803C255.272 139.75 255.152 139.947 255.375 140.014C255.375 140.014 256.575 140.442 257.521 140.152C258.466 139.862 259.693 139.46 260.44 140.999L260.75 140.879C260.75 140.884 259.968 139.34 258.776 139.63ZM258.662 133.23C258.747 133.206 259.817 134.618 260.88 134.866C261.947 135.116 262.681 134.887 262.874 133.68H262.67C262.548 134.4 261.918 134.972 261.081 134.762C260.244 134.551 258.914 133.092 258.771 132.991C258.628 132.889 257.333 133.332 255.658 133.238C253.99 133.143 252.999 131.731 252.999 131.731C252.848 131.553 252.752 131.696 253.473 132.458C254.191 133.217 255.439 133.867 258.662 133.23ZM138.892 135.633C139.573 136.032 140.243 137.113 140.547 137.233C140.852 137.356 142.751 137.412 142.82 137.412C143.016 137.412 143.218 137.281 142.958 137.233C142.698 137.188 140.743 137.108 140.598 136.986C140.452 136.868 139.581 135.553 138.775 135.292C137.967 135.031 137.093 135.699 137.093 135.699L137.226 135.926C137.231 135.926 138.211 135.233 138.892 135.633ZM143.922 138.727C144.179 138.647 144.049 138.45 143.798 138.488C143.546 138.525 142.163 138.671 141.408 138.621C140.656 138.567 140.325 138.141 139.419 137.681C138.51 137.215 137.607 137.848 137.607 137.848L137.766 138.029C139.159 137.26 139.928 138.344 140.849 138.719C141.769 139.089 143.922 138.727 143.922 138.727ZM145.12 139.803C143.994 140.099 143.069 139.92 141.877 139.63C140.685 139.337 139.904 140.884 139.904 140.884L140.214 141.002C140.961 139.462 142.187 139.862 143.133 140.157C144.078 140.448 145.278 140.019 145.278 140.019C145.501 139.947 145.387 139.75 145.12 139.803ZM147.649 131.726C147.649 131.726 146.659 133.143 144.99 133.236C143.321 133.332 142.02 132.887 141.877 132.988C141.737 133.089 140.41 134.546 139.57 134.756C138.728 134.967 138.1 134.397 137.981 133.678H137.779C137.973 134.884 138.706 135.111 139.774 134.863C140.841 134.615 141.906 133.201 141.991 133.228C145.215 133.862 146.455 133.206 147.172 132.45C147.893 131.691 147.8 131.55 147.649 131.726ZM156.375 135.451C156.37 134.69 151.882 139.46 148.979 141.002C148.06 141.465 147.75 142.027 148.227 141.886C148.725 142.136 156.492 136.354 156.375 135.451ZM228.514 198.487C228.22 198.218 227.381 189.68 221.465 191.421C215.741 193.107 209.977 213.593 213.23 218.067C214.268 219.108 216.017 218.28 216.464 216.493C216.912 214.706 218.575 198.612 222.077 197.382C223.77 196.969 225.537 204.522 225.913 212.519C226.212 215.366 229.304 215.404 230.075 212.831C230.554 211.214 230.175 200.253 233.378 196.804C236.583 193.358 237.2 207.321 237.15 216.999C237.473 218.663 240.318 219.207 241.208 217.417C242.098 215.63 242.689 196.753 238.043 192.148C234.316 188.463 228.904 193.664 228.514 198.487ZM184.613 191.15C184.934 191.392 192.944 215.84 192.703 217.627C192.459 219.414 188.806 218.488 187.837 217.59C187.532 217.308 186.992 214.98 186.126 212.376L178.104 212.519C177.405 215.561 177 217.233 176.836 217.683C176.351 219.026 171.76 219.862 171.681 217.83C171.649 217.081 177.339 193.448 178.388 191.419C179.442 189.395 184.29 190.905 184.613 191.15ZM184.11 207.281C182.687 202.743 181.32 198.071 181.32 198.071C181.32 198.071 180.303 202.665 179.259 207.297C180.642 207.305 182.671 207.291 184.11 207.281ZM201.323 212.732C199.206 208.879 200.939 195.155 199.834 192.058C199.28 190.513 196.504 188.929 194.759 192.159C193.863 193.816 194.592 215.151 197.01 217.175C199.429 219.196 208.658 219.574 209.818 218.735C210.976 217.894 210.703 215.198 209.993 214.575C209.278 213.952 202.284 214.032 201.323 212.732ZM166.682 213.523C158.86 212.826 158.73 196.346 167.159 195.773C168.015 195.714 168.777 195.203 169.098 194.399C169.575 193.214 169.943 191.589 168.799 190.891C148.929 186.321 151.678 225.689 169.207 217.888C170.571 216.456 169.821 213.523 166.682 213.523Z" fill="#2B3244"/>
</svg>
