<svg width="510" height="583" viewBox="0 0 510 583" fill="none" xmlns="http://www.w3.org/2000/svg">
<circle cx="291.5" cy="291.5" r="291.5" fill="white"/>
<path d="M207.607 251.533C199.784 235.971 207.508 186.079 209.44 164.097C211.362 142.11 208.888 117.641 234.622 99.0203C260.351 80.3999 313.523 84.5889 325.086 126.223C336.648 167.852 330.513 180.037 336.648 210.151C342.784 240.27 335.247 260.388 322.211 263.064" fill="#071435"/>
<path d="M188.591 400.151C191.086 397.92 193.685 395.894 196.742 394.726C207.138 390.783 228.221 388.511 244.804 381.934C248.034 391.872 253.997 410.152 256.815 418.541C249.581 419.583 243.075 421.028 237.903 423.29C228.237 427.537 211.841 438.135 197.825 436.648C194.497 428.568 189.742 418.515 188.591 400.151Z" fill="#F2C1B8"/>
<path d="M219.581 223.336C217.732 218.121 215.388 212.706 217.867 206.951C218.487 206.025 236.841 211.12 236.982 211.041C237.122 210.968 246.2 207.438 253.273 208.528C260.346 209.622 293.013 206.506 300.32 209.653C300.32 209.653 308.372 201.783 313.929 200.553C315.841 200.469 317.956 205.014 318.685 211.727C319.039 214.675 317.403 219.288 318.815 222.137C318.815 222.137 325.049 229.96 327.06 246.093C329.065 262.221 315.435 303.048 315.435 303.048C315.773 311.102 315.435 326.141 315.435 326.141C315.435 326.141 350.445 329.392 357.971 332.681C365.487 335.974 317.575 406.565 268.284 400.936C218.987 395.307 182.153 337.53 182.153 337.53C182.153 337.53 198.575 330.576 208.57 330.576C218.56 330.576 226.612 327.539 226.612 327.539C226.612 327.539 224.456 311.395 224.039 303.048C224.039 303.048 213.159 272.096 212.825 260.65C212.497 249.209 219.581 223.336 219.581 223.336Z" fill="#FF9900"/>
<path d="M263.81 215.309C256.284 214.675 254.341 212.481 252.221 210.664C252.221 210.664 261.154 202.343 261.341 201.972L286.456 201.537L292.221 201.715L294.284 208.454C284.924 214.795 273.2 216.104 263.81 215.309ZM372.388 346.819L360.19 337.331C342.008 329.874 295.831 353.238 269.966 368.146C244.101 353.238 197.924 329.874 179.742 337.331L167.549 346.819C157.039 366.806 166.148 407.167 243.091 414.828C246.93 415.231 250.846 415.561 254.763 415.875C255.664 416.933 256.539 417.834 257.336 418.546C261.357 417.97 265.607 417.52 269.976 417.127C274.341 417.52 278.596 417.97 282.617 418.546C283.414 417.844 284.284 416.933 285.19 415.875C289.107 415.561 293.013 415.221 296.857 414.828C373.779 407.167 382.888 366.795 372.388 346.819Z" fill="#FFAC83"/>
<path d="M342.081 436.653C328.07 438.14 311.169 427.542 301.513 423.3C296.341 421.028 289.836 419.583 282.601 418.546C285.419 410.163 291.383 391.883 294.612 381.944C311.2 388.516 332.289 390.783 342.674 394.736C345.732 395.894 348.596 397.711 351.086 399.941C349.945 418.3 345.419 428.568 342.081 436.653Z" fill="#F2C1B8"/>
<path d="M197.836 436.653C191.799 436.009 186.299 433.129 182.143 426.526C176.789 418.284 180.93 407.005 188.82 399.936C202.893 407.45 205.226 427.683 197.836 436.653ZM342.081 436.653C348.117 436.009 353.622 433.129 357.773 426.526C363.127 418.284 358.992 407.005 351.096 399.936C337.023 407.45 334.69 427.683 342.081 436.653Z" fill="#FF9900"/>
<path d="M251.06 198.809L287.435 196.772L290.216 196.615C290.388 196.688 290.56 196.767 290.726 196.84L291.154 198.243L292.221 201.726C287.581 205.815 275.575 212.769 263.799 215.303C256.273 214.665 250.237 212.696 248.117 210.879C248.122 210.884 250.877 199.181 251.06 198.809Z" fill="#C8734A"/>
<path d="M312.69 167.642C312.45 172.805 301.919 205.925 269.851 205.925C235.992 205.925 225.195 168.527 225.195 168.527C211.002 169.58 207.648 149.87 221.315 149.017C256.242 146.65 272.195 139.104 282.992 115.672C282.992 115.672 290.956 141.691 311.82 147.158C306.424 141.089 302.247 133.926 299.653 126.212C299.909 123.139 304.424 135.947 314.945 147.802C315.633 147.907 316.325 147.99 317.039 148.048C326.169 149.514 327.633 167.81 312.69 167.642ZM392.742 342.347C393.784 343.148 392.601 346.567 387.93 348.201C386.752 351.411 381.32 353.568 373.653 350.243C362.742 345.525 354.805 333.717 352.159 332.681C321.982 318.878 315.445 303.048 315.445 303.048C315.924 296.377 312.273 256.309 312.034 254.324C311.784 252.334 318.445 243.537 321.466 237.238C324.482 230.934 318.95 222.864 318.825 222.147C332.872 236.882 343.627 278.401 343.627 278.401C350.94 286.57 368.898 314.882 371.992 319.208C375.086 323.527 380.841 322.669 385.299 325.769C389.758 328.863 392.336 333.817 392.336 333.817C393.82 333.607 395.487 335.707 393.82 338.231C395.367 339.702 392.742 342.347 392.742 342.347ZM388.664 335.906C388.664 335.906 387.242 335.32 386.44 334.545C385.643 333.764 384.93 332.749 384.518 332.691C384.117 332.633 380.883 333.188 380.883 333.188C380.857 333.335 383.627 336.906 384.487 337.22C385.341 337.545 388.685 336.55 388.664 335.906ZM227.903 251.141L227.456 254.324C227.211 256.319 223.56 296.388 224.044 303.048C224.044 303.048 217.508 318.878 187.336 332.681C184.68 333.707 176.747 345.525 165.836 350.243C158.164 353.568 152.737 351.411 151.56 348.201C146.888 346.567 145.706 343.148 146.747 342.347C146.747 342.347 144.127 339.692 145.695 338.221C144.028 335.702 145.695 333.602 147.174 333.806C147.174 333.806 149.758 328.853 154.216 325.763C158.674 322.669 164.424 323.522 167.523 319.197C170.617 314.872 188.575 286.564 195.888 278.396C195.888 278.396 206.091 238.998 219.607 223.336C222.466 229.085 212.648 239.642 227.903 251.141ZM158.591 333.188C158.591 333.188 155.362 332.633 154.956 332.691C154.555 332.749 153.836 333.759 153.034 334.545C152.232 335.32 150.81 335.906 150.81 335.906C150.794 336.55 154.143 337.545 154.987 337.22C155.846 336.906 158.607 333.335 158.591 333.188ZM231.841 143.121C231.841 143.121 259.919 137.832 272.575 121.699C273.643 120.411 273.32 119.301 271.497 120.945C259.013 134.297 244.252 138.712 239.112 140.094C233.971 141.476 229.836 142.99 231.841 143.121Z" fill="#FFAC83"/>
<path d="M254.721 164.584C256.055 163.626 256.383 165.223 256.133 165.422C252.773 168.37 245.138 167.496 243.534 164.81C243.117 163.385 244.528 163.815 245.487 164.616C246.44 165.427 252.32 166.464 254.721 164.584ZM292.747 381.944C294.596 381.159 270.45 367.864 270.45 367.864C271.112 368.806 290.898 382.729 292.747 381.944ZM217.768 155.489C218.815 155.819 222.539 155.819 223.56 163.254C223.763 164.338 224.877 164.155 224.893 162.584C224.909 161.013 223.393 155.897 218.633 154.447C217.367 154.117 215.95 154.431 217.768 155.489ZM253.742 340.734C263.258 343.776 270.237 342.787 267.93 342.232C250.195 341.116 226.612 327.539 226.612 327.539L224.487 328.225C231.403 331.88 244.226 337.692 253.742 340.734ZM228.435 238.039C229.195 237.689 227.68 225.818 236.982 211.041L235.7 210.737C227.69 220.932 227.68 238.385 228.435 238.039ZM266.19 333.189C273.305 334.503 295.971 335.304 309.919 326.811C310.805 326.12 309.831 325.79 309.383 325.994C286.299 337.048 259.216 330.209 259.216 330.209C257.268 329.822 259.081 331.88 266.19 333.189ZM228.122 245.952C227.706 245.711 226.924 250.376 226.924 250.376L227.909 251.141C227.903 251.141 228.544 246.192 228.122 245.952ZM241.752 154.803C246.315 151.991 252.95 155.484 253.617 155.489C254.367 155.505 254.982 154.332 254.607 153.646C253.435 152.075 245.643 150.017 241.169 154.127C240.674 154.641 241.143 155.133 241.752 154.803ZM277.32 189.274C277.862 188.771 277.461 187.902 276.94 188.2C268.206 193.442 261.752 187.876 261.982 187.844C261.284 187.231 260.976 188.472 261.982 189.399C262.987 190.321 268.81 195.002 277.32 189.274ZM312.023 254.324L312.903 251.832C312.903 251.832 311.456 245.308 311.018 245.721C310.586 246.135 312.148 252.282 312.023 254.324ZM301.497 208.554L300.315 209.653C300.315 209.653 306.669 216.382 310.216 232.358C311.013 234.028 309.924 220.519 301.497 208.554ZM323.555 287.968C323.555 287.968 330.247 286.664 331.909 283.355C332.45 282.182 331.95 283.307 329.523 284.47C327.096 285.627 321.43 287.161 323.555 287.968ZM316.127 161.469C316.252 160.746 316.528 156.573 320.221 157.133C321.57 157.096 321.169 155.646 319.82 155.489C315.174 155.515 314.773 161.427 314.773 161.469C314.846 163.254 316.002 162.181 316.127 161.469ZM282.023 155.489C282.69 155.484 289.325 151.986 293.888 154.803C294.497 155.133 294.966 154.641 294.476 154.127C289.992 150.017 282.195 152.085 281.039 153.646C280.659 154.332 281.273 155.505 282.023 155.489ZM264.377 176.193C264.377 176.193 268.065 171.91 273.57 175.596C274.138 175.596 274.497 174.575 274.153 174.062C273.768 173.497 267.846 170.266 263.846 174.795C263.216 175.968 264.07 176.497 264.377 176.193ZM292.445 164.323C292.763 163.966 292.325 163.008 291.039 163.694C288.018 166.873 283.627 165.726 282.482 164.81C281.341 163.888 279.935 163.857 280.528 164.825C282.362 167.365 288.831 168.611 292.445 164.323ZM389.502 341.672C387.716 342.588 387.065 343.426 385.586 343.52C384.107 343.63 381.383 343.342 380.893 343.258C380.398 343.185 380.143 343.572 380.643 343.729C380.643 343.729 384.877 344.442 386.69 343.703C388.497 342.97 390.013 340.834 392.747 342.347L393.06 341.991C393.06 341.991 391.278 340.755 389.502 341.672ZM302.195 387.515C301.153 386.767 289.695 417.3 291.982 418.347C292.393 418.53 303.247 388.27 302.195 387.515ZM390.758 336.975C389.174 337.488 387.461 340.074 387.174 340.305C386.888 340.535 383.044 340.703 382.534 340.792C382.023 340.886 382.419 341.143 382.805 341.143C382.94 341.143 386.674 341.033 387.273 340.792C387.872 340.556 389.195 338.43 390.528 337.645C391.867 336.859 393.794 338.221 393.794 338.221L394.055 337.776C394.055 337.776 392.336 336.461 390.758 336.975ZM268.372 416.975C269.044 416.174 255.914 413.65 255.758 415.247C255.659 416.3 267.695 417.776 268.372 416.975ZM215.987 288.418C216.971 288.596 217.794 287.753 216.398 287.256C214.997 286.763 213.018 286.434 211.044 285.193C209.07 283.952 206.841 283.035 207.607 284.47C207.607 284.465 210.633 287.591 215.987 288.418ZM356.68 336.859C359.388 342.745 375.346 351.914 372.247 348.772C367.997 347.143 356.961 336.519 356.68 336.859ZM384.659 345.504C382.315 346.086 380.487 346.426 378.284 345.845C377.768 345.74 377.534 346.128 377.971 346.259C377.971 346.259 380.331 347.102 382.19 346.531C384.049 345.96 386.461 345.169 387.93 348.196L388.539 347.96C388.539 347.971 387.002 344.934 384.659 345.504ZM384.435 332.922C384.601 332.874 386.706 335.65 388.794 336.137C390.893 336.629 392.336 336.179 392.716 333.807H392.315C392.075 335.22 390.836 336.346 389.19 335.932C387.544 335.519 384.93 332.649 384.648 332.45C384.367 332.251 381.82 333.121 378.528 332.937C375.247 332.749 373.299 329.974 373.299 329.974C373.002 329.623 372.815 329.905 374.232 331.403C375.643 332.895 378.096 334.173 384.435 332.922ZM148.945 337.645C150.284 338.43 151.601 340.556 152.2 340.792C152.799 341.033 156.534 341.143 156.669 341.143C157.055 341.143 157.45 340.886 156.94 340.792C156.43 340.703 152.586 340.546 152.299 340.305C152.013 340.074 150.299 337.488 148.716 336.975C147.127 336.461 145.409 337.776 145.409 337.776L145.669 338.221C145.68 338.221 147.607 336.859 148.945 337.645ZM158.836 343.729C159.341 343.572 159.086 343.185 158.591 343.258C158.096 343.331 155.377 343.619 153.893 343.52C152.414 343.415 151.763 342.577 149.982 341.672C148.195 340.755 146.419 342.001 146.419 342.001L146.732 342.357C149.471 340.844 150.982 342.975 152.794 343.714C154.601 344.442 158.836 343.729 158.836 343.729ZM161.19 345.845C158.976 346.426 157.159 346.075 154.815 345.504C152.471 344.928 150.935 347.971 150.935 347.971L151.544 348.201C153.013 345.175 155.424 345.96 157.284 346.541C159.143 347.112 161.502 346.269 161.502 346.269C161.94 346.128 161.716 345.74 161.19 345.845ZM166.164 329.963C166.164 329.963 164.216 332.749 160.935 332.932C157.653 333.121 155.096 332.246 154.815 332.445C154.539 332.644 151.93 335.508 150.278 335.922C148.622 336.336 147.388 335.215 147.153 333.801H146.758C147.138 336.173 148.581 336.618 150.68 336.131C152.778 335.644 154.872 332.864 155.039 332.916C161.377 334.163 163.815 332.874 165.226 331.387C166.643 329.895 166.461 329.617 166.164 329.963ZM183.32 337.289C183.31 335.791 174.487 345.169 168.778 348.201C166.971 349.112 166.362 350.217 167.299 349.94C168.278 350.432 183.549 339.064 183.32 337.289ZM325.159 461.227C324.581 460.698 322.93 443.911 311.299 447.335C300.044 450.65 288.711 490.928 295.107 499.725C297.148 501.772 300.586 500.143 301.466 496.63C302.346 493.116 305.617 461.473 312.502 459.054C315.831 458.242 319.305 473.093 320.044 488.817C320.633 494.415 326.711 494.488 328.226 489.43C329.169 486.252 328.424 464.699 334.721 457.918C341.023 451.142 342.237 478.596 342.138 497.625C342.773 500.898 348.367 501.966 350.117 498.447C351.867 494.933 353.028 457.818 343.893 448.765C336.565 441.518 325.924 451.744 325.159 461.227ZM238.841 446.801C239.471 447.278 255.221 495.347 254.747 498.861C254.268 502.374 247.086 500.552 245.18 498.787C244.581 498.232 243.518 493.656 241.815 488.535L226.044 488.817C224.669 494.797 223.872 498.086 223.549 498.971C222.596 501.61 213.57 503.254 213.414 499.259C213.351 497.787 224.539 451.32 226.601 447.33C228.674 443.35 238.206 446.319 238.841 446.801ZM237.851 478.517C235.055 469.595 232.367 460.41 232.367 460.41C232.367 460.41 230.367 469.443 228.315 478.549C231.034 478.565 235.023 478.538 237.851 478.517ZM271.695 489.236C267.534 481.659 270.94 454.677 268.768 448.587C267.68 445.55 262.221 442.434 258.789 448.786C257.028 452.043 258.461 493.991 263.216 497.97C267.971 501.945 286.117 502.688 288.398 501.039C290.674 499.384 290.138 494.085 288.742 492.86C287.336 491.634 273.586 491.792 271.695 489.236ZM203.586 490.791C188.206 489.42 187.95 457.017 204.523 455.891C206.206 455.776 207.706 454.771 208.336 453.189C209.273 450.859 209.997 447.665 207.747 446.293C168.68 437.308 174.086 514.711 208.549 499.374C211.232 496.557 209.758 490.791 203.586 490.791Z" fill="#2B3244"/>
<path d="M112.224 230.912L103.932 218.895C102.948 217.468 101.922 216.686 100.855 216.547C99.7942 216.372 98.5067 216.807 96.9922 217.852C95.8948 218.609 94.9473 219.49 94.1497 220.494C93.3589 221.461 92.6953 222.518 92.1589 223.666L90.2733 220.933C90.6826 220.165 91.3266 219.267 92.2052 218.239C93.1057 217.197 94.2364 216.206 95.5972 215.267C96.7605 214.464 97.839 213.914 98.8329 213.617C99.8486 213.305 100.796 213.364 101.676 213.794C102.687 213.615 103.592 213.8 104.392 214.349C105.215 214.884 105.989 215.677 106.716 216.731L115.122 228.912L112.224 230.912ZM106.789 235.148C104.857 236.481 103.073 237.064 101.436 236.898C99.805 236.695 98.4142 235.759 97.2632 234.091C96.0061 232.27 95.6953 230.411 96.3307 228.514C96.988 226.603 98.7486 224.529 101.612 222.294L105.207 219.474L106.888 221.91L103.689 224.457C101.556 226.156 100.251 227.575 99.7735 228.714C99.3181 229.838 99.4538 230.927 100.181 231.981C100.862 232.969 101.669 233.481 102.602 233.518C103.557 233.539 104.594 233.164 105.713 232.392C106.086 232.134 106.411 231.877 106.688 231.622C106.95 231.344 107.193 231.062 107.418 230.778L109.401 232.665C109.09 233.107 108.705 233.535 108.245 233.949C107.823 234.37 107.338 234.77 106.789 235.148ZM102.282 214.882L99.5677 214.471C100.078 213.989 100.464 213.399 100.727 212.699C100.989 212 100.893 211.321 100.439 210.662L103.303 208.686C103.773 209.366 104.024 210.084 104.059 210.837C104.1 211.554 103.96 212.267 103.638 212.975C103.301 213.66 102.849 214.296 102.282 214.882ZM127.111 221.125C125.267 222.398 123.553 222.965 121.968 222.828C120.367 222.668 118.87 222.001 117.475 220.825C116.066 219.627 114.717 218.095 113.43 216.229C111.945 214.078 110.946 212.208 110.433 210.619C109.941 209.014 109.886 207.643 110.267 206.505C110.633 205.345 111.387 204.371 112.528 203.584C113.296 203.054 114.035 202.739 114.743 202.639C115.474 202.523 116.161 202.697 116.804 203.16L116.936 203.07C116.716 202.282 116.808 201.57 117.212 200.935C117.601 200.278 118.18 199.684 118.948 199.154C120.375 198.169 121.737 197.796 123.036 198.034C124.341 198.235 125.531 199.115 126.606 200.674L136.102 214.435L133.172 216.457L123.699 202.728C123.108 201.872 122.52 201.419 121.935 201.37C121.35 201.32 120.772 201.492 120.201 201.886C119.565 202.325 119.199 202.804 119.104 203.323C119.03 203.827 119.203 204.453 119.622 205.201L117.778 206.473C117.16 205.766 116.574 205.409 116.019 205.403C115.449 205.375 114.934 205.52 114.473 205.838C113.595 206.444 113.292 207.414 113.565 208.749C113.823 210.061 114.762 211.892 116.382 214.24C117.427 215.755 118.431 216.974 119.392 217.898C120.376 218.807 121.39 219.338 122.436 219.492C123.466 219.623 124.585 219.272 125.792 218.439C126.231 218.136 126.578 217.864 126.833 217.624C127.088 217.383 127.325 217.139 127.542 216.891L129.384 218.925C129.16 219.306 128.841 219.689 128.426 220.072C128.01 220.456 127.572 220.807 127.111 221.125ZM107.284 203.461L106.398 202.177L108.074 199.465L119.663 191.468L121.276 193.806L107.284 203.461Z" fill="black"/>
<path d="M391.667 230.752L402.353 220.803C403.621 219.622 404.247 218.493 404.228 217.417C404.248 216.342 403.631 215.131 402.377 213.785C401.468 212.809 400.459 211.999 399.35 211.356C398.279 210.714 397.136 210.211 395.923 209.847L398.353 207.584C399.173 207.878 400.154 208.385 401.299 209.105C402.461 209.844 403.605 210.819 404.732 212.029C405.695 213.063 406.396 214.051 406.834 214.991C407.29 215.951 407.37 216.897 407.072 217.83C407.396 218.804 407.344 219.726 406.917 220.598C406.508 221.489 405.835 222.37 404.898 223.243L394.066 233.328L391.667 230.752ZM386.686 225.989C385.087 224.271 384.251 222.591 384.178 220.947C384.142 219.304 384.866 217.792 386.349 216.411C387.969 214.903 389.763 214.325 391.732 214.678C393.718 215.051 396.025 216.492 398.653 219.001L401.965 222.147L399.799 224.165L396.814 221.369C394.824 219.506 393.23 218.421 392.034 218.114C390.855 217.826 389.797 218.119 388.861 218.991C387.982 219.809 387.593 220.682 387.692 221.61C387.809 222.557 388.331 223.529 389.258 224.524C389.566 224.856 389.868 225.14 390.161 225.377C390.474 225.596 390.788 225.796 391.102 225.977L389.522 228.213C389.04 227.969 388.561 227.65 388.085 227.256C387.607 226.899 387.141 226.477 386.686 225.989ZM406.083 218.587L406.096 215.842C406.646 216.277 407.287 216.573 408.017 216.731C408.747 216.889 409.405 216.696 409.991 216.151L412.362 218.698C411.757 219.261 411.084 219.614 410.343 219.758C409.64 219.902 408.915 219.867 408.168 219.652C407.44 219.418 406.745 219.063 406.083 218.587ZM403.511 244.06C401.985 242.42 401.175 240.806 401.08 239.218C401.006 237.612 401.449 236.033 402.41 234.482C403.39 232.914 404.71 231.357 406.369 229.812C408.282 228.031 409.987 226.772 411.485 226.033C413.001 225.313 414.35 225.059 415.531 225.271C416.732 225.465 417.805 226.069 418.75 227.084C419.386 227.767 419.805 228.452 420.006 229.139C420.227 229.845 420.154 230.55 419.789 231.254L419.898 231.371C420.646 231.039 421.364 231.027 422.051 231.334C422.757 231.624 423.429 232.11 424.065 232.793C425.246 234.062 425.813 235.355 425.766 236.674C425.756 237.995 425.059 239.3 423.673 240.59L411.436 251.984L409.01 249.379L421.218 238.012C421.979 237.303 422.342 236.656 422.306 236.07C422.271 235.484 422.016 234.937 421.544 234.429C421.017 233.863 420.49 233.571 419.962 233.552C419.453 233.553 418.858 233.815 418.179 234.338L416.653 232.698C417.263 231.984 417.531 231.352 417.456 230.802C417.401 230.234 417.183 229.745 416.801 229.336C416.074 228.555 415.071 228.396 413.79 228.86C412.529 229.306 410.854 230.501 408.766 232.445C407.419 233.699 406.358 234.869 405.584 235.954C404.827 237.059 404.449 238.14 404.449 239.197C404.469 240.235 404.978 241.291 405.978 242.365C406.341 242.755 406.66 243.059 406.936 243.276C407.211 243.493 407.487 243.692 407.763 243.872L406.018 245.989C405.609 245.823 405.184 245.563 404.744 245.207C404.304 244.852 403.893 244.469 403.511 244.06ZM418.11 221.878L419.252 220.814L422.178 222.079L431.773 232.384L429.694 234.319L418.11 221.878Z" fill="black"/>
</svg>
