<svg width="270" height="448" viewBox="0 0 270 448" fill="none" xmlns="http://www.w3.org/2000/svg">
<path d="M67.7466 176.463C59.2815 159.623 67.6396 105.635 69.7305 81.8481C71.8102 58.0556 69.1331 31.5774 96.9802 11.4283C124.822 -8.72073 182.359 -4.18776 194.871 40.8643C207.382 85.9107 200.743 99.096 207.382 131.682C214.022 164.274 205.866 186.044 191.76 188.94" fill="#4B4441"/>
<path d="M47.1699 337.281C49.8695 334.867 52.6819 332.674 55.9902 331.411C67.2395 327.144 90.0537 324.685 107.999 317.568C111.493 328.323 117.946 348.104 120.995 357.181C113.167 358.308 106.127 359.872 100.531 362.32C90.0706 366.915 72.3287 378.384 57.1624 376.775C53.5611 368.032 48.4155 357.153 47.1699 337.281Z" fill="#F2C1B8"/>
<path d="M80.7037 145.95C78.7029 140.306 76.1667 134.447 78.8494 128.22C79.5201 127.217 99.3811 132.731 99.5333 132.646C99.6855 132.566 109.509 128.747 117.162 129.926C124.816 131.11 160.165 127.739 168.072 131.144C168.072 131.144 176.785 122.628 182.799 121.296C184.867 121.205 187.155 126.124 187.944 133.388C188.327 136.578 186.558 141.57 188.085 144.652C188.085 144.652 194.831 153.118 197.007 170.575C199.177 188.027 184.427 232.207 184.427 232.207C184.794 240.921 184.427 257.195 184.427 257.195C184.427 257.195 222.312 260.713 230.456 264.272C238.589 267.836 186.744 344.222 133.405 338.131C80.0612 332.04 40.2039 269.519 40.2039 269.519C40.2039 269.519 57.9739 261.994 68.7893 261.994C79.599 261.994 88.3122 258.708 88.3122 258.708C88.3122 258.708 85.9789 241.239 85.528 232.207C85.528 232.207 73.7546 198.714 73.3939 186.327C73.0388 173.947 80.7037 145.95 80.7037 145.95Z" fill="white"/>
<path d="M128.564 137.264C120.42 136.578 118.318 134.204 116.024 132.238C116.024 132.238 125.69 123.234 125.892 122.832L153.069 122.362L159.308 122.554L161.54 129.847C151.412 136.709 138.725 138.125 128.564 137.264ZM246.056 279.571L232.857 269.304C213.182 261.235 163.214 286.518 135.226 302.649C107.238 286.518 57.2694 261.235 37.5943 269.304L24.4006 279.571C13.0273 301.199 22.8846 344.874 106.144 353.164C110.298 353.6 114.536 353.957 118.774 354.297C119.749 355.442 120.696 356.416 121.558 357.187C125.909 356.564 130.508 356.076 135.237 355.651C139.96 356.076 144.564 356.564 148.915 357.187C149.778 356.428 150.719 355.442 151.699 354.297C155.938 353.957 160.165 353.589 164.324 353.164C247.561 344.874 257.418 301.188 246.056 279.571Z" fill="#FFAC83"/>
<path d="M213.26 376.78C198.1 378.389 179.811 366.921 169.362 362.331C163.766 359.872 156.726 358.308 148.898 357.186C151.947 348.115 158.4 328.334 161.894 317.58C179.845 324.691 202.665 327.144 213.903 331.422C217.211 332.674 220.311 334.641 223.005 337.054C221.771 356.92 216.873 368.032 213.26 376.78Z" fill="#F2C1B8"/>
<path d="M57.1737 376.78C50.6416 376.083 44.6901 372.967 40.1926 365.822C34.3989 356.903 38.8795 344.698 47.4179 337.049C62.6462 345.18 65.1711 367.074 57.1737 376.78ZM213.261 376.78C219.793 376.083 225.75 372.967 230.242 365.822C236.036 356.903 231.561 344.698 223.017 337.049C207.788 345.18 205.263 367.074 213.261 376.78Z" fill="#929292"/>
<path d="M114.767 119.409L154.128 117.205L157.138 117.035C157.324 117.114 157.51 117.199 157.69 117.279L158.152 118.797L159.308 122.565C154.286 126.991 141.295 134.515 128.553 137.258C120.409 136.567 113.877 134.436 111.583 132.47C111.588 132.476 114.57 119.812 114.767 119.409Z" fill="#C8734A"/>
<path d="M181.457 85.6844C181.198 91.2713 169.802 127.11 135.102 127.11C98.4623 127.11 86.7791 86.642 86.7791 86.642C71.4211 87.7809 67.7916 66.4533 82.5803 65.5297C120.375 62.9686 137.638 54.8036 149.321 29.4473C149.321 29.4473 157.938 57.6027 180.516 63.5182C174.677 56.9511 170.157 49.1997 167.35 40.8534C167.626 37.5273 172.513 51.3868 183.897 64.2152C184.641 64.3285 185.391 64.4191 186.163 64.4815C196.043 66.068 197.627 85.8658 181.457 85.6844ZM268.081 274.732C269.208 275.599 267.929 279.299 262.874 281.067C261.6 284.54 255.722 286.875 247.426 283.277C235.618 278.171 227.029 265.394 224.166 264.272C191.512 249.336 184.438 232.207 184.438 232.207C184.957 224.988 181.006 181.63 180.747 179.483C180.476 177.33 187.685 167.811 190.954 160.994C194.217 154.172 188.231 145.44 188.096 144.664C203.296 160.609 214.934 205.536 214.934 205.536C222.847 214.376 242.28 245.013 245.628 249.693C248.975 254.368 255.203 253.438 260.028 256.793C264.852 260.142 267.642 265.502 267.642 265.502C269.248 265.275 271.051 267.547 269.248 270.278C270.922 271.871 268.081 274.732 268.081 274.732ZM263.668 267.763C263.668 267.763 262.13 267.128 261.262 266.289C260.4 265.445 259.627 264.346 259.182 264.284C258.748 264.221 255.248 264.822 255.248 264.822C255.22 264.98 258.218 268.845 259.148 269.185C260.073 269.536 263.691 268.46 263.668 267.763ZM89.7097 176.038L89.225 179.483C88.9602 181.642 85.0094 225 85.5335 232.207C85.5335 232.207 78.4604 249.336 45.8115 264.272C42.9372 265.383 34.3536 278.171 22.5464 283.277C14.2446 286.875 8.372 284.54 7.09828 281.067C2.04285 279.299 0.763494 275.599 1.89068 274.732C1.89068 274.732 -0.944192 271.859 0.752222 270.267C-1.05128 267.542 0.752222 265.269 2.35283 265.49C2.35283 265.49 5.14825 260.13 9.9726 256.787C14.797 253.438 21.019 254.362 24.3724 249.682C27.7201 245.001 47.1528 214.37 55.0657 205.531C55.0657 205.531 66.1065 162.898 80.7317 145.95C83.8258 152.172 73.2021 163.595 89.7097 176.038ZM14.7068 264.822C14.7068 264.822 11.2125 264.221 10.7729 264.284C10.3389 264.346 9.56118 265.439 8.69325 266.289C7.82531 267.128 6.28671 267.763 6.28671 267.763C6.2698 268.46 9.8937 269.536 10.8067 269.185C11.7366 268.845 14.7237 264.98 14.7068 264.822ZM93.9705 59.1496C93.9705 59.1496 124.354 53.4267 138.049 35.9691C139.204 34.5752 138.855 33.374 136.882 35.1531C123.373 49.602 107.401 54.3786 101.838 55.8745C96.2756 57.3704 91.8007 59.0079 93.9705 59.1496Z" fill="#FFAC83"/>
<path d="M118.729 82.3759C120.172 81.339 120.527 83.0672 120.256 83.2825C116.621 86.4725 108.359 85.5263 106.623 82.6195C106.172 81.0783 107.7 81.5429 108.737 82.4099C109.768 83.2881 116.131 84.41 118.729 82.3759ZM159.877 317.58C161.878 316.73 135.75 302.344 135.75 302.344C136.465 303.364 157.876 318.43 159.877 317.58ZM78.7421 72.5337C79.8749 72.8906 83.9046 72.8906 85.0093 80.9367C85.2291 82.1096 86.4352 81.9112 86.4521 80.2114C86.469 78.5115 84.8289 72.9756 79.6777 71.4061C78.3081 71.0491 76.7752 71.3891 78.7421 72.5337ZM117.669 272.987C127.966 276.279 135.518 275.208 133.022 274.608C113.831 273.401 88.3119 258.708 88.3119 258.708L86.0125 259.451C93.497 263.406 107.373 269.695 117.669 272.987ZM90.2845 161.862C91.1073 161.482 89.4673 148.637 99.5331 132.647L98.1466 132.318C89.4786 143.35 89.4673 162.235 90.2845 161.862ZM131.139 264.822C138.838 266.245 163.366 267.111 178.459 257.921C179.417 257.173 178.363 256.816 177.878 257.037C152.9 268.998 123.593 261.598 123.593 261.598C121.485 261.179 123.446 263.406 131.139 264.822ZM89.9463 170.423C89.4955 170.163 88.6501 175.211 88.6501 175.211L89.7153 176.038C89.7096 176.038 90.4029 170.684 89.9463 170.423ZM104.696 71.7914C109.633 68.7486 116.813 72.528 117.534 72.5337C118.346 72.5507 119.011 71.2814 118.605 70.5392C117.337 68.8393 108.906 66.6125 104.064 71.0604C103.529 71.6157 104.036 72.1484 104.696 71.7914ZM143.183 109.092C143.769 108.548 143.335 107.608 142.772 107.931C133.32 113.602 126.338 107.579 126.586 107.545C125.83 106.882 125.498 108.225 126.586 109.228C127.673 110.225 133.974 115.291 143.183 109.092ZM180.736 179.483L181.688 176.786C181.688 176.786 180.121 169.726 179.648 170.174C179.18 170.621 180.871 177.274 180.736 179.483ZM169.345 129.955L168.066 131.145C168.066 131.145 174.942 138.426 178.78 155.714C179.642 157.521 178.464 142.902 169.345 129.955ZM193.213 215.889C193.213 215.889 200.456 214.478 202.254 210.897C202.84 209.628 202.299 210.846 199.672 212.104C197.046 213.356 190.914 215.016 193.213 215.889ZM185.177 79.0045C185.312 78.2225 185.611 73.7066 189.606 74.3128C191.066 74.2732 190.632 72.7036 189.173 72.5337C184.145 72.562 183.711 78.9591 183.711 79.0045C183.79 80.9367 185.041 79.7751 185.177 79.0045ZM148.273 72.5337C148.994 72.528 156.174 68.743 161.111 71.7914C161.771 72.1484 162.278 71.6157 161.748 71.0604C156.896 66.6125 148.459 68.8506 147.207 70.5392C146.796 71.2814 147.461 72.5507 148.273 72.5337ZM129.178 94.9379C129.178 94.9379 133.168 90.3029 139.125 94.2919C139.74 94.2919 140.129 93.187 139.757 92.6317C139.34 92.0198 132.932 88.5237 128.603 93.425C127.921 94.6942 128.846 95.2665 129.178 94.9379ZM159.55 82.0926C159.894 81.7073 159.42 80.6703 158.028 81.4126C154.76 84.852 150.008 83.6111 148.769 82.6195C147.534 81.6223 146.013 81.5883 146.655 82.6365C148.639 85.3846 155.639 86.7332 159.55 82.0926ZM264.576 274.002C262.642 274.993 261.938 275.9 260.337 276.002C258.737 276.121 255.789 275.809 255.259 275.718C254.724 275.639 254.448 276.058 254.989 276.228C254.989 276.228 259.571 276.999 261.532 276.2C263.488 275.407 265.128 273.095 268.087 274.733L268.425 274.347C268.425 274.347 266.497 273.01 264.576 274.002ZM170.101 323.609C168.973 322.799 156.574 355.839 159.048 356.972C159.494 357.17 171.239 324.425 170.101 323.609ZM265.934 268.919C264.221 269.474 262.366 272.273 262.056 272.523C261.746 272.772 257.587 272.953 257.035 273.05C256.482 273.152 256.911 273.429 257.328 273.429C257.474 273.429 261.515 273.31 262.163 273.05C262.812 272.795 264.243 270.494 265.686 269.644C267.134 268.794 269.22 270.268 269.22 270.268L269.501 269.786C269.501 269.786 267.642 268.364 265.934 268.919ZM133.501 355.487C134.228 354.62 120.02 351.889 119.851 353.618C119.743 354.756 132.768 356.354 133.501 355.487ZM76.8146 216.376C77.8798 216.569 78.7703 215.657 77.2599 215.118C75.7438 214.586 73.6021 214.229 71.4661 212.886C69.3301 211.543 66.9179 210.551 67.7464 212.104C67.7464 212.098 71.0209 215.481 76.8146 216.376ZM229.058 268.794C231.989 275.163 249.257 285.085 245.904 281.685C241.305 279.923 229.362 268.426 229.058 268.794ZM259.334 278.149C256.798 278.778 254.82 279.146 252.436 278.518C251.878 278.404 251.624 278.824 252.098 278.965C252.098 278.965 254.651 279.877 256.663 279.26C258.675 278.642 261.284 277.787 262.874 281.062L263.533 280.807C263.533 280.818 261.87 277.532 259.334 278.149ZM259.092 264.533C259.272 264.482 261.549 267.485 263.809 268.012C266.08 268.545 267.642 268.058 268.053 265.491H267.619C267.36 267.021 266.018 268.239 264.237 267.791C262.457 267.344 259.627 264.239 259.323 264.023C259.019 263.808 256.263 264.749 252.701 264.55C249.15 264.346 247.042 261.343 247.042 261.343C246.721 260.964 246.518 261.27 248.051 262.89C249.578 264.505 252.233 265.888 259.092 264.533ZM4.26893 269.644C5.71737 270.494 7.14326 272.795 7.79139 273.05C8.43952 273.31 12.4805 273.429 12.627 273.429C13.0441 273.429 13.4724 273.152 12.9201 273.05C12.3678 272.953 8.20845 272.783 7.89847 272.523C7.5885 272.273 5.73428 269.474 4.02095 268.919C2.302 268.364 0.442139 269.786 0.442139 269.786L0.723935 270.268C0.735206 270.268 2.8205 268.794 4.26893 269.644ZM14.9716 276.228C15.5183 276.058 15.2421 275.639 14.7067 275.718C14.1713 275.798 11.2293 276.109 9.62307 276.002C8.02247 275.888 7.31797 274.982 5.39049 274.002C3.45736 273.01 1.53551 274.359 1.53551 274.359L1.87366 274.744C4.83816 273.106 6.47258 275.412 8.43389 276.211C10.3896 276.999 14.9716 276.228 14.9716 276.228ZM17.519 278.518C15.1237 279.146 13.1568 278.767 10.6206 278.149C8.08446 277.526 6.42186 280.818 6.42186 280.818L7.08126 281.067C8.6706 277.792 11.28 278.642 13.2921 279.271C15.3041 279.889 17.8572 278.977 17.8572 278.977C18.3306 278.824 18.0882 278.404 17.519 278.518ZM22.9013 261.332C22.9013 261.332 20.7935 264.346 17.2428 264.545C13.6922 264.749 10.925 263.802 10.6206 264.018C10.3219 264.233 7.49832 267.332 5.71173 267.78C3.91951 268.228 2.58379 267.015 2.33018 265.485H1.90184C2.31327 268.052 3.87442 268.534 6.1457 268.007C8.41698 267.48 10.6826 264.471 10.863 264.528C17.7219 265.876 20.3595 264.482 21.8869 262.873C23.4198 261.258 23.2226 260.958 22.9013 261.332ZM41.4661 269.259C41.4548 267.638 31.9075 277.787 25.7306 281.067C23.7749 282.053 23.1155 283.249 24.13 282.949C25.1895 283.481 41.7141 271.18 41.4661 269.259ZM194.949 403.373C194.324 402.8 192.537 384.634 179.952 388.34C167.773 391.927 155.509 435.511 162.43 445.031C164.639 447.246 168.359 445.484 169.312 441.682C170.264 437.88 173.803 403.639 181.254 401.021C184.855 400.143 188.615 416.212 189.415 433.228C190.052 439.285 196.629 439.364 198.269 433.891C199.289 430.451 198.483 407.129 205.297 399.792C212.116 392.459 213.43 422.167 213.322 442.758C214.01 446.3 220.063 447.456 221.957 443.648C223.85 439.846 225.107 399.684 215.222 389.887C207.292 382.045 195.778 393.111 194.949 403.373ZM101.545 387.762C102.227 388.278 119.27 440.294 118.757 444.096C118.239 447.898 110.467 445.926 108.404 444.016C107.756 443.416 106.606 438.463 104.763 432.922L87.6976 433.228C86.2097 439.699 85.3474 443.257 84.998 444.215C83.9666 447.07 74.1996 448.85 74.0305 444.526C73.9628 442.934 86.0688 392.652 88.3007 388.334C90.5437 384.028 100.858 387.241 101.545 387.762ZM100.474 422.082C97.4478 412.427 94.5396 402.489 94.5396 402.489C94.5396 402.489 92.3754 412.263 90.1549 422.116C93.0968 422.133 97.4139 422.105 100.474 422.082ZM137.097 433.681C132.593 425.482 136.279 396.284 133.929 389.694C132.751 386.408 126.845 383.037 123.131 389.91C121.226 393.434 122.776 438.826 127.921 443.132C133.067 447.433 152.702 448.238 155.171 446.453C157.634 444.662 157.053 438.928 155.543 437.602C154.021 436.276 139.142 436.446 137.097 433.681ZM63.3955 435.364C46.7526 433.879 46.4764 398.817 64.4099 397.599C66.2303 397.474 67.8535 396.386 68.5354 394.675C69.5499 392.153 70.3333 388.697 67.8986 387.213C25.6235 377.489 31.4736 461.247 68.7665 444.651C71.669 441.603 70.0741 435.364 63.3955 435.364Z" fill="#646464"/>
</svg>
