<svg width="40" height="40" viewBox="0 0 40 40" fill="none" xmlns="http://www.w3.org/2000/svg">
<path d="M5.5 13.3334C5.5 11.7479 5.50106 10.6091 5.61758 9.7424C5.73216 8.89014 5.95009 8.37632 6.32986 7.99655C6.70964 7.61678 7.22345 7.39885 8.07572 7.28427C8.94237 7.16775 10.0812 7.16669 11.6667 7.16669H28.3333C29.9188 7.16669 31.0576 7.16775 31.9243 7.28427C32.7766 7.39885 33.2904 7.61678 33.6701 7.99655C34.0499 8.37632 34.2678 8.89014 34.3824 9.7424C34.4989 10.6091 34.5 11.7479 34.5 13.3334V27.8334H5.5V13.3334Z" stroke="white"/>
<path d="M6.11111 27.8333C5.22132 27.8333 4.5 28.5546 4.5 29.4444C4.5 30.9479 5.71878 32.1666 7.22222 32.1666H32.7778C34.2812 32.1666 35.5 30.9479 35.5 29.4444C35.5 28.5546 34.7787 27.8333 33.8889 27.8333H6.11111Z" stroke="white"/>
</svg>
