<svg width="41" height="41" viewBox="0 0 41 41" fill="none" xmlns="http://www.w3.org/2000/svg">
<circle cx="20.0443" cy="20.0443" r="20.0443" fill="#599B5C"/>
<path d="M34.9217 19.4208C34.9217 27.5881 28.3008 34.209 20.1335 34.209C11.9661 34.209 5.34521 27.5881 5.34521 19.4208C5.34521 11.2534 11.9661 4.63251 20.1335 4.63251C28.3008 4.63251 34.9217 11.2534 34.9217 19.4208Z" fill="white"/>
<path d="M20.3114 37.327C16.8803 34.2697 14.9286 32.8989 11.4028 31.0019H28.9527C25.0894 32.9373 23.1908 34.3151 20.3114 37.327Z" fill="white"/>
<path d="M15.1755 28.1501L15.8826 27.443L15.1755 28.1501C15.6684 28.643 16.2749 28.8334 16.8993 28.9173C17.4799 28.9954 18.2034 28.9953 19.0366 28.9953L19.1016 28.9953H20.9873L21.0523 28.9953C21.8855 28.9953 22.609 28.9954 23.1896 28.9173C23.814 28.8334 24.4205 28.643 24.9134 28.1501C25.4063 27.6572 25.5967 27.0507 25.6806 26.4263C25.7587 25.8457 25.7586 25.1222 25.7586 24.289L25.7586 24.224V14.7957L25.7586 14.7307C25.7586 13.8975 25.7587 13.174 25.6806 12.5934C25.5967 11.969 25.4063 11.3625 24.9134 10.8696C24.4205 10.3767 23.814 10.1863 23.1896 10.1024C22.609 10.0243 21.8855 10.0244 21.0523 10.0244C21.0307 10.0244 21.009 10.0244 20.9873 10.0244H19.1016C19.0799 10.0244 19.0582 10.0244 19.0366 10.0244C18.2034 10.0244 17.4799 10.0243 16.8993 10.1024C16.2749 10.1863 15.6684 10.3767 15.1755 10.8696C14.6826 11.3625 14.4922 11.969 14.4083 12.5934C14.3302 13.174 14.3303 13.8975 14.3303 14.7307C14.3303 14.7523 14.3303 14.774 14.3303 14.7957V24.224L14.3303 24.289C14.3303 25.1222 14.3302 25.8457 14.4083 26.4263C14.4922 27.0507 14.6826 27.6572 15.1755 28.1501Z" stroke="#599B5C" stroke-width="2"/>
</svg>
