<svg width="334" height="227" viewBox="0 0 334 227" fill="none" xmlns="http://www.w3.org/2000/svg">
<path fill-rule="evenodd" clip-rule="evenodd" d="M334 48.2303V188.317C334 209.304 316.987 226.317 296 226.317H1.31726C0.447101 218.681 0 210.916 0 203.046C0 90.907 90.7903 0 202.786 0C252.826 0 298.633 18.1484 334 48.2303Z" fill="#FFF5F1"/>
<path d="M147.111 110.253C147.149 109.99 147.635 109.843 148.197 109.923C148.759 110.004 149.184 110.28 149.146 110.541C149.108 110.801 148.623 110.948 148.061 110.868C147.499 110.789 147.075 110.513 147.111 110.253Z" fill="#362127"/>
<path d="M127.449 122.219C127.621 120.046 128.751 118.762 130.256 117.41L131.788 116.295C133.514 114.766 136.077 114.061 136.077 114.061L142.602 113.938C142.602 113.938 145.119 114.67 147.151 115.258C149.025 115.801 150.584 117.116 151.388 118.882C152.574 121.492 153.14 125.089 153.496 127.89C153.928 131.308 154.353 134.292 154.713 136.671L169.736 142.569L135.419 142.865L136.131 141.103L127.233 140.716C127.233 140.716 126.821 130.208 127.449 122.219Z" fill="#1977BF"/>
<path d="M132.76 115.564L138.333 138.042H145.127L146.579 115.094C146.579 115.094 139.85 110.99 132.76 115.564Z" fill="#114F80"/>
<path d="M135.061 114.347C135.061 114.347 139.64 112.513 144.203 114.076L144.639 136.099L139.071 136.916L135.061 114.347Z" fill="#DB711A"/>
<path d="M136.835 101.465C136.799 102.758 135.817 114.078 135.817 114.078C135.817 114.078 136.751 115.048 139.31 115.201C141.622 115.213 142.232 113.822 142.232 113.822C142.232 113.822 142.424 112.036 142.36 111.999C142.344 111.989 142.518 112.042 142.8 112.094C143.6 112.245 145.267 112.394 145.855 111.101C146.649 109.353 146.969 106.304 146.969 106.304C146.969 106.304 148.303 106.745 148.351 106.415C148.397 106.087 147.539 104.999 147.255 104.035C146.969 103.07 147.487 96.5528 141.852 96.0045C136.477 95.4821 136.871 100.172 136.835 101.465Z" fill="#844232"/>
<path d="M145.675 104C145.719 103.694 145.867 103.461 146.003 103.479C146.141 103.499 146.217 103.765 146.173 104.071C146.129 104.377 145.981 104.611 145.843 104.592C145.705 104.572 145.631 104.308 145.675 104Z" fill="#362127"/>
<path d="M145.759 108.671C145.729 108.671 145.699 108.667 145.669 108.664C145.263 108.612 145.003 108.211 144.993 108.195C144.971 108.161 144.983 108.117 145.015 108.095C145.027 108.087 145.041 108.083 145.055 108.083C145.077 108.083 145.101 108.095 145.115 108.117C145.119 108.121 145.349 108.479 145.689 108.522C145.711 108.526 145.735 108.526 145.757 108.526C145.919 108.526 146.085 108.453 146.247 108.302C146.261 108.29 146.279 108.284 146.295 108.284C146.315 108.284 146.335 108.292 146.349 108.306C146.377 108.336 146.375 108.381 146.345 108.407C146.155 108.582 145.957 108.671 145.759 108.671Z" fill="#44110A"/>
<path d="M142.369 112.018C142.367 112.008 142.364 112.001 142.36 111.999C142.36 111.999 142.362 111.999 142.364 111.999C142.367 112.003 142.367 112.01 142.369 112.018Z" fill="#DAC6C1"/>
<path d="M142.302 113.105C142.302 113.105 139.174 112.35 138.889 108.95C138.889 108.95 139.85 111.476 142.356 111.985C142.36 111.987 142.362 111.991 142.364 111.999C142.362 111.999 142.36 111.999 142.36 111.999C142.364 112.001 142.366 112.007 142.368 112.017C142.39 112.199 142.302 113.105 142.302 113.105Z" fill="#713326"/>
<path d="M136.323 108.177L138.833 108.556L140.96 106.524C140.96 106.524 138.975 103.63 140.682 102.585C142.848 101.259 143.454 105.056 143.454 105.056L144.07 104.864C144.07 104.864 143.492 100.72 144.114 99.9912C144.735 99.2622 147.157 99.6058 147.355 98.3962C147.607 96.8528 143.746 94.7095 140.448 94.8962C136.131 95.1385 135.175 99.1669 135.167 102.154C135.161 105.142 136.323 108.177 136.323 108.177Z" fill="#362127"/>
<path d="M141.524 103.489L141.382 103.47C141.422 103.196 142.382 96.7359 144.16 95.4507L144.244 95.5659C142.514 96.8153 141.534 103.424 141.524 103.489Z" fill="white"/>
<path d="M146.839 110.437C143.21 110.437 142.034 105.618 142.022 105.569C142.014 105.529 142.036 105.491 142.076 105.481C142.114 105.471 142.154 105.497 142.164 105.535C142.174 105.587 143.4 110.596 147.181 110.278C147.217 110.276 147.255 110.304 147.259 110.344C147.261 110.384 147.233 110.417 147.193 110.421C147.073 110.431 146.953 110.437 146.839 110.437Z" fill="#362127"/>
<path d="M141.1 104.739C140.872 104.032 140.94 103.348 141.252 103.211C141.566 103.076 142.002 103.539 142.232 104.246C142.46 104.953 142.392 105.637 142.08 105.774C141.768 105.909 141.328 105.446 141.1 104.739Z" fill="#362127"/>
<path d="M140.628 123.669L139.311 115.201C139.32 115.201 139.328 115.201 139.34 115.201C139.462 115.201 139.582 115.197 139.696 115.189C139.892 115.181 140.114 115.167 140.224 115.149C140.416 115.115 140.966 114.931 140.966 114.931L142.366 123.097L140.628 123.669Z" fill="#E17E1F"/>
<path d="M139.34 115.201C139.328 115.201 139.32 115.201 139.311 115.201C139.311 115.201 139.49 115.197 139.696 115.189C139.582 115.197 139.462 115.201 139.34 115.201Z" fill="#995236"/>
<path d="M140.838 116.786C140.838 117.056 140.618 117.277 140.344 117.277C140.072 117.277 139.85 117.056 139.85 116.786C139.85 116.516 140.072 116.295 140.344 116.295C140.618 116.295 140.838 116.516 140.838 116.786Z" fill="#F2F2F2"/>
<path d="M141.46 119.551C141.46 119.823 141.238 120.042 140.966 120.042C140.692 120.042 140.472 119.823 140.472 119.551C140.472 119.281 140.692 119.062 140.966 119.062C141.238 119.062 141.46 119.281 141.46 119.551Z" fill="#F2F2F2"/>
<path d="M150.624 125.196H145.923V123.669H150.624V125.196Z" fill="#F2F2F2"/>
<path d="M135.539 142.569H135.041C135.215 142.541 135.393 142.513 135.573 142.483L135.539 142.569Z" fill="#BCD8ED"/>
<path d="M163.698 142.569H135.539L135.573 142.483C140.874 141.629 147.407 140.149 148.205 139.969L163.698 142.569Z" fill="#1265B1"/>
<path d="M127.137 137.011L147.969 135.545L148.765 139.857L148.287 139.951C148.287 139.951 134.146 143.2 129.86 143.083C128.299 143.039 126.709 142.253 127.137 137.011Z" fill="#1977BF"/>
<path d="M132.85 136.61V125.715L134.711 136.479L132.85 136.61Z" fill="#1265B1"/>
<path d="M132.85 137.011V136.61L134.711 136.479L134.771 136.824L132.85 137.011Z" fill="#1265B1"/>
<path d="M149.067 136.693V125.395L150.988 136.506L149.067 136.693Z" fill="#1265B1"/>
<path d="M147.969 135.545L148.765 139.857L156.723 141.399L161.11 140.668C161.11 140.668 153.868 136.308 147.969 135.545Z" fill="#844232"/>
<mask id="mask0_803_286" style="mask-type:luminance" maskUnits="userSpaceOnUse" x="16" y="219" width="295" height="7">
<path d="M16 219.205H310.771V225.694H16V219.205Z" fill="white"/>
</mask>
<g mask="url(#mask0_803_286)">
<path d="M163.386 225.694C81.9864 225.694 16 224.217 16 222.393C16 222.109 17.6097 221.831 20.637 221.567V221.795H214.713V219.296C270.805 219.765 310.771 220.973 310.771 222.393C310.771 224.217 244.785 225.694 163.386 225.694Z" fill="#F7F7F7"/>
</g>
<path d="M20.637 221.795H214.713V142.871H20.637V221.795Z" fill="#DAC7CA"/>
<path d="M16 144.672H217.718V142.569H16V144.672Z" fill="#DAC7CA"/>
<path d="M214.713 221.795H171.204L184.031 221.668L184.597 216.356C186.409 216.219 188.054 215.975 188.054 215.975L188.314 213.925H196.941L197.035 215.095L196.991 215.101L197.019 215.29L197.049 215.286L197.103 215.945C197.103 215.945 197.509 215.993 198.136 216.052V216.058L198.328 216.07C198.338 216.072 198.35 216.072 198.36 216.074L197.916 216.664C194.739 220.26 189.234 220.367 190.006 221.731L203.141 221.769L202.927 218.976L202.779 216.261C203.683 216.227 204.427 216.118 204.747 215.884C204.863 215.8 204.933 215.17 204.967 214.114H204.969L204.967 214.104C204.969 214.044 204.971 213.987 204.973 213.925H214.713V221.795ZM171.204 221.795H20.637V213.925H68.9211C68.7871 214.342 68.6771 214.69 68.5971 214.96C68.1212 216.549 68.5891 217.183 69.5469 217.183C70.7407 217.183 72.6943 216.201 74.5279 214.863C75.4537 214.187 76.1976 213.957 76.8194 213.957C77.4673 213.957 77.9852 214.205 78.4391 214.453C78.895 214.702 79.2889 214.948 79.6909 214.948C79.8768 214.948 80.0648 214.896 80.2627 214.765C80.4167 214.664 80.5787 214.372 80.7446 213.925H95.4416C95.5836 214.888 95.7675 215.468 96.0115 215.468C96.0435 215.468 96.0755 215.461 96.1075 215.441C96.6314 215.145 97.8451 214.547 99.1408 213.925H179.898C179.884 214.596 179.884 215.204 179.9 215.741C179.904 215.937 180.062 216.084 180.326 216.191L179.754 216.881C176.511 220.19 170.454 220.508 171.204 221.795Z" fill="#D0B9BD"/>
<path d="M214.713 146.941H213.407C214.331 145.559 214.713 144.673 214.713 144.673V146.941Z" fill="#D0B9BC"/>
<path d="M21.033 146.941H20.637V144.673C20.745 145.449 20.877 146.206 21.033 146.941Z" fill="#D0B9BC"/>
<path d="M63.7561 170.436C43.5123 170.436 24.8822 164.948 21.033 146.941H66.1816C67.8973 149.138 71.0746 151.18 73.0822 151.579C73.8221 151.726 74.4759 151.804 75.0618 151.804C77.2154 151.804 78.4591 150.745 79.7908 148.161C79.9848 147.785 80.1807 147.374 80.3787 146.941H83.756L83.954 151.905L84.7298 151.879C84.0859 153.466 83.0382 157.072 81.8944 161.45C81.8844 161.45 81.8744 161.45 81.8644 161.45H69.117C67.6433 161.45 66.4476 162.725 66.4476 164.298V170.406C65.5478 170.426 64.652 170.436 63.7561 170.436ZM100.479 165.698C100.517 164.461 100.549 163.416 100.579 162.673C100.772 157.755 99.8007 151.387 99.8007 151.387L92.6582 151.615L100.043 151.371L100.517 149.023C100.517 149.023 102.864 150.507 104.856 150.507C105.881 150.507 106.811 150.113 107.281 148.926C107.469 148.445 107.539 147.766 107.515 146.941H179.638C179.904 147.338 180.126 147.605 180.288 147.698C180.512 147.811 180.746 147.863 180.982 147.863C181.648 147.863 182.348 147.466 182.982 146.941H185.291L185.303 147.106C185.307 147.285 185.311 147.456 185.311 147.611C185.311 148.606 184.299 156.879 182.66 162.58C180.724 162.751 178.678 162.844 176.521 162.844C174.435 162.844 172.246 162.759 169.942 162.574C153.4 161.259 142.214 159.388 132.004 159.388C125.261 159.388 118.947 160.204 111.794 162.532C108.567 163.583 104.728 164.673 100.479 165.698ZM203.881 155.959C203.357 152.916 202.961 149.98 202.843 147.611C202.843 147.611 203.003 147.622 203.279 147.622C203.997 147.622 205.507 147.539 207.147 146.941H213.407C211.902 149.196 208.956 152.769 203.881 155.959Z" fill="#E5D6D9"/>
<path d="M213.407 146.941H207.147C207.255 146.901 207.362 146.86 207.472 146.816C208.688 146.323 209.606 145.719 210.114 144.673H214.713C214.713 144.673 214.331 145.559 213.407 146.941ZM185.291 146.941H182.982C183.907 146.174 184.691 145.135 185.021 144.673H185.111L185.291 146.941ZM179.638 146.941H107.515C107.497 146.27 107.415 145.503 107.287 144.673H178.334C178.826 145.612 179.274 146.399 179.638 146.941ZM83.756 146.941H80.3787C80.7026 146.226 81.0266 145.451 81.3365 144.673H83.666L83.756 146.941ZM66.1816 146.941H21.033C20.877 146.206 20.745 145.449 20.637 144.673H65.0359C65.1718 145.406 65.5898 146.182 66.1816 146.941ZM74.024 144.847C73.8321 144.847 73.6101 144.784 73.3642 144.673H74.4699C74.348 144.794 74.198 144.847 74.024 144.847Z" fill="#DECCCE"/>
<path d="M32.1427 142.569C32.1427 142.569 30.899 139.466 31.5908 135.033C32.2847 130.601 34.5682 118.993 36.5758 117.219C38.5834 115.447 44.2602 113.512 44.2602 113.512L50.205 113.868C50.205 113.868 52.6205 113.872 56.6356 116.047C58.2473 116.526 59.561 121.492 60.4609 128.343C61.3607 135.196 64.1321 141.562 60.1149 142.45C56.0998 143.336 32.1427 142.569 32.1427 142.569Z" fill="#1977BF"/>
<path d="M62.9804 115.858L66.1177 116.728C66.1177 116.728 66.9376 115.441 68.4413 113.439C69.0171 112.674 71.4606 110.314 71.4526 109.601C71.4446 108.884 68.4293 112.297 68.6812 111.651C68.8632 111.19 71.2107 108.02 71.0527 107.47C70.9327 107.053 68.5272 109.973 68.3573 110.181C68.1053 110.493 70.6768 107.053 70.5008 106.423C70.2649 105.348 66.6896 110.998 67.1555 110.092C68.2633 107.935 68.9871 106.755 68.6172 106.35C68.1833 105.877 67.8474 107.089 66.6556 108.964C65.4339 110.886 64.3961 112.623 64.3961 112.623C64.3961 112.623 65.1039 108.499 64.4001 108.1C63.6962 107.698 64.1281 109.873 63.6143 111.594C62.9544 113.8 62.9804 115.858 62.9804 115.858Z" fill="#F59D82"/>
<path d="M40.8309 114.847L44.2602 113.512L48.4334 113.741C49.1652 113.741 49.8951 113.608 50.6029 113.798L52.8005 114.39L50.249 136.828L43.6903 136.381L40.8309 114.847Z" fill="#0F4874"/>
<path d="M54.9999 124.648H50.3009V123.12H54.9999V124.648Z" fill="#F2F2F2"/>
<path d="M43.0505 113.938L44.7441 136.413L49.2632 136.761L50.213 113.693L44.2602 113.512L43.0505 113.938Z" fill="#F2F2F2"/>
<path d="M62.2305 115.669L67.8574 116.786C67.8574 116.786 62.6024 140.128 61.8486 141.558C61.0947 142.988 55.8398 142.795 55.8398 142.795L62.2305 115.669Z" fill="#1977BF"/>
<path d="M57.1494 137.238C57.1494 137.238 58.6811 119.76 58.7991 119.76C58.8011 119.76 58.8011 119.762 58.8031 119.763C58.8051 119.771 58.8071 119.779 58.8091 119.787C58.8191 119.817 58.8271 119.847 58.8371 119.877C59.247 121.293 59.9829 125.121 59.9829 125.121L57.1494 137.238Z" fill="#1265B1"/>
<path d="M39.4712 136.413H38.3055L39.1553 126.885L39.4712 136.413Z" fill="#1265B1"/>
<path d="M51.4206 138.809L52.1325 142.893L63.944 143.053C63.944 143.053 64.184 139.498 51.4206 138.809Z" fill="#F59D82"/>
<path d="M49.3652 114.174L46.8057 118.417L43.7403 114.174V110.289H49.3652V114.174Z" fill="#F59D82"/>
<path d="M41.6888 105.692C41.6888 105.692 38.9853 104.639 39.5492 106.592C40.527 109.999 42.9985 109.522 42.9985 109.522C42.9985 109.522 43.5524 110.658 45.172 111.989C47.4096 113.828 50.8469 113.089 51.5207 110.986C51.8287 109.822 52.4625 107.796 51.7507 105.509C51.0408 103.221 49.7711 96.9025 46.5958 97.6375C43.4184 98.3724 39.7492 98.0169 41.6888 105.692Z" fill="#F59D82"/>
<path d="M46.1098 98.7635C46.1098 98.7635 45.8958 102.679 44.6281 104.194C43.3603 105.71 41.7067 105.833 41.7067 105.833C41.7067 105.833 41.1248 105.517 40.5049 105.454C39.6371 105.36 39.4712 105.918 39.4712 105.918C39.4712 105.918 38.5653 101.515 39.8231 99.1409C41.0828 96.7652 44.2862 95.8813 46.6677 96.3918C50.4269 97.1982 50.9328 102.691 50.9328 102.691C50.9328 102.691 48.3273 103.177 46.1098 98.7635Z" fill="#754855"/>
<path d="M38.3315 95.4226C38.1255 93.7243 39.2113 92.2007 40.753 92.018C42.2967 91.8353 43.7124 93.0648 43.9163 94.7612C44.1203 96.4595 43.0365 97.983 41.4928 98.1658C39.9511 98.3485 38.5334 97.121 38.3315 95.4226Z" fill="#754855"/>
<path d="M42.4706 108.753C42.4426 108.753 42.4146 108.753 42.3866 108.757C42.1047 108.791 41.8567 108.991 41.6888 109.323C41.5168 109.665 41.4528 110.102 41.5068 110.553C41.6168 111.472 42.1906 112.164 42.7885 112.094C43.0725 112.06 43.3204 111.858 43.4864 111.526C43.6583 111.184 43.7223 110.747 43.6703 110.296C43.5644 109.42 43.0365 108.753 42.4706 108.753ZM42.7065 112.241C42.0687 112.241 41.4768 111.518 41.3648 110.57C41.3068 110.092 41.3768 109.627 41.5608 109.259C41.7487 108.884 42.0367 108.656 42.3686 108.616C43.0445 108.536 43.6923 109.283 43.8123 110.28C43.8683 110.759 43.8003 111.224 43.6144 111.589C43.4264 111.967 43.1385 112.195 42.8045 112.235C42.7725 112.239 42.7405 112.241 42.7065 112.241Z" fill="#9C5013"/>
<path d="M46.7457 105.084C46.7057 104.753 46.7277 104.477 46.7936 104.469C46.8616 104.461 46.9476 104.723 46.9896 105.055C47.0296 105.388 47.0076 105.664 46.9396 105.672C46.8716 105.68 46.7856 105.416 46.7457 105.084Z" fill="#362127"/>
<path d="M49.3851 104.542C49.3451 104.209 49.3671 103.932 49.4331 103.926C49.5011 103.918 49.5871 104.181 49.6291 104.512C49.667 104.846 49.6451 105.122 49.5791 105.13C49.5111 105.138 49.4251 104.874 49.3851 104.542Z" fill="#362127"/>
<path d="M47.5555 108.908L49.6871 108.759C49.6871 108.759 48.6213 110.66 47.5555 108.908Z" fill="white"/>
<path d="M48.7372 108.058C48.7112 108.058 48.6872 108.044 48.6732 108.02C48.6552 107.984 48.6692 107.943 48.7052 107.925C49.0011 107.774 49.1651 107.583 49.1911 107.357C49.2531 106.828 48.5812 106.252 48.5752 106.248C48.5452 106.222 48.5412 106.177 48.5652 106.147C48.5792 106.131 48.6012 106.121 48.6212 106.121C48.6372 106.121 48.6532 106.127 48.6672 106.139C48.6972 106.165 49.4051 106.769 49.3351 107.371C49.3011 107.649 49.1131 107.877 48.7712 108.05L48.7372 108.058Z" fill="#EB6142"/>
<path d="M42.1465 107.5C42.1245 107.5 42.1005 107.49 42.0865 107.468C41.4207 106.492 41.0007 106.268 40.7528 106.268C40.7328 106.268 40.7128 106.27 40.6948 106.274C40.4249 106.318 40.3249 106.661 40.3229 106.665C40.3149 106.697 40.2849 106.717 40.2549 106.717C40.2489 106.717 40.2409 106.717 40.2349 106.715C40.1969 106.705 40.1749 106.665 40.1849 106.628C40.1889 106.61 40.3089 106.193 40.6688 106.133C40.6968 106.129 40.7248 106.125 40.7528 106.125C41.1447 106.125 41.6326 106.548 42.2065 107.388C42.2285 107.42 42.2185 107.466 42.1865 107.488L42.1465 107.5Z" fill="#EB6142"/>
<path d="M41.7067 105.833L41.6027 105.784C41.6687 105.813 41.7067 105.833 41.7067 105.833C41.7067 105.833 41.7067 105.833 41.7107 105.833C41.7087 105.833 41.7067 105.833 41.7067 105.833ZM42.2046 105.74C42.2606 105.724 42.3206 105.708 42.3845 105.688C42.3685 105.698 42.3525 105.706 42.3365 105.714C42.3365 105.714 42.2826 105.724 42.2046 105.74Z" fill="#702C2B"/>
<path d="M41.7067 105.833C41.7067 105.833 41.6687 105.813 41.6027 105.783C41.6247 105.781 43.3343 105.706 44.944 102.113C46.3217 99.0357 45.3179 96.811 45.3079 96.7871L45.4379 96.7275C45.4459 96.7414 46.2377 98.3186 47.6095 100.013C49.3731 102.188 50.8648 102.279 50.8788 102.279L50.8988 102.416C50.8388 102.414 49.3091 102.335 47.4995 100.102C46.6437 99.0476 46.0118 98.0385 45.6539 97.4168C45.8618 98.3246 46.0238 100.053 45.076 102.172C44.0502 104.458 43.0304 105.344 42.3845 105.688C42.3206 105.708 42.2606 105.724 42.2046 105.74C42.0346 105.773 41.7547 105.829 41.7107 105.833C41.7067 105.833 41.7067 105.833 41.7067 105.833Z" fill="#36141C"/>
<path d="M42.0947 97.2661C42.0887 97.2661 42.0827 97.2621 42.0747 97.2582C42.0247 97.2224 42.0347 97.1728 42.0347 97.1728C42.0427 97.141 42.8505 93.8794 40.2731 92.1214L40.457 92.0718C43.1165 93.8853 42.1827 97.1787 42.1727 97.2105C42.1727 97.2105 42.1327 97.2661 42.0947 97.2661Z" fill="#36141C"/>
<path d="M41.4147 97.6512C41.4067 97.6512 41.3987 97.6472 41.3907 97.6413C41.3507 97.5996 41.3507 97.5499 41.3507 97.5499C42.5185 94.9537 39.7871 92.3754 39.7611 92.3496L39.925 92.2761C39.953 92.3039 42.6905 94.918 41.4807 97.6075C41.4807 97.6075 41.4467 97.6512 41.4147 97.6512Z" fill="#36141C"/>
<path d="M50.1849 103.475L50.1429 103.461C49.707 103.134 49.3431 103.011 49.0631 103.09C48.7892 103.169 48.6892 103.428 48.6892 103.43C48.6732 103.467 48.6332 103.485 48.5952 103.471C48.5592 103.457 48.5392 103.418 48.5532 103.38C48.5572 103.368 48.6772 103.054 49.0191 102.955C49.3471 102.86 49.755 102.991 50.2289 103.348C50.2609 103.372 50.2669 103.416 50.2429 103.448C50.2289 103.465 50.2069 103.475 50.1849 103.475Z" fill="#754855"/>
<path d="M45.7738 104.449L45.7498 104.443C45.7118 104.431 45.6918 104.391 45.7058 104.353C45.7158 104.324 45.9738 103.612 46.4777 103.473C46.7156 103.408 46.9636 103.481 47.2175 103.69C47.2475 103.714 47.2515 103.759 47.2275 103.789C47.2015 103.819 47.1555 103.825 47.1255 103.799C46.9116 103.622 46.7056 103.559 46.5157 103.61C46.0838 103.73 45.8438 104.393 45.8418 104.401C45.8318 104.429 45.8038 104.449 45.7738 104.449Z" fill="#754855"/>
<path d="M47.1915 111.272C44.3841 111.272 42.2806 108.121 42.2546 108.084C42.2266 108.04 42.2386 107.98 42.2826 107.951C42.3266 107.923 42.3865 107.935 42.4165 107.98C42.4445 108.022 45.3019 112.303 48.7312 110.738C48.7792 110.716 48.8352 110.736 48.8572 110.783C48.8792 110.831 48.8592 110.888 48.8112 110.91C48.2513 111.165 47.7094 111.272 47.1915 111.272Z" fill="#3E3F3E"/>
<path d="M48.6673 110.757C48.6133 110.499 49.0193 110.195 49.5751 110.082C50.131 109.967 50.6249 110.082 50.6789 110.34C50.7329 110.598 50.327 110.902 49.7711 111.016C49.2152 111.131 48.7213 111.014 48.6673 110.757Z" fill="#3E3F3E"/>
<path d="M41.1248 107.601C40.6669 107.013 40.4969 106.35 40.7449 106.115C40.9908 105.881 41.5607 106.169 42.0186 106.757C42.4745 107.345 42.6465 108.01 42.3986 108.243C42.1526 108.477 41.5807 108.189 41.1248 107.601Z" fill="#3E3F3E"/>
<path d="M47.9895 113.214C46.8057 113.214 45.7859 112.503 45.732 112.463C45.702 112.442 45.692 112.402 45.71 112.37C46.0899 112.599 46.4918 112.765 46.8997 112.875C47.2276 112.986 47.6076 113.067 48.0015 113.067C48.1635 113.067 48.3274 113.053 48.4914 113.022C48.6693 113.008 48.8433 112.984 49.0153 112.95C49.0213 112.982 49.0033 113.016 48.9713 113.03C48.6414 113.161 48.3094 113.214 47.9895 113.214Z" fill="#EB6142"/>
<path d="M48.4912 113.022C48.6332 112.994 48.7752 112.954 48.9171 112.897C48.9251 112.893 48.9351 112.893 48.9431 112.893C48.9711 112.893 48.9991 112.909 49.0111 112.936C49.0111 112.942 49.0131 112.946 49.0151 112.95C48.8432 112.984 48.6692 113.008 48.4912 113.022ZM46.8996 112.875C46.4917 112.766 46.0897 112.599 45.7098 112.37C45.7118 112.368 45.7138 112.366 45.7138 112.364C45.7298 112.344 45.7518 112.334 45.7738 112.334C45.7878 112.334 45.8018 112.338 45.8158 112.348C45.8238 112.354 46.2677 112.664 46.8996 112.875Z" fill="#EB6142"/>
<path d="M79.0389 142.845H53.5502V141.659H79.0389V142.845Z" fill="#362127"/>
<path d="M79.039 141.659H61.8546L61.6106 128.343L79.101 128.511L79.039 141.659Z" fill="#362127"/>
<path d="M238.11 93.0588H298.884V163.614H238.11V93.0588Z" fill="#DAC7CA"/>
<path d="M241.085 95.5598H295.912V161.112L295.91 161.114H241.083V95.5618L241.085 95.5598Z" fill="#F2F2F2"/>
<path d="M260.791 161.791V161.338C260.807 161.261 260.821 161.185 260.835 161.114H261.251C261.265 161.163 261.277 161.215 261.291 161.268L260.791 161.791Z" fill="#CFBDC0"/>
<path d="M261.251 161.114H260.835C260.947 160.536 261.011 160.148 261.011 160.148C261.011 160.148 261.101 160.512 261.251 161.114ZM265.67 156.682C264.895 154.442 264.213 152.574 263.721 151.43L277.238 136.445H284.994L265.67 156.682Z" fill="#E6E6E6"/>
<path d="M286.464 134.906H278.628L295.912 115.745V125.011L286.464 134.906Z" fill="#E6E6E6"/>
<path d="M241.083 120.02V115.67L253.495 103.023V107.218L241.083 120.02ZM254.853 105.817V101.638L260.817 95.5598H264.795L254.853 105.817Z" fill="#E6E6E6"/>
<path d="M253.495 161.719H254.853V94.8843H253.495V161.719Z" fill="#DAC7CA"/>
<path d="M269.572 161.719H268.214V94.8843H269.572V161.719Z" fill="#DAC7CA"/>
<path d="M283.265 161.719H281.905V94.8843H283.265V161.719Z" fill="#DAC7CA"/>
<path d="M295.912 107.838H241.083V106.298H295.912V107.838Z" fill="#DAC7CA"/>
<path d="M297.218 122.141H240.798V120.262H297.218V122.141Z" fill="#DAC7CA"/>
<path d="M241.083 136.445H295.912V134.906H241.083V136.445Z" fill="#DAC7CA"/>
<path d="M295.624 150.749H240.798V149.209H295.624V150.749Z" fill="#DAC7CA"/>
<path d="M223.685 201.943H223.677C223.637 201.937 223.609 201.901 223.615 201.862C223.671 201.429 229.3 158.311 235.081 139.909C235.093 139.871 235.133 139.851 235.169 139.861C235.207 139.873 235.229 139.915 235.219 139.953C229.442 158.341 223.815 201.447 223.759 201.882C223.751 201.917 223.721 201.943 223.685 201.943Z" fill="#072033"/>
<path d="M241 120.401C239.636 120.401 238.066 121.629 236.439 123.979C230.88 132.009 229.838 139.941 229.944 145.181C230.048 150.338 231.252 153.965 231.482 154.612C243.175 143.272 245.739 129.169 243.785 123.19C243.253 121.559 242.375 120.576 241.314 120.423C241.21 120.409 241.106 120.401 241 120.401ZM231.424 154.868L231.384 154.767C231.37 154.729 229.914 150.884 229.8 145.183C229.692 139.923 230.738 131.96 236.319 123.897C238.106 121.317 239.842 120.067 241.336 120.282C242.467 120.445 243.363 121.436 243.923 123.146C245.893 129.171 243.307 143.395 231.502 154.793L231.424 154.868Z" fill="#072033"/>
<path d="M223.093 201.943C223.057 201.943 223.025 201.915 223.021 201.878C222.977 201.322 218.728 146.14 219.436 126.883C219.438 126.843 219.468 126.811 219.51 126.813C219.552 126.815 219.584 126.849 219.582 126.887C218.872 146.138 223.123 201.312 223.165 201.866C223.169 201.906 223.139 201.939 223.099 201.943H223.093Z" fill="#072033"/>
<path d="M220.834 109.671C220.754 109.671 220.672 109.677 220.588 109.687C219.176 109.858 217.836 111.55 216.815 114.45C213.575 123.639 214.573 131.386 215.981 136.266C217.341 140.982 219.33 144.003 219.766 144.625C228.006 130.679 226.905 116.685 223.549 111.598C222.717 110.332 221.784 109.671 220.834 109.671ZM219.782 144.974L219.694 144.857C219.67 144.825 217.333 141.647 215.797 136.326C214.381 131.419 213.375 123.627 216.631 114.388C217.694 111.371 219.056 109.679 220.566 109.496C221.674 109.365 222.761 110.052 223.711 111.494C227.102 116.635 228.22 130.792 219.854 144.849L219.782 144.974Z" fill="#072033"/>
<path d="M224.721 220.883H224.509C219.954 220.883 216.261 217.22 216.261 212.699V201.872H232.969V212.699C232.969 217.22 229.276 220.883 224.721 220.883Z" fill="#1977BF"/>
<path d="M228.908 183.885H230.094V220.883H228.908V183.885Z" fill="#844232"/>
<mask id="mask1_803_286" style="mask-type:luminance" maskUnits="userSpaceOnUse" x="225" y="182" width="86" height="3">
<path d="M225.459 182.489H310.771V184.094H225.459V182.489Z" fill="white"/>
</mask>
<g mask="url(#mask1_803_286)">
<path d="M225.653 184.084H310.771V182.559H225.653V184.084Z" fill="#844232"/>
</g>
<path d="M306.302 183.885H307.486V220.883H306.302V183.885Z" fill="#844232"/>
<path d="M145.335 102.494L145.291 102.48C145.259 102.458 145.253 102.413 145.277 102.381C145.289 102.363 145.597 101.948 146.015 101.9C146.213 101.878 146.401 101.944 146.575 102.095C146.605 102.121 146.607 102.166 146.581 102.196C146.555 102.226 146.509 102.228 146.479 102.202C146.339 102.079 146.189 102.025 146.031 102.043C145.677 102.083 145.397 102.462 145.393 102.464C145.379 102.484 145.357 102.494 145.335 102.494Z" fill="#362127"/>
<path d="M128.299 221.795H127.015V173.85H128.299V221.795Z" fill="#844232"/>
<path d="M150.36 221.795H149.079V173.85H150.36V221.795Z" fill="#844232"/>
<path d="M150.36 173.536H127.015V173.461C127.015 170.225 129.659 167.603 132.918 167.603H144.458C147.719 167.603 150.36 170.225 150.36 173.461V173.536Z" fill="#0F4874"/>
<path d="M150.36 175.58H127.015V173.536H150.36V175.58Z" fill="#844232"/>
<path d="M149.357 191.682H128.299V190.385H149.357V191.682Z" fill="#844232"/>
<path d="M24.7802 221.795H23.4984V173.85H24.7802V221.795Z" fill="#844232"/>
<path d="M46.8436 221.795H45.5598V173.85H46.8436V221.795Z" fill="#844232"/>
<path d="M46.8436 173.536H23.4984V173.461C23.4984 170.225 26.1399 167.603 29.4012 167.603H40.9408C44.2002 167.603 46.8436 170.225 46.8436 173.461V173.536Z" fill="#0F4874"/>
<path d="M46.8436 175.58H23.4984V173.536H46.8436V175.58Z" fill="#844232"/>
<path d="M45.8378 191.682H24.7801V190.385H45.8378V191.682Z" fill="#844232"/>
<path d="M172.806 142.585H142.466V141.399H172.806V142.585Z" fill="#362127"/>
<path d="M172.806 141.659H155.621L159.068 127.183H176.253L172.806 141.659Z" fill="#362127"/>
<path d="M34.1642 142.569L20.637 142.533L18.6514 134.88L32.1766 134.781L34.1642 142.569Z" fill="#F496B0"/>
<path d="M20.637 142.533L17.5516 142.569L18.6514 134.88L20.637 142.533Z" fill="#DD7C9A"/>
<path d="M29.4313 137.237H23.6705L23.4465 136.413H29.2074L29.4313 137.237Z" fill="#F2F2F2"/>
<path d="M31.4288 138.713H21.8287V138.523H31.4288V138.713Z" fill="#F2F2F2"/>
<path d="M125.303 142.676H111.794L109.725 135.382H123.234L125.303 142.676Z" fill="#F496B0"/>
<path d="M111.794 142.654L108.983 142.702L109.725 135.553L111.794 142.654Z" fill="#DD7C9A"/>
<path d="M120.314 137.237H114.556L114.332 136.413H120.092L120.314 137.237Z" fill="#F2F2F2"/>
<path d="M122.314 138.713H112.712V138.523H122.314V138.713Z" fill="#F2F2F2"/>
<path d="M245.561 192.355C245.561 192.355 247.308 204.996 247.556 207.322C247.924 210.775 248.026 212.566 248.026 214.493C248.026 216.418 247.722 218.311 247.722 218.311C247.722 218.311 247.858 219.34 250.5 219.006C253.143 218.677 252.909 217.481 252.909 217.481C252.909 217.481 251.805 215.588 251.269 206.858C251.211 205.896 251.549 192.832 251.549 192.832L245.561 192.355Z" fill="#F59D82"/>
<path d="M247.948 216.333C247.948 216.333 247.668 218.631 247.686 219.413C247.708 220.289 247.952 221.706 250.368 221.563C251.305 221.507 251.983 221.324 252.471 221.088C253.375 220.653 253.775 219.586 253.429 218.651L252.369 215.788C252.369 215.788 252.807 218.708 250.266 218.841C248.188 218.951 247.948 216.333 247.948 216.333Z" fill="#362127"/>
<path d="M249.668 147.052L250.578 142.09L257.318 143.916L256.474 147.791C256.474 147.791 261.683 148.552 263.139 150.3C264.593 152.048 272.873 179.124 272.873 179.124C272.873 179.124 272.887 180.383 271.815 180.667C270.743 180.953 268.944 181.349 268.944 181.349C268.944 181.349 265.916 176.776 264.225 171.901C263.131 168.751 261.011 160.148 261.011 160.148C261.011 160.148 260.727 161.852 260.324 163.455C259.698 165.94 258.338 166.199 258.338 166.199L260.635 172.464L244.909 168.165C244.909 168.165 238.672 174.619 235.837 172.414C233.003 170.209 233.187 168.546 234.491 164.516C235.791 160.488 240.772 149.692 242.073 148.627C243.375 147.565 249.668 147.052 249.668 147.052Z" fill="#9C5013"/>
<path d="M247.082 161.397L248.1 165.473C248.1 165.473 249.384 164.592 251.019 165.527C252.657 166.465 254.695 170.209 254.695 170.209C255.49 170.153 255.932 169.329 255.49 168.391C255.049 167.456 253.011 164.921 252.437 163.545C251.863 162.168 249.916 161.121 247.082 161.397Z" fill="#F59D82"/>
<mask id="mask2_803_286" style="mask-type:luminance" maskUnits="userSpaceOnUse" x="236" y="161" width="12" height="5">
<path d="M236.59 161.03H247.698V165.607H236.59V161.03Z" fill="white"/>
</mask>
<g mask="url(#mask2_803_286)">
<mask id="mask3_803_286" style="mask-type:luminance" maskUnits="userSpaceOnUse" x="236" y="161" width="12" height="5">
<path d="M236.71 165.507C240.172 161.592 245.113 161.209 246.92 161.209C247.36 161.209 247.616 161.231 247.616 161.231C247.616 161.231 245.121 161.978 243.541 162.572C242.959 162.792 241.781 163.396 241.781 163.396L236.71 165.507Z" fill="white"/>
</mask>
<g mask="url(#mask3_803_286)">
<path d="M236.71 165.507H247.616V161.209H236.71V165.507Z" fill="#893F0D"/>
</g>
</g>
<path d="M268.974 181.244C268.974 181.244 268.394 185.036 268.818 185.894C269.242 186.752 270.233 182.517 270.233 182.517C270.233 182.517 271.477 183.627 271.797 184.464C272.271 185.697 272.899 187.983 273.263 187.62C273.631 187.256 272.693 183.677 272.693 183.159C272.693 182.638 274.075 188.089 274.681 187.989C275.424 187.866 274.057 183.115 274.057 183.115C274.057 183.115 275.834 187.781 276.096 187.052C276.358 186.325 275.2 182.813 275.2 182.813C275.2 182.813 276.594 186.09 276.964 185.92C277.338 185.747 276.892 182.96 275.05 181.728C274.445 181.321 273.863 180.65 273.487 180.165C273.223 179.825 272.873 179.124 272.873 179.124L268.974 181.244Z" fill="#F59D82"/>
<path d="M237.406 186.946C237.406 186.946 237.248 187.528 237.004 188.43C236.234 191.277 234.601 197.305 234.351 198.183C234.019 199.335 227.04 201.947 227.04 201.947C227.04 201.947 233.353 202.068 235.479 201.705C237.604 201.339 238.402 199.518 238.8 198.606C239.2 197.696 242.585 188.889 242.585 188.889L237.406 186.946Z" fill="#F59D82"/>
<path d="M224.299 204.039C224.299 204.039 223.419 203.681 224.443 203.101C225.469 202.521 228.908 201.208 228.908 201.208C228.908 201.208 231.568 201.808 233.029 201.852C234.497 201.898 238.164 199.844 238.164 199.844C238.164 199.844 238.448 202.833 237.716 203.548C236.984 204.261 234.397 203.37 231.861 203.727C229.322 204.083 224.299 204.039 224.299 204.039Z" fill="#362127"/>
<path d="M236.202 191.394L236.2 191.392L236.476 190.341C236.48 190.343 236.484 190.345 236.484 190.345C236.394 190.683 236.3 191.034 236.202 191.394Z" fill="#FCE3DB"/>
<path d="M241.024 192.937L236.203 191.394C236.3 191.034 236.394 190.682 236.484 190.345C238.156 190.988 239.818 191.495 241.429 191.892L241.024 192.937Z" fill="#F28C6F"/>
<path d="M251.515 194.181C251.525 193.793 251.533 193.475 251.539 193.245L251.515 194.181ZM245.787 193.996L245.579 192.715C245.591 192.717 245.601 192.717 245.611 192.719C245.651 193.003 245.711 193.444 245.787 193.996Z" fill="#FCE3DB"/>
<path d="M251.511 194.342L245.787 193.996C245.711 193.444 245.651 193.003 245.611 192.719C247.808 193.05 249.826 193.195 251.539 193.245C251.533 193.476 251.525 193.793 251.515 194.181L251.511 194.342Z" fill="#F28C6F"/>
<path d="M252.193 143.224C252.193 143.224 254.355 144.496 255.958 144.75C256.876 144.895 258.02 145.06 258.948 143.471C259.29 142.887 259.548 140.666 259.548 140.666C259.548 140.666 260.544 141.097 260.673 140.622C260.801 140.148 259.934 139.405 260.07 138.769C260.204 138.131 261.173 136.044 260.677 134.518C260.18 132.995 256.15 130.877 253.321 133.499C250.49 136.123 251.167 139.641 252.193 143.224Z" fill="#F59D82"/>
<path d="M255.972 136.918C256.112 137.224 256.366 137.474 256.684 137.583C257.03 137.702 257.484 137.7 257.92 137.224C258.324 136.777 258.458 136.226 258.604 135.772C258.772 135.249 258.954 134.854 259.58 134.886C260.757 134.943 261.149 134.518 261.637 133.912C262.125 133.304 262.685 131.829 261.023 131.008C260.269 130.637 259.654 130.728 259.086 130.822C258.406 130.935 257.796 131.046 257.102 130.347C255.836 129.064 249.73 127.447 247.71 133.233C246.186 137.597 249.42 138.471 249.388 139.722C249.356 140.976 247.982 141.693 248.832 143.369C249.538 144.758 253.875 144.591 254.043 141.892C254.173 139.857 250.246 137.929 252.963 135.335C254.401 133.962 255.582 136.087 255.972 136.918Z" fill="#362127"/>
<path d="M254.853 137.653C254.823 137.653 254.795 137.635 254.785 137.603C254.781 137.593 254.463 136.616 253.933 136.471C253.891 136.459 253.849 136.455 253.807 136.455C253.653 136.455 253.495 136.526 253.333 136.671C253.319 136.683 253.301 136.689 253.285 136.689C253.265 136.689 253.245 136.681 253.229 136.663C253.203 136.636 253.205 136.59 253.237 136.564C253.425 136.395 253.617 136.312 253.805 136.312C253.861 136.312 253.915 136.318 253.973 136.334C254.577 136.496 254.909 137.517 254.923 137.559C254.935 137.597 254.915 137.639 254.877 137.651L254.853 137.653Z" fill="#EB6142"/>
<path d="M257.98 142.092C257.884 142.092 257.794 142.078 257.706 142.049C257.258 141.9 257.06 141.423 257.052 141.403C257.038 141.367 257.056 141.326 257.092 141.31C257.1 141.306 257.11 141.306 257.118 141.306C257.146 141.306 257.174 141.322 257.184 141.349C257.186 141.355 257.366 141.786 257.752 141.913C257.826 141.937 257.9 141.949 257.978 141.949C258.154 141.949 258.346 141.888 258.55 141.767C258.56 141.759 258.574 141.757 258.586 141.757C258.61 141.757 258.634 141.768 258.648 141.79C258.67 141.824 258.656 141.868 258.624 141.89C258.398 142.025 258.182 142.092 257.98 142.092Z" fill="#EB6142"/>
<path d="M258.876 138.676C258.934 138.366 259.05 138.13 259.138 138.143C259.226 138.159 259.244 138.421 259.184 138.731C259.126 139.039 259.008 139.278 258.924 139.262C258.838 139.246 258.816 138.984 258.876 138.676Z" fill="#362127"/>
<path d="M258.382 137.865L258.342 137.853C258.308 137.832 258.298 137.786 258.324 137.754C258.338 137.73 258.706 137.204 259.174 137.204H259.186C259.44 137.208 259.672 137.369 259.868 137.683C259.89 137.716 259.88 137.76 259.846 137.78C259.812 137.802 259.768 137.792 259.746 137.758C259.576 137.49 259.386 137.351 259.182 137.347H259.174C258.782 137.347 258.444 137.83 258.442 137.834C258.428 137.853 258.406 137.865 258.382 137.865Z" fill="#362127"/>
<path d="M261.493 134.153L261.443 134.145C261.463 134.123 261.481 134.101 261.501 134.079C261.497 134.121 261.493 134.147 261.493 134.153Z" fill="#F3F3F3"/>
<path d="M261.443 134.145L261.349 134.133C261.351 134.123 261.467 133.277 260.933 132.629C260.561 132.178 259.964 131.924 259.16 131.876C257.534 131.783 256.424 131.209 255.448 130.704C254.865 130.403 254.317 130.118 253.725 129.971C253.337 129.876 252.891 129.807 252.411 129.807C251.353 129.807 250.128 130.14 248.982 131.255L248.882 131.153C250.06 130.007 251.319 129.664 252.407 129.664C252.903 129.664 253.361 129.733 253.759 129.832C254.367 129.983 254.925 130.271 255.512 130.577C256.478 131.076 257.572 131.642 259.168 131.735C260.015 131.785 260.645 132.055 261.045 132.54C261.529 133.13 261.519 133.847 261.501 134.079C261.481 134.101 261.463 134.123 261.443 134.145Z" fill="#472C34"/>
<path d="M248.06 132.381L247.988 132.317C248.064 132.232 248.142 132.149 248.22 132.071C248.166 132.172 248.11 132.276 248.06 132.381Z" fill="#F3F3F3"/>
<path d="M260.139 134.874C260.189 134.657 260.315 134.057 259.94 133.585C259.628 133.189 259.056 132.991 258.246 132.991C258.104 132.991 257.956 132.997 257.8 133.009C257.73 133.015 257.662 133.017 257.59 133.017C256.602 133.017 255.59 132.518 254.519 131.99C253.399 131.437 252.259 130.873 251.093 130.873C250.114 130.873 249.114 131.273 248.094 132.413L248.06 132.381C248.11 132.276 248.166 132.172 248.22 132.071C249.188 131.088 250.154 130.738 251.095 130.738C252.309 130.738 253.487 131.32 254.585 131.863C255.634 132.381 256.63 132.874 257.584 132.874C257.654 132.874 257.722 132.872 257.79 132.866C257.948 132.856 258.096 132.848 258.238 132.848C259.102 132.848 259.71 133.066 260.054 133.497C260.425 133.966 260.377 134.554 260.319 134.844L260.139 134.874Z" fill="#472C34"/>
<path d="M249.484 143.987L249.474 143.939C249.498 143.951 249.52 143.963 249.546 143.973C249.512 143.981 249.49 143.985 249.484 143.987Z" fill="#F3F3F3"/>
<path d="M247.338 135.958C247.3 135.833 247.264 135.704 247.232 135.569L247.304 135.553C247.31 135.694 247.322 135.827 247.338 135.958Z" fill="#DDCACD"/>
<path d="M249.546 143.973C249.52 143.963 249.498 143.951 249.474 143.939L249.456 143.848C249.468 143.844 250.799 143.566 251.381 142.632C251.669 142.174 251.729 141.629 251.563 141.012C251.283 139.961 250.523 139.418 249.718 138.846C248.824 138.211 247.822 137.496 247.338 135.958C247.322 135.827 247.31 135.694 247.304 135.553L247.372 135.537C247.786 137.295 248.81 138.024 249.804 138.731C250.627 139.319 251.409 139.873 251.703 140.976C251.879 141.631 251.813 142.215 251.503 142.71C250.955 143.588 249.826 143.906 249.546 143.973Z" fill="#472C34"/>
<path d="M258.74 135.406C258.768 135.344 258.798 135.289 258.832 135.237L258.74 135.406Z" fill="#F6A289"/>
<path d="M257.768 135.533C256.86 135.533 256.388 135.104 255.716 134.5C255.202 134.038 254.567 133.464 253.519 132.876C253.245 132.721 252.953 132.657 252.655 132.657C252.005 132.657 251.315 132.957 250.639 133.249C250.03 133.513 249.438 133.769 248.922 133.769C248.47 133.769 248.08 133.573 247.79 133.013L247.916 132.947C248.176 133.446 248.522 133.624 248.934 133.624C249.41 133.624 249.976 133.38 250.581 133.118C251.245 132.832 251.969 132.518 252.659 132.518C252.979 132.518 253.293 132.584 253.591 132.75C254.651 133.346 255.296 133.928 255.814 134.395C256.478 134.995 256.89 135.402 257.734 135.402C258.036 135.402 258.392 135.351 258.832 135.237C258.798 135.289 258.768 135.345 258.74 135.406C258.282 135.523 258.09 135.533 257.768 135.533Z" fill="#472C34"/>
<path d="M231.173 187.802C231.173 187.802 234.661 184.014 236.242 180.55C237.824 177.088 243.005 167.13 246.878 165.452C250.747 163.775 253.367 166.967 254.785 168.916C256.204 170.864 260.635 172.464 260.635 172.464C260.635 172.464 262.419 177.952 260.687 180.488C258.496 183.698 254.949 182.282 254.949 182.282C254.949 182.282 254.949 185.963 255.548 188.613C256.15 191.266 257.184 193.05 257.184 193.05C257.184 193.05 243.307 194.892 231.173 187.802Z" fill="#B56E82"/>
<path d="M243.417 190.345C243.417 190.345 245.762 181.579 250.342 174.923C250.977 173.999 251.601 173.644 252.169 173.644C253.037 173.644 253.763 174.484 254.161 175.409C255.414 178.331 256.504 182.175 256.504 182.175L254.923 182.121C254.923 182.121 254.323 177.737 252.849 175.409C252.663 175.115 252.447 174.986 252.209 174.986C251.243 174.986 249.93 177.126 248.924 179.037C247.67 181.416 243.417 190.345 243.417 190.345Z" fill="#A55B6F"/>
<path d="M171.204 221.795L184.031 221.668L184.613 216.199C184.613 216.199 180.69 215.719 180.532 215.945C177.617 220.142 170.388 220.397 171.204 221.795Z" fill="#9C5013"/>
<path d="M184.141 220.619L184.013 221.835L171.204 221.795C171.204 221.795 171.042 221.279 171.718 220.977C172.394 220.675 184.141 220.619 184.141 220.619Z" fill="#DB711A"/>
<path d="M180.532 215.945L179.754 216.881L182.634 217.429L184.331 218.839L184.613 216.2L180.532 215.945Z" fill="#DB711A"/>
<path d="M181.342 217.29C181.318 217.29 181.296 217.282 181.278 217.264C180.64 216.71 179.958 216.736 179.95 216.736C179.898 216.744 179.852 216.696 179.85 216.644C179.848 216.591 179.888 216.547 179.94 216.543C179.972 216.543 180.706 216.511 181.404 217.121C181.444 217.157 181.448 217.216 181.412 217.256C181.394 217.278 181.368 217.29 181.342 217.29Z" fill="white"/>
<path d="M180.644 217.765C180.62 217.765 180.598 217.759 180.58 217.741C179.942 217.185 179.26 217.212 179.254 217.212C179.202 217.216 179.154 217.173 179.152 217.121C179.148 217.067 179.19 217.024 179.242 217.02C179.274 217.018 180.008 216.988 180.706 217.598C180.748 217.634 180.75 217.693 180.716 217.733C180.696 217.755 180.67 217.765 180.644 217.765Z" fill="white"/>
<path d="M179.946 218.242C179.924 218.242 179.9 218.234 179.882 218.218C179.24 217.658 178.562 217.687 178.556 217.687C178.502 217.695 178.458 217.65 178.454 217.598C178.452 217.544 178.492 217.501 178.546 217.497C178.576 217.497 179.31 217.465 180.01 218.075C180.05 218.11 180.054 218.17 180.018 218.21C179.998 218.232 179.972 218.242 179.946 218.242Z" fill="white"/>
<path d="M190.006 221.731L203.141 221.769L202.691 215.872C202.691 215.872 198.616 215.762 198.45 215.991C195.409 220.251 189.188 220.287 190.006 221.731Z" fill="#9C5013"/>
<path d="M203.077 220.76L203.141 221.835L189.812 221.793C189.812 221.793 189.652 221.263 190.348 220.961C191.046 220.661 203.077 220.76 203.077 220.76Z" fill="#DB711A"/>
<path d="M198.482 215.915L197.766 216.861L200.706 217.461L202.927 218.98L202.757 215.848L198.482 215.915Z" fill="#DB711A"/>
<path d="M198.662 217.776C198.638 217.776 198.616 217.768 198.596 217.752C197.947 217.17 197.251 217.188 197.245 217.19C197.191 217.188 197.147 217.153 197.145 217.099C197.143 217.045 197.183 217.002 197.237 217C197.269 217 198.018 216.976 198.726 217.609C198.766 217.645 198.768 217.705 198.732 217.745C198.714 217.766 198.688 217.776 198.662 217.776Z" fill="white"/>
<path d="M199.192 217.159C199.168 217.159 199.146 217.151 199.128 217.135C198.478 216.553 197.782 216.571 197.774 216.573C197.722 216.569 197.676 216.535 197.674 216.482C197.672 216.43 197.714 216.384 197.766 216.382C197.798 216.382 198.548 216.358 199.256 216.992C199.296 217.028 199.3 217.089 199.264 217.127C199.244 217.149 199.218 217.159 199.192 217.159Z" fill="white"/>
<path d="M198.132 218.257C198.11 218.257 198.086 218.249 198.068 218.234C197.418 217.652 196.723 217.671 196.717 217.673C196.661 217.667 196.619 217.634 196.617 217.58C196.613 217.528 196.655 217.483 196.709 217.481C196.741 217.483 197.49 217.457 198.196 218.093C198.236 218.126 198.24 218.188 198.204 218.226C198.184 218.247 198.158 218.257 198.132 218.257Z" fill="white"/>
<path d="M183.555 127.087L172.556 129.58L168.125 110.328L179.124 107.835L183.555 127.087Z" fill="white"/>
<path d="M189.334 102.913C188.746 103.839 187.948 105.494 187.98 107.174C188.012 108.855 186.649 111.149 186.805 111.34C186.961 111.53 188.25 111.081 188.532 111.075C188.814 111.071 188.788 114.283 190.056 115.273C191.324 116.262 193.145 114.881 193.145 114.881L194.371 119.144L199.268 117.962L197.692 110.712C197.692 110.712 199.144 108.821 198.774 104.709C198.402 100.599 193.263 96.712 189.334 102.913Z" fill="#F59D82"/>
<path d="M188.842 107.712C188.836 107.387 188.936 107.12 189.066 107.118C189.196 107.114 189.308 107.379 189.312 107.704C189.318 108.03 189.216 108.296 189.086 108.298C188.958 108.3 188.848 108.038 188.842 107.712Z" fill="#362127"/>
<path d="M189.862 113.171C189.444 113.171 189.168 112.636 189.156 112.614C189.138 112.579 189.152 112.537 189.188 112.517C189.2 112.513 189.21 112.511 189.222 112.511C189.248 112.511 189.274 112.525 189.286 112.549C189.288 112.555 189.534 113.028 189.862 113.028C190.08 113.028 190.296 112.819 190.506 112.408C190.52 112.384 190.544 112.368 190.57 112.368C190.582 112.368 190.594 112.37 190.604 112.376C190.64 112.394 190.654 112.438 190.636 112.473C190.398 112.936 190.138 113.171 189.862 113.171Z" fill="#EB6142"/>
<path d="M188.292 106.751L188.272 106.749C188.22 106.739 188.186 106.687 188.196 106.636C188.202 106.614 188.318 106.091 188.696 105.992C188.968 105.921 189.286 106.085 189.642 106.483C189.678 106.52 189.676 106.582 189.634 106.618C189.596 106.652 189.534 106.65 189.498 106.61C189.198 106.274 188.938 106.127 188.746 106.177C188.484 106.246 188.386 106.671 188.386 106.675C188.376 106.721 188.336 106.751 188.292 106.751Z" fill="#844232"/>
<path d="M188.886 97.554C188.886 97.554 186.939 98.2313 187.229 100.953C187.519 103.674 188.94 103.954 188.94 103.954C188.94 103.954 190.206 103.398 190.87 103.702C191.532 104.008 192.38 105.146 192.154 106.179C191.93 107.214 191.626 108.658 191.626 108.658C191.626 108.658 192.286 109.119 192.482 108.85C192.678 108.582 192.989 106.111 194.447 106.159C195.903 106.207 195.883 106.886 195.927 107.861C195.973 108.835 195.055 110.837 195.055 110.837L196.331 113.399L198.422 112.859C198.422 112.859 199.524 110.791 200.172 108.85C200.82 106.908 202.443 103.741 200.106 101.382C198.7 99.9614 197.582 100.609 196.809 99.5403C196.033 98.4717 195.297 97.7029 193.403 97.8638C192.598 97.9314 192.014 97.7804 191.46 97.6294C190.714 97.4288 190.016 97.2262 188.886 97.554Z" fill="#844232"/>
<path d="M185.545 165.44C185.545 165.44 179.588 204.988 179.9 215.741C179.94 217.183 188.055 215.975 188.055 215.975L193.605 172.136L197.103 215.945C197.103 215.945 203.609 216.72 204.747 215.884C205.885 215.049 202.682 161.719 202.682 161.719L185.545 165.44Z" fill="#362127"/>
<path d="M191.922 185.435L190.184 185.306L190.208 185.101L191.948 185.228L191.922 185.435ZM189.994 185.292L187.385 185.099L187.407 184.9L190.018 185.089L189.994 185.292ZM187.193 185.083L184.577 184.89L184.601 184.698L187.217 184.886L187.193 185.083Z" fill="#4C3038"/>
<path d="M182.859 184.603L182.864 184.573C182.864 184.583 182.862 184.593 182.859 184.603Z" fill="#DECBCE"/>
<path d="M184.387 184.876L182.84 184.761L182.86 184.602C182.862 184.592 182.864 184.582 182.864 184.573L184.409 184.684L184.387 184.876Z" fill="#4C3038"/>
<path d="M186.433 216.181L186.659 214.219L186.851 214.231L186.629 216.16L186.433 216.181ZM186.873 214.042L186.681 214.03L186.993 211.325L187.185 211.335L186.873 214.042ZM187.207 211.146L187.015 211.136L187.399 207.803L187.591 207.813L187.207 211.146ZM187.613 207.632L187.421 207.622L187.833 204.035L188.025 204.047L187.613 207.632ZM188.047 203.858L187.855 203.846L188.264 200.291L188.456 200.304L188.047 203.858ZM188.478 200.114L188.286 200.1L188.702 196.499L188.894 196.511L188.478 200.114ZM188.916 196.32L188.724 196.31L189.136 192.73L189.326 192.746L188.916 196.32ZM189.348 192.556L189.158 192.542L189.538 189.244L189.728 189.26L189.348 192.556ZM189.75 189.07L189.56 189.056L189.994 185.292L190.018 185.089L190.388 181.863L190.58 181.873L190.208 185.101L190.184 185.305L189.75 189.07ZM190.602 181.684L190.41 181.674L190.816 178.165L191.006 178.174L190.602 181.684ZM191.03 177.986L190.838 177.974L190.86 177.779C190.924 177.777 190.988 177.775 191.054 177.773L191.03 177.986Z" fill="#4C3038"/>
<path d="M183.567 216.42L183.839 214.068L184.031 214.078L183.761 216.412C183.757 216.412 183.753 216.412 183.751 216.412L183.569 216.42H183.567ZM184.051 213.889L183.861 213.877L184.173 211.172L184.365 211.184L184.051 213.889ZM184.387 210.993L184.195 210.983L184.581 207.656L184.773 207.666L184.387 210.993ZM184.793 207.483L184.601 207.473L185.019 203.864L185.211 203.876L184.793 207.483ZM185.233 203.685L185.041 203.675L185.457 200.082L185.649 200.098L185.233 203.685ZM185.671 199.907L185.479 199.893L185.889 196.352L186.081 196.362L185.671 199.907ZM186.103 196.173L185.911 196.161L186.331 192.53L186.523 192.542L186.103 196.173ZM186.545 192.353L186.353 192.341L186.737 189.026L186.927 189.04L186.545 192.353ZM186.951 188.851L186.759 188.835L187.193 185.083L187.217 184.886L187.582 181.72L187.772 181.73L187.406 184.9L187.384 185.099L186.951 188.851ZM187.796 181.541L187.604 181.531L188.01 178.014L188.202 178.024L187.796 181.541ZM188.224 177.835L188.032 177.825L188.04 177.755C188.104 177.759 188.168 177.761 188.232 177.765L188.224 177.835Z" fill="#4C3038"/>
<path d="M180.812 216.327L180.72 216.317V216.309C180.75 216.317 180.78 216.323 180.812 216.327Z" fill="#DF7A2C"/>
<path d="M180.91 216.339L180.812 216.327C180.78 216.323 180.75 216.317 180.72 216.309L181 213.913L181.192 213.923L180.91 216.339ZM181.214 213.734L181.022 213.725L181.338 211.019L181.53 211.029L181.214 213.734ZM181.552 210.84L181.36 210.83L181.748 207.509L181.94 207.519L181.552 210.84ZM181.962 207.332L181.77 207.323L182.192 203.691L182.384 203.703L181.962 207.332ZM182.406 203.515L182.214 203.503L182.638 199.876L182.83 199.89L182.406 203.515ZM182.852 199.701L182.66 199.687L183.066 196.203L183.257 196.213L182.852 199.701ZM183.279 196.024L183.088 196.014L183.517 192.325L183.709 192.341L183.279 196.024ZM183.731 192.151L183.539 192.137L183.929 188.806L184.119 188.822L183.731 192.151ZM184.141 188.633L183.949 188.617L184.387 184.877L184.409 184.684L184.771 181.577L184.963 181.587L184.601 184.698L184.577 184.891L184.141 188.633ZM184.985 181.397L184.793 181.389L185.205 177.863L185.397 177.873L184.985 181.397ZM185.419 177.684L185.227 177.674L185.251 177.469C185.313 177.481 185.377 177.491 185.439 177.501L185.419 177.684Z" fill="#4C3038"/>
<path d="M180.026 210.948H180.016L180.026 210.757H180.036C180.032 210.82 180.028 210.886 180.026 210.948Z" fill="#DECBCE"/>
<path d="M188.63 211.414L187.185 211.335L186.993 211.325L184.365 211.184L184.173 211.172L181.53 211.029L181.338 211.019L180.026 210.948C180.028 210.886 180.032 210.82 180.036 210.757L181.36 210.83L181.552 210.84L184.195 210.983L184.387 210.993L187.015 211.136L187.207 211.146L188.656 211.226L188.644 211.309L188.63 211.414Z" fill="#4C3038"/>
<path d="M188.264 214.308L186.851 214.231L186.659 214.219L184.031 214.078L183.839 214.068L181.192 213.923L181 213.913L179.918 213.853L179.928 213.665L181.022 213.724L181.214 213.734L183.861 213.877L184.051 213.889L186.681 214.03L186.873 214.042L188.288 214.118L188.264 214.308Z" fill="#4C3038"/>
<path d="M189.078 207.89L187.591 207.813L187.399 207.803L184.773 207.666L184.581 207.656L181.94 207.519L181.748 207.509L180.278 207.434L180.294 207.245L181.77 207.322L181.962 207.332L184.601 207.473L184.793 207.483L187.421 207.622L187.613 207.632L189.1 207.712L189.092 207.767L189.078 207.89Z" fill="#4C3038"/>
<path d="M189.552 204.14L188.025 204.047L187.833 204.035L185.211 203.876L185.019 203.864L182.384 203.703L182.192 203.691L180.626 203.596L180.644 203.407L182.214 203.503L182.406 203.514L185.041 203.675L185.233 203.685L187.855 203.846L188.047 203.858L189.576 203.951L189.566 204.037L189.552 204.14Z" fill="#4C3038"/>
<path d="M181.022 199.756L181.024 199.748C181.024 199.752 181.022 199.754 181.022 199.756Z" fill="#DECBCE"/>
<path d="M190.024 200.42L188.456 200.305L188.264 200.291L185.649 200.098L185.457 200.082L182.83 199.89L182.638 199.876L181.022 199.757C181.022 199.755 181.024 199.753 181.024 199.749L181.044 199.568L182.66 199.687L182.852 199.701L185.479 199.894L185.671 199.908L188.286 200.1L188.478 200.114L190.048 200.231L190.026 200.398L190.024 200.42Z" fill="#4C3038"/>
<path d="M190.514 196.596L190.508 196.594L190.52 196.499L190.514 196.596ZM181.432 196.117L181.436 196.07C181.434 196.087 181.432 196.099 181.432 196.117ZM181.442 196.016L181.454 195.927C181.45 195.958 181.446 195.986 181.442 196.016Z" fill="#DECBCE"/>
<path d="M190.508 196.594L188.894 196.511L188.702 196.499L186.081 196.362L185.889 196.352L183.257 196.213L183.065 196.203L181.432 196.117C181.432 196.099 181.434 196.087 181.436 196.07L181.442 196.016C181.446 195.986 181.45 195.958 181.454 195.927L183.087 196.014L183.279 196.024L185.911 196.161L186.103 196.173L188.724 196.31L188.916 196.32L190.526 196.405L190.52 196.499L190.508 196.594Z" fill="#4C3038"/>
<path d="M190.98 192.865L189.326 192.746L189.136 192.73L186.523 192.542L186.331 192.53L183.709 192.341L183.517 192.325L181.92 192.21V192.019L183.539 192.136L183.731 192.15L186.353 192.341L186.545 192.353L189.158 192.542L189.348 192.556L191.004 192.675L190.996 192.752L190.98 192.865Z" fill="#4C3038"/>
<path d="M191.424 189.392H191.42L191.432 189.296L191.424 189.392ZM182.346 188.587L182.354 188.492H182.358C182.354 188.523 182.35 188.553 182.346 188.587Z" fill="#DECBCE"/>
<path d="M191.42 189.392L189.728 189.26L189.538 189.245L186.927 189.04L186.737 189.026L184.119 188.821L183.929 188.806L182.34 188.68L182.346 188.587C182.35 188.553 182.354 188.523 182.358 188.492L183.949 188.617L184.141 188.633L186.759 188.835L186.951 188.851L189.56 189.056L189.75 189.07L191.44 189.203L191.432 189.296L191.42 189.392Z" fill="#4C3038"/>
<path d="M192.367 181.965H192.361L192.373 181.869L192.367 181.965ZM183.285 181.404L183.291 181.311H183.297C183.293 181.343 183.289 181.373 183.285 181.404Z" fill="#DECBCE"/>
<path d="M192.362 181.965L190.58 181.873L190.388 181.863L187.772 181.73L187.583 181.72L184.963 181.587L184.771 181.577L183.281 181.5L183.285 181.404C183.289 181.373 183.293 181.343 183.297 181.311L184.793 181.389L184.985 181.396L187.605 181.532L187.796 181.541L190.41 181.675L190.602 181.684L192.378 181.776L192.374 181.869L192.362 181.965Z" fill="#4C3038"/>
<path d="M192.835 178.272H192.827L192.841 178.176L192.835 178.272ZM183.791 177.692L183.795 177.598H183.803C183.799 177.628 183.795 177.66 183.791 177.692Z" fill="#DECBCE"/>
<path d="M192.827 178.272L191.006 178.174L190.816 178.165L188.202 178.023L188.01 178.014L185.397 177.873L185.205 177.863L183.785 177.787L183.791 177.692C183.795 177.66 183.799 177.628 183.803 177.598L185.227 177.674L185.419 177.684L188.032 177.825L188.224 177.835L190.838 177.974L191.03 177.986L192.845 178.083L192.841 178.176L192.827 178.272Z" fill="#4C3038"/>
<path d="M203.717 216.188L203.637 214.31L203.827 214.283L203.909 216.16L203.717 216.188ZM203.629 214.12L203.495 211.019L203.685 210.989L203.819 214.092L203.629 214.12ZM203.485 210.826L203.327 207.158L203.517 207.13L203.677 210.799L203.485 210.826ZM203.319 206.967L203.163 203.366L203.353 203.338L203.509 206.939L203.319 206.967ZM203.153 203.175L202.999 199.578L203.189 199.552L203.345 203.147L203.153 203.175ZM202.989 199.385L202.831 195.716L203.021 195.686L203.181 199.361L202.989 199.385ZM202.823 195.525L202.663 191.859L202.855 191.831L203.013 195.496L202.823 195.525ZM202.656 191.664L202.508 188.216L202.697 188.19L202.845 191.638L202.656 191.664ZM202.498 188.021L202.342 184.398L202.532 184.374L202.687 187.993L202.498 188.021ZM202.332 184.207L202.178 180.632L202.368 180.608L202.524 184.183L202.332 184.207ZM202.17 180.441L202.03 177.243L202.222 177.217L202.36 180.417L202.17 180.441ZM202.022 177.048L201.994 176.403L202.184 176.319L202.214 177.024L202.022 177.048Z" fill="#4C3038"/>
<path d="M200.924 216.255V216.247C200.954 216.249 200.984 216.249 201.016 216.251L200.924 216.255Z" fill="#DF7A2C"/>
<path d="M201.016 216.251C200.984 216.249 200.954 216.249 200.924 216.247L200.856 214.721L201.048 214.694L201.116 216.247L201.016 216.251ZM200.85 214.531L200.714 211.43L200.906 211.402L201.04 214.503L200.85 214.531ZM200.706 211.239L200.548 207.571L200.738 207.541L200.896 211.21L200.706 211.239ZM200.538 207.378L200.382 203.767L200.572 203.739L200.73 207.35L200.538 207.378ZM200.374 203.576L200.216 199.941L200.408 199.915L200.564 203.548L200.374 203.576ZM200.208 199.75L200.052 196.125L200.242 196.097L200.398 199.724L200.208 199.75ZM200.042 195.936L199.882 192.256L200.074 192.228L200.234 195.909L200.042 195.936ZM199.874 192.053L199.726 188.617L199.916 188.591L200.066 192.025L199.874 192.053ZM199.718 188.412L199.558 184.759L199.75 184.735L199.908 188.386L199.718 188.412ZM199.55 184.568L199.394 180.971L199.586 180.947L199.74 184.545L199.55 184.568ZM199.386 180.78L199.248 177.622L199.44 177.596L199.576 180.757L199.386 180.78ZM199.24 177.422L199.1 174.19L199.29 174.164L199.432 177.396L199.24 177.422ZM199.092 173.999L198.968 171.168L199.214 172.402L199.282 173.973L199.092 173.999Z" fill="#4C3038"/>
<path d="M198.328 216.07L198.136 216.058V216.052C198.198 216.058 198.262 216.064 198.328 216.07Z" fill="#D5BEC2"/>
<path d="M198.328 216.07C198.262 216.064 198.198 216.058 198.136 216.052L198.096 215.131L198.286 215.103L198.328 216.07ZM198.086 214.94L197.952 211.837L198.142 211.809L198.278 214.91L198.086 214.94ZM197.942 211.649L197.782 207.98L197.974 207.95L198.134 211.619L197.942 211.649ZM197.774 207.787L197.616 204.168L197.808 204.14L197.964 207.759L197.774 207.787ZM197.608 203.977L197.448 200.302L197.638 200.279L197.8 203.949L197.608 203.977ZM197.438 200.112L197.285 196.534L197.474 196.506L197.63 200.088L197.438 200.112ZM197.275 196.346L197.115 192.649L197.305 192.623L197.466 196.318L197.275 196.346ZM197.105 192.44L196.955 189.018L197.147 188.99L197.297 192.415L197.105 192.44ZM196.947 188.803L196.785 185.119L196.977 185.095L197.137 188.778L196.947 188.803ZM196.777 184.93L196.619 181.311L196.811 181.287L196.967 184.904L196.777 184.93ZM196.611 181.12L196.475 178L196.665 177.974L196.801 181.096L196.611 181.12ZM196.465 177.793L196.443 177.296C196.513 177.286 196.577 177.278 196.635 177.269L196.657 177.769L196.465 177.793Z" fill="#4C3038"/>
<path d="M196.811 212.006L196.783 211.82L197.942 211.649L198.134 211.619L200.706 211.24L200.896 211.21L203.485 210.826L203.677 210.799L204.939 210.612L204.969 210.801L203.685 210.989L203.495 211.019L200.906 211.402L200.714 211.43L198.142 211.81L197.952 211.837L196.811 212.006Z" fill="#4C3038"/>
<path d="M197.019 215.29L196.991 215.101L197.035 215.095L197.049 215.286L197.019 215.29ZM204.967 214.114C204.967 214.11 204.967 214.108 204.967 214.104L204.969 214.114H204.967Z" fill="#D5BEC2"/>
<path d="M197.049 215.286L197.035 215.095L198.086 214.94L198.278 214.91L200.85 214.531L201.04 214.503L203.629 214.12L203.819 214.092L204.939 213.925L204.967 214.104C204.967 214.108 204.967 214.11 204.967 214.114L203.827 214.283L203.637 214.31L201.048 214.694L200.856 214.722L198.286 215.103L198.096 215.131L197.049 215.286Z" fill="#4C3038"/>
<path d="M196.475 208.077L196.461 207.982H196.467L196.475 208.077ZM204.899 206.925C204.897 206.864 204.897 206.798 204.895 206.735L204.939 206.727L204.969 206.915L204.899 206.925Z" fill="#DECBCE"/>
<path d="M196.489 208.171L196.475 208.077L196.467 207.982L197.774 207.787L197.964 207.759L200.538 207.378L200.73 207.35L203.319 206.967L203.509 206.939L204.895 206.734C204.897 206.798 204.897 206.863 204.899 206.925L203.517 207.13L203.327 207.157L200.738 207.541L200.548 207.571L197.974 207.95L197.782 207.98L196.489 208.171Z" fill="#4C3038"/>
<path d="M196.179 204.375V204.367L196.165 204.186L197.608 203.977L197.8 203.95L200.374 203.576L200.564 203.548L203.153 203.175L203.345 203.147L204.733 202.947L204.761 203.133L203.353 203.338L203.163 203.366L200.572 203.739L200.382 203.767L197.808 204.14L197.616 204.168L196.179 204.375Z" fill="#4C3038"/>
<path d="M195.871 200.509L195.857 200.334L195.855 200.32L197.438 200.112L197.63 200.088L200.208 199.75L200.398 199.725L202.989 199.385L203.181 199.361L204.617 199.172L204.629 199.266C204.631 199.298 204.631 199.331 204.633 199.363L203.189 199.552L202.999 199.578L200.408 199.915L200.216 199.941L197.638 200.279L197.448 200.303L195.871 200.509Z" fill="#4C3038"/>
<path d="M204.633 199.363C204.631 199.331 204.631 199.298 204.629 199.266L204.643 199.361L204.633 199.363Z" fill="#DECBCE"/>
<path d="M195.573 196.787L195.559 196.6L197.275 196.346L197.466 196.318L200.042 195.936L200.234 195.909L202.823 195.525L203.013 195.495L204.459 195.283V195.476L203.021 195.686L202.831 195.716L200.242 196.097L200.052 196.125L197.474 196.507L197.285 196.534L195.573 196.787Z" fill="#4C3038"/>
<path d="M195.263 192.913L195.247 192.701L197.105 192.441L197.296 192.415L199.874 192.053L200.066 192.025L202.655 191.664L202.845 191.638L204.259 191.439L204.287 191.628L202.855 191.831L202.663 191.859L200.074 192.228L199.882 192.256L197.304 192.623L197.115 192.649L195.263 192.913Z" fill="#4C3038"/>
<path d="M194.983 189.302L194.963 189.084L196.947 188.804L197.137 188.778L199.718 188.412L199.908 188.386L202.498 188.021L202.688 187.993L204.101 187.794L204.109 187.862C204.111 187.904 204.113 187.943 204.115 187.985L202.698 188.19L202.508 188.216L199.916 188.591L199.726 188.617L197.147 188.99L196.955 189.018L194.983 189.302Z" fill="#4C3038"/>
<path d="M204.115 187.986C204.113 187.944 204.111 187.904 204.109 187.862L204.127 187.984L204.115 187.986Z" fill="#DECBCE"/>
<path d="M194.739 185.387L194.713 185.198L196.777 184.93L196.967 184.904L199.55 184.569L199.74 184.545L202.331 184.207L202.523 184.183L203.907 184.004L203.921 184.098C203.921 184.13 203.923 184.161 203.925 184.193L202.531 184.374L202.341 184.398L199.75 184.735L199.558 184.759L196.977 185.095L196.785 185.119L194.739 185.387Z" fill="#4C3038"/>
<path d="M203.925 184.193C203.923 184.161 203.921 184.13 203.921 184.098L203.933 184.191L203.925 184.193Z" fill="#DECBCE"/>
<path d="M194.359 181.587L194.345 181.418V181.397L196.611 181.121L196.801 181.097L199.386 180.781L199.576 180.757L202.17 180.441L202.36 180.417L203.721 180.25L203.731 180.441L202.368 180.608L202.178 180.632L199.586 180.948L199.394 180.972L196.811 181.287L196.619 181.311L194.359 181.587Z" fill="#4C3038"/>
<path d="M194.099 178.324L194.083 178.125L194.081 178.113L196.465 177.793L196.657 177.769L199.24 177.422L199.432 177.396L202.022 177.048L202.214 177.024L203.531 176.848L203.543 176.941C203.545 176.975 203.547 177.003 203.549 177.036L202.222 177.217L202.03 177.243L199.44 177.597L199.248 177.622L196.665 177.974L196.475 178L194.099 178.324Z" fill="#4C3038"/>
<path d="M203.549 177.037C203.547 177.003 203.545 176.975 203.543 176.941L203.555 177.035L203.549 177.037Z" fill="#DECBCE"/>
<path d="M197.083 174.46L197.087 174.267L199.092 173.999L199.282 173.973L199.52 173.941L199.558 174.128L199.29 174.164L199.1 174.19L197.083 174.46Z" fill="#4C3038"/>
<path d="M197.151 171.183L197.157 170.99L198.888 170.758L198.924 170.944L197.151 171.183Z" fill="#4C3038"/>
<path d="M197.227 167.615L197.231 167.422L198.2 167.293L198.236 167.48L197.227 167.615Z" fill="#4C3038"/>
<path d="M202.843 147.61C202.843 147.61 205.069 147.787 207.473 146.816C209.876 145.844 211.122 144.43 210.32 140.014C209.518 135.597 203.555 120.053 203.555 120.053C203.555 120.053 204.801 119.082 204.891 117.404C204.981 115.725 204.535 115.846 204.535 115.846L190.562 115.669C190.562 115.669 191.362 118.462 191.096 119.169C190.828 119.877 187.179 123.851 185.755 127.383C184.331 130.917 181.038 137.188 181.038 137.188L176.943 127.383L172.06 131.08C172.06 131.08 178.774 146.816 180.288 147.698C182.358 148.746 185.187 144.432 185.187 144.432C185.187 144.432 185.311 146.462 185.311 147.61C185.311 148.758 183.965 159.582 181.866 164.981C180.42 170.483 177.665 174.557 177.665 174.557C177.665 174.557 178.626 175.882 183.965 177.207C189.306 178.532 197.025 177.207 197.025 177.207L197.327 162.889L200.168 177.207L207.788 173.85C207.788 173.85 203.289 156.618 202.843 147.61Z" fill="#754855"/>
<path d="M203.619 120.22C203.577 120.111 203.555 120.053 203.555 120.053C203.555 120.053 203.559 120.051 203.567 120.043C203.639 120.083 203.679 120.105 203.683 120.107L203.619 120.22Z" fill="#B69EA5"/>
<path d="M203.611 120.232C203.577 120.214 200.262 118.381 197.611 118.381C197.547 118.381 197.483 118.383 197.419 118.385C194.725 118.476 191.238 119.402 191.202 119.412L191.166 119.273C191.2 119.263 194.703 118.333 197.413 118.242C197.477 118.24 197.539 118.238 197.603 118.238C200.014 118.238 202.949 119.718 203.567 120.043C203.559 120.051 203.555 120.053 203.555 120.053C203.555 120.053 203.577 120.111 203.619 120.22L203.611 120.232Z" fill="#542C37"/>
<path d="M202.917 142.487L202.933 144.605L185.265 145.971L185.075 144.22C185.075 144.22 188.44 142.968 193.041 142.696C197.644 142.424 202.917 142.487 202.917 142.487Z" fill="#8C606E"/>
<path d="M185.123 144.673H185.111L185.101 144.557C185.105 144.553 185.107 144.549 185.111 144.545L185.123 144.673Z" fill="#B69CA1"/>
<path d="M185.303 147.106L185.291 146.941H185.299C185.301 146.997 185.303 147.052 185.303 147.106Z" fill="#C0A7AD"/>
<path d="M185.299 146.941H185.291L185.111 144.673H185.123L185.265 145.972C185.279 146.29 185.291 146.625 185.299 146.941Z" fill="#BAA0A5"/>
<path d="M185.303 147.106C185.303 147.052 185.301 146.997 185.299 146.941C185.291 146.625 185.279 146.289 185.265 145.972L185.917 145.922C185.549 146.633 185.311 147.094 185.303 147.106ZM185.101 144.557L185.075 144.22L185.111 144.545C185.107 144.549 185.105 144.553 185.101 144.557ZM185.075 144.22C185.075 144.22 187.135 139.939 188.98 136.916C190.896 133.197 193.475 127.183 193.475 127.183C193.475 127.183 191.03 136.117 190.014 138.042C189.48 139.055 188.202 141.514 187.113 143.614C185.829 143.94 185.075 144.22 185.075 144.22Z" fill="#623844"/>
<path d="M185.265 145.971L185.123 144.672L185.111 144.545L185.075 144.219C185.075 144.219 185.829 143.939 187.113 143.614C186.661 144.488 186.239 145.3 185.917 145.922L185.265 145.971Z" fill="#754B58"/>
<path d="M174.665 125.8C174.665 125.8 175.227 121.646 175.741 121.136C176.253 120.627 175.433 123.682 175.587 124.648C175.741 125.615 176.253 128.058 176.253 128.058L172.766 130.553C172.766 130.553 169.484 127.296 169.996 124.394C170.51 121.494 171.792 118.796 172.202 118.438C173.059 117.696 172.254 120.425 171.536 121.748C170.818 123.071 171.536 123.835 171.536 123.835C171.536 123.835 172.458 120.425 173.329 119.457C174.201 118.49 173.483 121.289 173.073 122.612C172.664 123.935 174.665 125.8 174.665 125.8Z" fill="#F59D82"/>
<path d="M189.03 114.99C189.172 114.047 189.086 113.965 190.16 113.814C191.232 113.667 191.812 112.444 192.252 112.515C192.693 112.589 194.251 115.167 192.302 116.752C190.352 118.335 188.792 116.561 189.03 114.99Z" fill="#844232"/>
<path d="M193.809 108.032L193.779 108.026C193.743 108.01 193.727 107.967 193.743 107.933C193.755 107.905 194.043 107.289 194.499 107.241C194.519 107.241 194.537 107.24 194.555 107.24C194.781 107.24 195.003 107.383 195.213 107.665C195.237 107.698 195.229 107.742 195.197 107.766C195.185 107.776 195.169 107.78 195.155 107.78C195.133 107.78 195.111 107.77 195.097 107.75C194.915 107.508 194.733 107.383 194.555 107.383C194.541 107.383 194.529 107.383 194.515 107.385C194.141 107.422 193.877 107.984 193.875 107.992C193.863 108.018 193.837 108.032 193.809 108.032Z" fill="#EB6142"/>
<path d="M188.842 112.358L191.762 111.687C191.762 111.687 189.372 110.408 188.728 111.687C188.084 112.964 188.842 112.358 188.842 112.358Z" fill="#844232"/>
<path d="M41.2347 106.82C41.2287 106.759 40.7188 100.821 43.3962 97.9909C44.378 96.952 45.6758 96.4475 47.2455 96.4892L47.2415 96.6322C45.7098 96.5885 44.454 97.0811 43.5022 98.0882C40.8688 100.873 41.3727 106.747 41.3787 106.806L41.2347 106.82Z" fill="white"/>
<path d="M66.2935 142.092L64.9878 144.672C64.9878 144.672 61.3366 143.087 61.6105 142.676C61.8865 142.265 62.7863 142.845 63.944 142.253C65.1058 141.659 65.9176 141.645 66.2935 142.092Z" fill="#844232"/>
<path d="M79.075 161.638C78.973 161.638 78.889 161.561 78.883 161.457C78.0892 146.271 76.4035 145.076 76.2976 145.016C76.2076 144.982 76.1556 144.885 76.1796 144.79C76.2056 144.688 76.3096 144.627 76.4115 144.653C76.6175 144.704 78.4371 145.614 79.2669 161.437C79.2709 161.543 79.191 161.632 79.085 161.638H79.075Z" fill="#362127"/>
<path d="M68.0453 221.799H73.6762C73.6762 221.799 76.1796 216.631 76.6476 216.851C77.1175 217.07 77.7193 221.795 77.7193 221.795H78.8451C78.8451 221.795 79.5749 215.23 79.149 213.039C78.7251 210.85 73.8641 214.301 72.1185 217.155C70.0429 220.548 65.3399 220.274 68.0453 221.799Z" fill="#0F4874"/>
<path d="M73.0941 221.795L75.8616 221.783C75.8616 221.783 77.8112 216.384 76.9373 216.565C76.0655 216.744 73.0941 221.795 73.0941 221.795Z" fill="#092D49"/>
<path d="M91.0245 221.799H97.1072C97.1072 221.799 99.8127 216.631 100.319 216.851C100.826 217.07 101.476 221.795 101.476 221.795H102.768C102.768 221.795 103.48 215.23 103.022 213.039C102.562 210.85 97.3112 214.301 95.4256 217.155C93.182 220.548 88.1011 220.274 91.0245 221.799Z" fill="#0F4874"/>
<path d="M96.4754 221.795L99.4648 221.783C99.4648 221.783 101.572 216.384 100.629 216.565C99.6848 216.744 96.4754 221.795 96.4754 221.795Z" fill="#092D49"/>
<path d="M84.7338 151.869L99.8007 151.386C99.8007 151.386 100.772 157.755 100.578 162.673C100.385 167.593 99.9946 185.728 99.9946 185.728L103.494 211.871C103.494 211.871 97.4671 214.67 96.1074 215.44C94.7457 216.213 95.1356 200.489 94.2598 196.727C93.384 192.965 89.8847 169.909 89.8847 169.909C89.8847 169.909 84.7338 182.834 84.2479 189.491C83.762 196.147 81.7204 213.802 80.2627 214.765C79.6388 215.178 79.1049 214.815 78.4391 214.453C77.5473 213.967 76.4195 213.48 74.5279 214.862C71.2226 217.274 67.5273 218.527 68.5971 214.96C69.6669 211.39 75.7896 193.928 76.1795 188.142C76.5675 182.354 82.6922 156.884 84.7338 151.869Z" fill="#754855"/>
<path d="M91.0524 177.434L89.8847 169.909L92.8021 163.446L91.0524 177.434Z" fill="#633944"/>
<path d="M87.5712 111.121L87.5552 111.119C87.5032 111.111 87.4672 111.061 87.4752 111.009C87.6152 110.094 87.9011 109.536 88.323 109.349C88.717 109.172 89.0729 109.397 89.0869 109.407C89.1329 109.436 89.1449 109.494 89.1169 109.54C89.0869 109.583 89.0269 109.595 88.9829 109.567C88.9709 109.559 88.697 109.391 88.399 109.524C88.0471 109.681 87.7952 110.205 87.6652 111.039C87.6592 111.087 87.6172 111.121 87.5712 111.121Z" fill="#3E3F3E"/>
<path d="M85.3876 104.812C85.3876 104.812 84.8517 106.518 83.9399 108.815C83.0281 111.109 81.9023 111.528 81.8763 111.719C81.7323 112.789 83.5279 112.748 83.5279 112.748C83.5279 112.748 83.354 113.596 83.142 113.991C83.07 114.122 84.8817 114.265 84.9077 114.42C84.9417 114.597 83.35 114.774 83.382 114.953C83.5919 116.073 83.9339 117.455 84.5117 117.708C85.8335 118.284 88.6749 117.779 88.6749 117.779L89.6807 122.34C89.6807 122.34 95.3655 121.843 95.4075 121.506C95.4495 121.168 93.042 112.744 93.042 112.744C93.042 112.744 93.5459 95.7484 85.3876 104.812Z" fill="#844232"/>
<path d="M87.4393 102.307C84.8018 103.116 84.4179 105.958 85.2498 107.055C86.0796 108.147 86.5055 108.624 87.7012 108.459C88.899 108.294 90.4387 108.62 90.3407 110.199C90.2447 111.78 88.815 112.309 89.021 113.697C89.2289 115.086 90.0128 117.336 91.6664 117.827C93.3201 118.316 94.0999 118.6 94.0999 118.6L95.5436 117.739C95.5436 117.739 96.6994 117.64 97.1313 114.621C97.5632 111.604 97.7472 106.181 95.7976 103.817C93.9 101.513 90.0768 101.497 87.4393 102.307Z" fill="#362127"/>
<path d="M94.0999 118.599L94.7718 120.772L96.6654 120.361L95.7536 117.62L94.0999 118.599Z" fill="#072033"/>
<path d="M100.043 151.371L100.517 149.023C100.517 149.023 105.9 152.425 107.281 148.925C108.663 145.423 103.648 131.173 102.722 128.422C101.798 125.671 100.521 122.807 97.3633 122.425C94.2059 122.042 86.6335 120.272 82.1684 124.628C77.7014 128.984 75.7098 142.889 74.554 144.569C74.0141 145.356 72.7304 144.331 71.1987 143.31C69.4571 142.144 67.3975 140.98 65.7578 142.484C62.6765 145.312 69.617 150.892 73.0823 151.579C76.5476 152.266 78.0973 151.446 79.7909 148.161C81.4846 144.875 83.4362 138.852 83.4362 138.852L83.9541 151.905L100.043 151.371Z" fill="#9C5013"/>
<path d="M88.761 121.339H95.6916C96.1815 121.339 96.5774 121.732 96.5774 122.219C96.5774 122.703 96.1815 123.097 95.6916 123.097H88.761C88.2731 123.097 87.8772 122.703 87.8772 122.219C87.8772 121.732 88.2731 121.339 88.761 121.339Z" fill="#F2F2F2"/>
<path d="M99.8887 146.403L98.0411 131.044C98.0411 131.044 101.66 140.825 99.8887 146.403Z" fill="#8B410E"/>
<path d="M83.84 138.904C83.816 138.904 83.79 138.894 83.77 138.874C83.734 138.837 83.736 138.775 83.776 138.739C88.7569 134.085 85.2817 123.804 85.2457 123.701C85.2277 123.651 85.2537 123.597 85.3056 123.579C85.3156 123.575 85.3256 123.573 85.3356 123.573C85.3776 123.573 85.4136 123.599 85.4276 123.639C85.4636 123.742 88.9789 134.141 83.9059 138.878C83.8879 138.896 83.8639 138.904 83.84 138.904Z" fill="#853B0C"/>
<path d="M86.3594 109.049C86.3354 109.049 86.3134 109.037 86.2994 109.017C85.6855 108.121 84.9557 108.578 84.9257 108.6C84.8917 108.62 84.8477 108.612 84.8257 108.578C84.8037 108.544 84.8137 108.501 84.8477 108.479C84.8557 108.473 85.7275 107.927 86.4174 108.936C86.4414 108.969 86.4334 109.013 86.3994 109.035L86.3594 109.049Z" fill="#362127"/>
<path d="M87.6653 110.62L87.6393 110.614C87.6033 110.6 87.5833 110.559 87.5993 110.523C87.6113 110.491 87.9112 109.75 88.4671 109.659C88.5031 109.653 88.5391 109.651 88.5771 109.651C88.857 109.651 89.143 109.818 89.4289 110.153C89.4569 110.183 89.4529 110.229 89.4209 110.255C89.4069 110.267 89.3909 110.273 89.3749 110.273C89.3549 110.273 89.3349 110.263 89.3209 110.247C89.061 109.947 88.8131 109.794 88.5771 109.794C88.5491 109.794 88.5191 109.796 88.4911 109.802C88.0152 109.879 87.7353 110.569 87.7333 110.575C87.7213 110.604 87.6953 110.62 87.6653 110.62Z" fill="#44110A"/>
<path d="M84.7918 109.881C84.8317 109.541 84.9717 109.277 85.1057 109.293C85.2417 109.309 85.3176 109.597 85.2797 109.937C85.2397 110.278 85.0977 110.541 84.9637 110.527C84.8297 110.511 84.7538 110.223 84.7918 109.881Z" fill="#362127"/>
<path d="M80.3447 107.579C80.3447 107.579 80.2248 106.024 82.3083 104.691C84.3919 103.356 86.1056 103.173 86.1056 103.173L85.0758 104.735C85.0758 104.735 82.7602 104.216 80.3447 107.579Z" fill="#362127"/>
<path d="M71.0827 216.813C71.7786 213.297 72.9663 208.554 74.222 203.57C75.9897 196.566 77.8153 189.324 78.7151 183.77C79.117 181.297 79.8549 178.035 80.7287 174.557H80.9267C80.0488 178.045 79.307 181.321 78.9051 183.8C78.0033 189.362 76.1756 196.61 74.408 203.618C73.1523 208.598 72.0105 213.226 71.3166 216.738L71.0827 216.813ZM84.12 162.772C84.076 162.699 84.03 162.627 83.982 162.56C85.5297 157.155 86.8014 153.027 86.8294 152.934L87.0114 152.989C86.9834 153.083 85.6877 157.292 84.12 162.772Z" fill="#562F39"/>
<path d="M94.7718 120.773L96.6654 120.362L103.44 139.711C103.44 139.711 99.0309 141.671 96.8654 134.832C95.7996 131.461 94.7718 120.773 94.7718 120.773Z" fill="#362127"/>
<path d="M71.1766 161.638H71.1686C71.0626 161.632 70.9806 161.542 70.9866 161.437C71.8145 145.614 73.6361 144.704 73.84 144.652C73.944 144.629 74.046 144.688 74.072 144.79C74.098 144.885 74.044 144.982 73.954 145.016C73.848 145.076 72.1644 146.271 71.3685 161.457C71.3645 161.56 71.2786 161.638 71.1766 161.638Z" fill="#362127"/>
<path d="M69.117 161.449H81.8643C83.34 161.449 84.5338 162.725 84.5338 164.298V171.709C84.5338 173.282 83.34 174.557 81.8643 174.557H69.117C67.6433 174.557 66.4475 173.282 66.4475 171.709V164.298C66.4475 162.725 67.6433 161.449 69.117 161.449Z" fill="#1977BF"/>
<path d="M75.4916 171.19C69.5969 171.19 66.4475 167.202 66.4475 167.202V165.724C66.4475 165.724 70.2527 169.85 75.2137 169.931C75.2597 169.933 75.3077 169.933 75.3537 169.933C80.2567 169.933 84.5338 165.724 84.5338 165.724V167.124C84.5338 167.124 81.3304 171.19 75.4916 171.19Z" fill="#1265B1"/>
<path d="M77.7372 169.653C77.7372 170.159 76.8274 170.569 75.7036 170.569C74.5798 170.569 73.67 170.159 73.67 169.653C73.67 169.146 74.5798 168.735 75.7036 168.735C76.8274 168.735 77.7372 169.146 77.7372 169.653Z" fill="#362127"/>
<path d="M84.296 151.37H100.005C100.495 151.37 100.891 151.764 100.891 152.248C100.891 152.735 100.495 153.128 100.005 153.128H84.296C83.8061 153.128 83.4102 152.735 83.4102 152.248C83.4102 151.764 83.8061 151.37 84.296 151.37Z" fill="#362127"/>
<path d="M287.872 197.291L292.415 194.6L291.685 192.031L288.64 193.243C288.64 193.243 286.52 195.432 287.872 197.291Z" fill="#754855"/>
<path d="M302.717 179.871L305.298 179.738C305.298 179.738 305.39 180.691 306.544 182.267C308.076 184.354 305.214 181.929 305.298 182.352C305.402 182.857 306.096 184.63 305.772 184.68C305.18 184.771 304.358 182.078 304.358 182.078C304.358 182.078 305.014 185.056 304.738 185.232C304.154 185.602 303.598 182.008 303.598 182.008C303.598 182.008 303.796 184.583 303.53 184.781C302.841 185.296 302.717 181.349 302.717 181.349C302.717 181.349 300.469 183.182 300.427 182.285C300.419 182.126 302.717 179.871 302.717 179.871Z" fill="#F59D82"/>
<path d="M279.52 193.664L283.547 192.891C283.547 192.891 284.041 187.071 284.253 184.97C284.463 182.866 285.524 182.235 285.524 182.235L287.574 182.165L287.728 193.664C287.728 193.664 289.551 193.593 291.319 193.171C293.083 192.752 293.155 191.004 293.155 191.004L293.225 182.135C293.225 182.135 296.114 182.421 297.324 181.363C299.725 179.261 297.816 173.54 297.816 173.54C297.816 173.471 285.666 174.172 285.666 174.172C285.666 174.172 283.193 177.187 281.213 178.099C279.236 179.011 278.46 179.851 279.52 193.664Z" fill="#1977BF"/>
<path d="M287.578 182.553L286.152 182.213L287.574 182.165L287.578 182.553Z" fill="#BCD8ED"/>
<path d="M287.716 182.584L287.578 182.552L287.574 182.165L286.152 182.213L285.948 182.165C285.948 182.165 285.594 180.201 286.866 178.659C288.138 177.116 290.257 176.417 290.257 176.417C290.257 176.417 288.42 178.099 288.208 179.289C287.998 180.481 287.716 182.584 287.716 182.584Z" fill="#1265B1"/>
<path d="M302.095 179.903L305.298 179.738C305.298 179.738 303.759 170.648 302.969 167.879C302.177 165.112 297.68 156.559 295.432 155.649C293.185 154.741 291.227 155.897 291.227 155.897C291.227 155.897 290.977 158.996 288.812 159.286C286.646 159.576 285.732 156.765 285.732 156.765C285.732 156.765 284.273 156.505 282.647 157.951C281.023 159.397 278.922 166.173 278.922 166.173L273.567 163.299L272.269 166.296C272.269 166.296 279.138 170.944 279.816 170.769C280.931 170.481 284.317 164.864 284.317 164.864L285.772 174.267L297.804 173.606C297.804 173.606 296.89 166.681 296.766 165.277C296.64 163.873 296.558 163.211 296.558 163.211L300.303 171.433L302.095 179.903Z" fill="#DB711A"/>
<path d="M291.011 153.587L291.287 155.778L292.287 155.679C292.287 155.679 291.519 158.871 289.452 159.503C287.382 160.134 285.49 156.819 285.49 156.819L286.792 156.457L286.428 153.831L291.011 153.587Z" fill="#DB711A"/>
<path d="M278.086 196.741L283.159 195.247L283.091 192.582L279.841 193.007C279.841 193.007 277.238 194.608 278.086 196.741Z" fill="#754855"/>
<path d="M273.629 163.376L272.209 166.342C272.209 166.342 269.855 164.932 269.368 163.766C268.876 162.598 270.345 161.724 270.345 161.724C270.345 161.724 267.848 158.953 268.584 159.147C269.32 159.342 271.621 162.113 271.621 162.113C271.621 162.113 271.865 160.119 272.405 159.876C272.943 159.634 272.257 161.966 272.453 162.355C272.649 162.745 273.629 163.376 273.629 163.376Z" fill="#F59D82"/>
<path d="M291.199 155.071L294.9 155.301C294.9 155.301 294.9 158.696 295.538 162.188C296.17 165.682 297.688 167.478 297.688 167.478L298.812 174.704C298.812 174.704 294.9 177.275 293.435 175.529C291.967 173.783 289.294 163.076 291.199 155.071Z" fill="#754855"/>
<path d="M283.905 175.457C283.905 175.457 287.522 176.329 288.792 175.747C290.061 175.165 289.721 172.303 289.573 168.423C289.427 164.542 286.73 156.003 286.73 156.003L283.513 157.218C283.513 157.218 284.782 160.128 284.782 161.922C284.782 163.718 284.342 166.822 284.342 166.822L283.905 175.457Z" fill="#754855"/>
<path d="M291.083 143.834C291.083 143.834 287.704 142.939 286.44 145.507C284.838 148.769 283.437 148.063 283.303 148.518C283.079 149.269 284.085 149.108 284.333 149.327C284.578 149.543 282.625 152.485 284.351 153.268C284.718 153.434 290.947 156.293 291.963 151.613C293.621 144.005 291.083 143.834 291.083 143.834Z" fill="#F59D82"/>
<path d="M288.476 148.542C288.476 148.542 289.18 147.04 290.305 148.46C291.359 149.783 288.888 151.575 288.888 151.575L290.409 153.832C290.409 153.832 294.538 152.515 294.574 146.816C294.59 144.037 290.343 143.6 289.393 143.604C286.668 143.62 287.57 144.073 288.212 144.663C288.854 145.248 287.898 147.575 287.898 147.575L288.476 148.542Z" fill="#362127"/>
<path d="M284.001 150.451L285.146 150.699C285.146 150.699 284.253 151.623 284.001 150.451Z" fill="white"/>
<path d="M288.476 143.604L292.543 152.485C292.543 152.485 295.506 150.697 295.912 148.381C296.316 146.063 295.13 144.309 295.13 144.309C295.13 144.309 292.713 140.579 288.476 143.604Z" fill="#B56E82"/>
<path d="M285.844 147.495C285.932 147.199 286.08 146.981 286.174 147.009C286.266 147.037 286.27 147.299 286.18 147.595C286.092 147.893 285.944 148.111 285.852 148.083C285.758 148.056 285.754 147.791 285.844 147.495Z" fill="#362127"/>
<path d="M286.96 147.278H286.956C286.918 147.276 286.886 147.243 286.888 147.203C286.91 146.744 286.844 146.45 286.696 146.379C286.532 146.301 286.286 146.504 286.284 146.506C286.254 146.532 286.21 146.528 286.184 146.498C286.156 146.468 286.158 146.424 286.188 146.396C286.204 146.387 286.508 146.128 286.762 146.251C286.972 146.353 287.06 146.667 287.032 147.211C287.03 147.249 286.998 147.278 286.96 147.278Z" fill="#362127"/>
<path d="M296.746 144.583C296.746 145.125 296.304 145.564 295.758 145.564C295.214 145.564 294.772 145.125 294.772 144.583C294.772 144.043 295.214 143.604 295.758 143.604C296.304 143.604 296.746 144.043 296.746 144.583Z" fill="#B56E82"/>
</svg>
