<svg width="350" height="329" viewBox="0 0 350 316" fill="none" xmlns="http://www.w3.org/2000/svg">
<path fill-rule="evenodd" clip-rule="evenodd" d="M349.989 236.889C349.278 280.457 313.738 315.556 270 315.556H80C35.8172 315.556 0 279.739 0 235.556V174.195C65.0689 95.5211 187.941 42.9419 350 0V235.36L349.989 236.889Z" fill="black"/>
<path d="M258.546 104.023L151.26 197.613C148.092 200.991 148.406 202.924 151.26 206.412L211.5 281.871C216.033 286.554 218.622 286.82 223.361 281.871L321.585 190.414C324.586 186.968 324.647 184.778 321.585 180.148L269.874 104.023C266.098 100.044 263.635 99.9411 258.546 104.023Z" fill="#BDB4A8" stroke="black"/>
<path d="M257.418 105.144L152.871 194.937C149.693 198.324 150.008 200.262 152.871 203.76L213.296 279.425C217.843 284.121 220.44 284.387 225.194 279.425L323.719 187.718C326.729 184.262 326.791 182.066 323.719 177.424L269.449 103.406C265.662 99.416 262.522 101.051 257.418 105.144Z" fill="#E5DFD7" stroke="black"/>
<circle cx="242.579" cy="190.033" r="17.3789" fill="#7E7E7E"/>
<circle cx="243.916" cy="188.697" r="14.3789" fill="white" stroke="#A0A0A0" stroke-width="6"/>
<path d="M244.516 182.258L243.658 183.157L242.178 181.745L237.736 186.401L236.622 185.339L241.063 180.682L239.583 179.27L240.441 178.37L244.516 182.258ZM241.862 186.095C242.287 185.649 242.751 185.337 243.256 185.16C243.765 184.987 244.259 184.952 244.739 185.054C245.224 185.162 245.655 185.396 246.032 185.755C246.361 186.069 246.584 186.409 246.701 186.774C246.824 187.145 246.864 187.502 246.82 187.845L247.42 187.216L248.542 188.287L244.336 192.696L243.214 191.626L243.829 190.981C243.488 191.052 243.125 191.034 242.738 190.929C242.362 190.824 242.01 190.614 241.681 190.301C241.309 189.946 241.061 189.527 240.935 189.042C240.815 188.563 240.829 188.064 240.978 187.547C241.137 187.03 241.431 186.546 241.862 186.095ZM245.317 189.421C245.575 189.15 245.742 188.869 245.818 188.577C245.899 188.279 245.898 187.994 245.814 187.721C245.734 187.443 245.591 187.205 245.384 187.008C245.177 186.81 244.938 186.678 244.667 186.612C244.396 186.546 244.111 186.558 243.812 186.648C243.524 186.738 243.253 186.915 243 187.181C242.747 187.446 242.577 187.73 242.491 188.033C242.415 188.336 242.414 188.624 242.488 188.897C242.567 189.175 242.708 189.41 242.909 189.603C243.116 189.8 243.358 189.934 243.635 190.006C243.916 190.071 244.201 190.06 244.49 189.97C244.783 189.875 245.059 189.692 245.317 189.421ZM251.426 190.901C251.755 191.215 251.981 191.557 252.104 191.927C252.232 192.293 252.269 192.647 252.215 192.991L252.815 192.362L253.937 193.432L249.7 197.874C249.311 198.282 248.882 198.567 248.414 198.729C247.94 198.896 247.451 198.915 246.944 198.787C246.433 198.664 245.944 198.38 245.477 197.935C244.851 197.337 244.475 196.701 244.351 196.024C244.231 195.353 244.385 194.74 244.813 194.185L245.919 195.24C245.785 195.497 245.758 195.776 245.838 196.075C245.918 196.384 246.096 196.67 246.372 196.933C246.695 197.242 247.052 197.394 247.441 197.39C247.824 197.392 248.204 197.196 248.578 196.803L249.231 196.119C248.89 196.189 248.527 196.172 248.141 196.067C247.76 195.967 247.407 195.763 247.084 195.454C246.712 195.099 246.464 194.68 246.338 194.195C246.212 193.711 246.224 193.21 246.373 192.693C246.531 192.176 246.826 191.692 247.256 191.241C247.681 190.795 248.146 190.483 248.65 190.305C249.16 190.132 249.654 190.097 250.134 190.2C250.619 190.308 251.05 190.541 251.426 190.901ZM250.712 194.567C250.97 194.296 251.137 194.015 251.213 193.722C251.294 193.425 251.292 193.139 251.208 192.867C251.129 192.588 250.986 192.351 250.779 192.153C250.572 191.956 250.333 191.824 250.062 191.758C249.79 191.692 249.505 191.703 249.207 191.793C248.918 191.883 248.648 192.061 248.395 192.326C248.141 192.592 247.972 192.876 247.886 193.178C247.81 193.481 247.809 193.769 247.883 194.042C247.962 194.32 248.102 194.556 248.304 194.748C248.511 194.945 248.753 195.08 249.029 195.151C249.311 195.217 249.596 195.205 249.884 195.115C250.178 195.02 250.453 194.837 250.712 194.567Z" fill="#A0A0A0"/>
<path d="M269.717 113.967C269.717 115.739 269.29 117.042 267.444 117.042C265.598 117.042 263.701 114.402 263.701 112.631C263.701 110.859 264.395 109.556 266.241 109.556C268.087 109.556 269.717 112.195 269.717 113.967Z" fill="#979189"/>
<path d="M270.019 113.433C270.019 114.301 269.91 114.949 269.649 115.372C269.42 115.743 269.032 116.007 268.246 116.007C267.549 116.007 266.741 115.49 266.073 114.654C265.411 113.827 265.003 112.831 265.003 112.096C265.003 111.262 265.168 110.617 265.483 110.191C265.778 109.792 266.252 109.521 267.043 109.521C267.728 109.521 268.467 110.026 269.068 110.856C269.661 111.674 270.019 112.677 270.019 113.433Z" fill="#0E0F11" stroke="#BBB3A8"/>
</svg>
