<svg width="125" height="55" viewBox="0 0 146 77" fill="none" xmlns="http://www.w3.org/2000/svg">
<ellipse cx="28.9254" cy="46.6795" rx="28.9254" ry="29.9228" fill="#E4D5AC"/>
<ellipse cx="30.9204" cy="46.6796" rx="20.9459" ry="21.6682" fill="#FFFEFE"/>
<ellipse cx="33.9126" cy="45.6477" rx="13.964" ry="14.4455" fill="black"/>
<ellipse cx="40.8947" cy="40.4886" rx="4.98713" ry="5.1591" fill="white"/>
<ellipse cx="86.7761" cy="46.6795" rx="28.9254" ry="29.9228" fill="#E4D5AC"/>
<ellipse cx="88.7716" cy="46.6796" rx="20.9459" ry="21.6682" fill="#FFFEFE"/>
<ellipse cx="91.7633" cy="45.6477" rx="13.964" ry="14.4455" fill="black"/>
<ellipse cx="98.7446" cy="40.4886" rx="4.98713" ry="5.1591" fill="white"/>
<mask id="mask0_316_608" style="mask-type:luminance" maskUnits="userSpaceOnUse" x="108" y="0" width="38" height="38">
<path d="M108.679 0.277527H145.544V37.5872H108.679V0.277527Z" fill="white"/>
</mask>
<g mask="url(#mask0_316_608)">
<path d="M120.692 0.568277C120.652 0.373104 120.5 0.256508 120.34 0.304667C120.235 0.33445 120.147 0.441542 120.123 0.568277C119.61 2.90782 118.344 7.22697 115.555 9.86878C113.616 11.7014 111.348 12.9687 108.943 13.5638C108.784 13.6024 108.679 13.7881 108.711 13.9826C108.735 14.1195 108.815 14.2171 108.919 14.2557C110.875 14.9186 114.273 16.3716 115.996 18.8379C117.358 20.7877 118.569 25.6721 119.097 28.0604C119.145 28.2455 119.306 28.3627 119.458 28.3044C119.554 28.2752 119.634 28.1776 119.659 28.0604C120.203 25.6328 121.614 20.6122 124.25 18.4773C126.606 16.5661 129.227 15.6112 130.71 15.1822C130.87 15.1334 130.958 14.9382 130.918 14.743C130.894 14.6264 130.822 14.5288 130.726 14.4997C128.939 13.8559 125.613 12.4035 124.25 10.2293C122.135 6.85627 121.125 2.79122 120.692 0.568277ZM135.51 20.6027C135.486 20.4854 135.39 20.417 135.294 20.4468C135.23 20.4658 135.182 20.5247 135.165 20.6027C134.853 22.0354 134.076 24.6778 132.369 26.2861C131.182 27.4071 129.796 28.1776 128.322 28.5382C128.225 28.5579 128.161 28.6745 128.185 28.7917C128.201 28.8696 128.249 28.9381 128.313 28.9571C129.508 29.3671 131.592 30.2441 132.641 31.7554C133.475 32.9448 134.212 35.9377 134.541 37.4002C134.565 37.5168 134.669 37.5852 134.757 37.5561C134.821 37.5364 134.861 37.4781 134.885 37.4002C135.222 35.918 136.079 32.8472 137.69 31.5406C139.132 30.3708 140.735 29.7859 141.641 29.5229C141.737 29.4938 141.793 29.3766 141.769 29.2593C141.753 29.1814 141.705 29.1231 141.649 29.1035C140.551 28.7036 138.524 27.8266 137.69 26.4908C136.392 24.4535 135.774 21.9676 135.51 20.6027ZM141.368 4.30191C141.353 4.22397 141.289 4.17517 141.224 4.19482C141.184 4.20432 141.152 4.24361 141.136 4.30191C140.928 5.2575 140.415 7.00265 139.277 8.07483C138.491 8.8156 137.57 9.33268 136.592 9.57602C136.528 9.59566 136.488 9.6641 136.496 9.74204C136.504 9.80034 136.536 9.83963 136.584 9.84913C137.377 10.1222 138.756 10.7071 139.461 11.7115C140.014 12.5011 140.503 14.4896 140.72 15.4553C140.735 15.5332 140.799 15.5719 140.864 15.5522C140.904 15.5427 140.936 15.5034 140.944 15.4553C141.168 14.4705 141.737 12.4326 142.811 11.5651C143.764 10.7851 144.831 10.4049 145.44 10.2293C145.504 10.2097 145.544 10.1318 145.528 10.0538C145.52 10.005 145.488 9.96636 145.448 9.94672C144.718 9.68374 143.372 9.09886 142.819 8.21171C141.962 6.85627 141.545 5.2087 141.368 4.30191Z" fill="#FADB5E"/>
</g>
</svg>
