<svg width="560" height="460" viewBox="0 0 752 618" fill="none" xmlns="http://www.w3.org/2000/svg">
<path d="M752 340.662C752 505.091 580.633 603 383.135 603C185.638 603 0 575.394 0 410.965C0 246.536 326.638 0 524.135 0C721.633 0 752 176.233 752 340.662Z" fill="url(#paint0_linear_361_176)"/>
<path d="M607.496 376.039H677.225C687.996 376.039 696.043 385.132 693.835 394.815L671.564 492.464V500.781C671.564 505.879 667.059 510.011 661.507 510.011H571.72V474.8L633.736 470.383L607.496 376.039Z" fill="white"/>
<path d="M629.429 405.473L640.147 446.947C641.069 451.564 645.705 454.384 650.163 453.03C653.877 451.902 656.236 448.207 655.726 444.311L649.595 409.801L629.429 405.473Z" fill="#FFAD65"/>
<mask id="mask0_361_176" style="mask-type:luminance" maskUnits="userSpaceOnUse" x="286" y="180" width="294" height="204">
<path d="M286.111 180.778H579.444V383.703H286.111V180.778Z" fill="white"/>
</mask>
<g mask="url(#mask0_361_176)">
<path d="M286.595 180.778H578.351V382.738H286.595V180.778Z" fill="black"/>
</g>
<path d="M572.924 186.276V377.246H292.022V186.276H572.924Z" fill="white"/>
<path d="M386.215 601.983L397.475 607.476C398.668 608.055 399.392 609.389 399.022 610.654C398.731 611.65 397.767 612.415 395.262 612.457C389.694 612.557 365.064 608.92 365.064 608.92V611.471L353.632 610.196C353.632 610.196 352.83 597.276 356.314 595.389L386.215 601.983Z" fill="black"/>
<path d="M371.132 591.077L386.215 601.988C386.215 601.988 384.278 606.917 375.679 603.633C367.085 600.344 356.314 595.389 356.314 595.389L357.403 588.03L371.132 591.077Z" fill="#FFAD65"/>
<path d="M357.34 589.68L358.772 550.088L377.491 549.008L374.423 596.179L357.34 589.68Z" fill="#FFAD65"/>
<path d="M330.387 601.983L341.647 607.476C342.84 608.055 343.559 609.389 343.189 610.654C342.897 611.65 341.939 612.415 339.434 612.457C333.866 612.557 309.231 608.92 309.231 608.92V611.471L297.798 610.196C297.798 610.196 297.002 597.276 300.481 595.389L330.387 601.983Z" fill="black"/>
<path d="M315.298 591.077L330.387 601.988C330.387 601.988 328.444 606.917 319.851 603.633C311.252 600.344 300.486 595.389 300.486 595.389L301.569 588.03L315.298 591.077Z" fill="#FFAD65"/>
<path d="M301.507 589.68L302.939 550.088L321.658 549.008L318.595 596.179L301.507 589.68Z" fill="#FFAD65"/>
<path d="M344.772 209.865C343.939 209.844 342.194 212.11 341.668 212.769C340.465 214.282 339.257 215.8 338.257 217.461C334.356 223.944 334.194 231.134 333.699 238.482C333.205 245.767 332.132 253.162 328.934 259.704C327.371 262.909 325.309 265.871 324.028 269.203C322.741 272.529 322.324 276.461 324.059 279.582C324.215 279.866 324.403 280.156 324.689 280.319C332.929 285.095 343.345 286.576 352.6 284.431C355.168 283.835 357.715 283.029 359.97 281.658C366.376 277.768 369.449 269.893 370.074 262.355C370.699 254.818 369.324 247.269 369.017 239.705C368.798 234.197 369.09 228.409 366.679 223.465C365.574 221.193 363.955 219.232 362.345 217.292C360.653 215.247 358.913 213.159 356.637 211.815C353.356 209.881 348.574 209.976 344.772 209.865Z" fill="black"/>
<path d="M383.861 349.583C383.861 349.583 390.127 353.684 391.262 387.952C391.496 394.999 391.356 404.783 390.923 411.814L380.533 578.173H352.913L358.496 399.39L323.194 578.168L296.309 577.398L326.574 349.583L353.746 346.225L383.861 349.583Z" fill="#3F2952"/>
<path d="M357.434 399.791C357.241 399.791 357.074 399.654 357.043 399.453C357.007 399.237 357.153 399.027 357.366 398.99L373.189 396.333C373.403 396.312 373.611 396.444 373.642 396.665C373.679 396.881 373.533 397.092 373.319 397.129L357.496 399.786C357.475 399.791 357.455 399.791 357.434 399.791Z" fill="black"/>
<path d="M401.397 356.931L445.762 311.456L440.84 304.071C440.84 304.071 409.173 326.606 388.939 342.799C385.731 345.371 387.694 353.157 390.481 356.193C393.09 359.034 398.59 359.577 401.397 356.931Z" fill="#FFAD65"/>
<path d="M441.731 312.716C441.731 312.716 449.371 313.317 454.757 307.102L462.449 304.941C463.647 304.604 464.387 303.434 464.189 302.2C463.975 300.861 462.741 299.907 461.397 300.044L456.595 300.54L457.923 299.528C460.028 297.925 462.632 297.092 465.314 297.166L472.949 297.372C473.814 297.398 474.616 296.945 475.038 296.196C475.845 294.752 474.923 292.912 473.257 292.654L463.257 291.115C459.382 290.519 455.475 291.616 452.543 294.119L436.798 307.572L441.731 312.716Z" fill="#FFAD65"/>
<path d="M375.33 292.164C375.33 292.164 379.142 326.058 387.002 351.886C387.95 354.996 393.83 359.203 397.033 359.414C401.866 359.74 405.809 355.539 405.246 350.663L395.658 290.171L375.33 292.164Z" fill="#FFAD65"/>
<path d="M384.46 271.09C384.46 271.09 400.72 280.91 403.882 307.492L380.668 320.417L384.46 271.09Z" fill="#F89A00"/>
<path d="M380.668 320.417L407.012 312.432L404.767 304.957L381.262 311.362L380.668 320.417Z" fill="#F89A00"/>
<path d="M353.408 262.788C345.408 263.478 337.512 265.26 330.059 268.285C328.231 269.023 326.429 269.835 324.783 270.71C319.601 273.456 321.153 279.392 321.804 285.454L324.851 367.41L390.116 365.728L392.705 288.152C393.278 279.708 388.345 271.944 380.715 269.218C372.168 266.161 361.736 262.745 357.184 262.466L353.408 262.788Z" fill="#F89A00"/>
<path d="M390.798 316.696C390.793 316.696 390.783 316.696 390.772 316.696C390.554 316.68 390.387 316.485 390.403 316.264L392.028 292.264C392.043 292.043 392.236 291.884 392.45 291.89C392.668 291.905 392.835 292.101 392.819 292.322L391.194 316.322C391.179 316.532 391.007 316.696 390.798 316.696Z" fill="black"/>
<path d="M376.866 267.864C376.866 267.864 364.856 263.099 357.184 262.466C357.184 262.466 346.705 262.914 339.502 265.165C339.502 265.165 343.502 273.799 361.892 275.217C380.283 276.63 376.866 267.864 376.866 267.864Z" fill="#F89A00"/>
<path d="M288.392 309.269L319.085 356.757L310.819 366.261L276.939 331.371L288.392 309.269Z" fill="#FFAD65"/>
<path d="M347.288 358.918L334.158 351.902L335.45 348.876C335.918 347.775 335.627 346.478 334.741 345.708C333.825 344.918 332.507 344.897 331.564 345.656L318.637 356.33L310.819 366.261C317.913 372.644 322.549 372.565 325.22 371.326C325.533 371.437 325.84 371.553 326.153 371.648L337.064 374.937C338.075 375.396 339.246 374.948 339.746 373.92C340.106 373.171 340.231 371.97 338.132 370.852L340.231 371.97C341.299 372.454 342.538 371.964 343.038 370.863C343.507 369.887 342.929 368.596 341.694 367.753L343.304 368.417C344.465 368.944 345.84 368.343 346.272 367.046C346.653 365.923 346.085 364.685 345.075 364.147L342.757 362.914L345.512 363.615C346.778 364.084 348.194 363.372 348.611 361.975C348.965 360.779 348.351 359.493 347.288 358.918Z" fill="#FFAD65"/>
<path d="M343.455 363.52C343.413 363.52 343.377 363.515 343.34 363.493L335.58 359.645C335.45 359.577 335.397 359.424 335.46 359.292C335.522 359.166 335.679 359.113 335.804 359.176L343.564 363.024C343.694 363.088 343.746 363.246 343.684 363.372C343.637 363.467 343.548 363.52 343.455 363.52Z" fill="black"/>
<path d="M341.366 367.874C341.33 367.874 341.293 367.863 341.262 367.853L333.778 364.574C333.647 364.521 333.59 364.363 333.647 364.231C333.7 364.1 333.856 364.036 333.986 364.1L341.47 367.373C341.601 367.431 341.658 367.584 341.601 367.716C341.559 367.816 341.465 367.874 341.366 367.874Z" fill="black"/>
<path d="M338.824 371.4C338.793 371.4 338.757 371.395 338.726 371.379L332.387 368.754C332.257 368.701 332.189 368.548 332.246 368.411C332.298 368.28 332.449 368.216 332.58 368.269L338.923 370.899C339.054 370.952 339.116 371.105 339.064 371.237C339.022 371.342 338.929 371.4 338.824 371.4Z" fill="black"/>
<path d="M331.444 296.18L292.413 331.555C288.767 335.43 283.022 336.02 278.731 332.968C273.325 329.125 272.392 321.145 276.762 316.042L313.46 278.359C317.845 273.23 325.283 272.597 330.392 276.914C336.111 281.737 336.601 290.704 331.444 296.18Z" fill="#FFAD65"/>
<path d="M332.298 267.41C332.298 267.41 316.627 270.621 297.168 295.089L313.83 317.745L339.226 298.637L332.298 267.41Z" fill="#F89A00"/>
<path d="M313.34 318.093L320.111 312.996L301.856 287.399L294.939 292.58L313.34 318.093Z" fill="#F89A00"/>
<path d="M322.455 311.662C322.33 311.662 322.21 311.604 322.132 311.499C322.002 311.319 322.038 311.066 322.215 310.935L336.944 299.849C337.121 299.717 337.371 299.754 337.502 299.934C337.632 300.113 337.595 300.366 337.418 300.498L322.689 311.583C322.616 311.636 322.533 311.662 322.455 311.662Z" fill="black"/>
<path d="M359.658 204.383C359.658 204.383 374.772 199.871 382.095 206.465C392.825 216.122 379.564 223.407 379.564 223.407L359.658 204.383Z" fill="black"/>
<path d="M382.668 225.858C382.694 226.585 382.684 227.318 382.637 228.045C382.59 228.778 382.507 229.5 382.382 230.222C382.262 230.944 382.106 231.661 381.913 232.367C381.715 233.074 381.486 233.77 381.22 234.455C380.96 235.14 380.658 235.815 380.325 236.468C379.996 237.127 379.627 237.77 379.231 238.392C378.835 239.014 378.403 239.615 377.944 240.2C377.486 240.78 377.002 241.339 376.486 241.877C375.97 242.414 375.429 242.926 374.861 243.411C374.293 243.896 373.705 244.349 373.09 244.781C372.476 245.208 371.845 245.609 371.189 245.978C370.533 246.347 369.866 246.684 369.179 246.99C368.491 247.295 367.788 247.564 367.074 247.807C366.356 248.044 365.632 248.25 364.897 248.418C364.158 248.587 363.418 248.724 362.668 248.824C361.918 248.924 361.168 248.987 360.413 249.014C359.658 249.04 358.903 249.035 358.147 248.993C357.392 248.945 356.642 248.866 355.897 248.75C355.153 248.64 354.413 248.487 353.684 248.302C352.949 248.118 352.231 247.896 351.522 247.643C350.814 247.39 350.121 247.106 349.444 246.784C348.767 246.463 348.106 246.115 347.46 245.73C346.819 245.35 346.199 244.934 345.595 244.496C344.996 244.054 344.418 243.585 343.866 243.089C343.314 242.588 342.788 242.066 342.288 241.523C341.788 240.975 341.319 240.406 340.877 239.816C340.434 239.22 340.022 238.609 339.642 237.981C339.267 237.349 338.918 236.7 338.606 236.036C338.293 235.372 338.012 234.697 337.767 234.007C337.522 233.316 337.314 232.615 337.142 231.904C336.97 231.192 336.83 230.475 336.731 229.748C336.632 229.026 336.569 228.298 336.543 227.571C336.517 226.838 336.528 226.111 336.574 225.378C336.621 224.65 336.705 223.923 336.824 223.201C336.949 222.479 337.106 221.767 337.298 221.055C337.496 220.349 337.726 219.653 337.986 218.968C338.252 218.283 338.554 217.613 338.882 216.954C339.215 216.296 339.585 215.658 339.981 215.036C340.377 214.414 340.804 213.808 341.267 213.228C341.726 212.643 342.21 212.084 342.726 211.546C343.241 211.014 343.783 210.503 344.351 210.018C344.918 209.533 345.507 209.074 346.121 208.647C346.736 208.215 347.366 207.814 348.022 207.445C348.673 207.076 349.345 206.739 350.033 206.438C350.72 206.133 351.423 205.859 352.137 205.621C352.856 205.379 353.58 205.179 354.314 205.005C355.048 204.836 355.793 204.704 356.543 204.604C357.293 204.504 358.043 204.441 358.798 204.409C359.554 204.383 360.309 204.393 361.064 204.435C361.819 204.478 362.569 204.557 363.314 204.673C364.059 204.789 364.798 204.936 365.528 205.121C366.262 205.31 366.981 205.527 367.689 205.78C368.392 206.033 369.09 206.323 369.767 206.639C370.444 206.96 371.106 207.314 371.746 207.693C372.392 208.078 373.012 208.489 373.616 208.932C374.215 209.369 374.793 209.838 375.345 210.339C375.897 210.835 376.423 211.357 376.923 211.905C377.423 212.448 377.892 213.017 378.335 213.613C378.778 214.203 379.189 214.814 379.564 215.447C379.944 216.074 380.293 216.723 380.606 217.387C380.918 218.051 381.2 218.731 381.444 219.421C381.689 220.112 381.897 220.813 382.069 221.525C382.241 222.231 382.382 222.948 382.481 223.675C382.58 224.397 382.642 225.125 382.668 225.858Z" fill="black"/>
<path d="M387.439 234.286C387.439 234.682 387.397 235.077 387.325 235.467C387.246 235.857 387.132 236.237 386.986 236.6C386.835 236.969 386.647 237.317 386.434 237.649C386.215 237.976 385.965 238.282 385.689 238.566C385.413 238.846 385.111 239.094 384.783 239.315C384.46 239.536 384.111 239.726 383.752 239.874C383.387 240.026 383.017 240.142 382.632 240.222C382.246 240.295 381.856 240.337 381.465 240.337C381.075 240.337 380.684 240.295 380.299 240.222C379.918 240.142 379.543 240.026 379.179 239.874C378.819 239.726 378.476 239.536 378.147 239.315C377.819 239.094 377.517 238.846 377.241 238.566C376.965 238.282 376.715 237.976 376.502 237.649C376.283 237.317 376.095 236.969 375.95 236.6C375.799 236.237 375.684 235.857 375.606 235.467C375.533 235.077 375.491 234.682 375.491 234.286C375.491 233.891 375.533 233.496 375.606 233.105C375.684 232.715 375.799 232.336 375.95 231.972C376.095 231.603 376.283 231.255 376.502 230.923C376.715 230.591 376.965 230.285 377.241 230.006C377.517 229.727 377.819 229.474 378.147 229.252C378.476 229.036 378.819 228.846 379.179 228.693C379.543 228.546 379.918 228.43 380.299 228.351C380.684 228.272 381.075 228.235 381.465 228.235C381.856 228.235 382.246 228.272 382.632 228.351C383.017 228.43 383.387 228.546 383.752 228.693C384.111 228.846 384.46 229.036 384.783 229.252C385.111 229.474 385.413 229.727 385.689 230.006C385.965 230.285 386.215 230.591 386.434 230.923C386.647 231.255 386.835 231.603 386.986 231.972C387.132 232.336 387.246 232.715 387.325 233.105C387.397 233.496 387.439 233.891 387.439 234.286Z" fill="#FFAD65"/>
<path d="M367.658 248.292L368.022 271.369L351.132 271.016L353.455 236.021L367.658 248.292Z" fill="#FFAD65"/>
<path d="M367.851 260.463L355.21 246.763L367.658 248.292L367.851 260.463Z" fill="black"/>
<path d="M379.199 212.764C380.752 213.997 381.772 215.769 382.231 217.708C383.58 223.449 386.189 233.559 384.392 239.774C382.048 247.86 375.856 253.758 365.439 252.15C365.439 252.15 352.996 251.339 349.871 235.53C344.897 210.339 365.908 202.201 379.199 212.764Z" fill="#FFAD65"/>
<path d="M377.132 237.539C376.965 237.539 376.819 237.428 376.783 237.254C376.736 237.059 376.861 236.869 377.054 236.822L378.517 236.495C378.621 236.458 378.705 236.316 378.668 236.173L377.637 233.627C377.559 233.443 377.647 233.232 377.83 233.153C378.017 233.079 378.226 233.169 378.298 233.353L379.345 235.947C379.491 236.511 379.199 237.038 378.699 237.191L377.21 237.533C377.184 237.539 377.158 237.539 377.132 237.539Z" fill="black"/>
<path d="M371.455 230.839C371.455 231.039 371.418 231.224 371.345 231.408C371.272 231.588 371.163 231.746 371.028 231.888C370.892 232.025 370.736 232.13 370.554 232.204C370.377 232.283 370.189 232.32 369.996 232.32C369.804 232.32 369.616 232.283 369.439 232.204C369.262 232.13 369.106 232.025 368.965 231.888C368.83 231.746 368.726 231.588 368.653 231.408C368.575 231.224 368.538 231.039 368.538 230.839C368.538 230.644 368.575 230.459 368.653 230.275C368.726 230.096 368.83 229.938 368.965 229.795C369.106 229.658 369.262 229.553 369.439 229.479C369.616 229.4 369.804 229.363 369.996 229.363C370.189 229.363 370.377 229.4 370.554 229.479C370.736 229.553 370.892 229.658 371.028 229.795C371.163 229.938 371.272 230.096 371.345 230.275C371.418 230.459 371.455 230.644 371.455 230.839Z" fill="black"/>
<path d="M380.215 230.333C380.215 231.087 380.819 231.703 381.569 231.703C382.314 231.703 382.918 231.087 382.918 230.333C382.918 229.579 382.314 228.962 381.569 228.962C380.819 228.962 380.215 229.579 380.215 230.333Z" fill="black"/>
<path d="M375.304 241.654C373.783 241.654 371.955 241.253 370.262 239.827C370.111 239.701 370.09 239.468 370.215 239.315C370.34 239.162 370.564 239.141 370.72 239.268C374.168 242.177 378.397 240.345 378.439 240.324C378.621 240.239 378.83 240.324 378.913 240.508C378.991 240.693 378.908 240.904 378.731 240.989C378.621 241.036 377.2 241.654 375.304 241.654Z" fill="black"/>
<path d="M379.538 222.247C379.538 222.247 378.991 223.907 381.033 224.245C382.58 224.503 383.564 224.645 384.429 225.025C384.923 225.241 385.496 225.062 385.788 224.614C386.028 224.245 386.033 223.776 385.798 223.407C385.319 222.669 384.293 221.514 382.413 221.177C379.996 220.739 379.538 222.247 379.538 222.247Z" fill="black"/>
<path d="M372.392 222.321C372.392 222.321 373.017 223.992 370.387 224.282C368.387 224.503 366.002 225.267 364.871 225.626C364.231 225.831 363.507 225.641 363.147 225.183C362.861 224.809 362.871 224.339 363.194 223.976C363.84 223.248 366.325 221.472 368.752 221.177C371.871 220.797 372.392 222.321 372.392 222.321Z" fill="black"/>
<path d="M374.377 208.252C374.377 208.252 376.772 221.372 345.507 219.606C345.512 219.606 343.684 201.273 374.377 208.252Z" fill="black"/>
<path d="M355.21 216.928L353.455 236.02L338.684 223.306L355.21 216.928Z" fill="black"/>
<path d="M341.882 238.877C343.111 242.499 347.007 244.428 350.585 243.184C354.163 241.94 356.064 237.992 354.835 234.371C353.606 230.744 349.71 228.82 346.132 230.064C342.559 231.308 340.653 235.256 341.882 238.877Z" fill="#FFAD65"/>
<path d="M350.897 238.493C350.731 238.493 350.585 238.377 350.548 238.208C350.231 236.743 349.59 235.736 348.647 235.214C347.153 234.386 345.345 235.045 345.325 235.051C345.137 235.124 344.934 235.024 344.866 234.84C344.793 234.65 344.887 234.444 345.075 234.371C345.158 234.339 347.194 233.585 348.986 234.571C350.121 235.198 350.882 236.368 351.246 238.055C351.288 238.25 351.168 238.44 350.976 238.482C350.95 238.493 350.923 238.493 350.897 238.493Z" fill="black"/>
<path d="M363.897 271.638L351.861 263.415L351.981 258.824H349.903C349.043 258.824 348.22 259.187 347.616 259.83L343.845 263.821L352.512 277.594C353.418 279.033 355.304 279.318 356.554 278.201L363.897 271.638Z" fill="white"/>
<path d="M367.674 258.824H369.236C370.319 258.824 371.33 259.398 371.929 260.347L374.538 264.48L373.403 276.414C373.288 277.631 371.955 278.237 371.049 277.489L363.897 271.638L367.924 264.495L367.674 258.824Z" fill="white"/>
<path d="M365.142 277.325C365.142 278.053 364.585 278.649 363.897 278.649C363.21 278.649 362.653 278.053 362.653 277.325C362.653 276.598 363.21 276.002 363.897 276.002C364.585 276.002 365.142 276.598 365.142 277.325Z" fill="white"/>
<path d="M365.424 282.591C365.424 283.319 364.866 283.909 364.179 283.909C363.486 283.909 362.929 283.319 362.929 282.591C362.929 281.859 363.486 281.268 364.179 281.268C364.866 281.268 365.424 281.859 365.424 282.591Z" fill="white"/>
<mask id="mask1_361_176" style="mask-type:luminance" maskUnits="userSpaceOnUse" x="524" y="507" width="29" height="111">
<path d="M524.778 507.85H552.778V617.992H524.778V507.85Z" fill="white"/>
</mask>
<g mask="url(#mask1_361_176)">
<path d="M552.673 510.012L536.054 618.019H525.121L538.897 508.441L552.673 510.012Z" fill="white"/>
</g>
<mask id="mask2_361_176" style="mask-type:luminance" maskUnits="userSpaceOnUse" x="611" y="507" width="28" height="111">
<path d="M611.444 507.85H638.111V617.992H611.444V507.85Z" fill="white"/>
</mask>
<g mask="url(#mask2_361_176)">
<path d="M612.377 508.441L625.085 618.019H637.767L627.632 508.441H612.377Z" fill="white"/>
</g>
<mask id="mask3_361_176" style="mask-type:luminance" maskUnits="userSpaceOnUse" x="652" y="507" width="29" height="111">
<path d="M652.778 507.85H680.778V617.992H652.778V507.85Z" fill="white"/>
</mask>
<g mask="url(#mask3_361_176)">
<path d="M653.074 510.012L669.694 618.019H680.627L666.851 508.441L653.074 510.012Z" fill="white"/>
</g>
<mask id="mask4_361_176" style="mask-type:luminance" maskUnits="userSpaceOnUse" x="524" y="507" width="29" height="111">
<path d="M524.778 507.85H552.778V617.992H524.778V507.85Z" fill="white"/>
</mask>
<g mask="url(#mask4_361_176)">
<path d="M552.673 510.012L536.054 618.019H525.121L538.897 508.441L552.673 510.012Z" fill="white"/>
</g>
<mask id="mask5_361_176" style="mask-type:luminance" maskUnits="userSpaceOnUse" x="611" y="507" width="28" height="111">
<path d="M611.444 507.85H638.111V617.992H611.444V507.85Z" fill="white"/>
</mask>
<g mask="url(#mask5_361_176)">
<path d="M612.377 508.441L625.085 618.019H637.767L627.632 508.441H612.377Z" fill="white"/>
</g>
<mask id="mask6_361_176" style="mask-type:luminance" maskUnits="userSpaceOnUse" x="652" y="507" width="29" height="111">
<path d="M652.778 507.85H680.778V617.992H652.778V507.85Z" fill="white"/>
</mask>
<g mask="url(#mask6_361_176)">
<path d="M653.074 510.012L669.694 618.019H680.627L666.851 508.441L653.074 510.012Z" fill="white"/>
</g>
<mask id="mask7_361_176" style="mask-type:luminance" maskUnits="userSpaceOnUse" x="523" y="506" width="160" height="112">
<path d="M523.444 506.501H682.111V617.992H523.444V506.501Z" fill="white"/>
</mask>
<g mask="url(#mask7_361_176)">
<mask id="mask8_361_176" style="mask-type:luminance" maskUnits="userSpaceOnUse" x="-200" y="-12" width="2305" height="1312">
<path d="M2104.78 -11.6775H-199.222V1299.96H2104.78V-11.6775Z" fill="black" fill-opacity="0.31"/>
</mask>
<g mask="url(#mask8_361_176)">
<mask id="mask9_361_176" style="mask-type:luminance" maskUnits="userSpaceOnUse" x="523" y="506" width="160" height="113">
<path d="M682.111 506.501H523.444V618.503H682.111V506.501Z" fill="white"/>
</mask>
<g mask="url(#mask9_361_176)">
<mask id="mask10_361_176" style="mask-type:luminance" maskUnits="userSpaceOnUse" x="524" y="507" width="29" height="111">
<path d="M524.778 507.85H552.778V617.992H524.778V507.85Z" fill="white"/>
</mask>
<g mask="url(#mask10_361_176)">
<path d="M552.674 510.012L536.054 618.019H525.121L538.898 508.441L552.674 510.012Z" fill="black"/>
</g>
<mask id="mask11_361_176" style="mask-type:luminance" maskUnits="userSpaceOnUse" x="611" y="507" width="28" height="111">
<path d="M611.444 507.85H638.111V617.992H611.444V507.85Z" fill="white"/>
</mask>
<g mask="url(#mask11_361_176)">
<path d="M612.377 508.441L625.085 618.019H637.767L627.632 508.441H612.377Z" fill="black"/>
</g>
<mask id="mask12_361_176" style="mask-type:luminance" maskUnits="userSpaceOnUse" x="652" y="507" width="29" height="111">
<path d="M652.778 507.85H680.778V617.992H652.778V507.85Z" fill="white"/>
</mask>
<g mask="url(#mask12_361_176)">
<path d="M653.075 510.012L669.694 618.019H680.627L666.851 508.441L653.075 510.012Z" fill="black"/>
</g>
</g>
</g>
</g>
<path d="M531.147 609.927L538.897 606.996L559.929 607.302L564.33 608.925L557.174 611.455H534.043L531.147 609.927Z" fill="white"/>
<path d="M590.002 581.715L567.002 590.956L543.043 602.073L544.757 606.695L570.856 592.611L589.663 582.743L590.002 581.715Z" fill="white"/>
<path d="M573.022 556.134L582.189 575.985L572.382 581.409L561.382 562.011L573.022 556.134Z" fill="white"/>
<path d="M580.46 571.769C580.46 571.769 575.356 580.071 568.491 575.226L549.137 602.668L590.002 581.715L580.46 571.769Z" fill="black"/>
<mask id="mask13_361_176" style="mask-type:luminance" maskUnits="userSpaceOnUse" x="548" y="590" width="19" height="13">
<path d="M548.778 590.165H566.111V602.673H548.778V590.165Z" fill="white"/>
</mask>
<g mask="url(#mask13_361_176)">
<mask id="mask14_361_176" style="mask-type:luminance" maskUnits="userSpaceOnUse" x="549" y="571" width="42" height="32">
<path d="M580.46 571.769C580.46 571.769 575.356 580.071 568.491 575.226L549.137 602.668L590.002 581.715L580.46 571.769Z" fill="white"/>
</mask>
<g mask="url(#mask14_361_176)">
<path d="M549.673 591.868C549.673 591.868 560.548 588.294 566.043 601.435L546.137 605.414L549.673 591.868Z" fill="white"/>
</g>
</g>
<path d="M549.121 602.674L589.981 581.715L591.793 585.337L550.929 606.29L549.121 602.674Z" fill="white"/>
<path d="M568.778 583.724C568.647 583.734 568.512 583.713 568.387 583.65C565.752 582.337 563.642 582.105 563.621 582.1C563.205 582.058 562.918 581.689 562.976 581.278C563.038 580.867 563.434 580.577 563.84 580.614C563.934 580.619 566.226 580.872 569.116 582.306C569.486 582.49 569.621 582.938 569.423 583.312C569.288 583.555 569.038 583.708 568.778 583.724Z" fill="white"/>
<path d="M566.267 587.113C566.132 587.124 565.996 587.102 565.877 587.039C563.241 585.727 561.127 585.495 561.106 585.489C560.689 585.447 560.403 585.078 560.465 584.667C560.522 584.256 560.918 583.961 561.324 584.003C561.423 584.014 563.715 584.261 566.606 585.695C566.976 585.88 567.111 586.328 566.908 586.702C566.772 586.944 566.522 587.097 566.267 587.113Z" fill="white"/>
<path d="M563.752 590.502C563.621 590.513 563.486 590.486 563.361 590.428C560.725 589.116 558.616 588.884 558.59 588.879C558.179 588.837 557.892 588.468 557.949 588.056C558.012 587.645 558.408 587.35 558.814 587.392C558.908 587.397 561.199 587.651 564.09 589.084C564.46 589.269 564.595 589.717 564.397 590.086C564.257 590.334 564.012 590.481 563.752 590.502Z" fill="white"/>
<path d="M559.929 578.421L559.726 600.344L548.569 600.939L546.929 578.626L559.929 578.421Z" fill="white"/>
<path d="M559.965 595.779C559.965 595.779 551.825 601.034 547.7 593.654L518.538 609.927L564.33 608.925L559.965 595.779Z" fill="black"/>
<mask id="mask15_361_176" style="mask-type:luminance" maskUnits="userSpaceOnUse" x="518" y="599" width="18" height="12">
<path d="M518.158 599.611H535.444V610.206H518.158V599.611Z" fill="white"/>
</mask>
<g mask="url(#mask15_361_176)">
<mask id="mask16_361_176" style="mask-type:luminance" maskUnits="userSpaceOnUse" x="518" y="593" width="47" height="17">
<path d="M559.965 595.779C559.965 595.779 551.824 601.034 547.699 593.654L518.538 609.927L564.33 608.925L559.965 595.779Z" fill="white"/>
</mask>
<g mask="url(#mask16_361_176)">
<path d="M523.632 600.423C523.632 600.423 534.96 601.957 534.309 616.215L514.663 611.086L523.632 600.423Z" fill="white"/>
</g>
</g>
<path d="M518.554 609.937L564.34 608.936L564.429 612.989L518.637 613.996L518.554 609.937Z" fill="white"/>
<path d="M544.335 601.445C544.21 601.398 544.101 601.319 544.012 601.208C542.194 598.873 540.392 597.734 540.377 597.724C540.017 597.502 539.918 597.044 540.148 596.701C540.377 596.353 540.856 596.264 541.21 596.475C541.293 596.527 543.252 597.755 545.246 600.317C545.496 600.644 545.429 601.108 545.09 601.356C544.866 601.519 544.575 601.54 544.335 601.445Z" fill="white"/>
<path d="M540.621 603.401C540.496 603.353 540.387 603.274 540.298 603.164C538.486 600.829 536.679 599.69 536.663 599.679C536.304 599.453 536.205 598.999 536.434 598.652C536.663 598.309 537.147 598.214 537.496 598.43C537.58 598.483 539.538 599.711 541.533 602.273C541.783 602.6 541.715 603.064 541.377 603.311C541.153 603.475 540.861 603.496 540.621 603.401Z" fill="white"/>
<path d="M536.908 605.357C536.783 605.309 536.673 605.23 536.585 605.119C534.772 602.784 532.965 601.646 532.949 601.635C532.59 601.408 532.491 600.95 532.72 600.607C532.949 600.265 533.429 600.17 533.778 600.386C533.861 600.439 535.824 601.662 537.819 604.223C538.074 604.555 538.002 605.014 537.663 605.262C537.439 605.425 537.147 605.451 536.908 605.357Z" fill="white"/>
<path d="M588.923 448.797C588.908 449.54 588.897 450.283 588.882 451.027C588.616 462.702 587.251 474.252 586.319 485.901C585.283 492.643 582.538 494.741 580.361 495.31C580.241 495.521 580.111 495.721 579.975 495.916L575.194 502.758C574.824 503.464 573.923 503.775 573.126 503.438C572.554 503.206 571.903 502.637 572.554 501.061L571.892 502.621C571.507 503.38 570.533 503.686 569.699 503.317C568.939 503.006 568.653 502.052 568.97 501.024L568.345 502.126C567.918 502.943 566.83 503.254 565.929 502.758C565.158 502.326 564.892 501.393 565.21 500.639L565.903 499.042L565.97 498.889L564.694 500.549C564.189 501.393 563.007 501.667 562.08 501.098C561.283 500.623 561.017 499.648 561.361 498.842L565.611 488.974L563.382 487.936C562.559 487.561 562.09 486.718 562.241 485.901C562.387 485.047 563.153 484.425 564.069 484.399L576.762 484.167C573.538 459.946 570.772 435.777 568.491 411.477C568.439 405.948 573.35 401.388 579.179 401.388C579.376 401.388 579.574 401.388 579.788 401.398C585.246 401.694 585.267 407.455 586.361 412.479C588.887 424.091 589.043 436.215 588.923 448.797Z" fill="#FFAD65"/>
<path d="M565.731 499.601C565.705 499.601 565.673 499.59 565.647 499.58C565.554 499.532 565.517 499.416 565.559 499.321L568.22 493.65C568.267 493.549 568.377 493.513 568.475 493.555C568.569 493.602 568.611 493.718 568.564 493.813L565.903 499.49C565.871 499.559 565.804 499.601 565.731 499.601Z" fill="black"/>
<path d="M569.085 500.982C569.059 500.982 569.028 500.971 568.996 500.955C568.903 500.908 568.866 500.792 568.918 500.697L571.699 495.463C571.746 495.368 571.861 495.336 571.955 495.384C572.048 495.431 572.085 495.553 572.033 495.642L569.251 500.876C569.22 500.945 569.153 500.982 569.085 500.982Z" fill="black"/>
<path d="M572.304 501.704C572.272 501.704 572.241 501.699 572.21 501.683C572.116 501.63 572.085 501.514 572.137 501.419L574.564 497.065C574.616 496.97 574.731 496.939 574.824 496.992C574.918 497.044 574.949 497.16 574.897 497.255L572.47 501.609C572.434 501.672 572.371 501.704 572.304 501.704Z" fill="black"/>
<path d="M636.434 460.12V484.161C636.434 495.067 627.496 503.791 616.736 503.385L576.58 501.899L571.601 540.679L579.856 566.107L567.814 570.134L565.569 587.661L543.069 585.927L542.668 536.362L528.798 507.692C524.528 498.873 528.439 488.394 537.574 484.167L547.069 479.781C551.017 474.71 556.824 471.221 563.418 470.303L636.434 460.12Z" fill="#F89A00"/>
<path d="M583.376 383.666C583.376 383.666 568.996 392.348 566.205 415.857L586.731 427.28L583.376 383.666Z" fill="#3F2952"/>
<path d="M610.835 376.329C617.908 376.94 624.887 378.511 631.481 381.184C634.033 382.217 636.887 383.482 638.449 385.907C640.538 389.159 638.913 392.828 638.778 396.365L636.83 468.833H578.199L576.085 398.752C575.58 391.283 579.944 384.415 586.689 382.006C594.246 379.307 603.47 376.281 607.496 376.039L610.835 376.329Z" fill="#3F2952"/>
<path d="M577.252 422.979C577.069 422.979 576.918 422.836 576.918 422.652L576.387 401.388C576.382 401.198 576.528 401.045 576.71 401.04C576.887 401.051 577.049 401.182 577.049 401.367L577.58 422.636C577.585 422.821 577.439 422.973 577.257 422.979H577.252Z" fill="black"/>
<path d="M590.09 380.815C590.09 380.815 600.71 376.598 607.496 376.039C607.496 376.039 616.757 376.439 623.127 378.427C623.127 378.427 619.595 386.059 603.33 387.314C587.069 388.568 590.09 380.815 590.09 380.815Z" fill="#FFAD65"/>
<path d="M635.361 383.039C635.361 383.039 651.376 391.784 653.991 425.614L630.486 433.173L621.986 406.174L635.361 383.039Z" fill="#3F2952"/>
<path d="M542.298 535.951C542.095 535.951 541.939 535.787 541.939 535.582C541.939 535.382 542.142 515.388 541.923 500.792C541.705 486.064 546.564 479.818 546.772 479.56C546.892 479.402 547.121 479.381 547.278 479.507C547.434 479.634 547.455 479.866 547.33 480.018C547.283 480.082 542.429 486.349 542.647 500.782C542.866 515.383 542.663 535.392 542.658 535.592C542.658 535.793 542.496 535.951 542.298 535.951Z" fill="black"/>
<path d="M567.824 570.498C567.804 570.498 567.793 570.498 567.778 570.493C567.58 570.472 567.439 570.287 567.465 570.087L571.158 541.322C571.179 541.122 571.356 540.985 571.564 541.006C571.757 541.032 571.897 541.217 571.871 541.417L568.179 570.182C568.158 570.366 568.001 570.498 567.824 570.498Z" fill="black"/>
<path d="M631.137 433.326C630.955 433.326 630.798 433.189 630.778 433.005L627.673 405.515C627.653 405.315 627.793 405.131 627.991 405.109C628.184 405.083 628.366 405.231 628.392 405.431L631.496 432.92C631.517 433.12 631.377 433.305 631.179 433.326C631.163 433.326 631.153 433.326 631.137 433.326Z" fill="black"/>
<path d="M518.538 609.927L526.465 608.488L533.606 609.6L529.252 611.139H521.226L518.538 609.927Z" fill="white"/>
<path d="M472.569 448.354H671.184V456.609H472.569V448.354Z" fill="white"/>
<path d="M472.569 448.354H671.184V456.609H472.569V448.354Z" fill="black" fill-opacity="0.27"/>
<path d="M600.653 448.644L647.575 448.428C651.293 448.375 655.054 443.584 654.95 439.815C654.835 435.624 650.522 431.223 646.465 432.056L600.569 441.354L600.653 448.644Z" fill="#FFAD65"/>
<path d="M603.132 441.122C603.132 441.122 582.543 436.13 582.543 448.644H600.653L603.132 441.122Z" fill="#FFAD65"/>
<path d="M631.179 342.625C631.179 342.625 657.83 335.778 645.725 364.516C643.626 369.503 642.392 373.561 641.762 376.866C640.106 385.595 627.277 384.836 626.809 375.955C626.585 371.695 627.772 366.256 631.152 359.303C631.152 359.303 636.611 349.172 630.283 346.836L631.179 342.625Z" fill="black"/>
<path d="M633.418 344.291C633.418 344.96 633.288 345.608 633.033 346.23C632.783 346.852 632.418 347.401 631.949 347.88C631.481 348.355 630.939 348.724 630.324 348.982C629.71 349.235 629.069 349.367 628.403 349.367C627.741 349.367 627.1 349.235 626.486 348.982C625.871 348.724 625.33 348.355 624.861 347.88C624.392 347.401 624.028 346.852 623.772 346.23C623.522 345.608 623.392 344.96 623.392 344.291C623.392 343.616 623.522 342.967 623.772 342.345C624.028 341.723 624.392 341.175 624.861 340.696C625.33 340.221 625.871 339.852 626.486 339.599C627.1 339.341 627.741 339.209 628.403 339.209C629.069 339.209 629.71 339.341 630.324 339.599C630.939 339.852 631.481 340.221 631.949 340.696C632.418 341.175 632.783 341.723 633.033 342.345C633.288 342.967 633.418 343.616 633.418 344.291Z" fill="#F89A00"/>
<path d="M613.481 324.371C613.481 324.371 601.121 317.55 593.501 321.909C582.345 328.298 592.564 337.19 592.564 337.19L613.481 324.371Z" fill="black"/>
<path d="M614.226 324.555C615.538 324.892 616.804 325.351 618.028 325.926C619.252 326.505 620.408 327.196 621.502 327.992C622.59 328.788 623.595 329.684 624.507 330.67C625.424 331.655 626.231 332.715 626.934 333.848C627.637 334.987 628.22 336.173 628.684 337.417C629.148 338.661 629.481 339.931 629.689 341.233C629.898 342.535 629.976 343.842 629.918 345.15C629.861 346.462 629.674 347.748 629.356 349.019C629.038 350.284 628.595 351.512 628.028 352.687C627.46 353.868 626.778 354.975 625.981 356.019C625.184 357.063 624.288 358.017 623.293 358.881C622.304 359.751 621.231 360.515 620.075 361.169C618.924 361.828 617.715 362.371 616.444 362.792C615.179 363.219 613.877 363.514 612.543 363.688C611.21 363.862 609.866 363.905 608.517 363.825C607.168 363.741 605.84 363.53 604.528 363.188C603.215 362.85 601.95 362.392 600.726 361.817C599.496 361.237 598.34 360.547 597.252 359.751C596.163 358.955 595.158 358.059 594.246 357.073C593.33 356.087 592.523 355.028 591.819 353.895C591.116 352.756 590.533 351.57 590.069 350.326C589.606 349.082 589.267 347.812 589.059 346.51C588.851 345.208 588.778 343.906 588.835 342.593C588.892 341.281 589.075 339.994 589.398 338.724C589.715 337.459 590.158 336.236 590.726 335.055C591.293 333.88 591.976 332.768 592.773 331.724C593.569 330.68 594.46 329.726 595.455 328.862C596.45 327.992 597.523 327.233 598.674 326.574C599.83 325.915 601.038 325.372 602.304 324.95C603.575 324.524 604.877 324.228 606.21 324.054C607.543 323.88 608.882 323.838 610.231 323.923C611.58 324.002 612.913 324.213 614.226 324.555Z" fill="black"/>
<path d="M598.783 362.708L598.46 383.318L613.543 383.002L611.47 351.744L598.783 362.708Z" fill="#FFAD65"/>
<path d="M598.611 373.572L609.903 361.338L598.783 362.708L598.611 373.572Z" fill="black"/>
<path d="M594.663 328.061C593.184 328.809 592.054 330.101 591.34 331.608C589.106 336.347 584.887 344.749 585.309 350.558C585.851 358.059 590.163 364.395 599.559 364.975C599.559 364.975 610.569 366.646 616.236 353.431C625.304 332.283 608.267 321.171 594.663 328.061Z" fill="#FFAD65"/>
<path d="M592.132 349.999C592.085 349.999 592.038 349.989 591.996 349.968L590.777 349.404C590.35 349.156 590.189 348.639 590.402 348.212L591.819 346.114C591.923 345.967 592.116 345.925 592.267 346.03C592.413 346.13 592.449 346.331 592.345 346.478L590.949 348.544C590.918 348.618 590.96 348.761 591.069 348.824L592.262 349.377C592.423 349.456 592.491 349.646 592.418 349.81C592.366 349.931 592.251 349.999 592.132 349.999Z" fill="black"/>
<path d="M600.835 345.503C600.835 345.867 600.71 346.178 600.455 346.436C600.199 346.694 599.897 346.821 599.538 346.821C599.179 346.821 598.871 346.694 598.616 346.436C598.361 346.178 598.236 345.867 598.236 345.503C598.236 345.139 598.361 344.828 598.616 344.57C598.871 344.312 599.179 344.185 599.538 344.185C599.897 344.185 600.199 344.312 600.455 344.57C600.71 344.828 600.835 345.139 600.835 345.503Z" fill="black"/>
<path d="M590.71 343.112C590.569 343.772 589.923 344.194 589.272 344.052C588.621 343.909 588.21 343.26 588.345 342.595C588.486 341.935 589.132 341.518 589.783 341.66C590.434 341.797 590.845 342.452 590.71 343.112Z" fill="black"/>
<path d="M594.444 354.103C591.975 354.103 590.132 352.773 590.028 352.694C589.887 352.588 589.856 352.388 589.96 352.245C590.059 352.097 590.262 352.065 590.403 352.171C590.439 352.192 593.793 354.605 597.34 352.725C597.496 352.641 597.689 352.704 597.767 352.863C597.85 353.021 597.793 353.216 597.637 353.301C596.517 353.892 595.429 354.103 594.444 354.103Z" fill="black"/>
<path d="M592.804 336.178C592.804 336.178 592.97 337.733 591.127 337.644C589.725 337.57 588.845 337.507 588.017 337.67C587.548 337.765 587.08 337.501 586.903 337.053C586.767 336.689 586.845 336.273 587.121 335.999C587.679 335.44 588.788 334.634 590.496 334.697C592.684 334.776 592.804 336.178 592.804 336.178Z" fill="black"/>
<path d="M599.028 337.607C599.028 337.607 598.173 338.946 600.413 339.699C602.116 340.274 604.059 341.397 604.976 341.929C605.502 342.224 606.168 342.203 606.564 341.866C606.887 341.597 606.965 341.18 606.752 340.806C606.319 340.047 604.481 338.023 602.418 337.301C599.767 336.378 599.028 337.607 599.028 337.607Z" fill="black"/>
<path d="M599.908 324.945C599.908 324.945 595.382 335.941 623.007 340.364C623.007 340.364 628.007 324.703 599.908 324.945Z" fill="black"/>
<path d="M615.033 336.173L613.017 353.178L628.278 344.897L615.033 336.173Z" fill="black"/>
<path d="M622.59 357.885C620.845 360.816 617.085 361.754 614.194 359.983C611.304 358.217 610.371 354.406 612.116 351.475C613.866 348.544 617.627 347.606 620.517 349.377C623.408 351.143 624.335 354.954 622.59 357.885Z" fill="#FFAD65"/>
<path d="M614.856 355.834C614.814 355.834 614.767 355.824 614.725 355.803C614.564 355.729 614.491 355.539 614.564 355.376C615.199 353.974 616.08 353.099 617.189 352.767C618.934 352.25 620.574 353.294 620.642 353.341C620.788 353.436 620.83 353.636 620.736 353.789C620.642 353.937 620.444 353.984 620.293 353.884C620.283 353.879 618.819 352.951 617.361 353.394C616.444 353.668 615.699 354.427 615.147 355.645C615.095 355.766 614.975 355.834 614.856 355.834Z" fill="black"/>
<mask id="mask17_361_176" style="mask-type:luminance" maskUnits="userSpaceOnUse" x="482" y="456" width="13" height="162">
<path d="M482.111 456.572H494.111V617.991H482.111V456.572Z" fill="white"/>
</mask>
<g mask="url(#mask17_361_176)">
<path d="M483.173 456.609H493.746V618.017H483.173V456.609Z" fill="black"/>
</g>
<mask id="mask18_361_176" style="mask-type:luminance" maskUnits="userSpaceOnUse" x="646" y="456" width="13" height="162">
<path d="M646.111 456.572H658.111V617.991H646.111V456.572Z" fill="white"/>
</mask>
<g mask="url(#mask18_361_176)">
<path d="M646.684 456.609H657.257V618.017H646.684V456.609Z" fill="black"/>
</g>
<path d="M439.112 258.008C440.2 258.008 441.075 258.344 441.736 259.016C442.408 259.677 442.744 260.605 442.744 261.8V267H440.504V262.104C440.504 261.411 440.328 260.883 439.976 260.52C439.624 260.147 439.144 259.96 438.536 259.96C437.928 259.96 437.443 260.147 437.08 260.52C436.728 260.883 436.552 261.411 436.552 262.104V267H434.312V262.104C434.312 261.411 434.136 260.883 433.784 260.52C433.432 260.147 432.952 259.96 432.344 259.96C431.725 259.96 431.235 260.147 430.872 260.52C430.52 260.883 430.344 261.411 430.344 262.104V267H428.104V258.136H430.344V259.208C430.632 258.835 431 258.541 431.448 258.328C431.907 258.115 432.408 258.008 432.952 258.008C433.645 258.008 434.264 258.157 434.808 258.456C435.352 258.744 435.773 259.16 436.072 259.704C436.36 259.192 436.776 258.781 437.32 258.472C437.875 258.163 438.472 258.008 439.112 258.008ZM446.006 257.08C445.611 257.08 445.28 256.957 445.014 256.712C444.758 256.456 444.63 256.141 444.63 255.768C444.63 255.395 444.758 255.085 445.014 254.84C445.28 254.584 445.611 254.456 446.006 254.456C446.4 254.456 446.726 254.584 446.982 254.84C447.248 255.085 447.382 255.395 447.382 255.768C447.382 256.141 447.248 256.456 446.982 256.712C446.726 256.957 446.4 257.08 446.006 257.08ZM447.11 258.136V267H444.87V258.136H447.11ZM452.715 267.144C451.989 267.144 451.339 267.016 450.763 266.76C450.187 266.493 449.728 266.136 449.387 265.688C449.056 265.24 448.875 264.744 448.843 264.2H451.099C451.141 264.541 451.307 264.824 451.595 265.048C451.893 265.272 452.261 265.384 452.699 265.384C453.125 265.384 453.456 265.299 453.691 265.128C453.936 264.957 454.059 264.739 454.059 264.472C454.059 264.184 453.909 263.971 453.611 263.832C453.323 263.683 452.859 263.523 452.219 263.352C451.557 263.192 451.013 263.027 450.587 262.856C450.171 262.685 449.808 262.424 449.499 262.072C449.2 261.72 449.051 261.245 449.051 260.648C449.051 260.157 449.189 259.709 449.467 259.304C449.755 258.899 450.16 258.579 450.683 258.344C451.216 258.109 451.84 257.992 452.555 257.992C453.611 257.992 454.453 258.259 455.083 258.792C455.712 259.315 456.059 260.024 456.123 260.92H453.979C453.947 260.568 453.797 260.291 453.531 260.088C453.275 259.875 452.928 259.768 452.491 259.768C452.085 259.768 451.771 259.843 451.547 259.992C451.333 260.141 451.227 260.349 451.227 260.616C451.227 260.915 451.376 261.144 451.675 261.304C451.973 261.453 452.437 261.608 453.067 261.768C453.707 261.928 454.235 262.093 454.651 262.264C455.067 262.435 455.424 262.701 455.723 263.064C456.032 263.416 456.192 263.885 456.203 264.472C456.203 264.984 456.059 265.443 455.771 265.848C455.493 266.253 455.088 266.573 454.555 266.808C454.032 267.032 453.419 267.144 452.715 267.144ZM461.434 267.144C460.708 267.144 460.058 267.016 459.482 266.76C458.906 266.493 458.447 266.136 458.106 265.688C457.775 265.24 457.594 264.744 457.562 264.2H459.818C459.86 264.541 460.026 264.824 460.314 265.048C460.612 265.272 460.98 265.384 461.418 265.384C461.844 265.384 462.175 265.299 462.41 265.128C462.655 264.957 462.778 264.739 462.778 264.472C462.778 264.184 462.628 263.971 462.33 263.832C462.042 263.683 461.578 263.523 460.938 263.352C460.276 263.192 459.732 263.027 459.306 262.856C458.89 262.685 458.527 262.424 458.218 262.072C457.919 261.72 457.77 261.245 457.77 260.648C457.77 260.157 457.908 259.709 458.186 259.304C458.474 258.899 458.879 258.579 459.402 258.344C459.935 258.109 460.559 257.992 461.274 257.992C462.33 257.992 463.172 258.259 463.802 258.792C464.431 259.315 464.778 260.024 464.842 260.92H462.698C462.666 260.568 462.516 260.291 462.25 260.088C461.994 259.875 461.647 259.768 461.21 259.768C460.804 259.768 460.49 259.843 460.266 259.992C460.052 260.141 459.946 260.349 459.946 260.616C459.946 260.915 460.095 261.144 460.394 261.304C460.692 261.453 461.156 261.608 461.786 261.768C462.426 261.928 462.954 262.093 463.37 262.264C463.786 262.435 464.143 262.701 464.442 263.064C464.751 263.416 464.911 263.885 464.922 264.472C464.922 264.984 464.778 265.443 464.49 265.848C464.212 266.253 463.807 266.573 463.274 266.808C462.751 267.032 462.138 267.144 461.434 267.144ZM467.896 257.08C467.502 257.08 467.171 256.957 466.904 256.712C466.648 256.456 466.52 256.141 466.52 255.768C466.52 255.395 466.648 255.085 466.904 254.84C467.171 254.584 467.502 254.456 467.896 254.456C468.291 254.456 468.616 254.584 468.872 254.84C469.139 255.085 469.272 255.395 469.272 255.768C469.272 256.141 469.139 256.456 468.872 256.712C468.616 256.957 468.291 257.08 467.896 257.08ZM469 258.136V267H466.76V258.136H469ZM476.125 258.008C477.181 258.008 478.035 258.344 478.685 259.016C479.336 259.677 479.661 260.605 479.661 261.8V267H477.421V262.104C477.421 261.4 477.245 260.861 476.893 260.488C476.541 260.104 476.061 259.912 475.453 259.912C474.835 259.912 474.344 260.104 473.981 260.488C473.629 260.861 473.453 261.4 473.453 262.104V267H471.213V258.136H473.453V259.24C473.752 258.856 474.131 258.557 474.589 258.344C475.059 258.12 475.571 258.008 476.125 258.008ZM485.264 257.992C485.925 257.992 486.506 258.125 487.008 258.392C487.509 258.648 487.904 258.984 488.192 259.4V258.136H490.448V267.064C490.448 267.885 490.282 268.616 489.952 269.256C489.621 269.907 489.125 270.419 488.464 270.792C487.802 271.176 487.002 271.368 486.064 271.368C484.805 271.368 483.77 271.075 482.96 270.488C482.16 269.901 481.706 269.101 481.6 268.088H483.824C483.941 268.493 484.192 268.813 484.576 269.048C484.97 269.293 485.445 269.416 486 269.416C486.65 269.416 487.178 269.219 487.584 268.824C487.989 268.44 488.192 267.853 488.192 267.064V265.688C487.904 266.104 487.504 266.451 486.992 266.728C486.49 267.005 485.914 267.144 485.264 267.144C484.517 267.144 483.834 266.952 483.216 266.568C482.597 266.184 482.106 265.645 481.743 264.952C481.391 264.248 481.215 263.443 481.215 262.536C481.215 261.64 481.391 260.845 481.743 260.152C482.106 259.459 482.592 258.925 483.2 258.552C483.818 258.179 484.506 257.992 485.264 257.992ZM488.192 262.568C488.192 262.024 488.085 261.56 487.872 261.176C487.658 260.781 487.37 260.483 487.008 260.28C486.645 260.067 486.256 259.96 485.84 259.96C485.424 259.96 485.04 260.061 484.688 260.264C484.336 260.467 484.048 260.765 483.824 261.16C483.61 261.544 483.504 262.003 483.504 262.536C483.504 263.069 483.61 263.539 483.824 263.944C484.048 264.339 484.336 264.643 484.688 264.856C485.05 265.069 485.434 265.176 485.84 265.176C486.256 265.176 486.645 265.075 487.008 264.872C487.37 264.659 487.658 264.36 487.872 263.976C488.085 263.581 488.192 263.112 488.192 262.568ZM497.584 257.08C497.189 257.08 496.858 256.957 496.592 256.712C496.336 256.456 496.208 256.141 496.208 255.768C496.208 255.395 496.336 255.085 496.592 254.84C496.858 254.584 497.189 254.456 497.584 254.456C497.978 254.456 498.304 254.584 498.56 254.84C498.826 255.085 498.96 255.395 498.96 255.768C498.96 256.141 498.826 256.456 498.56 256.712C498.304 256.957 497.978 257.08 497.584 257.08ZM498.688 258.136V267H496.448V258.136H498.688ZM503.509 259.976V264.264C503.509 264.563 503.578 264.781 503.717 264.92C503.866 265.048 504.112 265.112 504.453 265.112H505.493V267H504.085C502.197 267 501.253 266.083 501.253 264.248V259.976H500.197V258.136H501.253V255.944H503.509V258.136H505.493V259.976H503.509ZM515.344 262.376C515.344 262.696 515.323 262.984 515.28 263.24H508.8C508.853 263.88 509.077 264.381 509.472 264.744C509.867 265.107 510.352 265.288 510.928 265.288C511.76 265.288 512.352 264.931 512.704 264.216H515.12C514.864 265.069 514.373 265.773 513.648 266.328C512.923 266.872 512.032 267.144 510.976 267.144C510.123 267.144 509.355 266.957 508.672 266.584C508 266.2 507.472 265.661 507.088 264.968C506.715 264.275 506.528 263.475 506.528 262.568C506.528 261.651 506.715 260.845 507.088 260.152C507.461 259.459 507.984 258.925 508.656 258.552C509.328 258.179 510.101 257.992 510.976 257.992C511.819 257.992 512.571 258.173 513.232 258.536C513.904 258.899 514.421 259.416 514.784 260.088C515.157 260.749 515.344 261.512 515.344 262.376ZM513.024 261.736C513.013 261.16 512.805 260.701 512.4 260.36C511.995 260.008 511.499 259.832 510.912 259.832C510.357 259.832 509.888 260.003 509.504 260.344C509.131 260.675 508.901 261.139 508.816 261.736H513.024ZM527.987 258.008C529.075 258.008 529.95 258.344 530.611 259.016C531.283 259.677 531.619 260.605 531.619 261.8V267H529.379V262.104C529.379 261.411 529.203 260.883 528.851 260.52C528.499 260.147 528.019 259.96 527.411 259.96C526.803 259.96 526.318 260.147 525.955 260.52C525.603 260.883 525.427 261.411 525.427 262.104V267H523.187V262.104C523.187 261.411 523.011 260.883 522.659 260.52C522.307 260.147 521.827 259.96 521.219 259.96C520.6 259.96 520.11 260.147 519.747 260.52C519.395 260.883 519.219 261.411 519.219 262.104V267H516.979V258.136H519.219V259.208C519.507 258.835 519.875 258.541 520.323 258.328C520.782 258.115 521.283 258.008 521.827 258.008C522.52 258.008 523.139 258.157 523.683 258.456C524.227 258.744 524.648 259.16 524.947 259.704C525.235 259.192 525.651 258.781 526.195 258.472C526.75 258.163 527.347 258.008 527.987 258.008Z" fill="black"/>
<defs>
<linearGradient id="paint0_linear_361_176" x1="376" y1="0" x2="376" y2="603" gradientUnits="userSpaceOnUse">
<stop stop-color="#B2442B"/>
<stop offset="1" stop-color="#490B0B"/>
</linearGradient>
</defs>
</svg>
