<svg width="1250" height="267" viewBox="0 0 1250 267" fill="none" xmlns="http://www.w3.org/2000/svg">
<path d="M309.171 232.485C308.64 228.751 308.046 225.334 307.134 221.844C304.588 212.084 296.223 194.313 282.28 197.954C274.192 200.063 262.567 208.016 263.655 212.199C264.129 214.011 267.067 213.839 270.827 212.86C273.759 212.094 276.89 210.975 279.327 210.042C279.905 211.678 279.582 211.016 281.186 217.152C283.197 225.417 287.353 241.907 297.811 239.178C301.296 238.266 304.879 236.584 309.171 232.485Z" fill="#E8D793" fill-opacity="0.4"/>
<path d="M302.802 226.116C302.27 222.382 301.677 218.965 300.765 215.476C298.218 205.715 289.854 187.944 275.911 191.585C267.823 193.694 256.198 201.647 257.286 205.83C257.76 207.642 260.698 207.47 264.458 206.491C267.39 205.726 270.52 204.606 272.958 203.674C273.536 205.309 273.213 204.647 274.817 210.783C276.828 219.049 280.984 235.538 291.442 232.809C294.927 231.897 298.51 230.215 302.802 226.116Z" fill="#EACC55"/>
<path d="M79.4615 233.027C80.2636 223.907 77.7219 213.553 74.149 205.204C69.2792 193.808 53.6647 170.86 40.149 176.642C25.1803 183.043 15.6855 200.423 18.7532 216.037C19.3001 218.782 22.5761 220.204 25.623 218.902C34.1022 215.277 35.7584 203.751 37.5397 196.564C41.024 195.543 48.6386 211.881 52.149 220.095C55.2115 227.251 63.0032 250.251 57.9719 252.402C54.9199 253.704 51.8209 251.584 44.5188 247.34C38.1386 252.574 35.8105 254.824 37.5084 258.798C40.1178 264.897 47.8522 266.131 54.2115 263.412C66.8001 258.032 79.2636 247.215 79.4615 233.027Z" fill="#E8D793" fill-opacity="0.4"/>
<path d="M46.7594 149.209C50.1917 139.277 60.9833 112.095 40.3114 120.933C36.2021 122.689 32.5302 125.829 30.9521 130.574C28.9052 137.876 25.9052 148.095 24.5771 151.954C22.3687 146.787 17.9469 143.032 11.7177 145.699C6.68124 147.85 4.67082 152.314 8.01457 160.131C12.9989 171.793 24.4156 167.694 33.2906 163.902C40.1812 160.954 44.3687 155.715 46.7594 149.209Z" fill="#E8D793" fill-opacity="0.4"/>
<path d="M110.333 230.374C117.859 227.869 122.645 220.088 126.26 214.119L126.125 214.171L126.213 213.984C126.312 214.255 126.786 214.692 127.02 214.916C131.953 221.536 137.911 228.848 146.145 225.77C157.218 221.64 163.322 209.978 159.901 200.796C156.822 192.562 149.578 188.807 139.64 190.208L134.536 176.114C130.656 165.718 123.687 146.63 116.26 149.406C110.994 151.369 103.812 158.51 104.838 162.895C109.197 177.88 115.776 190.963 120.812 204.463C121.166 205.411 118.953 208.541 115.468 213.228L109.369 196.89C105.239 185.817 94.786 159.88 83.312 164.161C77.2391 166.426 63.3641 181.603 73.161 185.176C76.8901 183.635 79.3381 180.718 80.9787 178.109C84.8172 182.213 87.3068 188.051 89.3745 193.588L93.0516 203.442C94.9683 208.572 103.432 232.489 110.333 230.374ZM148.234 207.458C149.239 210.161 148.479 211.827 147.432 213.14C145.093 210.171 143.796 207.114 142.015 203.166C141.864 202.76 141.848 202.301 141.968 201.796C144.583 202.208 146.921 203.947 148.234 207.458Z" fill="#E8D793" fill-opacity="0.4"/>
<path d="M182.314 204.678C189.959 202.574 195.152 195.053 199.079 189.293L198.944 189.334L199.038 189.152C199.126 189.428 199.574 189.892 199.798 190.121C204.371 196.996 209.933 204.61 218.324 201.98C229.595 198.439 236.314 187.116 233.376 177.767C230.741 169.381 223.704 165.246 213.704 166.121L209.355 151.777C206.027 141.189 200.079 121.761 192.517 124.136C187.157 125.819 179.611 132.569 180.397 137.006C183.959 152.199 189.834 165.61 194.152 179.36C194.454 180.324 192.074 183.334 188.35 187.824L183.126 171.189C179.584 159.918 170.522 133.459 158.834 137.126C152.647 139.074 137.996 153.491 147.584 157.579C151.392 156.23 153.991 153.454 155.767 150.933C159.387 155.23 161.558 161.194 163.329 166.834L166.48 176.871C168.121 182.095 175.308 206.423 182.314 204.678ZM221.376 183.798C222.236 186.548 221.387 188.178 220.272 189.433C218.095 186.34 216.965 183.22 215.392 179.183C215.262 178.772 215.272 178.314 215.418 177.819C218.006 178.366 220.251 180.225 221.376 183.798Z" fill="#E8D793" fill-opacity="0.4"/>
<path d="M171.521 86.6222C165.324 86.6066 159.808 86.8253 154.032 88.6378C144.959 91.492 135.719 101.039 138.699 110.523C142.021 121.112 156.803 117.674 168.49 114.008C180.178 110.336 200.402 95.3774 195.652 80.2524C192.157 69.117 189.777 62.0076 180.261 63.9399C167.751 67.867 169.256 75.5493 171.521 86.6222ZM160.297 108.122C156.725 109.242 154.803 106.976 154.329 105.466C153.079 101.476 154.605 97.6743 158.313 96.5076C160.24 95.9034 167.995 95.5857 171.542 98.7003C169.605 102.633 164.152 106.914 160.297 108.122Z" fill="#E8D793" fill-opacity="0.4"/>
<path d="M150.302 33.4712C143.427 35.6274 135.297 44.3774 137.37 50.9764C139.011 56.2003 145.235 54.8514 148.808 53.7264C151.969 52.7316 153.24 50.5233 153.87 48.2108C154.532 52.2316 154.047 56.4608 155.386 60.7264C157.542 67.5962 168.13 64.2733 172.391 62.9347C182.568 59.742 198.464 36.7733 200.953 22.0962C196.011 20.7785 190.167 21.4035 187.276 22.3097C181.089 24.2524 174.62 34.4451 169.792 42.1535C164.974 33.5441 160.339 30.3201 150.302 33.4712Z" fill="#E8D793" fill-opacity="0.4"/>
<path d="M266.986 152.499C273.647 178.015 274.043 189.228 280.533 187.833C285.204 186.911 290.079 185.041 294.34 181.4C292.678 169.322 291.038 159.624 288.413 149.583C283.246 129.78 271.397 96.3846 245.741 103.088C221.34 109.458 226.142 137.546 230.876 155.671C233.788 166.827 237.876 176.78 240.71 183.635C242.72 188.473 243.371 190.984 249.506 189.379C251.184 188.947 253.059 188.155 255.423 186.942C258.59 185.374 259.012 182.431 258.881 176.806C258.741 156.291 256.673 139.254 260.72 138.197C263.35 139.15 266.111 149.15 266.986 152.499ZM245.131 111.588C251.402 109.947 257.043 117.859 261.293 129.556C253.111 129.609 248.043 139.275 246.079 145.447C244.918 138.15 237.741 113.515 245.131 111.588Z" fill="#E8D793" fill-opacity="0.4"/>
<path d="M351.042 163.27C349.661 156.349 346.099 159.849 341.375 164.172C339.542 166.01 337.307 168.073 335.891 168.354C329.25 169.682 324.932 145.119 324.484 142.859C322.307 131.979 320.135 121.093 309.823 114.338C307.62 112.869 306.318 110.041 305.672 106.791C304.625 101.562 305.62 91.0778 309.859 90.2288C318.198 88.5621 327.406 107.448 331.417 116.489C333.646 122.51 335.932 128.817 341.776 144.843C344.63 153.239 347.849 155.385 355.766 153.807C359.297 153.099 362.099 151.661 365.208 151.036C369.078 157.906 372.661 170.713 382.839 168.682C392.161 166.817 400.417 159.583 398.078 147.854C396.693 140.932 393.526 139.797 385.193 138.526C383.245 130.979 382 124.76 380.703 118.26C377.625 102.854 377.005 99.0101 375.964 93.7809C374.891 87.6767 372.974 77.333 364.776 78.9684C350.5 81.8173 351.234 94.3121 353.292 104.63C355.807 117.208 359.021 131.114 362.411 143.661C360.771 144.281 362.271 143.687 361.422 143.859C359.302 144.281 347.016 108.526 343.516 99.8226C338.943 89.4163 329.844 76.2444 316.703 78.8694C300.307 82.1455 283.432 96.9788 286.453 112.099C287.469 117.187 290.969 120.75 294.359 124.479C299.953 130.416 300.713 135.703 302.099 142.625C305.74 160.854 309.687 180.64 331.031 176.38C338.802 174.828 346.01 171.182 351.042 163.27Z" fill="#E8D793" fill-opacity="0.4"/>
<path d="M435.856 144.164C435.272 146.149 431.251 152.425 430.116 149.68C426.08 133.232 423.772 116.675 421.116 98.7111C419.361 86.8777 416.241 74.6642 409.543 75.659C395.856 77.685 396.991 92.2319 398.804 104.492C402.496 129.435 404.96 164.763 424.064 161.935C434.184 160.44 448.455 153.518 446.705 141.685C446.496 140.263 444.856 139.044 441.866 139.487C438.158 140.039 437.007 142.102 436.241 143.82L435.856 144.164Z" fill="#E8D793" fill-opacity="0.4"/>
<path d="M489.144 76.1375C494.117 66.023 500.628 52.6948 497.852 48.5073C496.862 47.4552 493.347 47.1167 491.774 47.2886C479.883 48.5959 476.263 55.2261 471.414 63.8771C455.55 61.9969 442.055 75.0802 438.68 87.9188C437.591 91.2261 441.154 93.299 444.591 92.924C448.175 92.5282 451.914 90.9552 454.93 88.0177C456.508 82.6219 459.972 75.8667 461.404 75.7052C465.987 75.2052 472.956 89.8042 475.05 108.856C471.581 106.341 468.373 104.809 463.071 105.388C447.456 107.106 439.107 115.559 441.045 133.179C442.555 146.934 450.263 155.075 464.3 153.533C477.909 152.039 481.388 142.809 481.675 142.778C499.44 140.83 501.498 134.513 498.857 110.445C497.737 100.278 494.821 92.1896 489.144 76.1375ZM470.248 145.632C465.086 146.195 461.998 135.226 461.321 129.07C460.867 124.914 460.081 116.445 460.222 116.429C461.513 116.289 464.992 122.867 468.581 129.143C471.326 134.346 474.216 139.539 477.508 141.789C475.102 144.95 471.534 145.486 470.248 145.632Z" fill="#E8D793" fill-opacity="0.4"/>
<path d="M464.089 26.2647C458.011 25.0459 452.553 24.197 446.537 24.8584C437.084 25.8949 426.172 33.473 427.261 43.3584C428.469 54.3897 443.636 53.8845 455.813 52.5459C467.99 51.2074 490.73 40.447 488.995 24.6866C487.724 13.0876 486.761 5.65009 477.053 5.70218C464.016 7.13447 464.011 14.9678 464.089 26.2647ZM448.917 45.1866C445.193 45.5928 443.745 42.9991 443.573 41.4209C443.115 37.2699 445.349 33.8324 449.219 33.4105C451.224 33.1866 458.891 34.3741 461.766 38.1188C459.105 41.598 452.928 44.7438 448.917 45.1866Z" fill="#E8D793" fill-opacity="0.4"/>
<path d="M481.137 -25.7717C480.382 -33.9488 479.298 -43.8342 467.262 -42.5113C457.236 -41.4124 456.225 -36.079 457.376 -25.6259C458.621 -14.3082 460.647 4.17098 469.533 3.19702C482.423 1.78035 482.069 -8.03736 481.137 -25.7717Z" fill="#E8D793" fill-opacity="0.4"/>
<path d="M561.659 51.6341C558.3 50.9779 557.003 51.0612 555.711 51.1393C549.524 51.5299 543.591 53.6341 543.857 62.4258C544.201 72.5143 544.69 82.5924 545.175 92.6654C545.664 102.743 546.289 112.665 546.633 122.754C546.732 128.957 546.029 140.697 544.3 140.806C542.144 140.941 539.258 134.046 538.878 128.004C538.373 119.952 542.539 112.759 544.399 105.566C534.769 99.3841 522.352 94.8216 521.539 81.8789C521.362 79.0039 522.185 76.0612 523.779 73.7956C524.675 74.3164 525.737 75.1185 528.039 74.9726C531.201 74.7747 536.868 72.9727 536.638 69.3789C536.352 64.7747 530.253 64.2904 526.513 64.5247C514.435 65.2851 503.498 75.0716 504.258 87.1497C504.961 98.3685 512.925 103.358 527.076 110.264C523.118 120.764 521.248 125.504 521.675 132.264C522.368 143.337 531.045 150.447 541.69 149.775C564.847 148.322 570.638 130.197 568.17 90.9362C567.513 80.4362 566.086 57.7122 561.659 51.6341Z" fill="#E8D793" fill-opacity="0.4"/>
<path d="M599.35 57.5131C589.985 57.711 580.318 64.2579 579.376 74.0808C581.839 74.7475 583.72 74.9975 585.016 74.9662C593.949 74.7787 595.881 70.7006 597.251 67.5027C597.808 66.4819 598.501 65.1694 598.501 65.1694C602.537 65.086 604.714 86.3725 604.943 97.0339C605.048 102.076 604.47 108.862 603.464 115.805C598.027 104.096 592.459 92.9714 584.391 93.1433C580.933 93.2162 574.162 93.5027 574.277 98.836C574.605 114.393 593.277 145.133 603.36 144.919C610.428 145.206 616.475 144.789 618.636 137.966C620.834 126.102 622.881 113.659 622.595 100.263C622.292 85.9975 619.516 57.086 599.35 57.5131Z" fill="#E8D793" fill-opacity="0.4"/>
<path d="M670.524 121.804C670.915 130.32 671.451 138.835 672.707 147.366C675.009 147.559 677.16 147.898 679.181 147.939C693.733 148.257 695.165 141.945 695.472 127.971L695.691 117.887C696.243 92.5279 689.04 59.3612 665.415 58.8456C644.092 58.3821 630.103 71.9133 629.446 101.882C629.045 120.32 633.056 134.679 652.936 135.116C662.014 135.314 668.05 129.533 670.524 121.804ZM654.207 83.5383C655.92 77.6633 658.571 68.6425 662.024 68.7154C666.061 68.8039 668.113 80.5279 669.05 90.205C666.248 86.5383 660.535 84.1112 654.207 83.5383ZM655.056 90.9081C656.639 90.9446 657.748 99.6164 657.639 104.512C657.488 111.429 655.483 124.215 653.321 124.169C652.889 124.158 652.436 111.752 652.587 104.835L652.639 102.533C652.603 97.6269 652.462 90.8508 655.056 90.9081Z" fill="#E8D793" fill-opacity="0.4"/>
<path d="M749.435 128.83C754.289 121.064 756.717 110.684 757.326 101.627C758.154 89.262 754.659 61.7255 739.993 60.7411C723.748 59.6526 707.399 70.8297 703.045 86.137C702.289 88.8349 704.56 91.5849 707.868 91.8089C717.071 92.4234 723.774 82.9078 728.628 77.3141C732.191 77.9859 731.56 95.9964 730.961 104.913C730.441 112.673 726.951 136.705 721.487 136.34C718.18 136.116 716.378 132.819 711.8 125.726C703.737 127.491 700.644 128.439 700.352 132.757C699.909 139.371 706.243 143.981 713.144 144.444C726.805 145.361 742.816 141.382 749.435 128.83Z" fill="#E8D793" fill-opacity="0.4"/>
<path d="M791.705 65.6378C782.393 64.6482 771.976 69.9191 769.799 79.5441C772.158 80.518 773.991 81.0024 775.278 81.1378C784.163 82.0805 786.596 78.2836 788.361 75.2836C789.044 74.3409 789.898 73.1274 789.898 73.1274C793.908 73.5493 793.382 94.9399 792.257 105.549C791.726 110.565 790.294 117.221 788.419 123.982C784.507 111.679 780.387 99.9399 772.361 99.0909C768.924 98.7264 762.174 98.1534 761.611 103.456C759.971 118.935 774.601 151.789 784.632 152.851C791.611 154.023 797.658 154.377 800.669 147.883C804.351 136.393 807.95 124.31 809.361 110.982C810.866 96.7941 811.768 67.7628 791.705 65.6378Z" fill="#E8D793" fill-opacity="0.4"/>
<path d="M853.428 154.64L853.251 174.874C859.886 178.223 871.454 178.822 873.329 166.572C874.199 160.874 874.652 155.989 875.391 151.145C876.678 142.739 878.344 134.687 880.678 131.833C888.6 121.963 895.37 111.046 897.199 99.0776C898.615 89.8172 896.719 79.3276 885.605 77.6297C865.24 76.4109 859.792 97.739 855.808 123.807C855.027 128.937 854.943 133.296 854.287 137.567C853.636 141.843 847.787 145.76 842.938 147.937C842.797 141.208 843.699 132.453 844.62 123.557C846.725 100.26 848.912 74.4995 835.521 72.4526C828.396 71.364 814.313 86.2651 818.584 86.9213C821.579 87.3797 824.271 86.9161 828.501 85.9578C830.537 98.3693 828.214 115.51 826.318 129.796C824.568 142.213 819.193 156.406 833.725 158.624C839.136 159.453 845.73 158.276 853.428 154.64ZM872.949 117.531C872.105 118.281 877.808 91.4526 882.37 92.1505C886.782 92.8224 879.344 111.947 872.949 117.531Z" fill="#E8D793" fill-opacity="0.4"/>
<path d="M935.671 111.717C947.796 111.353 955.093 105.019 959.984 90.1289C961.088 86.8216 960.067 84.5612 955.406 83.6289C945.374 81.6185 941.046 87.0716 937.458 91.7903L935.593 94.5039C932.963 93.6862 930.192 92.8372 927.651 92.3268C912.671 89.3268 902.666 94.5247 900.062 107.53C898.453 115.582 899.072 127.905 907.406 129.572C911.645 130.421 915.406 129.264 918.937 129.973C921.906 130.566 921.822 136.868 920.322 144.358C919.333 149.301 917.296 158.009 916.364 160.467C916.364 159.733 916.052 158.348 915.713 157.103C914.64 152.921 912.859 147.858 909.046 147.098C903.677 146.02 898.218 146.842 897.062 152.634C895.619 159.842 901.494 170.129 909.833 171.796C926.645 175.165 935.692 165.217 938.776 149.816C940.729 140.066 940.447 124.577 928.999 122.285C925.895 121.665 922.161 121.212 919.026 120.728C917.869 115.499 919.281 111.374 920.64 106.796C925.218 109.624 930.755 111.322 935.671 111.717Z" fill="#E8D793" fill-opacity="0.4"/>
<path d="M915.055 34.8414C910.419 33.0289 906.211 31.3049 901.263 30.3154C887.982 27.6539 880.096 33.2789 878.258 42.4664C874.862 59.4195 889.586 63.6904 903.575 66.4924C916.716 69.1226 931.977 67.0341 935.034 51.7737C937.664 38.6331 938.117 33.4299 926.107 31.0237C920.315 29.8674 919.888 30.5185 915.055 34.8414ZM904.398 43.2893C906.237 43.6539 912.086 46.7372 914.065 50.8049C912.482 52.8414 907.815 55.581 901.883 54.3935C901.544 53.8883 895.211 53.206 896.284 47.8362C897.362 42.4664 903.549 43.1174 904.398 43.2893ZM955.523 58.8154L955.919 56.8362C957.247 50.9299 959.398 42.3935 950.352 40.581C940.742 38.6591 939.388 46.1747 937.945 53.3831L937.492 55.6435C936.471 60.732 934.945 68.3622 943.284 70.0289C952.466 71.8674 953.794 67.4351 955.523 58.8154Z" fill="#E8D793" fill-opacity="0.4"/>
<path d="M988.517 98.0623C979.834 95.9477 964.485 95.0206 956.522 102.13C955.704 105.489 958.824 107.286 963.303 108.38C970.584 110.156 978.157 107.703 982.918 108.859C986.136 109.646 988.517 116.307 989.282 121.687L985.501 120.765C967.439 116.359 953.735 122.068 948.308 144.328C943.527 163.927 952.053 181.286 972.491 186.271C995.314 191.838 1007.11 164.75 1010.42 151.172C1015.68 129.609 1014.56 104.416 988.517 98.0623ZM967.579 146.208C970.345 134.87 977.11 126.583 989.918 129.406C989.855 136.364 989.86 143.041 988.048 150.458C986.34 157.458 977.975 179.599 969.892 178.073C963.907 176.463 965.048 156.568 967.579 146.208Z" fill="#E8D793" fill-opacity="0.4"/>
<path d="M1087.07 119.579C1084.13 117.813 1082.89 117.449 1081.64 117.084C1075.7 115.334 1069.4 115.287 1066.65 123.636C1063.52 133.235 1060.54 142.87 1057.55 152.506C1054.57 162.146 1051.76 171.683 1048.64 181.282C1046.62 187.146 1041.94 197.938 1040.28 197.449C1038.21 196.839 1037.85 189.37 1039.56 183.568C1041.84 175.824 1048.21 170.49 1052.41 164.365C1045.48 155.266 1035.37 146.735 1039.03 134.292C1039.84 131.527 1041.62 129.048 1043.89 127.459C1044.56 128.256 1045.28 129.37 1047.5 130.021C1050.54 130.917 1056.48 131.162 1057.49 127.704C1058.79 123.277 1053.23 120.74 1049.63 119.683C1038.02 116.266 1024.4 121.725 1020.98 133.339C1017.81 144.12 1023.6 151.532 1034.53 162.86C1027.22 171.376 1023.85 175.188 1021.94 181.688C1018.8 192.334 1024.53 201.98 1034.76 204.985C1057.02 211.532 1068.66 196.48 1079.76 158.735C1082.73 148.646 1089.15 126.803 1087.07 119.579Z" fill="#E8D793" fill-opacity="0.4"/>
<path d="M1093.65 104.843C1102.62 99.3692 1128.25 85.2755 1106.69 78.9317C1102.4 77.6713 1097.57 77.7546 1093.33 80.4109C1087.1 84.739 1078.29 90.7077 1074.81 92.838C1076.39 87.4473 1075.36 81.739 1068.87 79.8275C1063.61 78.2807 1059.22 80.4473 1056.82 88.6036C1053.24 100.77 1064.65 104.874 1073.92 107.598C1081.11 109.713 1087.67 108.338 1093.65 104.843Z" fill="#E8D793" fill-opacity="0.4"/>
<path d="M1120.48 137.981C1111.61 134.97 1100.29 137.819 1096.05 146.725C1098.14 148.199 1099.81 149.074 1101.04 149.491C1109.51 152.366 1112.71 149.194 1115.09 146.658C1115.97 145.887 1117.07 144.892 1117.07 144.892C1120.89 146.189 1115.66 166.939 1112.23 177.038C1110.6 181.809 1107.75 187.991 1104.43 194.168C1103.32 181.314 1101.89 168.955 1094.25 166.356C1090.97 165.246 1084.51 163.199 1082.8 168.251C1077.79 182.986 1084.83 218.257 1094.38 221.501C1100.93 224.184 1106.75 225.856 1111.11 220.184C1117.23 209.788 1123.41 198.793 1127.72 186.106C1132.31 172.595 1139.58 144.475 1120.48 137.981Z" fill="#E8D793" fill-opacity="0.4"/>
<path d="M1153.65 156.223C1150.13 166.759 1148.48 171.53 1146.01 178.91C1137.01 204.78 1133.78 214.962 1144.03 218.832C1159 224.478 1165.29 197.587 1171.36 183.551L1177.93 166.16C1181.23 157.394 1183.55 148.41 1175.73 145.462C1161.44 140.066 1158.13 144.358 1153.65 156.223ZM1149.82 237.342C1150.94 234.379 1153.03 230.082 1145.61 227.285C1135.5 223.467 1130.93 226.207 1128.43 232.811C1126.65 237.53 1128.01 240.045 1134.48 242.488C1142.17 245.389 1146.52 246.108 1149.82 237.342Z" fill="#E8D793" fill-opacity="0.4"/>
<path d="M1197.35 193.692C1203.18 196.161 1204.94 191.27 1205.61 189.677C1209.1 181.447 1218.57 172 1223.88 174.244C1229.32 176.546 1227.19 183.786 1224.95 189.093C1221.35 196.494 1215.68 201.76 1210.2 206.953C1204.23 212.562 1200.11 213.791 1197.41 220.161C1191.57 233.963 1192.78 238.859 1201.81 242.677C1212.56 247.229 1216.89 238.104 1219.37 233.364C1222.85 225.135 1228.21 222.083 1233.8 215.526C1238.94 210.036 1244.17 203.958 1247.98 197.901C1254.38 182.77 1237.26 170.364 1226.24 165.703C1210.31 158.963 1196.04 162 1190.37 175.406C1187.12 183.104 1189.12 190.208 1197.35 193.692ZM1206.87 259.213C1208.21 256.026 1209.79 253.411 1202.36 250.265C1192.53 246.109 1187.86 248.666 1185.1 255.171C1183.14 259.817 1183.74 262.104 1190.64 265.02C1198.2 268.224 1203.32 267.572 1206.87 259.213Z" fill="#E8D793" fill-opacity="0.4"/>
<path d="M73.0924 226.658C73.8945 217.538 71.3528 207.184 67.7799 198.835C62.9101 187.439 47.2955 164.492 33.7799 170.273C18.8111 176.674 9.31635 194.054 12.3841 209.669C12.9309 212.413 16.207 213.835 19.2538 212.533C27.733 208.908 29.3893 197.382 31.1705 190.195C34.6549 189.174 42.2695 205.512 45.7799 213.726C48.8424 220.882 56.6341 243.882 51.6028 246.033C48.5507 247.335 45.4518 245.215 38.1497 240.971C31.7695 246.205 29.4413 248.455 31.1393 252.429C33.7486 258.528 41.483 259.762 47.8424 257.044C60.4309 251.663 72.8945 240.846 73.0924 226.658Z" fill="#EACC55"/>
<path d="M40.3902 142.841C43.8225 132.908 54.6142 105.726 33.9423 114.565C29.8329 116.32 26.1611 119.46 24.5829 124.205C22.5361 131.507 19.5361 141.726 18.2079 145.585C15.9996 140.419 11.5777 136.663 5.34856 139.33C0.312099 141.481 -1.69832 145.945 1.64543 153.762C6.62981 165.424 18.0465 161.325 26.9215 157.533C33.8121 154.585 37.9996 149.346 40.3902 142.841Z" fill="#EACC55"/>
<path d="M103.964 224.005C111.49 221.5 116.276 213.719 119.891 207.75L119.755 207.802L119.844 207.615C119.943 207.886 120.417 208.323 120.651 208.547C125.583 215.167 131.542 222.479 139.776 219.401C150.849 215.271 156.953 203.61 153.531 194.427C150.453 186.193 143.208 182.438 133.271 183.839L128.167 169.745C124.287 159.349 117.318 140.261 109.891 143.037C104.625 145 97.4429 152.141 98.4689 156.526C102.828 171.511 109.406 184.594 114.443 198.094C114.797 199.042 112.583 202.172 109.099 206.86L103 190.521C98.87 179.448 88.4168 153.511 76.9429 157.792C70.87 160.057 56.995 175.235 66.7918 178.807C70.521 177.266 72.9689 174.349 74.6095 171.74C78.4481 175.844 80.9377 181.682 83.0054 187.219L86.6825 197.073C88.5991 202.203 97.0627 226.12 103.964 224.005ZM141.865 201.089C142.87 203.792 142.11 205.459 141.063 206.771C138.724 203.802 137.427 200.745 135.646 196.797C135.495 196.391 135.479 195.932 135.599 195.427C138.214 195.839 140.552 197.578 141.865 201.089Z" fill="#EACC55"/>
<path d="M175.944 198.309C183.59 196.205 188.783 188.684 192.71 182.924L192.575 182.966L192.668 182.783C192.757 183.059 193.205 183.523 193.429 183.752C198.002 190.627 203.564 198.242 211.955 195.611C223.226 192.07 229.944 180.747 227.007 171.398C224.372 163.012 217.335 158.877 207.335 159.752L202.986 145.408C199.658 134.82 193.71 115.393 186.148 117.768C180.788 119.45 173.241 126.2 174.028 130.637C177.59 145.83 183.465 159.242 187.783 172.992C188.085 173.955 185.705 176.966 181.981 181.455L176.757 164.82C173.215 153.549 164.153 127.091 152.465 130.757C146.278 132.705 131.627 147.122 141.215 151.21C145.023 149.861 147.622 147.085 149.398 144.565C153.017 148.861 155.189 154.825 156.96 160.466L160.111 170.502C161.752 175.726 168.939 200.054 175.944 198.309ZM215.007 177.429C215.866 180.179 215.017 181.809 213.903 183.065C211.726 179.971 210.596 176.851 209.023 172.815C208.892 172.403 208.903 171.945 209.049 171.45C211.637 171.997 213.882 173.856 215.007 177.429Z" fill="#EACC55"/>
<path d="M165.154 80.2533C158.956 80.2377 153.441 80.4564 147.665 82.2689C138.592 85.1231 129.352 94.67 132.331 104.154C135.654 114.743 150.435 111.305 162.123 107.639C173.81 103.967 194.034 89.0085 189.284 73.8835C185.79 62.7481 183.409 55.6387 173.894 57.571C161.383 61.4981 162.889 69.1804 165.154 80.2533ZM153.93 101.753C150.357 102.873 148.435 100.607 147.962 99.097C146.712 95.1075 148.238 91.3054 151.946 90.1387C153.873 89.5345 161.628 89.2168 165.175 92.3314C163.238 96.2637 157.784 100.545 153.93 101.753Z" fill="#EACC55"/>
<path d="M143.935 27.1023C137.06 29.2585 128.93 38.0085 131.003 44.6075C132.643 49.8314 138.867 48.4825 142.44 47.3575C145.602 46.3627 146.873 44.1544 147.503 41.8419C148.164 45.8627 147.68 50.0919 149.018 54.3575C151.175 61.2273 161.763 57.9044 166.024 56.5658C176.201 53.3731 192.097 30.4044 194.586 15.7273C189.643 14.4096 183.8 15.0346 180.909 15.9408C174.722 17.8835 168.253 28.0762 163.425 35.7846C158.607 27.1752 153.972 23.9512 143.935 27.1023Z" fill="#EACC55"/>
<path d="M260.617 146.13C267.278 171.646 267.674 182.86 274.163 181.464C278.835 180.542 283.71 178.672 287.971 175.031C286.309 162.953 284.669 153.255 282.044 143.214C276.877 123.412 265.028 90.0158 239.372 96.719C214.971 103.089 219.773 131.177 224.507 149.302C227.419 160.459 231.507 170.412 234.34 177.266C236.351 182.104 237.002 184.615 243.137 183.011C244.814 182.578 246.689 181.787 249.054 180.573C252.221 179.005 252.643 176.063 252.512 170.438C252.372 149.922 250.304 132.886 254.351 131.828C256.981 132.781 259.742 142.781 260.617 146.13ZM238.762 105.219C245.033 103.578 250.674 111.49 254.924 123.188C246.742 123.24 241.674 132.906 239.71 139.078C238.549 131.781 231.372 107.146 238.762 105.219Z" fill="#EACC55"/>
<path d="M344.672 156.902C343.292 149.98 339.73 153.48 335.006 157.803C333.172 159.641 330.938 161.704 329.521 161.985C322.881 163.313 318.563 138.751 318.115 136.49C315.938 125.61 313.766 114.725 303.454 107.969C301.251 106.501 299.949 103.673 299.303 100.423C298.256 95.1934 299.251 84.709 303.49 83.86C311.829 82.1934 321.037 101.079 325.047 110.12C327.277 116.141 329.563 122.449 335.407 138.475C338.261 146.87 341.48 149.016 349.396 147.438C352.928 146.73 355.73 145.292 358.839 144.667C362.709 151.537 366.292 164.344 376.469 162.313C385.792 160.449 394.047 153.214 391.709 141.485C390.324 134.563 387.157 133.428 378.824 132.157C376.876 124.61 375.631 118.391 374.334 111.891C371.256 96.485 370.636 92.6413 369.594 87.4121C368.521 81.3079 366.605 70.9642 358.407 72.5996C344.131 75.4486 344.865 87.9434 346.922 98.2611C349.438 110.839 352.652 124.745 356.042 137.292C354.402 137.912 355.902 137.318 355.053 137.49C352.933 137.912 340.646 102.157 337.146 93.4538C332.574 83.0475 323.475 69.8757 310.334 72.5007C293.938 75.7767 277.063 90.61 280.084 105.73C281.1 110.818 284.6 114.381 287.99 118.11C293.584 124.048 294.344 129.334 295.73 136.256C299.37 154.485 303.318 174.271 324.662 170.011C332.433 168.459 339.641 164.813 344.672 156.902Z" fill="#EACC55"/>
<path d="M429.486 137.795C428.903 139.78 424.882 146.056 423.747 143.311C419.71 126.863 417.403 110.306 414.747 92.3423C412.992 80.509 409.872 68.2954 403.174 69.2902C389.486 71.3163 390.622 85.8631 392.434 98.1236C396.127 123.066 398.591 158.394 417.695 155.566C427.815 154.071 442.085 147.15 440.335 135.316C440.127 133.894 438.486 132.676 435.497 133.118C431.789 133.67 430.638 135.733 429.872 137.452L429.486 137.795Z" fill="#EACC55"/>
<path d="M482.774 69.7686C487.748 59.6541 494.259 46.3259 491.483 42.1384C490.493 41.0863 486.978 40.7478 485.405 40.9197C473.514 42.227 469.894 48.8572 465.045 57.5082C449.181 55.628 435.686 68.7113 432.311 81.5499C431.222 84.8572 434.785 86.9301 438.222 86.5551C441.806 86.1593 445.545 84.5863 448.561 81.6488C450.139 76.253 453.603 69.4978 455.035 69.3363C459.618 68.8363 466.587 83.4353 468.681 102.487C465.212 99.9718 462.004 98.4405 456.701 99.0186C441.087 100.737 432.738 109.191 434.675 126.81C436.186 140.566 443.894 148.706 457.931 147.164C471.54 145.67 475.019 136.441 475.306 136.409C493.071 134.461 495.129 128.144 492.488 104.076C491.368 93.9093 488.451 85.8207 482.774 69.7686ZM463.879 139.263C458.717 139.826 455.629 128.857 454.951 122.701C454.498 118.545 453.712 110.076 453.853 110.06C455.144 109.92 458.623 116.498 462.212 122.774C464.957 127.977 467.847 133.17 471.139 135.42C468.733 138.581 465.165 139.118 463.879 139.263Z" fill="#EACC55"/>
<path d="M457.72 19.896C451.642 18.6773 446.183 17.8283 440.168 18.4898C430.715 19.5262 419.803 27.1044 420.892 36.9898C422.1 48.021 437.267 47.5158 449.444 46.1773C461.621 44.8387 484.361 34.0783 482.626 18.3179C481.355 6.71894 480.392 -0.718559 470.683 -0.666476C457.647 0.765816 457.642 8.59915 457.72 19.896ZM442.548 38.8179C438.824 39.2241 437.376 36.6304 437.204 35.0523C436.746 30.9012 438.98 27.4637 442.85 27.0419C444.855 26.8179 452.522 28.0054 455.397 31.7502C452.736 35.2294 446.558 38.3752 442.548 38.8179Z" fill="#EACC55"/>
<path d="M555.29 45.2653C551.931 44.6091 550.634 44.6924 549.342 44.7705C543.155 45.1612 537.222 47.2653 537.488 56.057C537.832 66.1455 538.321 76.2237 538.806 86.2966C539.295 96.3747 539.92 106.297 540.264 116.385C540.363 122.588 539.66 134.328 537.931 134.437C535.774 134.573 532.889 127.677 532.509 121.635C532.004 113.583 536.17 106.39 538.03 99.1976C528.399 93.0153 515.983 88.4528 515.17 75.5101C514.993 72.6351 515.816 69.6924 517.41 67.4268C518.306 67.9476 519.368 68.7497 521.67 68.6039C524.832 68.406 530.498 66.6039 530.269 63.0101C529.983 58.406 523.884 57.9216 520.144 58.156C508.066 58.9164 497.129 68.7028 497.889 80.781C498.592 91.9997 506.556 96.9893 520.707 103.896C516.748 114.396 514.879 119.135 515.306 125.896C515.998 136.968 524.675 144.078 535.321 143.406C558.478 141.953 564.269 123.828 561.8 84.5674C561.144 74.0674 559.717 51.3435 555.29 45.2653Z" fill="#EACC55"/>
<path d="M592.981 51.1442C583.616 51.3421 573.949 57.889 573.007 67.7119C575.47 68.3786 577.35 68.6286 578.647 68.5973C587.58 68.4098 589.512 64.3317 590.882 61.1338C591.439 60.113 592.132 58.8005 592.132 58.8005C596.168 58.7171 598.345 80.0036 598.574 90.665C598.679 95.7067 598.1 102.493 597.095 109.436C591.658 97.7275 586.09 86.6025 578.022 86.7744C574.564 86.8473 567.793 87.1338 567.908 92.4671C568.236 108.024 586.908 138.764 596.991 138.55C604.059 138.837 610.106 138.42 612.267 131.597C614.465 119.733 616.512 107.29 616.225 93.8942C615.923 79.6286 613.147 50.7171 592.981 51.1442Z" fill="#EACC55"/>
<path d="M664.155 115.435C664.546 123.951 665.082 132.466 666.338 140.998C668.64 141.19 670.791 141.529 672.812 141.571C687.364 141.888 688.796 135.576 689.103 121.602L689.322 111.519C689.874 86.1591 682.671 52.9925 659.046 52.4768C637.723 52.0133 623.733 65.5445 623.077 95.5133C622.676 113.951 626.687 128.31 646.567 128.748C655.645 128.946 661.681 123.164 664.155 115.435ZM647.838 77.1695C649.551 71.2945 652.202 62.2737 655.655 62.3466C659.692 62.4352 661.744 74.1591 662.681 83.8362C659.879 80.1695 654.166 77.7425 647.838 77.1695ZM648.687 84.5393C650.27 84.5758 651.379 93.2477 651.27 98.1435C651.119 105.06 649.114 117.847 646.952 117.8C646.52 117.789 646.067 105.383 646.218 98.4664L646.27 96.1643C646.233 91.2581 646.093 84.482 648.687 84.5393Z" fill="#EACC55"/>
<path d="M743.068 122.461C747.922 114.695 750.349 104.315 750.959 95.2577C751.787 82.8931 748.292 55.3566 733.625 54.3723C717.381 53.2837 701.032 64.4608 696.678 79.7681C695.922 82.466 698.193 85.216 701.5 85.44C710.704 86.0545 717.407 76.5389 722.261 70.9452C725.823 71.617 725.193 89.6275 724.594 98.5441C724.073 106.305 720.584 130.336 715.12 129.971C711.813 129.747 710.011 126.45 705.433 119.357C697.37 121.122 694.276 122.07 693.985 126.388C693.542 133.002 699.875 137.612 706.776 138.075C720.438 138.992 736.448 135.013 743.068 122.461Z" fill="#EACC55"/>
<path d="M785.336 59.2689C776.023 58.2793 765.607 63.5502 763.43 73.1752C765.789 74.1491 767.622 74.6335 768.909 74.7689C777.794 75.7116 780.226 71.9147 781.992 68.9147C782.674 67.972 783.529 66.7585 783.529 66.7585C787.539 67.1804 787.013 88.571 785.888 99.1804C785.357 104.196 783.924 110.852 782.049 117.613C778.138 105.311 774.018 93.571 765.992 92.722C762.555 92.3575 755.805 91.7845 755.242 97.0866C753.601 112.566 768.232 145.42 778.263 146.482C785.242 147.654 791.289 148.008 794.299 141.514C797.982 130.024 801.581 117.941 802.992 104.613C804.497 90.4252 805.398 61.3939 785.336 59.2689Z" fill="#EACC55"/>
<path d="M847.059 148.271L846.881 168.506C853.517 171.855 865.085 172.454 866.96 160.204C867.829 154.506 868.282 149.62 869.022 144.777C870.309 136.37 871.975 128.318 874.309 125.464C882.23 115.594 889.001 104.678 890.829 92.7088C892.246 83.4484 890.35 72.9588 879.236 71.2609C858.871 70.0421 853.423 91.3703 849.439 117.438C848.657 122.568 848.574 126.928 847.918 131.198C847.267 135.474 841.418 139.391 836.569 141.568C836.428 134.839 837.329 126.084 838.251 117.188C840.355 93.8911 842.543 68.1307 829.152 66.0838C822.027 64.9953 807.944 79.8963 812.215 80.5526C815.21 81.0109 817.902 80.5474 822.131 79.589C824.168 92.0005 821.845 109.141 819.949 123.428C818.199 135.844 812.824 150.037 827.355 152.256C832.767 153.084 839.361 151.907 847.059 148.271ZM866.579 111.162C865.736 111.912 871.439 85.0838 876.001 85.7817C880.413 86.4536 872.975 105.579 866.579 111.162Z" fill="#EACC55"/>
<path d="M929.302 105.349C941.427 104.984 948.724 98.6506 953.615 83.76C954.719 80.4527 953.698 78.1923 949.037 77.26C939.005 75.2496 934.677 80.7027 931.089 85.4214L929.224 88.135C926.594 87.3173 923.823 86.4683 921.281 85.9579C906.302 82.9579 896.297 88.1558 893.693 101.161C892.083 109.213 892.703 121.536 901.037 123.203C905.276 124.052 909.037 122.895 912.568 123.604C915.537 124.197 915.453 130.5 913.953 137.989C912.964 142.932 910.927 151.64 909.995 154.099C909.995 153.364 909.682 151.979 909.344 150.734C908.271 146.552 906.49 141.489 902.677 140.729C897.307 139.651 891.849 140.474 890.693 146.265C889.25 153.474 895.125 163.76 903.464 165.427C920.276 168.796 929.323 158.849 932.406 143.447C934.359 133.697 934.078 118.208 922.63 115.916C919.526 115.296 915.792 114.843 912.656 114.359C911.5 109.13 912.912 105.005 914.271 100.427C918.849 103.255 924.386 104.953 929.302 105.349Z" fill="#EACC55"/>
<path d="M908.687 28.4725C904.052 26.66 899.844 24.936 894.896 23.9465C881.615 21.285 873.729 26.91 871.891 36.0975C868.495 53.0506 883.219 57.3215 897.208 60.1235C910.349 62.7537 925.609 60.6652 928.667 45.4048C931.297 32.2642 931.75 27.061 919.74 24.6548C913.948 23.4985 913.521 24.1496 908.687 28.4725ZM898.031 36.9204C899.87 37.285 905.719 40.3683 907.698 44.436C906.115 46.4725 901.448 49.2121 895.516 48.0246C895.177 47.5194 888.844 46.8371 889.917 41.4673C890.995 36.0975 897.182 36.7485 898.031 36.9204ZM949.156 52.4465L949.552 50.4673C950.88 44.561 953.031 36.0246 943.984 34.2121C934.375 32.2902 933.021 39.8058 931.578 47.0142L931.125 49.2746C930.104 54.3631 928.578 61.9933 936.917 63.66C946.099 65.4985 947.427 61.0663 949.156 52.4465Z" fill="#EACC55"/>
<path d="M982.148 91.6935C973.465 89.5789 958.116 88.6519 950.153 95.7612C949.335 99.1206 952.455 100.917 956.934 102.011C964.215 103.787 971.788 101.334 976.549 102.49C979.767 103.277 982.148 109.938 982.913 115.319L979.132 114.397C961.069 109.99 947.366 115.699 941.939 137.959C937.158 157.558 945.684 174.917 966.121 179.902C988.944 185.47 1000.74 158.381 1004.05 144.803C1009.31 123.24 1008.19 98.0477 982.148 91.6935ZM961.21 139.839C963.976 128.501 970.741 120.214 983.549 123.037C983.486 129.996 983.491 136.673 981.679 144.089C979.97 151.089 971.606 173.23 963.523 171.704C957.538 170.095 958.679 150.199 961.21 139.839Z" fill="#EACC55"/>
<path d="M1080.7 113.21C1077.76 111.444 1076.52 111.08 1075.27 110.715C1069.33 108.965 1063.03 108.918 1060.28 117.267C1057.15 126.866 1054.17 136.502 1051.19 146.137C1048.2 155.778 1045.39 165.314 1042.27 174.913C1040.25 180.778 1035.57 191.569 1033.91 191.08C1031.84 190.47 1031.48 183.002 1033.19 177.2C1035.47 169.455 1041.84 164.121 1046.05 157.996C1039.11 148.897 1029 140.366 1032.66 127.924C1033.47 125.158 1035.25 122.679 1037.52 121.09C1038.19 121.887 1038.91 123.002 1041.13 123.653C1044.17 124.549 1050.11 124.793 1051.12 121.335C1052.43 116.908 1046.86 114.371 1043.26 113.314C1031.65 109.897 1018.03 115.356 1014.61 126.97C1011.44 137.752 1017.23 145.163 1028.16 156.491C1020.85 165.007 1017.48 168.819 1015.57 175.319C1012.44 185.965 1018.16 195.611 1028.39 198.616C1050.65 205.163 1062.29 190.111 1073.39 152.366C1076.36 142.278 1082.78 120.434 1080.7 113.21Z" fill="#EACC55"/>
<path d="M1087.29 98.4743C1096.25 93.0003 1121.88 78.9066 1100.32 72.5628C1096.03 71.3024 1091.2 71.3857 1086.96 74.042C1080.73 78.3701 1071.92 84.3389 1068.44 86.4691C1070.02 81.0784 1068.99 75.3701 1062.5 73.4586C1057.24 71.9118 1052.85 74.0784 1050.45 82.2347C1046.87 94.4014 1058.29 98.5055 1067.55 101.229C1074.74 103.344 1081.3 101.969 1087.29 98.4743Z" fill="#EACC55"/>
<path d="M1114.11 131.612C1105.24 128.601 1093.92 131.45 1089.68 140.357C1091.77 141.831 1093.44 142.706 1094.67 143.122C1103.14 145.997 1106.34 142.825 1108.73 140.289C1109.6 139.518 1110.7 138.523 1110.7 138.523C1114.52 139.82 1109.29 160.57 1105.86 170.669C1104.24 175.44 1101.38 181.622 1098.06 187.799C1096.95 174.945 1095.52 162.586 1087.88 159.987C1084.6 158.878 1078.14 156.831 1076.43 161.883C1071.42 176.617 1078.46 211.888 1088.01 215.133C1094.56 217.815 1100.38 219.487 1104.74 213.815C1110.87 203.419 1117.04 192.424 1121.35 179.737C1125.94 166.226 1133.21 138.107 1114.11 131.612Z" fill="#EACC55"/>
<path d="M1147.28 149.854C1143.76 160.39 1142.12 165.161 1139.64 172.541C1130.64 198.411 1127.41 208.593 1137.66 212.463C1152.63 218.109 1158.92 191.218 1165 177.182L1171.56 159.791C1174.87 151.026 1177.18 142.041 1169.36 139.093C1155.07 133.698 1151.76 137.989 1147.28 149.854ZM1143.45 230.974C1144.57 228.01 1146.66 223.713 1139.25 220.916C1129.13 217.099 1124.56 219.838 1122.06 226.442C1120.28 231.161 1121.64 233.677 1128.12 236.119C1135.8 239.02 1140.15 239.739 1143.45 230.974Z" fill="#EACC55"/>
<path d="M1190.98 187.323C1196.82 189.792 1198.57 184.902 1199.24 183.308C1202.73 175.079 1212.2 165.631 1217.51 167.875C1222.95 170.178 1220.83 177.417 1218.58 182.724C1214.98 190.125 1209.31 195.391 1203.83 200.584C1197.86 206.193 1193.74 207.422 1191.04 213.792C1185.2 227.594 1186.41 232.49 1195.44 236.308C1206.19 240.86 1210.52 231.735 1213 226.995C1216.48 218.766 1221.84 215.714 1227.43 209.157C1232.57 203.667 1237.8 197.589 1241.61 191.532C1248.01 176.402 1230.89 163.995 1219.87 159.334C1203.95 152.594 1189.67 155.631 1184 169.037C1180.75 176.735 1182.75 183.839 1190.98 187.323ZM1200.5 252.844C1201.84 249.657 1203.42 247.042 1195.99 243.896C1186.16 239.74 1181.49 242.297 1178.73 248.803C1176.77 253.448 1177.37 255.735 1184.27 258.652C1191.83 261.855 1196.96 261.204 1200.5 252.844Z" fill="#EACC55"/>
</svg>
