<svg width="587" height="93" viewBox="0 0 587 93" fill="none" xmlns="http://www.w3.org/2000/svg">
<rect y="5" width="587" height="84" rx="24" fill="url(#paint0_linear_510_304)"/>
<path d="M57.662 68.62C52.7847 68.62 49.292 67.504 47.184 65.272C45.076 63.04 44.022 59.8573 44.022 55.724V34.024H49.54V55.786C49.54 58.5553 50.2013 60.622 51.524 61.986C52.8467 63.35 54.8927 64.032 57.662 64.032C60.4727 64.032 62.5393 63.35 63.862 61.986C65.226 60.622 65.908 58.5553 65.908 55.786V34.024H71.426V55.724C71.426 59.8573 70.3513 63.04 68.202 65.272C66.094 67.504 62.5807 68.62 57.662 68.62ZM81.626 68V34.024H85.47L86.462 39.418H86.71C87.4126 37.558 88.694 36.0907 90.554 35.016C92.414 33.9413 94.6666 33.404 97.312 33.404C99.792 33.404 101.9 33.838 103.636 34.706C105.413 35.5327 106.777 36.814 107.728 38.55C108.679 40.286 109.154 42.5387 109.154 45.308V68H103.636V45.618C103.636 43.138 103.016 41.2573 101.776 39.976C100.536 38.6947 98.6966 38.054 96.258 38.054C94.3153 38.054 92.662 38.5087 91.298 39.418C89.934 40.3273 88.9006 41.5673 88.198 43.138C87.4953 44.6673 87.144 46.4033 87.144 48.346V68H81.626ZM139.123 68V45.37C139.123 42.6833 138.503 40.782 137.263 39.666C136.065 38.5087 134.039 37.93 131.187 37.93C129.121 37.93 127.137 38.2193 125.235 38.798C123.375 39.3353 121.598 40.1 119.903 41.092V35.946C121.102 35.326 122.714 34.7473 124.739 34.21C126.806 33.6727 129.121 33.404 131.683 33.404C133.874 33.404 135.734 33.652 137.263 34.148C138.834 34.644 139.991 35.5533 140.735 36.876C142.182 37.5373 143.174 38.5707 143.711 39.976C144.29 41.3813 144.579 43.076 144.579 45.06V68H139.123ZM128.459 68.62C124.822 68.62 122.032 67.7933 120.089 66.14C118.188 64.4453 117.237 62.0273 117.237 58.886C117.237 55.4553 118.477 52.81 120.957 50.95C123.479 49.09 127.55 47.9947 133.171 47.664L140.239 47.23V51.818L133.915 52.252C129.699 52.5413 126.785 53.2027 125.173 54.236C123.603 55.2693 122.817 56.778 122.817 58.762C122.817 60.622 123.396 61.986 124.553 62.854C125.752 63.722 127.405 64.156 129.513 64.156C130.216 64.156 130.857 64.1147 131.435 64.032C132.014 63.908 132.572 63.7633 133.109 63.598L133.977 67.752C133.192 68.0413 132.324 68.248 131.373 68.372C130.464 68.5373 129.493 68.62 128.459 68.62ZM140.549 38.798L137.449 35.884C138.524 35.7187 139.537 35.3053 140.487 34.644C141.438 33.9827 141.913 33.032 141.913 31.792H147.307C147.307 33.0733 146.997 34.21 146.377 35.202C145.799 36.1527 144.993 36.938 143.959 37.558C142.926 38.1367 141.789 38.55 140.549 38.798ZM161.522 68.62C159.91 68.62 158.339 68.4547 156.81 68.124C155.322 67.7933 153.73 67.1733 152.036 66.264L153.772 62.048C154.681 62.5853 155.714 63.0607 156.872 63.474C158.029 63.846 159.372 64.032 160.902 64.032C163.96 64.032 166.337 62.916 168.032 60.684C169.768 58.4107 170.636 55.1453 170.636 50.888C170.636 46.7133 169.747 43.5307 167.97 41.34C166.234 39.108 163.547 37.992 159.91 37.992C158.587 37.992 157.244 38.1367 155.88 38.426C154.516 38.7153 153.317 39.1493 152.284 39.728V35.078C153.482 34.458 154.784 34.024 156.19 33.776C157.636 33.528 159.083 33.404 160.53 33.404C164.25 33.404 167.267 34.148 169.582 35.636C171.896 37.0827 173.591 39.108 174.666 41.712C175.74 44.316 176.278 47.3747 176.278 50.888C176.278 56.344 175.038 60.6633 172.558 63.846C170.119 67.0287 166.44 68.62 161.522 68.62ZM196.811 68.62C193.505 68.62 190.901 67.8553 188.999 66.326C187.139 64.7553 185.817 62.6473 185.031 60.002C184.287 57.3567 183.915 54.4427 183.915 51.26C183.915 47.7467 184.267 44.8533 184.969 42.58C185.713 40.2653 186.747 38.4467 188.069 37.124C189.433 35.76 191.045 34.8093 192.905 34.272C194.807 33.6933 196.894 33.404 199.167 33.404C202.474 33.404 205.161 33.9 207.227 34.892C209.335 35.8427 210.885 37.2067 211.877 38.984C212.869 40.7613 213.365 42.89 213.365 45.37V68H207.909V45.866C207.909 43.3033 207.269 41.3607 205.987 40.038C204.706 38.674 202.495 37.992 199.353 37.992C197.452 37.992 195.737 38.3433 194.207 39.046C192.719 39.7487 191.541 41.0507 190.673 42.952C189.847 44.8533 189.433 47.6433 189.433 51.322C189.433 53.7193 189.661 55.8893 190.115 57.832C190.611 59.7333 191.459 61.242 192.657 62.358C193.856 63.474 195.53 64.032 197.679 64.032C198.299 64.032 198.878 63.9907 199.415 63.908C199.953 63.8253 200.469 63.7013 200.965 63.536L201.523 67.814C200.862 68.1033 200.097 68.31 199.229 68.434C198.403 68.558 197.597 68.62 196.811 68.62ZM239.79 68.62C237.145 68.62 234.851 68.1033 232.908 67.07C231.007 65.9953 229.705 64.5073 229.002 62.606H228.754L228.444 68H223.918V34.024H229.436V53.678C229.436 55.7447 229.788 57.5633 230.49 59.134C231.234 60.6633 232.288 61.862 233.652 62.73C235.058 63.5567 236.732 63.97 238.674 63.97C241.113 63.97 242.932 63.3293 244.13 62.048C245.329 60.7667 245.928 58.886 245.928 56.406V34.024H251.446V56.778C251.446 59.506 250.971 61.738 250.02 63.474C249.111 65.21 247.788 66.512 246.052 67.38C244.316 68.2067 242.229 68.62 239.79 68.62ZM273.224 68.62C270.786 68.62 268.678 68.2067 266.9 67.38C265.164 66.512 263.821 65.21 262.87 63.474C261.961 61.738 261.506 59.4853 261.506 56.716V34.024H267.024V56.406C267.024 58.886 267.644 60.7667 268.884 62.048C270.166 63.3293 272.005 63.97 274.402 63.97C277.296 63.97 279.528 63.04 281.098 61.18C282.71 59.32 283.516 56.8193 283.516 53.678V34.024H289.034V68H284.446L284.198 62.978H283.888C283.144 64.6313 281.842 65.9953 279.982 67.07C278.164 68.1033 275.911 68.62 273.224 68.62ZM311.558 68.62C308.086 68.62 305.399 67.8347 303.498 66.264C301.596 64.652 300.274 62.482 299.53 59.754C298.786 56.9847 298.414 53.8433 298.414 50.33C298.414 46.2793 298.786 43.014 299.53 40.534C300.315 38.054 301.452 36.256 302.94 35.14C304.428 33.9827 306.246 33.404 308.396 33.404C309.842 33.404 311.062 33.652 312.054 34.148C313.087 34.644 313.81 35.4707 314.224 36.628H314.472C314.885 35.4293 315.629 34.6027 316.704 34.148C317.778 33.652 319.039 33.404 320.486 33.404C323.172 33.404 325.239 34.1273 326.686 35.574C328.174 36.9793 328.918 39.1493 328.918 42.084V68H323.4V42.146C323.4 40.534 323.048 39.4387 322.346 38.86C321.643 38.2813 320.754 37.992 319.68 37.992C318.481 37.992 317.592 38.2813 317.014 38.86C316.476 39.4387 316.146 40.3893 316.022 41.712H312.55C312.384 40.2653 311.95 39.294 311.248 38.798C310.545 38.2607 309.76 37.992 308.892 37.992C307.238 37.992 305.998 38.9633 305.172 40.906C304.345 42.8073 303.932 45.9693 303.932 50.392C303.932 53.244 304.138 55.6827 304.552 57.708C305.006 59.7333 305.833 61.304 307.032 62.42C308.23 63.4947 309.966 64.032 312.24 64.032C313.066 64.032 313.748 63.9907 314.286 63.908C314.823 63.8253 315.34 63.722 315.836 63.598L316.394 67.814C315.774 68.1033 315.03 68.31 314.162 68.434C313.294 68.558 312.426 68.62 311.558 68.62ZM317.996 30.428C317.706 29.9733 317.479 29.3947 317.314 28.692C317.107 27.948 317.004 27.2247 317.004 26.522C317.004 25.654 317.19 24.848 317.562 24.104C317.934 23.3187 318.595 22.678 319.546 22.182C320.496 21.686 321.819 21.438 323.514 21.438H332.008V25.716H324.94C324.113 25.716 323.452 25.8813 322.956 26.212C322.46 26.5013 322.212 27.018 322.212 27.762C322.212 28.0513 322.274 28.3613 322.398 28.692C322.48 29.0227 322.604 29.3533 322.77 29.684L317.996 30.428ZM346.634 68.62C345.518 68.62 344.443 68.434 343.41 68.062C342.376 67.69 341.529 67.0287 340.868 66.078C340.206 65.1273 339.876 63.8047 339.876 62.11V34.024H345.394V61.428C345.394 62.3787 345.6 63.0607 346.014 63.474C346.427 63.8873 347.088 64.094 347.998 64.094C348.37 64.094 348.762 64.0527 349.176 63.97C349.589 63.8873 349.982 63.784 350.354 63.66L351.098 67.69C350.312 68.062 349.548 68.31 348.804 68.434C348.06 68.558 347.336 68.62 346.634 68.62ZM376.528 68V45.37C376.528 42.6833 375.908 40.782 374.668 39.666C373.469 38.5087 371.444 37.93 368.592 37.93C366.525 37.93 364.541 38.2193 362.64 38.798C360.78 39.3353 359.002 40.1 357.308 41.092V35.946C358.506 35.326 360.118 34.7473 362.144 34.21C364.21 33.6727 366.525 33.404 369.088 33.404C371.278 33.404 373.138 33.652 374.668 34.148C376.238 34.644 377.396 35.5533 378.14 36.876C379.586 37.5373 380.578 38.5707 381.116 39.976C381.694 41.3813 381.984 43.076 381.984 45.06V68H376.528ZM365.864 68.62C362.226 68.62 359.436 67.7933 357.494 66.14C355.592 64.4453 354.642 62.0273 354.642 58.886C354.642 55.4553 355.882 52.81 358.362 50.95C360.883 49.09 364.954 47.9947 370.576 47.664L377.644 47.23V51.818L371.32 52.252C367.104 52.5413 364.19 53.2027 362.578 54.236C361.007 55.2693 360.222 56.778 360.222 58.762C360.222 60.622 360.8 61.986 361.958 62.854C363.156 63.722 364.81 64.156 366.918 64.156C367.62 64.156 368.261 64.1147 368.84 64.032C369.418 63.908 369.976 63.7633 370.514 63.598L371.382 67.752C370.596 68.0413 369.728 68.248 368.778 68.372C367.868 68.5373 366.897 68.62 365.864 68.62ZM377.954 38.798L374.854 35.884C375.928 35.7187 376.941 35.3053 377.892 34.644C378.842 33.9827 379.318 33.032 379.318 31.792H384.712C384.712 33.0733 384.402 34.21 383.782 35.202C383.203 36.1527 382.397 36.938 381.364 37.558C380.33 38.1367 379.194 38.55 377.954 38.798ZM401.654 68.62C399.215 68.62 396.942 68.3927 394.834 67.938C392.767 67.442 391.011 66.8633 389.564 66.202L391.176 61.738C392.044 62.0687 393.036 62.42 394.152 62.792C395.268 63.164 396.467 63.474 397.748 63.722C399.071 63.9287 400.414 64.032 401.778 64.032C403.969 64.032 405.787 63.6187 407.234 62.792C408.681 61.9653 409.404 60.7667 409.404 59.196C409.404 58.2453 409.135 57.4393 408.598 56.778C408.102 56.0753 407.317 55.4347 406.242 54.856C405.167 54.2773 403.783 53.7193 402.088 53.182C399.484 52.3553 397.273 51.4873 395.454 50.578C393.677 49.6273 392.313 48.5113 391.362 47.23C390.453 45.9073 389.998 44.2747 389.998 42.332C389.998 40.596 390.453 39.0667 391.362 37.744C392.313 36.38 393.759 35.326 395.702 34.582C397.686 33.7967 400.207 33.404 403.266 33.404C405.25 33.404 407.11 33.59 408.846 33.962C410.623 34.2927 412.008 34.768 413 35.388V40.038C412.297 39.7073 411.409 39.3767 410.334 39.046C409.301 38.7153 408.164 38.4467 406.924 38.24C405.684 38.0333 404.403 37.93 403.08 37.93C400.311 37.93 398.347 38.364 397.19 39.232C396.074 40.0587 395.516 41.0093 395.516 42.084C395.516 42.9933 395.764 43.758 396.26 44.378C396.797 44.998 397.686 45.5973 398.926 46.176C400.207 46.7547 401.923 47.416 404.072 48.16C406.056 48.8213 407.875 49.586 409.528 50.454C411.181 51.322 412.483 52.4173 413.434 53.74C414.426 55.0213 414.922 56.6747 414.922 58.7C414.922 60.436 414.488 62.0687 413.62 63.598C412.793 65.086 411.409 66.3053 409.466 67.256C407.523 68.1653 404.919 68.62 401.654 68.62ZM388.517 28.63V26.212L393.043 24.228H414.867V28.63H388.517ZM438.747 68.62C436.102 68.62 433.808 68.1033 431.865 67.07C429.964 65.9953 428.662 64.5073 427.959 62.606H427.711L427.401 68H422.875V34.024H428.393V53.678C428.393 55.7447 428.745 57.5633 429.447 59.134C430.191 60.6633 431.245 61.862 432.609 62.73C434.015 63.5567 435.689 63.97 437.631 63.97C440.07 63.97 441.889 63.3293 443.087 62.048C444.286 60.7667 444.885 58.886 444.885 56.406V34.024H450.403V56.778C450.403 59.506 449.928 61.738 448.977 63.474C448.068 65.21 446.745 66.512 445.009 67.38C443.273 68.2067 441.186 68.62 438.747 68.62ZM462.261 40.224V28.072C462.261 25.592 461.662 23.8147 460.463 22.74C459.306 21.6653 457.818 21.128 455.999 21.128V18.772L460.587 16.788H477.141V21.128H464.555L464.493 21.376C465.403 21.996 466.167 22.9467 466.787 24.228C467.449 25.468 467.779 27.1007 467.779 29.126V40.224H462.261ZM469.019 68.62C467.903 68.62 466.829 68.434 465.795 68.062C464.762 67.69 463.915 67.0287 463.253 66.078C462.592 65.1273 462.261 63.8047 462.261 62.11V34.024H467.779V61.428C467.779 62.3787 467.986 63.0607 468.399 63.474C468.813 63.8873 469.474 64.094 470.383 64.094C470.755 64.094 471.148 64.0527 471.561 63.97C471.975 63.8873 472.367 63.784 472.739 63.66L473.483 67.69C472.698 68.062 471.933 68.31 471.189 68.434C470.445 68.558 469.722 68.62 469.019 68.62ZM490.837 68.62C486.91 68.62 483.872 67.69 481.723 65.83C479.615 63.9287 478.561 61.0973 478.561 57.336V53.554C478.561 51.4873 478.85 49.8547 479.429 48.656C480.008 47.4573 480.628 46.424 481.289 45.556C481.992 44.6053 482.591 43.7787 483.087 43.076C483.624 42.3733 483.893 41.526 483.893 40.534C483.893 39.666 483.666 39.046 483.211 38.674C482.798 38.302 482.26 38.116 481.599 38.116C481.103 38.116 480.566 38.1987 479.987 38.364C479.45 38.5293 478.912 38.736 478.375 38.984L477.135 35.016C477.879 34.52 478.788 34.1687 479.863 33.962C480.979 33.7553 481.95 33.652 482.777 33.652C484.306 33.652 485.526 33.9207 486.435 34.458C487.386 34.9953 488.068 35.7393 488.481 36.69C488.894 37.5993 489.101 38.674 489.101 39.914C489.101 41.4433 488.832 42.704 488.295 43.696C487.799 44.688 487.2 45.6593 486.497 46.61C485.794 47.6433 485.216 48.6353 484.761 49.586C484.306 50.5367 484.079 51.7767 484.079 53.306V56.964C484.079 58.8653 484.389 60.3327 485.009 61.366C485.629 62.3993 486.456 63.1227 487.489 63.536C488.522 63.908 489.638 64.094 490.837 64.094C492.904 64.094 494.474 63.6187 495.549 62.668C496.624 61.676 497.161 60.1673 497.161 58.142V49.462C497.161 47.9327 496.81 46.7753 496.107 45.99C495.404 45.1633 494.268 44.75 492.697 44.75H492.449V41.216H492.759C494.454 41.216 495.652 40.8233 496.355 40.038C497.058 39.2527 497.471 38.302 497.595 37.186C497.76 36.0287 497.843 34.9747 497.843 34.024H503.361C503.361 36.2147 503.092 38.0747 502.555 39.604C502.018 41.1333 500.798 42.2493 498.897 42.952V43.2C500.054 43.4893 500.881 43.9853 501.377 44.688C501.914 45.3493 502.266 46.114 502.431 46.982C502.596 47.8087 502.679 48.6147 502.679 49.4V58.452C502.679 61.6347 501.687 64.1353 499.703 65.954C497.719 67.7313 494.764 68.62 490.837 68.62ZM512.897 68V46.3C512.897 42.1253 514.013 38.9427 516.245 36.752C518.477 34.52 522.032 33.404 526.909 33.404C531.828 33.404 535.382 34.52 537.573 36.752C539.805 38.9427 540.921 42.1253 540.921 46.3V68H535.403V46.3C535.403 43.5307 534.68 41.464 533.233 40.1C531.786 38.6947 529.658 37.992 526.847 37.992C524.078 37.992 521.97 38.6947 520.523 40.1C519.118 41.464 518.415 43.5307 518.415 46.3V53.182L518.601 53.244C519.51 51.632 520.626 50.578 521.949 50.082C523.272 49.5447 525.132 49.276 527.529 49.276H529.575V53.802H527.529C525.008 53.802 523.086 54.1533 521.763 54.856C520.482 55.5587 519.593 56.4887 519.097 57.646C518.642 58.762 518.415 60.0227 518.415 61.428V68H512.897Z" fill="white"/>
<defs>
<linearGradient id="paint0_linear_510_304" x1="293.5" y1="5" x2="293.5" y2="89" gradientUnits="userSpaceOnUse">
<stop stop-color="#AD422A"/>
<stop offset="1" stop-color="#D9D9D9" stop-opacity="0"/>
</linearGradient>
</defs>
</svg>
