<svg width="1536" height="834" viewBox="0 0 1536 834" fill="none" xmlns="http://www.w3.org/2000/svg">
<mask id="mask0_748_281" style="mask-type:luminance" maskUnits="userSpaceOnUse" x="-60" y="-41" width="430" height="430">
<path d="M-59.0769 -41H369.861V388.333H-59.0769V-41Z" fill="white"/>
</mask>
<g mask="url(#mask0_748_281)">
<path d="M160.552 74.078C160.881 77.0676 161.33 80.0364 161.908 82.9843C162.487 85.9374 163.191 88.8593 164.015 91.7499C164.839 94.6405 165.788 97.4895 166.852 100.302C167.921 103.115 169.105 105.875 170.404 108.588C171.708 111.297 173.121 113.948 174.644 116.542C176.172 119.13 177.799 121.656 179.541 124.109C181.277 126.562 183.118 128.937 185.058 131.234C186.998 133.536 189.032 135.745 191.16 137.87C193.288 140 195.499 142.031 197.799 143.969C200.099 145.906 202.477 147.745 204.933 149.484C207.389 151.224 209.914 152.854 212.505 154.375C215.097 155.901 217.752 157.312 220.464 158.615C223.181 159.911 225.94 161.099 228.756 162.161C231.567 163.229 234.419 164.172 237.314 165C240.208 165.823 243.129 166.526 246.086 167.104C249.037 167.682 252.01 168.13 254.998 168.458C293.147 172.26 331.389 174 369.726 173.687C331.389 173.37 293.147 175.115 254.998 178.911C252.01 179.24 249.037 179.693 246.086 180.271C243.129 180.844 240.208 181.547 237.314 182.375C234.419 183.198 231.567 184.141 228.756 185.208C225.94 186.276 223.181 187.458 220.464 188.76C217.752 190.057 215.097 191.469 212.505 192.995C209.914 194.521 207.389 196.151 204.933 197.885C202.477 199.625 200.099 201.463 197.799 203.401C195.504 205.344 193.288 207.375 191.16 209.5C189.032 211.625 186.998 213.838 185.058 216.135C183.118 218.432 181.277 220.807 179.541 223.266C177.804 225.719 176.172 228.24 174.644 230.833C173.121 233.422 171.708 236.073 170.404 238.786C169.105 241.495 167.921 244.26 166.852 247.068C165.788 249.88 164.839 252.729 164.015 255.625C163.191 258.516 162.487 261.437 161.908 264.385C161.33 267.338 160.881 270.307 160.552 273.297C156.751 311.417 155.009 349.635 155.322 387.948C155.64 349.635 153.893 311.417 150.091 273.297C149.768 270.307 149.314 267.338 148.735 264.385C148.156 261.437 147.457 258.516 146.633 255.625C145.804 252.729 144.86 249.88 143.791 247.068C142.727 244.255 141.543 241.495 140.24 238.786C138.941 236.073 137.528 233.422 136.005 230.828C134.477 228.24 132.845 225.713 131.108 223.26C129.366 220.807 127.53 218.432 125.59 216.135C123.65 213.838 121.616 211.625 119.489 209.5C117.361 207.375 115.144 205.338 112.845 203.401C110.545 201.463 108.172 199.625 105.716 197.885C103.259 196.146 100.735 194.516 98.1432 192.995C95.5461 191.469 92.8968 190.057 90.1849 188.755C87.4678 187.458 84.7038 186.271 81.8929 185.208C79.0819 184.141 76.2293 183.193 73.3349 182.37C70.4405 181.547 67.52 180.844 64.563 180.266C61.6113 179.687 58.6387 179.234 55.6504 178.911C17.5018 175.109 -20.7406 173.37 -59.0769 173.682C-20.7406 174 17.5018 172.255 55.6504 168.458C58.6387 168.13 61.6113 167.677 64.563 167.099C67.5148 166.521 70.4405 165.823 73.3349 164.995C76.224 164.172 79.0819 163.224 81.8929 162.161C84.7038 161.094 87.4678 159.911 90.1797 158.609C92.8968 157.312 95.5461 155.901 98.1432 154.375C100.735 152.849 103.259 151.219 105.716 149.484C108.167 147.745 110.545 145.906 112.845 143.969C115.144 142.026 117.361 139.995 119.489 137.87C121.611 135.745 123.645 133.531 125.585 131.234C127.525 128.937 129.366 126.562 131.108 124.109C132.845 121.651 134.477 119.13 136 116.542C137.528 113.948 138.941 111.297 140.24 108.583C141.543 105.875 142.727 103.115 143.791 100.302C144.86 97.4895 145.804 94.6405 146.628 91.7499C147.457 88.8593 148.156 85.9374 148.735 82.9843C149.314 80.0364 149.768 77.0676 150.091 74.078C153.893 35.953 155.64 -2.26571 155.322 -40.573C155.009 -2.26571 156.751 35.953 160.552 74.078Z" fill="#FFDA7A"/>
</g>
<mask id="mask1_748_281" style="mask-type:luminance" maskUnits="userSpaceOnUse" x="288" y="173" width="218" height="219">
<path d="M288.422 173.667H505.657V391H288.422V173.667Z" fill="white"/>
</mask>
<g mask="url(#mask1_748_281)">
<path d="M399.921 231.703C400.088 233.214 400.317 234.719 400.61 236.214C400.902 237.703 401.256 239.183 401.673 240.646C402.091 242.11 402.57 243.552 403.113 244.974C403.65 246.396 404.25 247.792 404.907 249.167C405.564 250.537 406.284 251.881 407.055 253.193C407.827 254.506 408.651 255.782 409.533 257.021C410.409 258.261 411.342 259.464 412.323 260.631C413.303 261.792 414.336 262.912 415.41 263.985C416.49 265.063 417.606 266.089 418.774 267.073C419.937 268.052 421.136 268.985 422.383 269.865C423.624 270.74 424.902 271.568 426.211 272.339C427.525 273.11 428.865 273.823 430.242 274.485C431.613 275.141 433.011 275.74 434.435 276.276C435.859 276.818 437.303 277.297 438.769 277.714C440.229 278.131 441.71 278.485 443.201 278.776C444.698 279.073 446.2 279.302 447.718 279.464C467.019 281.386 486.372 282.266 505.772 282.11C486.372 281.953 467.019 282.834 447.718 284.756C446.2 284.917 444.698 285.146 443.201 285.438C441.71 285.729 440.229 286.089 438.769 286.506C437.303 286.922 435.859 287.401 434.435 287.938C433.011 288.479 431.613 289.078 430.242 289.735C428.865 290.391 427.525 291.11 426.211 291.881C424.902 292.651 423.624 293.474 422.383 294.354C421.136 295.235 419.937 296.167 418.774 297.146C417.606 298.125 416.49 299.157 415.41 300.229C414.336 301.308 413.303 302.427 412.323 303.589C411.342 304.756 410.409 305.953 409.533 307.198C408.651 308.438 407.827 309.714 407.055 311.026C406.284 312.339 405.564 313.677 404.907 315.052C404.25 316.422 403.65 317.823 403.113 319.245C402.57 320.667 402.091 322.11 401.673 323.573C401.256 325.037 400.902 326.516 400.61 328.006C400.317 329.5 400.088 331 399.921 332.516C397.997 351.808 397.115 371.146 397.277 390.537C397.434 371.146 396.552 351.808 394.628 332.516C394.461 331 394.231 329.5 393.939 328.006C393.647 326.511 393.293 325.037 392.876 323.573C392.458 322.11 391.979 320.667 391.441 319.245C390.899 317.823 390.299 316.422 389.642 315.052C388.985 313.677 388.271 312.339 387.499 311.026C386.727 309.714 385.898 308.438 385.022 307.198C384.14 305.953 383.207 304.75 382.226 303.589C381.246 302.427 380.213 301.308 379.139 300.229C378.065 299.157 376.943 298.125 375.78 297.146C374.617 296.167 373.413 295.235 372.172 294.354C370.925 293.474 369.647 292.651 368.338 291.881C367.024 291.11 365.684 290.391 364.307 289.735C362.936 289.078 361.538 288.479 360.114 287.938C358.69 287.401 357.246 286.922 355.786 286.506C354.32 286.089 352.839 285.729 351.348 285.438C349.851 285.146 348.349 284.917 346.836 284.756C327.53 282.834 308.177 281.953 288.777 282.11C308.177 282.266 327.53 281.386 346.836 279.464C348.349 279.302 349.851 279.073 351.348 278.782C352.839 278.485 354.32 278.131 355.786 277.714C357.246 277.297 358.69 276.818 360.114 276.276C361.538 275.74 362.936 275.141 364.307 274.485C365.684 273.823 367.024 273.11 368.338 272.339C369.647 271.568 370.925 270.745 372.172 269.865C373.413 268.985 374.617 268.052 375.78 267.073C376.943 266.089 378.065 265.063 379.139 263.985C380.213 262.912 381.246 261.792 382.226 260.631C383.207 259.464 384.14 258.266 385.022 257.021C385.898 255.782 386.727 254.506 387.499 253.193C388.271 251.881 388.985 250.537 389.642 249.167C390.299 247.797 390.899 246.396 391.441 244.974C391.979 243.552 392.458 242.11 392.876 240.646C393.293 239.183 393.647 237.703 393.939 236.214C394.231 234.719 394.461 233.214 394.628 231.703C396.557 212.412 397.444 193.073 397.288 173.683C397.126 193.068 398.002 212.412 399.921 231.703Z" fill="#FFDA7A"/>
</g>
<path d="M318.367 17.7393C318.571 19.5882 318.925 21.4111 319.436 23.1976C319.947 24.9893 320.605 26.7236 321.408 28.4007C322.216 30.0778 323.155 31.6768 324.234 33.1976C325.309 34.7184 326.503 36.1351 327.822 37.4476C329.142 38.7653 330.56 39.9632 332.078 41.0361C333.595 42.1143 335.196 43.0518 336.876 43.8591C338.555 44.6611 340.292 45.3226 342.08 45.833C343.874 46.3434 345.694 46.6976 347.546 46.9007C359.332 48.0726 371.149 48.6143 382.993 48.5153C371.149 48.4164 359.332 48.958 347.546 50.1299C345.694 50.333 343.874 50.6872 342.08 51.1976C340.292 51.708 338.555 52.3643 336.876 53.1716C335.196 53.9736 333.595 54.9164 332.078 55.9945C330.555 57.0674 329.136 58.2653 327.822 59.583C326.503 60.8955 325.309 62.3122 324.234 63.833C323.155 65.3539 322.216 66.9528 321.408 68.6299C320.605 70.307 319.947 72.0414 319.436 73.833C318.925 75.6195 318.565 77.4424 318.367 79.2914C317.194 91.0726 316.651 102.88 316.751 114.713C316.85 102.88 316.307 91.0726 315.134 79.2914C314.93 77.4424 314.576 75.6195 314.065 73.833C313.554 72.0414 312.897 70.307 312.088 68.6299C311.285 66.9528 310.341 65.3539 309.267 63.833C308.193 62.3122 306.993 60.8955 305.679 59.583C304.359 58.2653 302.941 57.0674 301.423 55.9945C299.901 54.9164 298.299 53.9736 296.62 53.1716C294.941 52.3643 293.21 51.708 291.416 51.1976C289.627 50.6872 287.801 50.333 285.95 50.1299C274.164 48.958 262.346 48.4164 250.503 48.5153C262.346 48.6143 274.164 48.0726 285.95 46.9007C287.801 46.6976 289.622 46.3434 291.416 45.8278C293.204 45.3174 294.941 44.6611 296.62 43.8538C298.299 43.0518 299.895 42.1091 301.418 41.0361C302.936 39.958 304.354 38.7653 305.668 37.4476C306.988 36.1299 308.182 34.7132 309.256 33.1924C310.336 31.6768 311.275 30.0778 312.078 28.4007C312.886 26.7236 313.543 24.9893 314.054 23.1976C314.565 21.4111 314.92 19.5882 315.123 17.7393C316.302 5.95801 316.844 -5.85449 316.751 -17.6982C316.651 -5.85449 317.189 5.95801 318.367 17.7393Z" fill="#FFDA7A"/>
<mask id="mask2_748_281" style="mask-type:luminance" maskUnits="userSpaceOnUse" x="1084" y="474" width="430" height="430">
<path d="M1084.41 474H1513.35V903.333H1084.41V474Z" fill="white"/>
</mask>
<g mask="url(#mask2_748_281)">
<path d="M1304.04 589.078C1304.37 592.068 1304.82 595.036 1305.4 597.984C1305.97 600.937 1306.68 603.859 1307.5 606.75C1308.33 609.641 1309.28 612.49 1310.34 615.302C1311.41 618.115 1312.59 620.875 1313.89 623.588C1315.19 626.297 1316.61 628.948 1318.13 631.542C1319.66 634.13 1321.29 636.656 1323.03 639.109C1324.76 641.562 1326.61 643.937 1328.55 646.234C1330.49 648.536 1332.52 650.745 1334.65 652.87C1336.77 655 1338.99 657.031 1341.29 658.969C1343.59 660.906 1345.96 662.745 1348.42 664.484C1350.88 666.224 1353.4 667.854 1355.99 669.375C1358.58 670.901 1361.24 672.312 1363.95 673.615C1366.67 674.911 1369.43 676.099 1372.24 677.161C1375.05 678.229 1377.91 679.172 1380.8 680C1383.7 680.823 1386.62 681.526 1389.57 682.104C1392.52 682.682 1395.5 683.13 1398.49 683.458C1436.63 687.26 1474.88 689 1513.21 688.687C1474.88 688.37 1436.63 690.115 1398.49 693.911C1395.5 694.24 1392.52 694.693 1389.57 695.271C1386.62 695.844 1383.7 696.547 1380.8 697.375C1377.91 698.198 1375.05 699.141 1372.24 700.208C1369.43 701.276 1366.67 702.458 1363.95 703.76C1361.24 705.057 1358.58 706.469 1355.99 707.995C1353.4 709.521 1350.88 711.151 1348.42 712.885C1345.96 714.625 1343.59 716.463 1341.29 718.401C1338.99 720.344 1336.77 722.375 1334.65 724.5C1332.52 726.625 1330.49 728.838 1328.55 731.135C1326.61 733.432 1324.76 735.807 1323.03 738.266C1321.29 740.719 1319.66 743.24 1318.13 745.833C1316.61 748.422 1315.19 751.073 1313.89 753.786C1312.59 756.495 1311.41 759.26 1310.34 762.068C1309.28 764.88 1308.33 767.729 1307.5 770.625C1306.68 773.516 1305.97 776.437 1305.4 779.385C1304.82 782.338 1304.37 785.307 1304.04 788.297C1300.24 826.417 1298.5 864.635 1298.81 902.948C1299.13 864.635 1297.38 826.417 1293.58 788.297C1293.25 785.307 1292.8 782.338 1292.22 779.385C1291.64 776.437 1290.94 773.516 1290.12 770.625C1289.29 767.729 1288.35 764.88 1287.28 762.068C1286.21 759.255 1285.03 756.495 1283.73 753.786C1282.43 751.073 1281.01 748.422 1279.49 745.828C1277.96 743.24 1276.33 740.713 1274.59 738.26C1272.85 735.807 1271.02 733.432 1269.08 731.135C1267.14 728.838 1265.1 726.625 1262.98 724.5C1260.85 722.375 1258.63 720.338 1256.33 718.401C1254.03 716.463 1251.66 714.625 1249.2 712.885C1246.75 711.146 1244.22 709.516 1241.63 707.995C1239.03 706.469 1236.38 705.057 1233.67 703.755C1230.95 702.458 1228.19 701.271 1225.38 700.208C1222.57 699.141 1219.72 698.193 1216.82 697.37C1213.93 696.547 1211.01 695.844 1208.05 695.266C1205.1 694.687 1202.13 694.234 1199.14 693.911C1160.99 690.109 1122.75 688.37 1084.41 688.682C1122.75 689 1160.99 687.255 1199.14 683.458C1202.13 683.13 1205.1 682.677 1208.05 682.099C1211 681.521 1213.93 680.823 1216.82 679.995C1219.71 679.172 1222.57 678.224 1225.38 677.161C1228.19 676.094 1230.95 674.911 1233.67 673.609C1236.38 672.312 1239.03 670.901 1241.63 669.375C1244.22 667.849 1246.75 666.219 1249.2 664.484C1251.65 662.745 1254.03 660.906 1256.33 658.969C1258.63 657.026 1260.85 654.995 1262.98 652.87C1265.1 650.745 1267.13 648.531 1269.07 646.234C1271.01 643.937 1272.85 641.562 1274.59 639.109C1276.33 636.651 1277.96 634.13 1279.49 631.542C1281.01 628.948 1282.43 626.297 1283.73 623.583C1285.03 620.875 1286.21 618.115 1287.28 615.302C1288.35 612.49 1289.29 609.641 1290.12 606.75C1290.94 603.859 1291.64 600.937 1292.22 597.984C1292.8 595.036 1293.25 592.068 1293.58 589.078C1297.38 550.953 1299.13 512.734 1298.81 474.427C1298.5 512.734 1300.24 550.953 1304.04 589.078Z" fill="#FFDA7A"/>
</g>
<mask id="mask3_748_281" style="mask-type:luminance" maskUnits="userSpaceOnUse" x="1431" y="688" width="219" height="219">
<path d="M1431.91 688.667H1649.14V906H1431.91V688.667Z" fill="white"/>
</mask>
<g mask="url(#mask3_748_281)">
<path d="M1543.41 746.703C1543.57 748.214 1543.8 749.719 1544.1 751.214C1544.39 752.703 1544.74 754.183 1545.16 755.646C1545.58 757.11 1546.06 758.552 1546.6 759.974C1547.14 761.396 1547.74 762.792 1548.39 764.167C1549.05 765.537 1549.77 766.881 1550.54 768.193C1551.31 769.506 1552.14 770.782 1553.02 772.021C1553.9 773.261 1554.83 774.464 1555.81 775.631C1556.79 776.792 1557.82 777.912 1558.9 778.985C1559.98 780.063 1561.09 781.089 1562.26 782.073C1563.42 783.052 1564.62 783.985 1565.87 784.865C1567.11 785.74 1568.39 786.568 1569.7 787.339C1571.01 788.11 1572.35 788.823 1573.73 789.485C1575.1 790.141 1576.5 790.74 1577.92 791.276C1579.35 791.818 1580.79 792.297 1582.26 792.714C1583.72 793.131 1585.2 793.485 1586.69 793.776C1588.18 794.073 1589.69 794.302 1591.2 794.464C1610.51 796.386 1629.86 797.266 1649.26 797.11C1629.86 796.953 1610.51 797.834 1591.2 799.756C1589.69 799.917 1588.18 800.146 1586.69 800.438C1585.2 800.729 1583.72 801.089 1582.26 801.506C1580.79 801.922 1579.35 802.401 1577.92 802.938C1576.5 803.479 1575.1 804.078 1573.73 804.735C1572.35 805.391 1571.01 806.11 1569.7 806.881C1568.39 807.651 1567.11 808.474 1565.87 809.354C1564.62 810.235 1563.42 811.167 1562.26 812.146C1561.09 813.125 1559.98 814.157 1558.9 815.229C1557.82 816.308 1556.79 817.427 1555.81 818.589C1554.83 819.756 1553.9 820.953 1553.02 822.198C1552.14 823.438 1551.31 824.714 1550.54 826.026C1549.77 827.339 1549.05 828.677 1548.39 830.052C1547.74 831.422 1547.14 832.823 1546.6 834.245C1546.06 835.667 1545.58 837.11 1545.16 838.573C1544.74 840.037 1544.39 841.516 1544.1 843.006C1543.8 844.5 1543.57 846 1543.41 847.516C1541.48 866.808 1540.6 886.146 1540.76 905.537C1540.92 886.146 1540.04 866.808 1538.11 847.516C1537.95 846 1537.72 844.5 1537.43 843.006C1537.13 841.511 1536.78 840.037 1536.36 838.573C1535.94 837.11 1535.47 835.667 1534.93 834.245C1534.39 832.823 1533.79 831.422 1533.13 830.052C1532.47 828.677 1531.76 827.339 1530.99 826.026C1530.21 824.714 1529.38 823.438 1528.51 822.198C1527.63 820.953 1526.69 819.75 1525.71 818.589C1524.73 817.427 1523.7 816.308 1522.63 815.229C1521.55 814.157 1520.43 813.125 1519.27 812.146C1518.1 811.167 1516.9 810.235 1515.66 809.354C1514.41 808.474 1513.13 807.651 1511.82 806.881C1510.51 806.11 1509.17 805.391 1507.79 804.735C1506.42 804.078 1505.02 803.479 1503.6 802.938C1502.18 802.401 1500.73 801.922 1499.27 801.506C1497.81 801.089 1496.33 800.729 1494.83 800.438C1493.34 800.146 1491.84 799.917 1490.32 799.756C1471.02 797.834 1451.66 796.953 1432.26 797.11C1451.66 797.266 1471.02 796.386 1490.32 794.464C1491.84 794.302 1493.34 794.073 1494.83 793.782C1496.33 793.485 1497.81 793.131 1499.27 792.714C1500.73 792.297 1502.18 791.818 1503.6 791.276C1505.02 790.74 1506.42 790.141 1507.79 789.485C1509.17 788.823 1510.51 788.11 1511.82 787.339C1513.13 786.568 1514.41 785.745 1515.66 784.865C1516.9 783.985 1518.1 783.052 1519.27 782.073C1520.43 781.089 1521.55 780.063 1522.63 778.985C1523.7 777.912 1524.73 776.792 1525.71 775.631C1526.69 774.464 1527.63 773.266 1528.51 772.021C1529.38 770.782 1530.21 769.506 1530.99 768.193C1531.76 766.881 1532.47 765.537 1533.13 764.167C1533.79 762.797 1534.39 761.396 1534.93 759.974C1535.47 758.552 1535.94 757.11 1536.36 755.646C1536.78 754.183 1537.13 752.703 1537.43 751.214C1537.72 749.719 1537.95 748.214 1538.11 746.703C1540.04 727.412 1540.93 708.073 1540.77 688.683C1540.61 708.068 1541.49 727.412 1543.41 746.703Z" fill="#FFDA7A"/>
</g>
<path d="M1461.85 532.739C1462.06 534.588 1462.41 536.411 1462.92 538.198C1463.43 539.989 1464.09 541.724 1464.89 543.401C1465.7 545.078 1466.64 546.677 1467.72 548.198C1468.8 549.718 1469.99 551.135 1471.31 552.448C1472.63 553.765 1474.05 554.963 1475.57 556.036C1477.08 557.114 1478.68 558.052 1480.36 558.859C1482.04 559.661 1483.78 560.323 1485.57 560.833C1487.36 561.343 1489.18 561.698 1491.03 561.901C1502.82 563.073 1514.64 563.614 1526.48 563.515C1514.64 563.416 1502.82 563.958 1491.03 565.13C1489.18 565.333 1487.36 565.687 1485.57 566.198C1483.78 566.708 1482.04 567.364 1480.36 568.172C1478.68 568.974 1477.08 569.916 1475.57 570.994C1474.04 572.067 1472.62 573.265 1471.31 574.583C1469.99 575.896 1468.8 577.312 1467.72 578.833C1466.64 580.354 1465.7 581.953 1464.89 583.63C1464.09 585.307 1463.43 587.041 1462.92 588.833C1462.41 590.619 1462.05 592.442 1461.85 594.291C1460.68 606.073 1460.14 617.88 1460.24 629.713C1460.34 617.88 1459.79 606.073 1458.62 594.291C1458.42 592.442 1458.06 590.619 1457.55 588.833C1457.04 587.041 1456.38 585.307 1455.58 583.63C1454.77 581.953 1453.83 580.354 1452.75 578.833C1451.68 577.312 1450.48 575.896 1449.17 574.583C1447.85 573.265 1446.43 572.067 1444.91 570.994C1443.39 569.916 1441.79 568.974 1440.11 568.172C1438.43 567.364 1436.7 566.708 1434.9 566.198C1433.11 565.687 1431.29 565.333 1429.44 565.13C1417.65 563.958 1405.83 563.416 1393.99 563.515C1405.83 563.614 1417.65 563.073 1429.44 561.901C1431.29 561.698 1433.11 561.343 1434.9 560.828C1436.69 560.317 1438.43 559.661 1440.11 558.854C1441.79 558.052 1443.38 557.109 1444.91 556.036C1446.42 554.958 1447.84 553.765 1449.16 552.448C1450.48 551.13 1451.67 549.713 1452.74 548.192C1453.82 546.677 1454.76 545.078 1455.57 543.401C1456.37 541.724 1457.03 539.989 1457.54 538.198C1458.05 536.411 1458.41 534.588 1458.61 532.739C1459.79 520.958 1460.33 509.146 1460.24 497.302C1460.14 509.146 1460.68 520.958 1461.85 532.739Z" fill="#FFDA7A"/>
</svg>
