<svg width="1249" height="316" viewBox="0 0 1249 316" fill="none" xmlns="http://www.w3.org/2000/svg">
<path d="M79.4551 281.888C80.2572 272.773 77.7103 262.419 74.1426 254.07C69.2728 242.679 53.6635 219.731 40.1478 225.507C25.1739 231.908 15.6791 249.289 18.752 264.903C19.2989 267.648 22.5697 269.07 25.6166 267.768C34.0957 264.143 35.752 252.617 37.5385 245.429C41.0228 244.414 48.6322 260.747 52.1426 268.961C55.2051 276.117 62.9968 299.112 57.9603 301.268C54.9135 302.57 51.8145 300.445 44.5124 296.2C38.1322 301.44 35.8041 303.69 37.502 307.664C40.1114 313.757 47.8457 314.992 54.2051 312.273C66.7937 306.893 79.252 296.08 79.4551 281.888Z" fill="#FF8C22" fill-opacity="0.4"/>
<path d="M46.7542 198.079C50.1864 188.147 60.9781 160.97 40.3114 169.803C36.2021 171.564 32.5302 174.699 30.9521 179.449C28.9052 186.751 25.9052 196.965 24.5771 200.824C22.3687 195.657 17.9417 191.907 11.7177 194.569C6.68124 196.72 4.67082 201.184 8.01457 209.001C12.9989 220.663 24.4104 216.564 33.2906 212.767C40.1812 209.824 44.3635 204.585 46.7542 198.079Z" fill="#FF8C22" fill-opacity="0.4"/>
<path d="M110.264 279.265C117.79 276.765 122.571 268.978 126.191 263.015L126.056 263.067L126.139 262.879C126.243 263.15 126.712 263.588 126.952 263.806C131.879 270.426 137.837 277.739 146.077 274.666C157.144 270.535 163.254 258.874 159.827 249.692C156.754 241.457 149.509 237.702 139.571 239.103L134.467 225.015C130.587 214.619 123.618 195.53 116.191 198.301C110.926 200.27 103.749 207.405 104.769 211.796C109.129 226.775 115.707 239.858 120.743 253.358C121.098 254.301 118.879 257.436 115.4 262.119L109.301 245.785C105.17 234.713 94.7225 208.775 83.2485 213.056C77.1704 215.327 63.3006 230.499 73.0923 234.072C76.8267 232.53 79.2746 229.614 80.9152 227.004C84.7538 231.108 87.2381 236.947 89.3058 242.483L92.9829 252.338C94.8996 257.468 103.363 281.379 110.264 279.265ZM148.16 256.353C149.17 259.051 148.41 260.723 147.358 262.035C145.019 259.061 143.728 256.009 141.946 252.061C141.795 251.655 141.78 251.197 141.894 250.692C144.509 251.103 146.853 252.843 148.16 256.353Z" fill="#FF8C22" fill-opacity="0.4"/>
<path d="M182.173 253.596C189.819 251.497 195.011 243.976 198.938 238.211L198.803 238.258L198.897 238.075C198.98 238.351 199.428 238.815 199.652 239.044C204.225 245.914 209.793 253.534 218.178 250.898C229.449 247.362 236.168 236.039 233.23 226.69C230.6 218.304 223.558 214.169 213.563 215.044L209.209 200.7C205.886 190.117 199.938 170.685 192.376 173.06C187.017 174.747 179.47 181.497 180.256 185.929C183.819 201.122 189.694 214.534 194.006 228.284C194.308 229.242 191.933 232.258 188.209 236.747L182.985 220.112C179.444 208.841 170.381 182.383 158.699 186.054C152.511 187.997 137.855 202.414 147.449 206.502C151.251 205.153 153.855 202.377 155.631 199.856C159.246 204.159 161.423 210.117 163.188 215.758L166.345 225.794C167.98 231.018 175.168 255.341 182.173 253.596ZM221.23 232.721C222.095 235.471 221.246 237.096 220.131 238.356C217.949 235.263 216.819 232.143 215.251 228.106C215.121 227.695 215.126 227.237 215.272 226.742C217.86 227.284 220.105 229.148 221.23 232.721Z" fill="#FF8C22" fill-opacity="0.4"/>
<path d="M171.386 135.55C165.188 135.534 159.667 135.758 153.896 137.57C144.823 140.419 135.584 149.966 138.563 159.451C141.886 170.034 156.667 166.602 168.354 162.935C180.042 159.263 200.261 144.305 195.516 129.185C192.016 118.044 189.636 110.94 180.12 112.872C167.61 116.8 169.12 124.482 171.386 135.55ZM160.162 157.05C156.589 158.169 154.667 155.904 154.193 154.393C152.943 150.404 154.464 146.602 158.177 145.435C160.104 144.831 167.854 144.513 171.401 147.628C169.464 151.56 164.011 155.841 160.162 157.05Z" fill="#FF8C22" fill-opacity="0.4"/>
<path d="M150.167 82.4036C143.292 84.5598 135.161 93.3046 137.234 99.9036C138.875 105.128 145.099 103.779 148.672 102.659C151.833 101.664 153.104 99.4557 153.734 97.1432C154.396 101.164 153.911 105.393 155.25 109.654C157.406 116.529 167.995 113.206 172.255 111.867C182.427 108.674 198.328 85.7057 200.818 71.0286C195.87 69.7109 190.026 70.3411 187.141 71.2473C180.953 73.19 174.484 83.3775 169.656 91.0859C164.838 82.4765 160.203 79.2525 150.167 82.4036Z" fill="#FF8C22" fill-opacity="0.4"/>
<path d="M266.77 201.444C273.436 226.955 273.832 238.173 280.316 236.777C284.988 235.856 289.863 233.986 294.124 230.34C292.462 218.267 290.822 208.564 288.202 198.527C283.03 178.731 271.186 145.335 245.53 152.033C221.129 158.402 225.931 186.491 230.665 204.616C233.577 215.767 237.665 225.72 240.499 232.58C242.509 237.413 243.16 239.923 249.296 238.324C250.967 237.887 252.848 237.095 255.212 235.887C258.379 234.314 258.801 231.371 258.671 225.746C258.53 205.231 256.462 188.199 260.504 187.142C263.139 188.095 265.9 198.095 266.77 201.444ZM244.921 160.533C251.197 158.892 256.832 166.803 261.082 178.501C252.9 178.553 247.832 188.22 245.868 194.392C244.707 187.095 237.53 162.46 244.921 160.533Z" fill="#FF8C22" fill-opacity="0.4"/>
<path d="M308.95 281.422C308.424 277.688 307.83 274.271 306.919 270.787C304.372 261.026 296.007 243.256 282.065 246.896C273.976 249.006 262.351 256.954 263.445 261.136C263.919 262.948 266.851 262.782 270.617 261.797C273.544 261.032 276.679 259.917 279.117 258.985C279.69 260.62 279.367 259.959 280.971 266.094C282.981 274.355 287.138 290.844 297.591 288.115C301.08 287.204 304.658 285.521 308.95 281.422Z" fill="#FF8C22" fill-opacity="0.4"/>
<path d="M350.743 212.235C349.363 205.308 345.801 208.814 341.082 213.137C339.243 214.97 337.009 217.032 335.598 217.319C328.957 218.642 324.639 194.084 324.186 191.824C322.014 180.939 319.842 170.058 309.53 163.303C307.327 161.834 306.025 159.006 305.379 155.756C304.332 150.527 305.327 140.043 309.566 139.199C317.905 137.532 327.108 156.413 331.118 165.459C333.353 171.48 335.639 177.782 341.483 193.803C344.332 202.199 347.556 204.35 355.467 202.767C358.999 202.064 361.801 200.621 364.91 200.001C368.78 206.871 372.363 219.673 382.535 217.642C391.863 215.782 400.118 208.548 397.775 196.819C396.394 189.897 393.228 188.762 384.894 187.491C382.947 179.944 381.702 173.725 380.405 167.225C377.332 151.824 376.707 147.98 375.665 142.751C374.592 136.647 372.676 126.303 364.478 127.939C350.207 130.788 350.936 143.277 352.999 153.595C355.509 166.173 358.728 180.079 362.113 192.626C360.473 193.246 361.973 192.652 361.124 192.824C359.004 193.246 346.723 157.491 343.223 148.788C338.644 138.387 329.551 125.215 316.41 127.84C300.014 131.11 283.139 145.944 286.16 161.064C287.176 166.152 290.681 169.709 294.066 173.444C299.66 179.381 300.426 184.663 301.806 191.59C305.447 209.819 309.394 229.6 330.733 225.34C338.504 223.788 345.712 220.147 350.743 212.235Z" fill="#FF8C22" fill-opacity="0.4"/>
<path d="M435.483 193.145C434.905 195.124 430.879 201.4 429.744 198.655C425.707 182.207 423.405 165.655 420.744 147.691C418.994 135.863 415.874 123.65 409.176 124.639C395.494 126.665 396.624 141.212 398.442 153.467C402.134 178.415 404.593 213.738 423.692 210.915C433.817 209.415 448.088 202.494 446.332 190.665C446.124 189.238 444.489 188.025 441.494 188.468C437.786 189.014 436.634 191.082 435.869 192.796L435.483 193.145Z" fill="#FF8C22" fill-opacity="0.4"/>
<path d="M488.717 125.131C493.697 115.017 500.207 101.688 497.426 97.501C496.441 96.4489 492.926 96.1104 491.348 96.2822C479.457 97.5895 475.837 104.22 470.988 112.871C455.129 110.991 441.634 124.069 438.259 136.907C437.171 140.215 440.733 142.287 444.171 141.912C447.754 141.517 451.493 139.949 454.504 137.006C456.087 131.616 459.551 124.855 460.983 124.699C465.566 124.194 472.535 138.793 474.629 157.845C471.16 155.329 467.947 153.793 462.65 154.376C447.035 156.095 438.686 164.548 440.624 182.168C442.134 195.918 449.842 204.058 463.879 202.517C477.483 201.022 480.967 191.798 481.254 191.767C499.014 189.813 501.072 183.501 498.431 159.433C497.311 149.267 494.395 141.178 488.717 125.131ZM469.822 194.616C464.665 195.183 461.577 184.215 460.9 178.053C460.441 173.902 459.66 165.433 459.801 165.418C461.092 165.277 464.566 171.85 468.155 178.126C470.905 183.334 473.79 188.527 477.082 190.772C474.676 193.938 471.113 194.475 469.822 194.616Z" fill="#FF8C22" fill-opacity="0.4"/>
<path d="M463.667 75.26C457.589 74.0412 452.131 73.1923 446.115 73.8537C436.662 74.8902 425.756 82.4683 426.839 92.3537C428.053 103.38 443.22 102.875 455.391 101.536C467.569 100.197 490.303 89.4371 488.574 73.6819C487.298 62.0829 486.339 54.6506 476.631 54.6975C463.595 56.1298 463.584 63.9631 463.667 75.26ZM448.496 94.1767C444.772 94.5881 443.324 91.9892 443.152 90.4162C442.699 86.26 444.928 82.8277 448.798 82.4006C450.803 82.1819 458.47 83.3694 461.345 87.1142C458.683 90.5933 452.506 93.7339 448.496 94.1767Z" fill="#FF8C22" fill-opacity="0.4"/>
<path d="M480.714 23.2287C479.959 15.0464 478.87 5.16619 466.839 6.4891C456.813 7.58806 455.803 12.9162 456.954 23.3745C458.198 34.6922 460.224 53.1662 469.105 52.1922C482 50.7756 481.646 40.9579 480.714 23.2287Z" fill="#FF8C22" fill-opacity="0.4"/>
<path d="M561.164 100.634C557.804 99.9781 556.507 100.056 555.216 100.14C549.034 100.53 543.101 102.634 543.362 111.426C543.705 121.509 544.195 131.587 544.685 141.66C545.174 151.739 545.794 161.66 546.143 171.744C546.242 177.947 545.534 189.686 543.81 189.796C541.653 189.931 538.763 183.041 538.382 176.999C537.877 168.942 542.049 161.754 543.909 154.561C534.278 148.379 521.862 143.817 521.049 130.874C520.867 127.999 521.695 125.056 523.284 122.791C524.185 123.311 525.247 124.114 527.549 123.968C530.711 123.77 536.372 121.968 536.148 118.374C535.856 113.775 529.763 113.291 526.023 113.525C513.945 114.28 503.007 124.067 503.768 136.145C504.471 147.364 512.435 152.348 526.586 159.259C522.627 169.759 520.757 174.494 521.185 181.254C521.877 192.327 530.554 199.436 541.195 198.77C564.351 197.311 570.143 179.192 567.679 139.931C567.018 129.431 565.591 106.707 561.164 100.634Z" fill="#FF8C22" fill-opacity="0.4"/>
<path d="M598.794 106.511C589.429 106.709 579.768 113.256 578.825 123.079C581.289 123.745 583.169 123.995 584.466 123.969C593.398 123.777 595.325 119.704 596.7 116.501C597.257 115.48 597.95 114.167 597.95 114.167C601.981 114.084 604.164 135.37 604.388 146.032C604.497 151.074 603.919 157.86 602.914 164.797C597.476 153.094 591.908 141.969 583.841 142.141C580.382 142.214 573.611 142.501 573.726 147.834C574.054 163.391 592.726 194.126 602.809 193.912C609.877 194.199 615.924 193.782 618.085 186.959C620.283 175.094 622.325 162.657 622.039 149.261C621.736 134.995 618.966 106.084 598.794 106.511Z" fill="#FF8C22" fill-opacity="0.4"/>
<path d="M669.906 170.797C670.297 179.312 670.833 187.828 672.088 196.359C674.39 196.552 676.547 196.89 678.562 196.932C693.109 197.25 694.547 190.937 694.854 176.963L695.073 166.88C695.625 141.526 688.422 108.359 664.797 107.844C643.474 107.38 629.489 120.911 628.833 150.875C628.432 169.317 632.442 183.672 652.323 184.109C661.395 184.307 667.432 178.526 669.906 170.797ZM653.593 132.536C655.307 126.661 657.953 117.64 661.411 117.719C665.442 117.807 667.494 129.526 668.437 139.203C665.635 135.536 659.922 133.104 653.593 132.536ZM654.437 139.906C656.026 139.937 657.13 148.614 657.026 153.51C656.875 160.427 654.864 173.208 652.703 173.161C652.27 173.151 651.823 160.745 651.974 153.833L652.026 151.526C651.984 146.625 651.849 139.849 654.437 139.906Z" fill="#FF8C22" fill-opacity="0.4"/>
<path d="M748.75 177.82C753.605 170.054 756.032 159.679 756.641 150.617C757.469 138.252 753.974 110.726 739.308 109.742C723.063 108.648 706.714 119.83 702.365 135.132C701.61 137.825 703.881 140.58 707.188 140.799C716.386 141.419 723.089 131.903 727.943 126.31C731.511 126.981 730.881 144.992 730.282 153.903C729.761 161.669 726.271 185.7 720.808 185.33C717.5 185.106 715.698 181.81 711.12 174.716C703.058 176.487 699.959 177.435 699.672 181.747C699.23 188.362 705.563 192.971 712.464 193.435C726.12 194.351 742.131 190.372 748.75 177.82Z" fill="#FF8C22" fill-opacity="0.4"/>
<path d="M790.962 114.627C781.65 113.638 771.239 118.914 769.056 128.534C771.416 129.508 773.249 129.992 774.541 130.127C783.426 131.07 785.858 127.273 787.624 124.273C788.301 123.331 789.155 122.117 789.155 122.117C793.166 122.539 792.64 143.93 791.515 154.534C790.983 159.549 789.556 166.211 787.681 172.966C783.765 160.669 779.65 148.93 771.624 148.081C768.186 147.716 761.436 147.143 760.874 152.445C759.233 167.924 773.864 200.773 783.895 201.836C790.869 203.008 796.921 203.362 799.926 196.867C803.608 185.377 807.207 173.294 808.619 159.971C810.124 145.784 811.025 116.752 790.962 114.627Z" fill="#FF8C22" fill-opacity="0.4"/>
<path d="M852.624 203.617L852.446 223.851C859.077 227.195 870.644 227.799 872.519 215.549C873.389 209.851 873.842 204.966 874.582 200.122C875.868 191.716 877.535 183.663 879.868 180.809C887.79 170.945 894.561 160.023 896.389 148.059C897.801 138.799 895.905 128.309 884.795 126.611C864.426 125.393 858.983 146.716 854.999 172.783C854.217 177.913 854.134 182.273 853.483 186.549C852.827 190.82 846.983 194.736 842.129 196.913C841.993 190.184 842.894 181.429 843.816 172.533C845.915 149.242 848.103 123.481 834.712 121.434C827.592 120.346 813.504 135.252 817.78 135.903C820.769 136.361 823.467 135.898 827.691 134.939C829.733 147.351 827.405 164.486 825.514 178.773C823.764 191.189 818.389 205.382 832.915 207.601C838.332 208.429 844.926 207.252 852.624 203.617ZM872.139 166.512C871.295 167.257 876.999 140.434 881.556 141.127C885.972 141.804 878.53 160.929 872.139 166.512Z" fill="#FF8C22" fill-opacity="0.4"/>
<path d="M934.795 160.685C946.92 160.316 954.212 153.987 959.103 139.097C960.207 135.789 959.191 133.529 954.53 132.597C944.493 130.586 940.17 136.039 936.582 140.758L934.717 143.472C932.087 142.654 929.316 141.805 926.774 141.295C911.795 138.295 901.795 143.498 899.191 156.493C897.576 164.55 898.196 176.868 906.535 178.539C910.774 179.388 914.535 178.227 918.066 178.935C921.03 179.529 920.946 185.831 919.446 193.321C918.457 198.269 916.42 206.972 915.488 209.43C915.488 208.696 915.175 207.31 914.837 206.066C913.764 201.883 911.988 196.826 908.17 196.06C902.8 194.987 897.347 195.805 896.186 201.597C894.743 208.805 900.623 219.092 908.957 220.758C925.774 224.123 934.816 214.18 937.899 198.779C939.853 189.029 939.571 173.539 928.129 171.253C925.019 170.628 921.29 170.175 918.149 169.696C916.993 164.467 918.405 160.342 919.764 155.763C924.342 158.592 929.879 160.284 934.795 160.685Z" fill="#FF8C22" fill-opacity="0.4"/>
<path d="M914.18 83.8128C909.544 82.0003 905.336 80.2764 900.388 79.2868C887.107 76.6305 879.221 82.2503 877.383 91.4378C873.987 108.391 888.711 112.662 902.7 115.464C915.841 118.094 931.102 116.006 934.159 100.745C936.789 87.6045 937.242 82.4014 925.232 80.0003C919.435 78.8389 919.013 79.4899 914.18 83.8128ZM903.523 92.2608C905.362 92.6305 911.211 95.7087 913.19 99.7816C911.607 101.813 906.94 104.552 901.008 103.365C900.669 102.86 894.336 102.177 895.414 96.8076C896.487 91.4378 902.674 92.0889 903.523 92.2608ZM954.643 107.782L955.039 105.802C956.367 99.9014 958.518 91.3649 949.477 89.5524C939.867 87.6305 938.508 95.1462 937.065 102.355L936.612 104.615C935.596 109.703 934.07 117.334 942.404 119C951.591 120.839 952.919 116.401 954.643 107.782Z" fill="#FF8C22" fill-opacity="0.4"/>
<path d="M987.58 147.015C978.898 144.901 963.549 143.974 955.591 151.083C954.768 154.442 957.888 156.239 962.372 157.333C969.648 159.109 977.221 156.651 981.981 157.812C985.2 158.599 987.58 165.26 988.346 170.64L984.565 169.719C966.507 165.312 952.804 171.021 947.377 193.276C942.596 212.88 951.117 230.234 971.559 235.219C994.377 240.781 1006.17 213.698 1009.49 200.12C1014.74 178.557 1013.62 153.364 987.58 147.015ZM966.643 195.161C969.408 183.817 976.174 175.531 988.981 178.359C988.919 185.312 988.924 191.989 987.111 199.411C985.408 206.411 977.044 228.547 968.96 227.021C962.976 225.411 964.117 205.521 966.643 195.161Z" fill="#FF8C22" fill-opacity="0.4"/>
<path d="M1086.06 168.515C1083.13 166.749 1081.89 166.385 1080.64 166.015C1074.69 164.27 1068.4 164.218 1065.65 172.572C1062.52 182.166 1059.54 191.806 1056.55 201.442C1053.57 211.077 1050.77 220.614 1047.64 230.213C1045.62 236.077 1040.94 246.864 1039.28 246.379C1037.21 245.77 1036.85 238.301 1038.56 232.499C1040.83 224.754 1047.21 219.421 1051.41 213.296C1044.48 204.197 1034.37 195.666 1038.03 183.223C1038.84 180.463 1040.62 177.978 1042.89 176.395C1043.56 177.192 1044.28 178.306 1046.5 178.957C1049.54 179.848 1055.47 180.093 1056.49 176.64C1057.79 172.213 1052.22 169.676 1048.63 168.619C1037.02 165.207 1023.4 170.661 1019.99 182.275C1016.81 193.056 1022.59 200.468 1033.53 211.791C1026.22 220.306 1022.85 224.119 1020.94 230.619C1017.81 241.265 1023.53 250.911 1033.76 253.916C1056.02 260.463 1067.66 245.411 1078.76 207.671C1081.72 197.577 1088.15 175.733 1086.06 168.515Z" fill="#FF8C22" fill-opacity="0.4"/>
<path d="M1092.65 153.776C1101.62 148.307 1127.24 134.213 1105.67 127.869C1101.39 126.609 1096.56 126.692 1092.33 129.349C1086.1 133.677 1077.28 139.645 1073.8 141.776C1075.38 136.385 1074.36 130.677 1067.86 128.765C1062.61 127.218 1058.22 129.385 1055.82 137.541C1052.24 149.703 1063.65 153.812 1072.91 156.536C1080.1 158.651 1086.66 157.276 1092.65 153.776Z" fill="#FF8C22" fill-opacity="0.4"/>
<path d="M1119.42 186.895C1110.55 183.885 1099.23 186.734 1094.99 195.64C1097.08 197.109 1098.76 197.984 1099.98 198.405C1108.45 201.275 1111.65 198.109 1114.03 195.567C1114.9 194.801 1116 193.801 1116 193.801C1119.83 195.103 1114.6 215.848 1111.17 225.947C1109.55 230.723 1106.68 236.9 1103.37 243.082C1102.26 230.223 1100.83 217.864 1093.18 215.27C1089.91 214.155 1083.46 212.114 1081.74 217.161C1076.73 231.9 1083.77 267.166 1093.32 270.411C1099.87 273.088 1105.69 274.765 1110.05 269.093C1116.17 258.692 1122.35 247.702 1126.65 235.015C1131.25 221.504 1138.52 193.385 1119.42 186.895Z" fill="#FF8C22" fill-opacity="0.4"/>
<path d="M1152.54 205.118C1149.02 215.655 1147.38 220.421 1144.9 227.806C1135.9 253.671 1132.68 263.853 1142.92 267.723C1157.89 273.368 1164.19 246.483 1170.25 232.447L1176.82 215.056C1180.13 206.29 1182.44 197.306 1174.62 194.353C1160.33 188.962 1157.01 193.254 1152.54 205.118ZM1148.72 286.233C1149.84 283.27 1151.92 278.973 1144.51 276.176C1134.4 272.358 1129.82 275.098 1127.33 281.702C1125.55 286.421 1126.91 288.936 1133.38 291.379C1141.07 294.28 1145.41 294.999 1148.72 286.233Z" fill="#FF8C22" fill-opacity="0.4"/>
<path d="M1196.19 242.564C1202.03 245.033 1203.78 240.142 1204.45 238.553C1207.94 230.324 1217.41 220.876 1222.72 223.121C1228.16 225.423 1226.04 232.663 1223.79 237.97C1220.19 245.366 1214.52 250.632 1209.04 255.824C1203.07 261.434 1198.95 262.663 1196.25 269.033C1190.42 282.835 1191.63 287.73 1200.66 291.548C1211.41 296.095 1215.73 286.975 1218.21 282.236C1221.69 274.007 1227.05 270.954 1232.63 264.397C1237.78 258.908 1243 252.829 1246.82 246.772C1253.22 231.642 1236.09 219.236 1225.08 214.574C1209.16 207.84 1194.88 210.876 1189.21 224.283C1185.96 231.98 1187.96 239.085 1196.19 242.564ZM1205.71 308.079C1207.06 304.897 1208.63 302.277 1201.2 299.132C1191.38 294.98 1186.7 297.538 1183.95 304.038C1181.98 308.684 1182.58 310.97 1189.48 313.892C1197.05 317.09 1202.17 316.444 1205.71 308.079Z" fill="#FF8C22" fill-opacity="0.4"/>
<path d="M73.086 275.519C73.8881 266.404 71.3412 256.05 67.7735 247.701C62.9037 236.311 47.2943 213.363 33.7787 219.139C18.8047 225.54 9.30994 242.92 12.3829 258.535C12.9297 261.279 16.2006 262.701 19.2474 261.399C27.7266 257.774 29.3829 246.248 31.1693 239.061C34.6537 238.045 42.2631 254.378 45.7735 262.592C48.836 269.748 56.6276 292.743 51.5912 294.899C48.5443 296.201 45.4454 294.076 38.1433 289.832C31.7631 295.071 29.4349 297.321 31.1329 301.295C33.7422 307.389 41.4766 308.623 47.836 305.904C60.4245 300.524 72.8829 289.712 73.086 275.519Z" fill="#FF8C22"/>
<path d="M40.385 191.711C43.8173 181.778 54.609 154.601 33.9423 163.435C29.8329 165.195 26.1611 168.33 24.5829 173.08C22.5361 180.383 19.5361 190.596 18.2079 194.455C15.9996 189.289 11.5725 185.539 5.34856 188.2C0.312099 190.351 -1.69832 194.815 1.64543 202.633C6.62981 214.294 18.0413 210.195 26.9215 206.398C33.8121 203.455 37.9944 198.216 40.385 191.711Z" fill="#FF8C22"/>
<path d="M103.895 272.895C111.421 270.395 116.202 262.609 119.822 256.645L119.687 256.698L119.77 256.51C119.874 256.781 120.343 257.218 120.583 257.437C125.51 264.057 131.468 271.369 139.708 268.297C150.775 264.166 156.885 252.505 153.458 243.323C150.385 235.088 143.14 231.333 133.202 232.734L128.098 218.645C124.218 208.25 117.249 189.161 109.822 191.932C104.556 193.901 97.3794 201.036 98.4002 205.427C102.76 220.406 109.338 233.489 114.374 246.989C114.728 247.932 112.51 251.067 109.03 255.75L102.931 239.416C98.8013 228.343 88.3534 202.406 76.8794 206.687C70.8013 208.958 56.9315 224.13 66.7232 227.703C70.4575 226.161 72.9054 223.244 74.5461 220.635C78.3846 224.739 80.869 230.578 82.9367 236.114L86.6138 245.968C88.5304 251.099 96.994 275.01 103.895 272.895ZM141.791 249.984C142.801 252.682 142.041 254.354 140.989 255.666C138.65 252.692 137.359 249.64 135.577 245.692C135.426 245.286 135.411 244.828 135.525 244.323C138.14 244.734 140.484 246.474 141.791 249.984Z" fill="#FF8C22"/>
<path d="M175.804 247.227C183.45 245.128 188.642 237.608 192.569 231.842L192.434 231.889L192.528 231.707C192.611 231.983 193.059 232.446 193.283 232.675C197.856 239.545 203.424 247.165 211.809 244.529C223.08 240.993 229.799 229.67 226.861 220.321C224.231 211.936 217.189 207.8 207.194 208.675L202.84 194.332C199.517 183.748 193.569 164.316 186.007 166.691C180.647 168.378 173.101 175.128 173.887 179.561C177.45 194.753 183.325 208.165 187.637 221.915C187.939 222.873 185.564 225.889 181.84 230.378L176.616 213.743C173.075 202.472 164.012 176.014 152.33 179.686C146.142 181.628 131.486 196.045 141.08 200.134C144.882 198.785 147.486 196.009 149.262 193.488C152.877 197.79 155.054 203.748 156.819 209.389L159.976 219.425C161.611 224.649 168.799 248.972 175.804 247.227ZM214.861 226.352C215.726 229.102 214.877 230.727 213.762 231.988C211.58 228.894 210.45 225.774 208.882 221.738C208.752 221.326 208.757 220.868 208.903 220.373C211.491 220.915 213.736 222.779 214.861 226.352Z" fill="#FF8C22"/>
<path d="M165.017 129.181C158.819 129.165 153.298 129.389 147.527 131.202C138.454 134.051 129.214 143.598 132.194 153.082C135.517 163.665 150.298 160.233 161.985 156.566C173.673 152.894 193.892 137.936 189.147 122.816C185.647 111.676 183.267 104.571 173.751 106.504C161.241 110.431 162.751 118.113 165.017 129.181ZM153.793 150.681C150.22 151.801 148.298 149.535 147.824 148.025C146.574 144.035 148.095 140.233 151.808 139.066C153.735 138.462 161.485 138.144 165.032 141.259C163.095 145.191 157.642 149.473 153.793 150.681Z" fill="#FF8C22"/>
<path d="M143.797 76.0349C136.922 78.1912 128.792 86.936 130.865 93.5349C132.506 98.7589 138.73 97.4099 142.303 96.2901C145.464 95.2953 146.735 93.087 147.365 90.7745C148.027 94.7953 147.542 99.0245 148.881 103.285C151.037 110.16 161.626 106.837 165.886 105.498C176.058 102.306 191.959 79.337 194.448 64.6599C189.501 63.3422 183.657 63.9724 180.771 64.8787C174.584 66.8214 168.115 77.0089 163.287 84.7172C158.469 76.1078 153.834 72.8839 143.797 76.0349Z" fill="#FF8C22"/>
<path d="M260.4 195.075C267.067 220.586 267.463 231.805 273.947 230.409C278.619 229.487 283.494 227.617 287.755 223.971C286.093 211.898 284.452 202.195 281.833 192.159C276.661 172.362 264.817 138.966 239.161 145.664C214.76 152.034 219.562 180.122 224.296 198.247C227.208 209.398 231.296 219.351 234.13 226.211C236.14 231.044 236.791 233.555 242.926 231.956C244.598 231.518 246.478 230.726 248.843 229.518C252.01 227.945 252.432 225.003 252.301 219.378C252.161 198.862 250.093 181.831 254.135 180.773C256.77 181.726 259.531 191.726 260.4 195.075ZM238.551 154.164C244.827 152.523 250.463 160.435 254.713 172.133C246.531 172.185 241.463 181.851 239.499 188.023C238.338 180.726 231.161 156.091 238.551 154.164Z" fill="#FF8C22"/>
<path d="M302.581 275.054C302.055 271.319 301.461 267.903 300.55 264.418C298.003 254.658 289.638 236.887 275.696 240.528C267.607 242.637 255.982 250.585 257.076 254.767C257.55 256.58 260.482 256.413 264.248 255.429C267.175 254.663 270.31 253.548 272.748 252.616C273.321 254.252 272.998 253.59 274.602 259.726C276.612 267.986 280.769 284.476 291.222 281.746C294.711 280.835 298.289 279.153 302.581 275.054Z" fill="#FF8C22"/>
<path d="M344.375 205.867C342.995 198.94 339.433 202.445 334.714 206.768C332.875 208.601 330.641 210.664 329.229 210.95C322.589 212.273 318.271 187.716 317.818 185.455C315.646 174.57 313.474 163.69 303.162 156.935C300.959 155.466 299.657 152.638 299.011 149.388C297.964 144.158 298.959 133.674 303.198 132.83C311.537 131.164 320.74 150.044 324.75 159.091C326.985 165.112 329.271 171.414 335.115 187.435C337.964 195.83 341.188 197.981 349.099 196.398C352.63 195.695 355.433 194.252 358.542 193.632C362.412 200.502 365.995 213.304 376.167 211.273C385.495 209.414 393.75 202.179 391.407 190.45C390.026 183.528 386.86 182.393 378.526 181.122C376.578 173.575 375.334 167.356 374.037 160.856C370.964 145.455 370.339 141.612 369.297 136.382C368.224 130.278 366.308 119.935 358.11 121.57C343.839 124.419 344.568 136.908 346.63 147.226C349.141 159.804 352.36 173.711 355.745 186.257C354.104 186.877 355.604 186.283 354.755 186.455C352.636 186.877 340.354 151.122 336.854 142.419C332.276 132.018 323.183 118.846 310.042 121.471C293.646 124.742 276.771 139.575 279.792 154.695C280.808 159.783 284.313 163.341 287.698 167.075C293.292 173.013 294.058 178.294 295.438 185.221C299.078 203.45 303.026 223.231 324.365 218.971C332.136 217.419 339.344 213.778 344.375 205.867Z" fill="#FF8C22"/>
<path d="M429.114 186.775C428.536 188.755 424.51 195.031 423.375 192.286C419.338 175.838 417.036 159.286 414.375 141.322C412.625 129.494 409.505 117.281 402.807 118.27C389.125 120.296 390.255 134.843 392.073 147.098C395.765 172.046 398.224 207.369 417.323 204.546C427.448 203.046 441.718 196.124 439.963 184.296C439.755 182.869 438.119 181.656 435.125 182.098C431.416 182.645 430.265 184.713 429.5 186.426L429.114 186.775Z" fill="#FF8C22"/>
<path d="M482.348 118.763C487.327 108.648 493.838 95.3198 491.057 91.1323C490.072 90.0802 486.557 89.7417 484.978 89.9136C473.088 91.2209 469.468 97.8511 464.619 106.502C448.76 104.622 435.265 117.7 431.89 130.539C430.801 133.846 434.364 135.919 437.801 135.544C441.385 135.148 445.124 133.58 448.135 130.638C449.718 125.247 453.182 118.486 454.614 118.33C459.197 117.825 466.166 132.424 468.26 151.476C464.791 148.96 461.577 147.424 456.281 148.007C440.666 149.726 432.317 158.179 434.255 175.799C435.765 189.549 443.473 197.69 457.51 196.148C471.114 194.653 474.598 185.429 474.885 185.398C492.645 183.445 494.702 177.132 492.062 153.065C490.942 142.898 488.025 134.809 482.348 118.763ZM463.452 188.247C458.296 188.815 455.208 177.846 454.531 171.684C454.072 167.533 453.291 159.065 453.432 159.049C454.723 158.908 458.197 165.481 461.786 171.757C464.536 176.966 467.421 182.158 470.713 184.403C468.307 187.57 464.744 188.106 463.452 188.247Z" fill="#FF8C22"/>
<path d="M457.299 68.8908C451.221 67.6721 445.763 66.8231 439.747 67.4846C430.294 68.5211 419.388 76.0992 420.471 85.9846C421.685 97.0106 436.851 96.5054 449.023 95.1669C461.2 93.8283 483.935 83.0679 482.206 67.3127C480.93 55.7138 479.971 48.2815 470.263 48.3283C457.226 49.7606 457.216 57.594 457.299 68.8908ZM442.127 87.8075C438.403 88.219 436.956 85.62 436.784 84.0471C436.331 79.8908 438.56 76.4586 442.43 76.0315C444.435 75.8127 452.101 77.0002 454.976 80.745C452.315 84.2242 446.138 87.3648 442.127 87.8075Z" fill="#FF8C22"/>
<path d="M474.346 16.8595C473.591 8.67726 472.502 -1.20295 460.471 0.119963C450.445 1.21892 449.434 6.54705 450.585 17.0054C451.83 28.3231 453.856 46.797 462.736 45.8231C475.632 44.4064 475.278 34.5887 474.346 16.8595Z" fill="#FF8C22"/>
<path d="M554.796 94.2652C551.436 93.609 550.139 93.6871 548.848 93.7704C542.665 94.161 536.733 96.2652 536.993 105.057C537.337 115.14 537.827 125.218 538.316 135.291C538.806 145.369 539.426 155.291 539.775 165.375C539.874 171.578 539.165 183.317 537.441 183.427C535.285 183.562 532.395 176.671 532.014 170.63C531.509 162.573 535.681 155.385 537.54 148.192C527.91 142.01 515.493 137.448 514.681 124.505C514.499 121.63 515.327 118.687 516.915 116.421C517.816 116.942 518.879 117.744 521.181 117.599C524.342 117.401 530.004 115.599 529.78 112.005C529.488 107.406 523.395 106.921 519.655 107.156C507.577 107.911 496.639 117.698 497.4 129.776C498.103 140.994 506.066 145.979 520.217 152.89C516.259 163.39 514.389 168.125 514.816 174.885C515.509 185.958 524.186 193.067 534.827 192.401C557.983 190.942 563.775 172.823 561.311 133.562C560.65 123.062 559.223 100.338 554.796 94.2652Z" fill="#FF8C22"/>
<path d="M592.425 100.142C583.06 100.34 573.399 106.887 572.456 116.71C574.919 117.377 576.8 117.627 578.096 117.601C587.029 117.408 588.956 113.335 590.331 110.132C590.888 109.111 591.581 107.799 591.581 107.799C595.612 107.715 597.794 129.002 598.018 139.663C598.128 144.705 597.55 151.491 596.544 158.429C591.107 146.726 585.539 135.601 577.471 135.773C574.013 135.846 567.242 136.132 567.357 141.465C567.685 157.023 586.357 187.757 596.44 187.543C603.508 187.83 609.555 187.413 611.716 180.59C613.914 168.726 615.956 156.288 615.669 142.892C615.367 128.627 612.596 99.7153 592.425 100.142Z" fill="#FF8C22"/>
<path d="M663.538 164.428C663.928 172.944 664.465 181.459 665.72 189.991C668.022 190.183 670.178 190.522 672.194 190.563C686.741 190.881 688.178 184.569 688.486 170.595L688.704 160.511C689.256 135.157 682.053 101.991 658.428 101.475C637.105 101.011 623.121 114.543 622.465 144.506C622.064 162.949 626.074 177.303 645.954 177.741C655.027 177.938 661.064 172.157 663.538 164.428ZM647.225 126.168C648.939 120.293 651.585 111.272 655.043 111.35C659.074 111.438 661.126 123.157 662.069 132.834C659.267 129.168 653.553 126.735 647.225 126.168ZM648.069 133.537C649.658 133.569 650.762 142.246 650.658 147.142C650.506 154.058 648.496 166.839 646.335 166.793C645.902 166.782 645.454 154.376 645.605 147.464L645.658 145.157C645.616 140.256 645.48 133.48 648.069 133.537Z" fill="#FF8C22"/>
<path d="M742.381 171.451C747.235 163.686 749.663 153.311 750.272 144.248C751.1 131.884 747.605 104.358 732.939 103.373C716.694 102.279 700.345 113.462 695.996 128.764C695.241 131.456 697.511 134.212 700.819 134.43C710.017 135.05 716.72 125.535 721.574 119.941C725.142 120.613 724.511 138.623 723.913 147.535C723.392 155.3 719.902 179.331 714.439 178.962C711.131 178.738 709.329 175.441 704.751 168.347C696.689 170.118 693.59 171.066 693.303 175.378C692.86 181.993 699.194 186.602 706.095 187.066C719.751 187.983 735.761 184.003 742.381 171.451Z" fill="#FF8C22"/>
<path d="M784.593 108.259C775.281 107.269 764.869 112.545 762.687 122.165C765.046 123.139 766.88 123.623 768.171 123.759C777.057 124.702 779.489 120.905 781.255 117.905C781.932 116.962 782.786 115.748 782.786 115.748C786.796 116.17 786.27 137.561 785.145 148.165C784.614 153.181 783.187 159.842 781.312 166.597C777.395 154.3 773.281 142.561 765.255 141.712C761.817 141.347 755.067 140.774 754.505 146.077C752.864 161.556 767.494 194.405 777.526 195.467C784.5 196.639 790.552 196.993 793.557 190.498C797.239 179.009 800.838 166.925 802.25 153.603C803.755 139.415 804.656 110.384 784.593 108.259Z" fill="#FF8C22"/>
<path d="M846.255 197.247L846.078 217.482C852.708 220.826 864.276 221.43 866.151 209.18C867.021 203.482 867.474 198.596 868.214 193.753C869.5 185.346 871.167 177.294 873.5 174.44C881.422 164.576 888.193 153.654 890.021 141.69C891.432 132.43 889.537 121.94 878.427 120.242C858.057 119.023 852.615 140.346 848.63 166.414C847.849 171.544 847.766 175.904 847.115 180.18C846.458 184.451 840.615 188.367 835.761 190.544C835.625 183.815 836.526 175.06 837.448 166.164C839.547 142.872 841.735 117.112 828.344 115.065C821.224 113.977 807.136 128.883 811.412 129.534C814.401 129.992 817.099 129.529 821.323 128.57C823.365 140.982 821.037 158.117 819.146 172.404C817.396 184.82 812.021 199.013 826.547 201.232C831.964 202.06 838.557 200.883 846.255 197.247ZM865.771 160.143C864.927 160.888 870.63 134.065 875.188 134.758C879.604 135.435 872.162 154.56 865.771 160.143Z" fill="#FF8C22"/>
<path d="M928.426 154.317C940.551 153.947 947.843 147.619 952.733 132.728C953.838 129.421 952.822 127.16 948.16 126.228C938.124 124.218 933.801 129.671 930.213 134.39L928.348 137.103C925.718 136.285 922.947 135.436 920.405 134.926C905.426 131.926 895.426 137.129 892.822 150.124C891.207 158.181 891.827 170.499 900.166 172.171C904.405 173.02 908.166 171.858 911.697 172.567C914.66 173.16 914.577 179.462 913.077 186.952C912.088 191.9 910.051 200.603 909.119 203.061C909.119 202.327 908.806 200.942 908.468 199.697C907.395 195.515 905.619 190.457 901.801 189.692C896.431 188.619 890.978 189.436 889.817 195.228C888.374 202.436 894.254 212.723 902.588 214.39C919.405 217.754 928.447 207.811 931.53 192.41C933.483 182.66 933.202 167.171 921.759 164.884C918.65 164.259 914.921 163.806 911.78 163.327C910.624 158.098 912.035 153.973 913.395 149.395C917.973 152.223 923.509 153.916 928.426 154.317Z" fill="#FF8C22"/>
<path d="M907.811 77.4437C903.176 75.6312 898.968 73.9072 894.02 72.9177C880.739 70.2614 872.853 75.8812 871.015 85.0687C867.619 102.022 882.343 106.293 896.332 109.095C909.473 111.725 924.733 109.636 927.791 94.376C930.421 81.2354 930.874 76.0322 918.864 73.6312C913.067 72.4697 912.645 73.1208 907.811 77.4437ZM897.155 85.8916C898.994 86.2614 904.843 89.3395 906.822 93.4124C905.239 95.4437 900.572 98.1833 894.64 96.9958C894.301 96.4906 887.968 95.8083 889.046 90.4385C890.119 85.0687 896.306 85.7197 897.155 85.8916ZM948.275 101.412L948.671 99.4333C949.999 93.5322 952.15 84.9958 943.108 83.1833C933.499 81.2614 932.14 88.777 930.697 95.9854L930.244 98.2458C929.228 103.334 927.702 110.965 936.035 112.631C945.223 114.47 946.551 110.032 948.275 101.412Z" fill="#FF8C22"/>
<path d="M981.212 140.647C972.53 138.532 957.181 137.605 949.222 144.714C948.4 148.074 951.519 149.871 956.004 150.964C963.28 152.741 970.853 150.282 975.613 151.444C978.832 152.23 981.212 158.892 981.978 164.272L978.196 163.35C960.139 158.944 946.436 164.652 941.009 186.907C936.228 206.511 944.749 223.866 965.191 228.85C988.009 234.412 999.806 207.329 1003.12 193.751C1008.37 172.188 1007.25 146.996 981.212 140.647ZM960.275 188.793C963.04 177.449 969.806 169.162 982.613 171.991C982.551 178.944 982.556 185.621 980.743 193.043C979.04 200.043 970.676 222.178 962.592 220.652C956.608 219.043 957.749 199.152 960.275 188.793Z" fill="#FF8C22"/>
<path d="M1079.69 162.146C1076.76 160.38 1075.52 160.016 1074.27 159.646C1068.32 157.901 1062.03 157.849 1059.28 166.203C1056.15 175.797 1053.17 185.438 1050.18 195.073C1047.2 204.709 1044.4 214.245 1041.27 223.844C1039.25 229.709 1034.57 240.495 1032.91 240.011C1030.84 239.401 1030.48 231.933 1032.19 226.13C1034.47 218.386 1040.84 213.052 1045.04 206.927C1038.11 197.828 1028 189.297 1031.66 176.854C1032.47 174.094 1034.25 171.61 1036.52 170.026C1037.19 170.823 1037.91 171.938 1040.13 172.589C1043.17 173.479 1049.1 173.724 1050.12 170.271C1051.42 165.844 1045.86 163.308 1042.26 162.25C1030.65 158.839 1017.03 164.292 1013.62 175.906C1010.44 186.688 1016.23 194.099 1027.16 205.422C1019.85 213.938 1016.48 217.75 1014.57 224.25C1011.44 234.896 1017.16 244.542 1027.39 247.547C1049.65 254.094 1061.29 239.042 1072.39 201.302C1075.35 191.209 1081.78 169.365 1079.69 162.146Z" fill="#FF8C22"/>
<path d="M1086.28 147.407C1095.25 141.938 1120.87 127.845 1099.3 121.501C1095.02 120.24 1090.19 120.324 1085.96 122.98C1079.73 127.308 1070.91 133.277 1067.43 135.407C1069.01 130.016 1067.99 124.308 1061.49 122.397C1056.24 120.85 1051.85 123.016 1049.45 131.173C1045.87 143.334 1057.28 147.444 1066.54 150.167C1073.73 152.282 1080.29 150.907 1086.28 147.407Z" fill="#FF8C22"/>
<path d="M1113.05 180.526C1104.18 177.516 1092.86 180.365 1088.62 189.271C1090.71 190.74 1092.39 191.615 1093.61 192.037C1102.08 194.907 1105.28 191.74 1107.67 189.198C1108.54 188.433 1109.63 187.433 1109.63 187.433C1113.46 188.735 1108.23 209.479 1104.8 219.578C1103.18 224.354 1100.32 230.532 1097 236.714C1095.89 223.854 1094.46 211.495 1086.82 208.901C1083.55 207.787 1077.09 205.745 1075.37 210.792C1070.36 225.532 1077.41 260.797 1086.95 264.042C1093.5 266.719 1099.32 268.396 1103.69 262.724C1109.81 252.323 1115.98 241.334 1120.29 228.646C1124.88 215.136 1132.15 187.016 1113.05 180.526Z" fill="#FF8C22"/>
<path d="M1146.17 198.75C1142.66 209.286 1141.01 214.052 1138.53 221.437C1129.54 247.302 1126.31 257.484 1136.56 261.354C1151.52 267 1157.82 240.114 1163.88 226.078L1170.45 208.687C1173.76 199.922 1176.07 190.937 1168.25 187.984C1153.96 182.594 1150.65 186.885 1146.17 198.75ZM1142.35 279.864C1143.47 276.901 1145.56 272.604 1138.14 269.807C1128.03 265.989 1123.45 268.729 1120.96 275.333C1119.18 280.052 1120.54 282.568 1127.01 285.01C1134.7 287.911 1139.05 288.63 1142.35 279.864Z" fill="#FF8C22"/>
<path d="M1189.82 236.195C1195.66 238.663 1197.41 233.773 1198.08 232.184C1201.57 223.955 1211.04 214.507 1216.35 216.752C1221.79 219.054 1219.67 226.294 1217.42 231.601C1213.82 238.997 1208.15 244.262 1202.67 249.455C1196.7 255.064 1192.58 256.294 1189.89 262.663C1184.05 276.465 1185.26 281.361 1194.29 285.179C1205.04 289.726 1209.36 280.606 1211.84 275.867C1215.32 267.637 1220.68 264.585 1226.27 258.028C1231.41 252.538 1236.64 246.46 1240.45 240.403C1246.85 225.273 1229.72 212.867 1218.71 208.205C1202.79 201.471 1188.52 204.507 1182.84 217.913C1179.59 225.611 1181.59 232.715 1189.82 236.195ZM1199.34 301.71C1200.69 298.528 1202.26 295.908 1194.83 292.762C1185.01 288.611 1180.33 291.169 1177.58 297.669C1175.61 302.314 1176.21 304.601 1183.11 307.523C1190.68 310.721 1195.8 310.075 1199.34 301.71Z" fill="#FF8C22"/>
</svg>
