<svg width="1250" height="316" viewBox="0 0 1250 316" fill="none" xmlns="http://www.w3.org/2000/svg">
<path d="M309.171 281.485C308.64 277.751 308.046 274.334 307.134 270.844C304.588 261.084 296.223 243.313 282.28 246.954C274.192 249.063 262.567 257.016 263.655 261.199C264.129 263.011 267.067 262.839 270.827 261.86C273.759 261.094 276.89 259.975 279.327 259.042C279.905 260.678 279.582 260.016 281.186 266.152C283.197 274.417 287.353 290.907 297.811 288.178C301.296 287.266 304.879 285.584 309.171 281.485Z" fill="#E8D793" fill-opacity="0.4"/>
<path d="M302.802 275.116C302.27 271.382 301.677 267.965 300.765 264.476C298.218 254.715 289.854 236.944 275.911 240.585C267.823 242.694 256.198 250.647 257.286 254.83C257.76 256.642 260.698 256.47 264.458 255.491C267.39 254.726 270.52 253.606 272.958 252.674C273.536 254.309 273.213 253.647 274.817 259.783C276.828 268.049 280.984 284.538 291.442 281.809C294.927 280.897 298.51 279.215 302.802 275.116Z" fill="#EACC55"/>
<path d="M79.4615 282.027C80.2636 272.907 77.7219 262.553 74.149 254.204C69.2792 242.808 53.6647 219.86 40.149 225.642C25.1803 232.043 15.6855 249.423 18.7532 265.037C19.3001 267.782 22.5761 269.204 25.623 267.902C34.1022 264.277 35.7584 252.751 37.5397 245.564C41.024 244.543 48.6386 260.881 52.149 269.095C55.2115 276.251 63.0032 299.251 57.9719 301.402C54.9199 302.704 51.8209 300.584 44.5188 296.34C38.1386 301.574 35.8105 303.824 37.5084 307.798C40.1178 313.897 47.8522 315.131 54.2115 312.412C66.8001 307.032 79.2636 296.215 79.4615 282.027Z" fill="#E8D793" fill-opacity="0.4"/>
<path d="M46.7594 198.209C50.1917 188.277 60.9833 161.095 40.3114 169.933C36.2021 171.689 32.5302 174.829 30.9521 179.574C28.9052 186.876 25.9052 197.095 24.5771 200.954C22.3687 195.787 17.9469 192.032 11.7177 194.699C6.68124 196.85 4.67082 201.314 8.01457 209.131C12.9989 220.793 24.4156 216.694 33.2906 212.902C40.1812 209.954 44.3687 204.715 46.7594 198.209Z" fill="#E8D793" fill-opacity="0.4"/>
<path d="M110.333 279.374C117.859 276.869 122.645 269.088 126.26 263.119L126.125 263.171L126.213 262.984C126.312 263.255 126.786 263.692 127.02 263.916C131.953 270.536 137.911 277.848 146.145 274.77C157.218 270.64 163.322 258.978 159.901 249.796C156.822 241.562 149.578 237.807 139.64 239.208L134.536 225.114C130.656 214.718 123.687 195.63 116.26 198.406C110.994 200.369 103.812 207.51 104.838 211.895C109.197 226.88 115.776 239.963 120.812 253.463C121.166 254.411 118.953 257.541 115.468 262.228L109.369 245.89C105.239 234.817 94.786 208.88 83.312 213.161C77.2391 215.426 63.3641 230.603 73.161 234.176C76.8901 232.635 79.3381 229.718 80.9787 227.109C84.8172 231.213 87.3068 237.051 89.3745 242.588L93.0516 252.442C94.9683 257.572 103.432 281.489 110.333 279.374ZM148.234 256.458C149.239 259.161 148.479 260.827 147.432 262.14C145.093 259.171 143.796 256.114 142.015 252.166C141.864 251.76 141.848 251.301 141.968 250.796C144.583 251.208 146.921 252.947 148.234 256.458Z" fill="#E8D793" fill-opacity="0.4"/>
<path d="M182.314 253.678C189.959 251.574 195.152 244.053 199.079 238.293L198.944 238.334L199.038 238.152C199.126 238.428 199.574 238.892 199.798 239.121C204.371 245.996 209.933 253.61 218.324 250.98C229.595 247.439 236.314 236.116 233.376 226.767C230.741 218.381 223.704 214.246 213.704 215.121L209.355 200.777C206.027 190.189 200.079 170.761 192.517 173.136C187.157 174.819 179.611 181.569 180.397 186.006C183.959 201.199 189.834 214.61 194.152 228.36C194.454 229.324 192.074 232.334 188.35 236.824L183.126 220.189C179.584 208.918 170.522 182.459 158.834 186.126C152.647 188.074 137.996 202.491 147.584 206.579C151.392 205.23 153.991 202.454 155.767 199.933C159.387 204.23 161.558 210.194 163.329 215.834L166.48 225.871C168.121 231.095 175.308 255.423 182.314 253.678ZM221.376 232.798C222.236 235.548 221.387 237.178 220.272 238.433C218.095 235.34 216.965 232.22 215.392 228.183C215.262 227.772 215.272 227.314 215.418 226.819C218.006 227.366 220.251 229.225 221.376 232.798Z" fill="#E8D793" fill-opacity="0.4"/>
<path d="M171.521 135.622C165.324 135.607 159.808 135.825 154.032 137.638C144.959 140.492 135.719 150.039 138.699 159.523C142.021 170.112 156.803 166.674 168.49 163.008C180.178 159.336 200.402 144.377 195.652 129.252C192.157 118.117 189.777 111.008 180.261 112.94C167.751 116.867 169.256 124.549 171.521 135.622ZM160.297 157.122C156.725 158.242 154.803 155.976 154.329 154.466C153.079 150.476 154.605 146.674 158.313 145.508C160.24 144.903 167.995 144.586 171.542 147.7C169.605 151.633 164.152 155.914 160.297 157.122Z" fill="#E8D793" fill-opacity="0.4"/>
<path d="M150.302 82.4712C143.427 84.6274 135.297 93.3774 137.37 99.9764C139.011 105.2 145.235 103.851 148.808 102.726C151.969 101.732 153.24 99.5233 153.87 97.2108C154.532 101.232 154.047 105.461 155.386 109.726C157.542 116.596 168.13 113.273 172.391 111.935C182.568 108.742 198.464 85.7733 200.953 71.0962C196.011 69.7785 190.167 70.4035 187.276 71.3097C181.089 73.2524 174.62 83.4451 169.792 91.1535C164.974 82.5441 160.339 79.3201 150.302 82.4712Z" fill="#E8D793" fill-opacity="0.4"/>
<path d="M266.986 201.499C273.647 227.015 274.043 238.228 280.533 236.833C285.204 235.911 290.079 234.041 294.34 230.4C292.678 218.322 291.038 208.624 288.413 198.583C283.246 178.78 271.397 145.385 245.741 152.088C221.34 158.458 226.142 186.546 230.876 204.671C233.788 215.827 237.876 225.78 240.71 232.635C242.72 237.473 243.371 239.984 249.506 238.379C251.184 237.947 253.059 237.155 255.423 235.942C258.59 234.374 259.012 231.431 258.881 225.806C258.741 205.291 256.673 188.254 260.72 187.197C263.35 188.15 266.111 198.15 266.986 201.499ZM245.131 160.588C251.402 158.947 257.043 166.859 261.293 178.556C253.111 178.609 248.043 188.275 246.079 194.447C244.918 187.15 237.741 162.515 245.131 160.588Z" fill="#E8D793" fill-opacity="0.4"/>
<path d="M351.042 212.27C349.661 205.349 346.099 208.849 341.375 213.172C339.542 215.01 337.307 217.073 335.891 217.354C329.25 218.682 324.932 194.119 324.484 191.859C322.307 180.979 320.135 170.093 309.823 163.338C307.62 161.869 306.318 159.041 305.672 155.791C304.625 150.562 305.62 140.078 309.859 139.229C318.198 137.562 327.406 156.448 331.417 165.489C333.646 171.51 335.932 177.817 341.776 193.843C344.63 202.239 347.849 204.385 355.766 202.807C359.297 202.099 362.099 200.661 365.208 200.036C369.078 206.906 372.661 219.713 382.839 217.682C392.161 215.817 400.417 208.583 398.078 196.854C396.693 189.932 393.526 188.797 385.193 187.526C383.245 179.979 382 173.76 380.703 167.26C377.625 151.854 377.005 148.01 375.964 142.781C374.891 136.677 372.974 126.333 364.776 127.968C350.5 130.817 351.234 143.312 353.292 153.63C355.807 166.208 359.021 180.114 362.411 192.661C360.771 193.281 362.271 192.687 361.422 192.859C359.302 193.281 347.016 157.526 343.516 148.823C338.943 138.416 329.844 125.244 316.703 127.869C300.307 131.145 283.432 145.979 286.453 161.099C287.469 166.187 290.969 169.75 294.359 173.479C299.953 179.416 300.713 184.703 302.099 191.625C305.74 209.854 309.687 229.64 331.031 225.38C338.802 223.828 346.01 220.182 351.042 212.27Z" fill="#E8D793" fill-opacity="0.4"/>
<path d="M435.856 193.164C435.272 195.149 431.251 201.425 430.116 198.68C426.08 182.232 423.772 165.675 421.116 147.711C419.361 135.878 416.241 123.664 409.543 124.659C395.856 126.685 396.991 141.232 398.804 153.492C402.496 178.435 404.96 213.763 424.064 210.935C434.184 209.44 448.455 202.518 446.705 190.685C446.496 189.263 444.856 188.044 441.866 188.487C438.158 189.039 437.007 191.102 436.241 192.82L435.856 193.164Z" fill="#E8D793" fill-opacity="0.4"/>
<path d="M489.144 125.138C494.117 115.023 500.628 101.695 497.852 97.5073C496.862 96.4552 493.347 96.1167 491.774 96.2886C479.883 97.5959 476.263 104.226 471.414 112.877C455.55 110.997 442.055 124.08 438.68 136.919C437.591 140.226 441.154 142.299 444.591 141.924C448.175 141.528 451.914 139.955 454.93 137.018C456.508 131.622 459.972 124.867 461.404 124.705C465.987 124.205 472.956 138.804 475.05 157.856C471.581 155.341 468.373 153.809 463.071 154.388C447.456 156.106 439.107 164.559 441.045 182.179C442.555 195.934 450.263 204.075 464.3 202.533C477.909 201.039 481.388 191.809 481.675 191.778C499.44 189.83 501.498 183.513 498.857 159.445C497.737 149.278 494.821 141.19 489.144 125.138ZM470.248 194.632C465.086 195.195 461.998 184.226 461.321 178.07C460.867 173.914 460.081 165.445 460.222 165.429C461.513 165.289 464.992 171.867 468.581 178.143C471.326 183.346 474.216 188.539 477.508 190.789C475.102 193.95 471.534 194.486 470.248 194.632Z" fill="#E8D793" fill-opacity="0.4"/>
<path d="M464.089 75.2647C458.011 74.0459 452.553 73.197 446.537 73.8584C437.084 74.8949 426.172 82.473 427.261 92.3584C428.469 103.39 443.636 102.884 455.813 101.546C467.99 100.207 490.73 89.447 488.995 73.6866C487.724 62.0876 486.761 54.6501 477.053 54.7022C464.016 56.1345 464.011 63.9678 464.089 75.2647ZM448.917 94.1866C445.193 94.5928 443.745 91.9991 443.573 90.4209C443.115 86.2699 445.349 82.8324 449.219 82.4105C451.224 82.1866 458.891 83.3741 461.766 87.1188C459.105 90.598 452.928 93.7438 448.917 94.1866Z" fill="#E8D793" fill-opacity="0.4"/>
<path d="M481.137 23.2283C480.382 15.0512 479.298 5.16577 467.262 6.48868C457.236 7.58764 456.225 12.921 457.376 23.3741C458.621 34.6918 460.647 53.171 469.533 52.197C482.423 50.7804 482.069 40.9626 481.137 23.2283Z" fill="#E8D793" fill-opacity="0.4"/>
<path d="M561.659 100.634C558.3 99.9779 557.003 100.061 555.711 100.139C549.524 100.53 543.591 102.634 543.857 111.426C544.201 121.514 544.69 131.592 545.175 141.665C545.664 151.743 546.289 161.665 546.633 171.754C546.732 177.957 546.029 189.697 544.3 189.806C542.144 189.941 539.258 183.046 538.878 177.004C538.373 168.952 542.539 161.759 544.399 154.566C534.769 148.384 522.352 143.822 521.539 130.879C521.362 128.004 522.185 125.061 523.779 122.796C524.675 123.316 525.737 124.118 528.039 123.973C531.201 123.775 536.868 121.973 536.638 118.379C536.352 113.775 530.253 113.29 526.513 113.525C514.435 114.285 503.498 124.072 504.258 136.15C504.961 147.368 512.925 152.358 527.076 159.264C523.118 169.764 521.248 174.504 521.675 181.264C522.368 192.337 531.045 199.447 541.69 198.775C564.847 197.322 570.638 179.197 568.17 139.936C567.513 129.436 566.086 106.712 561.659 100.634Z" fill="#E8D793" fill-opacity="0.4"/>
<path d="M599.35 106.513C589.985 106.711 580.318 113.258 579.376 123.081C581.839 123.747 583.72 123.997 585.016 123.966C593.949 123.779 595.881 119.701 597.251 116.503C597.808 115.482 598.501 114.169 598.501 114.169C602.537 114.086 604.714 135.372 604.943 146.034C605.048 151.076 604.47 157.862 603.464 164.805C598.027 153.096 592.459 141.971 584.391 142.143C580.933 142.216 574.162 142.503 574.277 147.836C574.605 163.393 593.277 194.133 603.36 193.919C610.428 194.206 616.475 193.789 618.636 186.966C620.834 175.102 622.881 162.659 622.595 149.263C622.292 134.997 619.516 106.086 599.35 106.513Z" fill="#E8D793" fill-opacity="0.4"/>
<path d="M670.524 170.804C670.915 179.32 671.451 187.835 672.707 196.366C675.009 196.559 677.16 196.898 679.181 196.939C693.733 197.257 695.165 190.945 695.472 176.971L695.691 166.887C696.243 141.528 689.04 108.361 665.415 107.846C644.092 107.382 630.103 120.913 629.446 150.882C629.045 169.32 633.056 183.679 652.936 184.116C662.014 184.314 668.05 178.533 670.524 170.804ZM654.207 132.538C655.92 126.663 658.571 117.642 662.024 117.715C666.061 117.804 668.113 129.528 669.05 139.205C666.248 135.538 660.535 133.111 654.207 132.538ZM655.056 139.908C656.639 139.945 657.748 148.616 657.639 153.512C657.488 160.429 655.483 173.215 653.321 173.169C652.889 173.158 652.436 160.752 652.587 153.835L652.639 151.533C652.603 146.627 652.462 139.851 655.056 139.908Z" fill="#E8D793" fill-opacity="0.4"/>
<path d="M749.435 177.83C754.289 170.064 756.717 159.684 757.326 150.627C758.154 138.262 754.659 110.726 739.993 109.741C723.748 108.653 707.399 119.83 703.045 135.137C702.289 137.835 704.56 140.585 707.868 140.809C717.071 141.423 723.774 131.908 728.628 126.314C732.191 126.986 731.56 144.996 730.961 153.913C730.441 161.673 726.951 185.705 721.487 185.34C718.18 185.116 716.378 181.819 711.8 174.726C703.737 176.491 700.644 177.439 700.352 181.757C699.909 188.371 706.243 192.981 713.144 193.444C726.805 194.361 742.816 190.382 749.435 177.83Z" fill="#E8D793" fill-opacity="0.4"/>
<path d="M791.705 114.638C782.393 113.648 771.976 118.919 769.799 128.544C772.158 129.518 773.991 130.002 775.278 130.138C784.163 131.081 786.596 127.284 788.361 124.284C789.044 123.341 789.898 122.127 789.898 122.127C793.908 122.549 793.382 143.94 792.257 154.549C791.726 159.565 790.294 166.221 788.419 172.982C784.507 160.679 780.387 148.94 772.361 148.091C768.924 147.726 762.174 147.153 761.611 152.456C759.971 167.935 774.601 200.789 784.632 201.851C791.611 203.023 797.658 203.377 800.669 196.883C804.351 185.393 807.95 173.31 809.361 159.982C810.866 145.794 811.768 116.763 791.705 114.638Z" fill="#E8D793" fill-opacity="0.4"/>
<path d="M853.428 203.64L853.251 223.874C859.886 227.223 871.454 227.822 873.329 215.572C874.199 209.874 874.652 204.989 875.391 200.145C876.678 191.739 878.344 183.687 880.678 180.833C888.6 170.963 895.37 160.046 897.199 148.078C898.615 138.817 896.719 128.328 885.605 126.63C865.24 125.411 859.792 146.739 855.808 172.807C855.027 177.937 854.943 182.296 854.287 186.567C853.636 190.843 847.787 194.76 842.938 196.937C842.797 190.208 843.699 181.453 844.62 172.557C846.725 149.26 848.912 123.499 835.521 121.453C828.396 120.364 814.313 135.265 818.584 135.921C821.579 136.38 824.271 135.916 828.501 134.958C830.537 147.369 828.214 164.51 826.318 178.796C824.568 191.213 819.193 205.406 833.725 207.624C839.136 208.453 845.73 207.276 853.428 203.64ZM872.949 166.531C872.105 167.281 877.808 140.453 882.37 141.151C886.782 141.822 879.344 160.947 872.949 166.531Z" fill="#E8D793" fill-opacity="0.4"/>
<path d="M935.671 160.717C947.796 160.353 955.093 154.019 959.984 139.129C961.088 135.822 960.067 133.561 955.406 132.629C945.374 130.618 941.046 136.072 937.458 140.79L935.593 143.504C932.963 142.686 930.192 141.837 927.651 141.327C912.671 138.327 902.666 143.525 900.062 156.53C898.453 164.582 899.072 176.905 907.406 178.572C911.645 179.421 915.406 178.264 918.937 178.973C921.906 179.566 921.822 185.868 920.322 193.358C919.333 198.301 917.296 207.009 916.364 209.467C916.364 208.733 916.052 207.348 915.713 206.103C914.64 201.921 912.859 196.858 909.046 196.098C903.677 195.02 898.218 195.842 897.062 201.634C895.619 208.842 901.494 219.129 909.833 220.796C926.645 224.165 935.692 214.217 938.776 198.816C940.729 189.066 940.447 173.577 928.999 171.285C925.895 170.665 922.161 170.212 919.026 169.728C917.869 164.499 919.281 160.374 920.64 155.796C925.218 158.624 930.755 160.322 935.671 160.717Z" fill="#E8D793" fill-opacity="0.4"/>
<path d="M915.055 83.8414C910.419 82.0289 906.211 80.3049 901.263 79.3154C887.982 76.6539 880.096 82.2789 878.258 91.4664C874.862 108.42 889.586 112.69 903.575 115.492C916.716 118.123 931.977 116.034 935.034 100.774C937.664 87.6331 938.117 82.4299 926.107 80.0237C920.315 78.8674 919.888 79.5185 915.055 83.8414ZM904.398 92.2893C906.237 92.6539 912.086 95.7372 914.065 99.8049C912.482 101.841 907.815 104.581 901.883 103.393C901.544 102.888 895.211 102.206 896.284 96.8362C897.362 91.4664 903.549 92.1174 904.398 92.2893ZM955.523 107.815L955.919 105.836C957.247 99.9299 959.398 91.3935 950.352 89.581C940.742 87.6591 939.388 95.1747 937.945 102.383L937.492 104.643C936.471 109.732 934.945 117.362 943.284 119.029C952.466 120.867 953.794 116.435 955.523 107.815Z" fill="#E8D793" fill-opacity="0.4"/>
<path d="M988.517 147.062C979.834 144.948 964.485 144.021 956.522 151.13C955.704 154.489 958.824 156.286 963.303 157.38C970.584 159.156 978.157 156.703 982.918 157.859C986.136 158.646 988.517 165.307 989.282 170.687L985.501 169.765C967.439 165.359 953.735 171.068 948.308 193.328C943.527 212.927 952.053 230.286 972.491 235.271C995.314 240.838 1007.11 213.75 1010.42 200.172C1015.68 178.609 1014.56 153.416 988.517 147.062ZM967.579 195.208C970.345 183.87 977.11 175.583 989.918 178.406C989.855 185.364 989.86 192.041 988.048 199.458C986.34 206.458 977.975 228.599 969.892 227.073C963.907 225.463 965.048 205.568 967.579 195.208Z" fill="#E8D793" fill-opacity="0.4"/>
<path d="M1087.07 168.579C1084.13 166.813 1082.89 166.449 1081.64 166.084C1075.7 164.334 1069.4 164.287 1066.65 172.636C1063.52 182.235 1060.54 191.87 1057.55 201.506C1054.57 211.146 1051.76 220.683 1048.64 230.282C1046.62 236.146 1041.94 246.938 1040.28 246.449C1038.21 245.839 1037.85 238.37 1039.56 232.568C1041.84 224.824 1048.21 219.49 1052.41 213.365C1045.48 204.266 1035.37 195.735 1039.03 183.292C1039.84 180.527 1041.62 178.048 1043.89 176.459C1044.56 177.256 1045.28 178.37 1047.5 179.021C1050.54 179.917 1056.48 180.162 1057.49 176.704C1058.79 172.277 1053.23 169.74 1049.63 168.683C1038.02 165.266 1024.4 170.725 1020.98 182.339C1017.81 193.12 1023.6 200.532 1034.53 211.86C1027.22 220.376 1023.85 224.188 1021.94 230.688C1018.8 241.334 1024.53 250.98 1034.76 253.985C1057.02 260.532 1068.66 245.48 1079.76 207.735C1082.73 197.646 1089.15 175.803 1087.07 168.579Z" fill="#E8D793" fill-opacity="0.4"/>
<path d="M1093.65 153.843C1102.62 148.369 1128.25 134.275 1106.69 127.932C1102.4 126.671 1097.57 126.755 1093.33 129.411C1087.1 133.739 1078.29 139.708 1074.81 141.838C1076.39 136.447 1075.36 130.739 1068.87 128.828C1063.61 127.281 1059.22 129.447 1056.82 137.604C1053.24 149.77 1064.65 153.874 1073.92 156.598C1081.11 158.713 1087.67 157.338 1093.65 153.843Z" fill="#E8D793" fill-opacity="0.4"/>
<path d="M1120.48 186.981C1111.61 183.97 1100.29 186.819 1096.05 195.725C1098.14 197.199 1099.81 198.074 1101.04 198.491C1109.51 201.366 1112.71 198.194 1115.09 195.658C1115.97 194.887 1117.07 193.892 1117.07 193.892C1120.89 195.189 1115.66 215.939 1112.23 226.038C1110.6 230.809 1107.75 236.991 1104.43 243.168C1103.32 230.314 1101.89 217.955 1094.25 215.356C1090.97 214.246 1084.51 212.199 1082.8 217.251C1077.79 231.986 1084.83 267.257 1094.38 270.501C1100.93 273.184 1106.75 274.856 1111.11 269.184C1117.23 258.788 1123.41 247.793 1127.72 235.106C1132.31 221.595 1139.58 193.475 1120.48 186.981Z" fill="#E8D793" fill-opacity="0.4"/>
<path d="M1153.65 205.223C1150.13 215.759 1148.48 220.53 1146.01 227.91C1137.01 253.78 1133.78 263.962 1144.03 267.832C1159 273.478 1165.29 246.587 1171.36 232.551L1177.93 215.16C1181.23 206.394 1183.55 197.41 1175.73 194.462C1161.44 189.066 1158.13 193.358 1153.65 205.223ZM1149.82 286.342C1150.94 283.379 1153.03 279.082 1145.61 276.285C1135.5 272.467 1130.93 275.207 1128.43 281.811C1126.65 286.53 1128.01 289.045 1134.48 291.488C1142.17 294.389 1146.52 295.108 1149.82 286.342Z" fill="#E8D793" fill-opacity="0.4"/>
<path d="M1197.35 242.692C1203.18 245.161 1204.94 240.27 1205.61 238.677C1209.1 230.447 1218.57 221 1223.88 223.244C1229.32 225.546 1227.19 232.786 1224.95 238.093C1221.35 245.494 1215.68 250.76 1210.2 255.953C1204.23 261.562 1200.11 262.791 1197.41 269.161C1191.57 282.963 1192.78 287.859 1201.81 291.677C1212.56 296.229 1216.89 287.104 1219.37 282.364C1222.85 274.135 1228.21 271.083 1233.8 264.526C1238.94 259.036 1244.17 252.958 1247.98 246.901C1254.38 231.77 1237.26 219.364 1226.24 214.703C1210.31 207.963 1196.04 211 1190.37 224.406C1187.12 232.104 1189.12 239.208 1197.35 242.692ZM1206.87 308.213C1208.21 305.026 1209.79 302.411 1202.36 299.265C1192.53 295.109 1187.86 297.666 1185.1 304.171C1183.14 308.817 1183.74 311.104 1190.64 314.02C1198.2 317.224 1203.32 316.572 1206.87 308.213Z" fill="#E8D793" fill-opacity="0.4"/>
<path d="M73.0924 275.658C73.8945 266.538 71.3528 256.184 67.7799 247.835C62.9101 236.439 47.2955 213.492 33.7799 219.273C18.8111 225.674 9.31635 243.054 12.3841 258.669C12.9309 261.413 16.207 262.835 19.2538 261.533C27.733 257.908 29.3893 246.382 31.1705 239.195C34.6549 238.174 42.2695 254.512 45.7799 262.726C48.8424 269.882 56.6341 292.882 51.6028 295.033C48.5507 296.335 45.4518 294.215 38.1497 289.971C31.7695 295.205 29.4413 297.455 31.1393 301.429C33.7486 307.528 41.483 308.762 47.8424 306.044C60.4309 300.663 72.8945 289.846 73.0924 275.658Z" fill="#EACC55"/>
<path d="M40.3902 191.841C43.8225 181.908 54.6142 154.726 33.9423 163.565C29.8329 165.32 26.1611 168.46 24.5829 173.205C22.5361 180.507 19.5361 190.726 18.2079 194.585C15.9996 189.419 11.5777 185.663 5.34856 188.33C0.312099 190.481 -1.69832 194.945 1.64543 202.762C6.62981 214.424 18.0465 210.325 26.9215 206.533C33.8121 203.585 37.9996 198.346 40.3902 191.841Z" fill="#EACC55"/>
<path d="M103.964 273.005C111.49 270.5 116.276 262.719 119.891 256.75L119.755 256.802L119.844 256.615C119.943 256.886 120.417 257.323 120.651 257.547C125.583 264.167 131.542 271.479 139.776 268.401C150.849 264.271 156.953 252.61 153.531 243.427C150.453 235.193 143.208 231.438 133.271 232.839L128.167 218.745C124.287 208.349 117.318 189.261 109.891 192.037C104.625 194 97.4429 201.141 98.4689 205.526C102.828 220.511 109.406 233.594 114.443 247.094C114.797 248.042 112.583 251.172 109.099 255.86L103 239.521C98.87 228.448 88.4168 202.511 76.9429 206.792C70.87 209.057 56.995 224.235 66.7918 227.807C70.521 226.266 72.9689 223.349 74.6095 220.74C78.4481 224.844 80.9377 230.682 83.0054 236.219L86.6825 246.073C88.5991 251.203 97.0627 275.12 103.964 273.005ZM141.865 250.089C142.87 252.792 142.11 254.459 141.063 255.771C138.724 252.802 137.427 249.745 135.646 245.797C135.495 245.391 135.479 244.932 135.599 244.427C138.214 244.839 140.552 246.578 141.865 250.089Z" fill="#EACC55"/>
<path d="M175.944 247.309C183.59 245.205 188.783 237.684 192.71 231.924L192.575 231.966L192.668 231.783C192.757 232.059 193.205 232.523 193.429 232.752C198.002 239.627 203.564 247.242 211.955 244.611C223.226 241.07 229.944 229.747 227.007 220.398C224.372 212.012 217.335 207.877 207.335 208.752L202.986 194.408C199.658 183.82 193.71 164.393 186.148 166.768C180.788 168.45 173.241 175.2 174.028 179.637C177.59 194.83 183.465 208.242 187.783 221.992C188.085 222.955 185.705 225.966 181.981 230.455L176.757 213.82C173.215 202.549 164.153 176.091 152.465 179.757C146.278 181.705 131.627 196.122 141.215 200.21C145.023 198.861 147.622 196.085 149.398 193.565C153.017 197.861 155.189 203.825 156.96 209.466L160.111 219.502C161.752 224.726 168.939 249.054 175.944 247.309ZM215.007 226.429C215.866 229.179 215.017 230.809 213.903 232.065C211.726 228.971 210.596 225.851 209.023 221.815C208.892 221.403 208.903 220.945 209.049 220.45C211.637 220.997 213.882 222.856 215.007 226.429Z" fill="#EACC55"/>
<path d="M165.154 129.253C158.956 129.238 153.441 129.456 147.665 131.269C138.592 134.123 129.352 143.67 132.331 153.154C135.654 163.743 150.435 160.305 162.123 156.639C173.81 152.967 194.034 138.009 189.284 122.884C185.79 111.748 183.409 104.639 173.894 106.571C161.383 110.498 162.889 118.18 165.154 129.253ZM153.93 150.753C150.357 151.873 148.435 149.607 147.962 148.097C146.712 144.107 148.238 140.305 151.946 139.139C153.873 138.535 161.628 138.217 165.175 141.331C163.238 145.264 157.784 149.545 153.93 150.753Z" fill="#EACC55"/>
<path d="M143.935 76.1023C137.06 78.2585 128.93 87.0085 131.003 93.6075C132.643 98.8314 138.867 97.4825 142.44 96.3575C145.602 95.3627 146.873 93.1544 147.503 90.8419C148.164 94.8627 147.68 99.0919 149.018 103.357C151.175 110.227 161.763 106.904 166.024 105.566C176.201 102.373 192.097 79.4044 194.586 64.7273C189.643 63.4096 183.8 64.0346 180.909 64.9408C174.722 66.8835 168.253 77.0762 163.425 84.7846C158.607 76.1752 153.972 72.9512 143.935 76.1023Z" fill="#EACC55"/>
<path d="M260.617 195.13C267.278 220.646 267.674 231.86 274.163 230.464C278.835 229.542 283.71 227.672 287.971 224.031C286.309 211.953 284.669 202.255 282.044 192.214C276.877 172.412 265.028 139.016 239.372 145.719C214.971 152.089 219.773 180.177 224.507 198.302C227.419 209.459 231.507 219.412 234.34 226.266C236.351 231.104 237.002 233.615 243.137 232.011C244.814 231.578 246.689 230.787 249.054 229.573C252.221 228.005 252.643 225.063 252.512 219.438C252.372 198.922 250.304 181.886 254.351 180.828C256.981 181.781 259.742 191.781 260.617 195.13ZM238.762 154.219C245.033 152.578 250.674 160.49 254.924 172.188C246.742 172.24 241.674 181.906 239.71 188.078C238.549 180.781 231.372 156.146 238.762 154.219Z" fill="#EACC55"/>
<path d="M344.672 205.902C343.292 198.98 339.73 202.48 335.006 206.803C333.172 208.641 330.938 210.704 329.521 210.985C322.881 212.313 318.563 187.751 318.115 185.49C315.938 174.61 313.766 163.725 303.454 156.969C301.251 155.501 299.949 152.673 299.303 149.423C298.256 144.193 299.251 133.709 303.49 132.86C311.829 131.193 321.037 150.079 325.047 159.12C327.277 165.141 329.563 171.449 335.407 187.475C338.261 195.87 341.48 198.016 349.396 196.438C352.928 195.73 355.73 194.292 358.839 193.667C362.709 200.537 366.292 213.344 376.469 211.313C385.792 209.449 394.047 202.214 391.709 190.485C390.324 183.563 387.157 182.428 378.824 181.157C376.876 173.61 375.631 167.391 374.334 160.891C371.256 145.485 370.636 141.641 369.594 136.412C368.521 130.308 366.605 119.964 358.407 121.6C344.131 124.449 344.865 136.943 346.922 147.261C349.438 159.839 352.652 173.745 356.042 186.292C354.402 186.912 355.902 186.318 355.053 186.49C352.933 186.912 340.646 151.157 337.146 142.454C332.574 132.048 323.475 118.876 310.334 121.501C293.938 124.777 277.063 139.61 280.084 154.73C281.1 159.818 284.6 163.381 287.99 167.11C293.584 173.048 294.344 178.334 295.73 185.256C299.37 203.485 303.318 223.271 324.662 219.011C332.433 217.459 339.641 213.813 344.672 205.902Z" fill="#EACC55"/>
<path d="M429.486 186.795C428.903 188.78 424.882 195.056 423.747 192.311C419.71 175.863 417.403 159.306 414.747 141.342C412.992 129.509 409.872 117.295 403.174 118.29C389.486 120.316 390.622 134.863 392.434 147.124C396.127 172.066 398.591 207.394 417.695 204.566C427.815 203.071 442.085 196.15 440.335 184.316C440.127 182.894 438.486 181.676 435.497 182.118C431.789 182.67 430.638 184.733 429.872 186.452L429.486 186.795Z" fill="#EACC55"/>
<path d="M482.774 118.769C487.748 108.654 494.259 95.3259 491.483 91.1384C490.493 90.0863 486.978 89.7478 485.405 89.9197C473.514 91.227 469.894 97.8572 465.045 106.508C449.181 104.628 435.686 117.711 432.311 130.55C431.222 133.857 434.785 135.93 438.222 135.555C441.806 135.159 445.545 133.586 448.561 130.649C450.139 125.253 453.603 118.498 455.035 118.336C459.618 117.836 466.587 132.435 468.681 151.487C465.212 148.972 462.004 147.441 456.701 148.019C441.087 149.737 432.738 158.191 434.675 175.81C436.186 189.566 443.894 197.706 457.931 196.164C471.54 194.67 475.019 185.441 475.306 185.409C493.071 183.461 495.129 177.144 492.488 153.076C491.368 142.909 488.451 134.821 482.774 118.769ZM463.879 188.263C458.717 188.826 455.629 177.857 454.951 171.701C454.498 167.545 453.712 159.076 453.853 159.06C455.144 158.92 458.623 165.498 462.212 171.774C464.957 176.977 467.847 182.17 471.139 184.42C468.733 187.581 465.165 188.118 463.879 188.263Z" fill="#EACC55"/>
<path d="M457.72 68.896C451.642 67.6773 446.183 66.8283 440.168 67.4898C430.715 68.5262 419.803 76.1044 420.892 85.9898C422.1 97.021 437.267 96.5158 449.444 95.1773C461.621 93.8387 484.361 83.0783 482.626 67.3179C481.355 55.7189 480.392 48.2814 470.683 48.3335C457.647 49.7658 457.642 57.5991 457.72 68.896ZM442.548 87.8179C438.824 88.2241 437.376 85.6304 437.204 84.0523C436.746 79.9012 438.98 76.4637 442.85 76.0419C444.855 75.8179 452.522 77.0054 455.397 80.7502C452.736 84.2294 446.558 87.3752 442.548 87.8179Z" fill="#EACC55"/>
<path d="M474.766 16.8595C474.011 8.68241 472.927 -1.20301 460.891 0.119908C450.865 1.21887 449.854 6.5522 451.005 17.0053C452.25 28.323 454.276 46.8022 463.162 45.8282C476.052 44.4116 475.698 34.5939 474.766 16.8595Z" fill="#EACC55"/>
<path d="M555.29 94.2653C551.931 93.6091 550.634 93.6924 549.342 93.7705C543.155 94.1612 537.222 96.2653 537.488 105.057C537.832 115.146 538.321 125.224 538.806 135.297C539.295 145.375 539.92 155.297 540.264 165.385C540.363 171.588 539.66 183.328 537.931 183.437C535.774 183.573 532.889 176.677 532.509 170.635C532.004 162.583 536.17 155.39 538.03 148.198C528.399 142.015 515.983 137.453 515.17 124.51C514.993 121.635 515.816 118.692 517.41 116.427C518.306 116.948 519.368 117.75 521.67 117.604C524.832 117.406 530.498 115.604 530.269 112.01C529.983 107.406 523.884 106.922 520.144 107.156C508.066 107.916 497.129 117.703 497.889 129.781C498.592 141 506.556 145.989 520.707 152.896C516.748 163.396 514.879 168.135 515.306 174.896C515.998 185.968 524.675 193.078 535.321 192.406C558.478 190.953 564.269 172.828 561.8 133.567C561.144 123.067 559.717 100.343 555.29 94.2653Z" fill="#EACC55"/>
<path d="M592.981 100.144C583.616 100.342 573.949 106.889 573.007 116.712C575.47 117.379 577.35 117.629 578.647 117.597C587.58 117.41 589.512 113.332 590.882 110.134C591.439 109.113 592.132 107.8 592.132 107.8C596.168 107.717 598.345 129.004 598.574 139.665C598.679 144.707 598.1 151.493 597.095 158.436C591.658 146.728 586.09 135.603 578.022 135.774C574.564 135.847 567.793 136.134 567.908 141.467C568.236 157.024 586.908 187.764 596.991 187.55C604.059 187.837 610.106 187.42 612.267 180.597C614.465 168.733 616.512 156.29 616.225 142.894C615.923 128.629 613.147 99.7171 592.981 100.144Z" fill="#EACC55"/>
<path d="M664.155 164.435C664.546 172.951 665.082 181.466 666.338 189.998C668.64 190.19 670.791 190.529 672.812 190.571C687.364 190.888 688.796 184.576 689.103 170.602L689.322 160.519C689.874 135.159 682.671 101.992 659.046 101.477C637.723 101.013 623.733 114.545 623.077 144.513C622.676 162.951 626.687 177.31 646.567 177.748C655.645 177.946 661.681 172.164 664.155 164.435ZM647.838 126.17C649.551 120.295 652.202 111.274 655.655 111.347C659.692 111.435 661.744 123.159 662.681 132.836C659.879 129.17 654.166 126.742 647.838 126.17ZM648.687 133.539C650.27 133.576 651.379 142.248 651.27 147.144C651.119 154.06 649.114 166.847 646.952 166.8C646.52 166.789 646.067 154.383 646.218 147.466L646.27 145.164C646.233 140.258 646.093 133.482 648.687 133.539Z" fill="#EACC55"/>
<path d="M743.068 171.461C747.922 163.695 750.349 153.315 750.959 144.258C751.787 131.893 748.292 104.357 733.625 103.372C717.381 102.284 701.032 113.461 696.678 128.768C695.922 131.466 698.193 134.216 701.5 134.44C710.704 135.055 717.407 125.539 722.261 119.945C725.823 120.617 725.193 138.627 724.594 147.544C724.073 155.305 720.584 179.336 715.12 178.971C711.813 178.747 710.011 175.45 705.433 168.357C697.37 170.122 694.276 171.07 693.985 175.388C693.542 182.002 699.875 186.612 706.776 187.075C720.438 187.992 736.448 184.013 743.068 171.461Z" fill="#EACC55"/>
<path d="M785.336 108.269C776.023 107.279 765.607 112.55 763.43 122.175C765.789 123.149 767.622 123.633 768.909 123.769C777.794 124.712 780.226 120.915 781.992 117.915C782.674 116.972 783.529 115.758 783.529 115.758C787.539 116.18 787.013 137.571 785.888 148.18C785.357 153.196 783.924 159.852 782.049 166.613C778.138 154.311 774.018 142.571 765.992 141.722C762.555 141.357 755.805 140.785 755.242 146.087C753.601 161.566 768.232 194.42 778.263 195.482C785.242 196.654 791.289 197.008 794.299 190.514C797.982 179.024 801.581 166.941 802.992 153.613C804.497 139.425 805.398 110.394 785.336 108.269Z" fill="#EACC55"/>
<path d="M847.059 197.271L846.881 217.506C853.517 220.855 865.085 221.454 866.96 209.204C867.829 203.506 868.282 198.62 869.022 193.777C870.309 185.37 871.975 177.318 874.309 174.464C882.23 164.594 889.001 153.678 890.829 141.709C892.246 132.448 890.35 121.959 879.236 120.261C858.871 119.042 853.423 140.37 849.439 166.438C848.657 171.568 848.574 175.928 847.918 180.198C847.267 184.474 841.418 188.391 836.569 190.568C836.428 183.839 837.329 175.084 838.251 166.188C840.355 142.891 842.543 117.131 829.152 115.084C822.027 113.995 807.944 128.896 812.215 129.553C815.21 130.011 817.902 129.547 822.131 128.589C824.168 141 821.845 158.141 819.949 172.428C818.199 184.844 812.824 199.037 827.355 201.256C832.767 202.084 839.361 200.907 847.059 197.271ZM866.579 160.162C865.736 160.912 871.439 134.084 876.001 134.782C880.413 135.454 872.975 154.579 866.579 160.162Z" fill="#EACC55"/>
<path d="M929.302 154.349C941.427 153.984 948.724 147.651 953.615 132.76C954.719 129.453 953.698 127.192 949.037 126.26C939.005 124.25 934.677 129.703 931.089 134.421L929.224 137.135C926.594 136.317 923.823 135.468 921.281 134.958C906.302 131.958 896.297 137.156 893.693 150.161C892.083 158.213 892.703 170.536 901.037 172.203C905.276 173.052 909.037 171.895 912.568 172.604C915.537 173.197 915.453 179.5 913.953 186.989C912.964 191.932 910.927 200.64 909.995 203.099C909.995 202.364 909.682 200.979 909.344 199.734C908.271 195.552 906.49 190.489 902.677 189.729C897.307 188.651 891.849 189.474 890.693 195.265C889.25 202.474 895.125 212.76 903.464 214.427C920.276 217.796 929.323 207.849 932.406 192.447C934.359 182.697 934.078 167.208 922.63 164.916C919.526 164.296 915.792 163.843 912.656 163.359C911.5 158.13 912.912 154.005 914.271 149.427C918.849 152.255 924.386 153.953 929.302 154.349Z" fill="#EACC55"/>
<path d="M908.687 77.4725C904.052 75.66 899.844 73.936 894.896 72.9465C881.615 70.285 873.729 75.91 871.891 85.0975C868.495 102.051 883.219 106.321 897.208 109.124C910.349 111.754 925.609 109.665 928.667 94.4048C931.297 81.2642 931.75 76.061 919.74 73.6548C913.948 72.4985 913.521 73.1496 908.687 77.4725ZM898.031 85.9204C899.87 86.285 905.719 89.3683 907.698 93.436C906.115 95.4725 901.448 98.2121 895.516 97.0246C895.177 96.5194 888.844 95.8371 889.917 90.4673C890.995 85.0975 897.182 85.7485 898.031 85.9204ZM949.156 101.446L949.552 99.4673C950.88 93.561 953.031 85.0246 943.984 83.2121C934.375 81.2902 933.021 88.8058 931.578 96.0142L931.125 98.2746C930.104 103.363 928.578 110.993 936.917 112.66C946.099 114.499 947.427 110.066 949.156 101.446Z" fill="#EACC55"/>
<path d="M982.148 140.694C973.465 138.579 958.116 137.652 950.153 144.761C949.335 148.121 952.455 149.917 956.934 151.011C964.215 152.787 971.788 150.334 976.549 151.49C979.767 152.277 982.148 158.938 982.913 164.319L979.132 163.397C961.069 158.99 947.366 164.699 941.939 186.959C937.158 206.558 945.684 223.917 966.121 228.902C988.944 234.47 1000.74 207.381 1004.05 193.803C1009.31 172.24 1008.19 147.048 982.148 140.694ZM961.21 188.839C963.976 177.501 970.741 169.214 983.549 172.037C983.486 178.996 983.491 185.673 981.679 193.089C979.97 200.089 971.606 222.23 963.523 220.704C957.538 219.095 958.679 199.199 961.21 188.839Z" fill="#EACC55"/>
<path d="M1080.7 162.21C1077.76 160.444 1076.52 160.08 1075.27 159.715C1069.33 157.965 1063.03 157.918 1060.28 166.267C1057.15 175.866 1054.17 185.502 1051.19 195.137C1048.2 204.778 1045.39 214.314 1042.27 223.913C1040.25 229.778 1035.57 240.569 1033.91 240.08C1031.84 239.47 1031.48 232.002 1033.19 226.2C1035.47 218.455 1041.84 213.121 1046.05 206.996C1039.11 197.897 1029 189.366 1032.66 176.924C1033.47 174.158 1035.25 171.679 1037.52 170.09C1038.19 170.887 1038.91 172.002 1041.13 172.653C1044.17 173.549 1050.11 173.793 1051.12 170.335C1052.43 165.908 1046.86 163.371 1043.26 162.314C1031.65 158.897 1018.03 164.356 1014.61 175.97C1011.44 186.752 1017.23 194.163 1028.16 205.491C1020.85 214.007 1017.48 217.819 1015.57 224.319C1012.44 234.965 1018.16 244.611 1028.39 247.616C1050.65 254.163 1062.29 239.111 1073.39 201.366C1076.36 191.278 1082.78 169.434 1080.7 162.21Z" fill="#EACC55"/>
<path d="M1087.29 147.474C1096.25 142 1121.88 127.907 1100.32 121.563C1096.03 120.302 1091.2 120.386 1086.96 123.042C1080.73 127.37 1071.92 133.339 1068.44 135.469C1070.02 130.078 1068.99 124.37 1062.5 122.459C1057.24 120.912 1052.85 123.078 1050.45 131.235C1046.87 143.401 1058.29 147.506 1067.55 150.229C1074.74 152.344 1081.3 150.969 1087.29 147.474Z" fill="#EACC55"/>
<path d="M1114.11 180.612C1105.24 177.601 1093.92 180.45 1089.68 189.357C1091.77 190.831 1093.44 191.706 1094.67 192.122C1103.14 194.997 1106.34 191.825 1108.73 189.289C1109.6 188.518 1110.7 187.523 1110.7 187.523C1114.52 188.82 1109.29 209.57 1105.86 219.669C1104.24 224.44 1101.38 230.622 1098.06 236.799C1096.95 223.945 1095.52 211.586 1087.88 208.987C1084.6 207.878 1078.14 205.831 1076.43 210.883C1071.42 225.617 1078.46 260.888 1088.01 264.133C1094.56 266.815 1100.38 268.487 1104.74 262.815C1110.87 252.419 1117.04 241.424 1121.35 228.737C1125.94 215.226 1133.21 187.107 1114.11 180.612Z" fill="#EACC55"/>
<path d="M1147.28 198.854C1143.76 209.39 1142.12 214.161 1139.64 221.541C1130.64 247.411 1127.41 257.593 1137.66 261.463C1152.63 267.109 1158.92 240.218 1165 226.182L1171.56 208.791C1174.87 200.026 1177.18 191.041 1169.36 188.093C1155.07 182.698 1151.76 186.989 1147.28 198.854ZM1143.45 279.974C1144.57 277.01 1146.66 272.713 1139.25 269.916C1129.13 266.099 1124.56 268.838 1122.06 275.442C1120.28 280.161 1121.64 282.677 1128.12 285.119C1135.8 288.02 1140.15 288.739 1143.45 279.974Z" fill="#EACC55"/>
<path d="M1190.98 236.323C1196.82 238.792 1198.57 233.902 1199.24 232.308C1202.73 224.079 1212.2 214.631 1217.51 216.875C1222.95 219.178 1220.83 226.417 1218.58 231.724C1214.98 239.125 1209.31 244.391 1203.83 249.584C1197.86 255.193 1193.74 256.422 1191.04 262.792C1185.2 276.594 1186.41 281.49 1195.44 285.308C1206.19 289.86 1210.52 280.735 1213 275.995C1216.48 267.766 1221.84 264.714 1227.43 258.157C1232.57 252.667 1237.8 246.589 1241.61 240.532C1248.01 225.402 1230.89 212.995 1219.87 208.334C1203.95 201.594 1189.67 204.631 1184 218.037C1180.75 225.735 1182.75 232.839 1190.98 236.323ZM1200.5 301.844C1201.84 298.657 1203.42 296.042 1195.99 292.896C1186.16 288.74 1181.49 291.297 1178.73 297.803C1176.77 302.448 1177.37 304.735 1184.27 307.652C1191.83 310.855 1196.96 310.204 1200.5 301.844Z" fill="#EACC55"/>
</svg>
