<svg width="417" height="432" viewBox="0 0 417 432" fill="none" xmlns="http://www.w3.org/2000/svg">
<mask id="mask0_844_1439" style="mask-type:luminance" maskUnits="userSpaceOnUse" x="0" y="0" width="417" height="432">
<path d="M0 0H416.995V432H0V0Z" fill="white"/>
</mask>
<g mask="url(#mask0_844_1439)">
<path d="M415.432 85.7708C414.734 85.2708 413.984 85.1927 413.193 85.0677C410.865 84.6927 408.531 84.6406 406.188 84.5938C409.323 81.0052 412.031 77.3073 413.953 72.875C415.458 69.4063 416.99 63.0521 416.031 59.1146C414.849 54.2344 408.609 52.3958 404.594 55.099C403.599 55.7708 402.818 56.6406 402.26 57.6979C401.698 58.7604 401.417 59.8906 401.422 61.0938C401.438 63.7813 403.016 65.4792 405.573 66.0417C400.234 75.9844 388.766 83.6875 379.234 88.224C368.469 93.349 357.401 96.0365 345.76 97.901C323.964 101.391 297.932 101.807 276 101.401V95.0208L296.516 87.7448V81.9792L298.052 80.7135L295.318 78.5781C299.651 75.0885 303.922 70.1667 300.844 64.0573C300.151 62.6823 299.349 61.7448 297.828 61.224C296.453 60.7083 295.052 60.6354 293.63 61.0104C290.245 61.875 289.359 65.026 291.922 67.4427C279.573 74.4479 263.964 74.1719 251.203 69.3385C244.479 66.7865 238.781 63.026 233.214 58.6146C230.469 56.4375 227.792 54.1771 224.984 52.0729C223.396 50.8333 221.714 49.7292 219.948 48.7604C218.589 48.0521 217.307 47.4583 215.703 47.4792C216.771 46.2865 216.422 44.9896 215.505 43.8802C214.62 42.8125 213.537 42.1094 212.359 41.4531C214.016 40.25 216.75 38.1979 217.719 36.1823C219.266 32.9531 216.453 31.9115 213.677 31.5677C213.703 31.1771 213.693 30.7865 213.641 30.3958C213.594 30 213.51 29.6198 213.385 29.2448C213.266 28.8698 213.109 28.5104 212.917 28.1667C212.724 27.8177 212.505 27.4948 212.25 27.1927C212 26.8906 211.719 26.6146 211.417 26.3646C211.109 26.1146 210.781 25.8958 210.438 25.7135C210.089 25.526 209.729 25.3698 209.354 25.2552C208.974 25.1354 208.594 25.0521 208.198 25.0104V22.2344C208.818 22.151 209.401 21.9583 209.948 21.6615C210.5 21.3646 210.979 20.9844 211.385 20.5104C211.797 20.0417 212.109 19.5156 212.328 18.9323C212.552 18.349 212.662 17.7448 212.662 17.1198C212.662 16.4948 212.552 15.8906 212.328 15.3073C212.109 14.724 211.797 14.1979 211.385 13.7292C210.979 13.2552 210.5 12.875 209.948 12.5781C209.401 12.2813 208.818 12.0938 208.198 12.0052V8.80208C208.557 8.74479 208.906 8.64583 209.24 8.5C209.568 8.35417 209.88 8.17188 210.167 7.95313C210.453 7.72917 210.708 7.47396 210.932 7.19271C211.156 6.90625 211.344 6.59896 211.49 6.26563C211.635 5.93229 211.74 5.58854 211.802 5.22917C211.865 4.875 211.88 4.51563 211.849 4.15104C211.823 3.79167 211.75 3.4375 211.63 3.09375C211.516 2.75 211.354 2.42708 211.156 2.125C210.958 1.81771 210.729 1.54167 210.464 1.29688C210.193 1.05208 209.901 0.843751 209.583 0.666667C209.266 0.494792 208.927 0.364584 208.578 0.276042C208.224 0.1875 207.87 0.140625 207.505 0.140625C207.141 0.140625 206.787 0.1875 206.432 0.276042C206.083 0.364584 205.745 0.494792 205.427 0.666667C205.109 0.843751 204.818 1.05208 204.547 1.29688C204.281 1.54167 204.052 1.81771 203.854 2.125C203.656 2.42708 203.495 2.75 203.38 3.09375C203.266 3.4375 203.188 3.79167 203.162 4.15104C203.13 4.51563 203.146 4.875 203.208 5.22917C203.271 5.58854 203.375 5.93229 203.521 6.26563C203.667 6.59896 203.854 6.90625 204.078 7.19271C204.302 7.47396 204.557 7.72917 204.844 7.95313C205.13 8.17188 205.443 8.35417 205.776 8.5C206.104 8.64583 206.453 8.74479 206.813 8.80208V12.0052C206.193 12.0938 205.609 12.2813 205.063 12.5781C204.51 12.875 204.031 13.2552 203.625 13.7292C203.214 14.1979 202.901 14.724 202.682 15.3073C202.464 15.8906 202.354 16.4948 202.354 17.1198C202.354 17.7448 202.464 18.349 202.682 18.9323C202.901 19.5156 203.214 20.0417 203.625 20.5104C204.031 20.9844 204.51 21.3646 205.063 21.6615C205.609 21.9583 206.193 22.151 206.813 22.2344V24.9948C206.417 25.0417 206.037 25.1198 205.656 25.2396C205.281 25.3542 204.922 25.5104 204.573 25.6979C204.229 25.8854 203.901 26.099 203.594 26.349C203.292 26.599 203.01 26.875 202.76 27.1771C202.505 27.4792 202.287 27.8073 202.094 28.151C201.901 28.4948 201.745 28.8542 201.625 29.2292C201.5 29.6042 201.417 29.9896 201.37 30.3802C201.318 30.7708 201.307 31.1615 201.333 31.5573C198.557 31.901 195.745 32.9375 197.292 36.1719C198.26 38.1875 200.995 40.2292 202.651 41.4375C201.474 42.0938 200.391 42.7917 199.505 43.8646C198.589 44.9792 198.24 46.2708 199.307 47.4635C197.703 47.4635 196.422 48.0469 195.068 48.7448C193.271 49.6875 191.651 50.8438 190.031 52.0521C187.224 54.1615 184.542 56.4219 181.797 58.599C176.208 63.0208 170.51 66.7813 163.792 69.3333C151.031 74.1719 135.417 74.4427 123.073 67.4375C125.635 65.0208 124.74 61.8646 121.349 61.0052C119.932 60.6354 118.531 60.7031 117.156 61.2188C115.625 61.7396 114.833 62.6771 114.141 64.0573C111.068 70.1719 115.333 75.0938 119.667 78.5781L116.938 80.7135L118.469 81.9792V87.7448L138.984 95.0208V101.401C117.068 101.802 91.0157 101.391 69.2188 97.8958C57.5677 96.0313 46.4948 93.3385 35.7344 88.2083C26.2084 83.6719 14.7396 75.974 9.4115 66.0417C11.974 65.4792 13.5521 63.776 13.5625 61.0885C13.5677 59.8906 13.2865 58.7604 12.7292 57.6979C12.1667 56.6354 11.3907 55.7708 10.3959 55.099C6.38025 52.3958 0.145871 54.2292 -1.04684 59.1094C-2.00517 63.0521 -0.473921 69.4063 1.03129 72.875C2.95316 77.3021 5.6615 80.9896 8.79691 84.5938C6.44796 84.6458 4.11983 84.6927 1.7917 85.0677C1.00004 85.1927 0.250038 85.2708 -0.447879 85.7708C-0.796837 86 -0.968711 86.3229 -0.968711 86.7448C-1.04684 87.9948 -0.651003 89.0365 -0.187462 90.1354C1.79691 94.8333 5.11462 97.651 9.04691 100.464C7.81254 101.646 8.25004 102.583 9.21358 103.719C10.0469 104.667 10.9375 105.557 11.8959 106.38C13.7917 108.052 15.8021 109.573 17.9271 110.938C22.198 113.714 26.6719 115.943 31.3125 117.974C27.9896 119.469 28.4688 121.589 30.6927 123.984C32.4532 125.891 34.4844 127.38 36.6094 128.823C40.8542 131.698 45.3646 134.063 50.1511 135.906C50.1511 137.786 50.1198 139.646 50.4844 141.51C50.9844 144.104 52.1563 144.344 54.4532 144.682C54.4532 145.776 54.5052 146.911 55.8855 147.12C56.9532 147.286 58.0052 147.141 59.0625 147.12C59.0625 148.755 59.3438 149.531 61.0938 149.823C62.375 150.036 63.6563 149.99 64.9375 149.969C64.8907 151.526 65.4584 152.25 67.0209 152.464C68.2709 152.641 69.4896 152.531 70.7292 152.427C70.698 153.964 71.3542 154.563 72.8073 154.839C74 155.016 75.2032 155.094 76.4063 155.073C76.3386 156.464 76.6198 157.313 78.0938 157.688C79.2448 157.99 80.3907 157.974 81.5521 157.974C81.4167 159.255 81.7657 160.333 83.1771 160.604V166.37H74.4948C74.948 169.224 76.1719 171.813 78.8646 173.307C77.4532 174.615 75.6823 174.776 73.9271 174.422C74.6719 171.578 72.875 169.083 69.8907 169.083C68.5625 169.083 67.25 169.557 66.75 170.958C66.3386 172.115 66.474 173.76 67.6875 174.458C67.25 174.875 66.75 175.208 66.1927 175.448C65.6407 175.693 65.0417 175.781 64.4844 176.063C63.7136 176.458 63.9427 177.016 64.5105 177.505C64.724 177.698 64.9271 177.859 64.974 178.182C65.0417 178.531 64.9427 178.828 64.6719 179.063C64.4584 179.302 64.1927 179.427 63.875 179.438C63.5573 179.448 63.2813 179.339 63.0521 179.12C62.599 178.714 62.2657 178.245 61.5365 178.266C60.0834 178.286 59.698 179.875 59.0677 180.661H54.1771C56.875 178.807 55.5625 174.583 52.2917 174.583C49.0261 174.583 47.7136 178.807 50.4063 180.661H43.6355C43.599 181.255 43.6459 181.844 43.7761 182.422C43.9063 183.005 44.1094 183.557 44.3907 184.078C44.6771 184.604 45.0261 185.078 45.4427 185.505C45.8542 185.932 46.323 186.297 46.8386 186.594C47.0052 187.13 47.25 187.641 47.5625 188.109C47.8802 188.583 48.2552 189 48.6875 189.359C49.125 189.724 49.6042 190.016 50.125 190.245C50.6459 190.469 51.1875 190.615 51.75 190.682V203.234H51.4375C50.9896 203.354 50.5834 203.552 50.2084 203.823C43.9427 208.422 43.448 209.427 43.6042 210.422C43.7813 211.526 44.7552 212.615 45.1146 213.318C45.4792 214.016 45.224 214.333 44.5573 214.849C43.8959 215.37 42.823 216.099 42.3386 216.646C41.8594 217.193 41.9792 217.563 42.1719 217.88C42.3646 218.203 42.6302 218.469 44.0417 218.693V239.734H42.1198V242.083H40.0417V245.245H64.8594V242.083H62.7761V239.734H60.8542V218.693C62.2657 218.469 62.5365 218.198 62.7292 217.88C62.9219 217.563 63.0365 217.193 62.5573 216.646C62.0782 216.094 61.0052 215.365 60.3386 214.849C59.6771 214.339 59.4219 214.021 59.7813 213.318C60.1459 212.615 61.1198 211.526 61.2917 210.422C61.4532 209.427 60.9584 208.422 54.6875 203.823C54.3177 203.552 53.9115 203.354 53.4636 203.234H53.1511V190.661C53.7136 190.594 54.2552 190.448 54.7761 190.219C55.2969 189.995 55.7761 189.703 56.2084 189.339C56.6459 188.979 57.0209 188.563 57.3334 188.089C57.6511 187.62 57.8907 187.109 58.0625 186.568H82.5313V322.109H74.6094C74.9844 324.87 76.2448 326.906 78.3959 328.219C77.5313 332.703 80.9948 335.844 82.8698 336.333L80.8907 341.839H76.4427V399.75H37.7657V409.042H14.3177V419.781H0.984413V431.891H132.802V408.495L121.87 406.828V196.266H156.948C159.141 192.688 163.953 187.922 170.474 183.755C177 179.583 185.234 176.005 207.49 176.083C229.74 176.005 237.979 179.583 244.5 183.755C251.021 187.922 255.833 192.688 258.031 196.266H293.109V406.828L282.172 408.495V431.891H413.995V419.792H400.656V409.052H377.214V399.76H338.537V341.849H334.089L332.109 336.344C333.984 335.844 337.448 332.714 336.578 328.229C338.729 326.917 339.99 324.885 340.365 322.12H332.448V186.568H356.906C357.078 187.109 357.318 187.62 357.63 188.089C357.948 188.563 358.323 188.979 358.76 189.339C359.193 189.703 359.672 189.995 360.193 190.219C360.714 190.448 361.255 190.594 361.818 190.661V203.214H361.505C361.057 203.333 360.651 203.531 360.276 203.802C354.01 208.401 353.516 209.406 353.672 210.401C353.849 211.5 354.823 212.594 355.188 213.297C355.547 213.995 355.292 214.313 354.63 214.828C353.964 215.349 352.891 216.078 352.412 216.625C351.932 217.172 352.047 217.542 352.24 217.859C352.432 218.182 352.698 218.448 354.109 218.672V239.714H352.188V242.063H350.109V245.224H374.917V242.063H372.839V239.714H370.917V218.672C372.328 218.448 372.594 218.177 372.787 217.859C372.979 217.542 373.094 217.172 372.615 216.625C372.141 216.073 371.063 215.344 370.396 214.828C369.734 214.318 369.479 214 369.839 213.297C370.203 212.594 371.177 211.5 371.354 210.401C371.51 209.406 371.016 208.401 364.75 203.802C364.375 203.531 363.969 203.333 363.521 203.214H363.208V190.661C363.771 190.594 364.313 190.448 364.833 190.219C365.354 189.995 365.833 189.703 366.266 189.339C366.703 188.979 367.078 188.563 367.396 188.089C367.708 187.62 367.953 187.109 368.12 186.568C368.635 186.271 369.099 185.911 369.516 185.484C369.932 185.057 370.281 184.583 370.563 184.057C370.849 183.536 371.052 182.984 371.182 182.401C371.313 181.818 371.359 181.234 371.323 180.635H364.547C367.24 178.786 365.932 174.563 362.662 174.563C359.391 174.563 358.083 178.786 360.776 180.635H355.885C355.26 179.854 354.87 178.266 353.422 178.245C352.688 178.245 352.354 178.703 351.901 179.099C351.672 179.318 351.401 179.427 351.078 179.417C350.76 179.401 350.495 179.281 350.281 179.042C350.01 178.807 349.912 178.51 349.984 178.156C350.031 177.833 350.229 177.677 350.448 177.484C351.016 176.995 351.245 176.438 350.469 176.042C349.922 175.76 349.323 175.672 348.771 175.427C348.214 175.188 347.714 174.854 347.276 174.438C348.49 173.74 348.625 172.089 348.214 170.938C347.719 169.536 346.401 169.068 345.073 169.063C342.083 169.052 340.292 171.552 341.037 174.401C339.281 174.755 337.51 174.594 336.099 173.286C338.792 171.792 340.021 169.203 340.469 166.349H331.787V160.583C333.208 160.313 333.552 159.234 333.412 157.953C334.578 157.953 335.724 157.969 336.875 157.667C338.339 157.292 338.63 156.443 338.557 155.052C339.766 155.073 340.964 154.995 342.156 154.818C343.615 154.552 344.266 153.943 344.24 152.406C345.474 152.51 346.698 152.62 347.948 152.443C349.505 152.229 350.083 151.505 350.031 149.948C351.313 149.969 352.594 150.016 353.875 149.802C355.625 149.51 355.912 148.734 355.912 147.099C356.979 147.13 358.01 147.271 359.083 147.099C360.464 146.885 360.516 145.755 360.516 144.661C362.818 144.323 363.984 144.083 364.49 141.49C364.849 139.62 364.823 137.766 364.823 135.885C369.604 134.036 374.12 131.677 378.365 128.802C380.484 127.354 382.521 125.865 384.281 123.964C386.5 121.563 386.979 119.453 383.656 117.948C388.302 115.922 392.781 113.677 397.042 110.901C399.172 109.536 401.182 108.016 403.078 106.344C404.037 105.521 404.927 104.635 405.76 103.682C406.719 102.552 407.156 101.609 405.922 100.432C409.854 97.6198 413.167 94.8073 415.156 90.1042C415.625 89.0052 416.01 87.9688 415.938 86.7083C415.932 86.3073 415.766 85.9948 415.432 85.7708ZM50.7969 239.714H45.3282V217.542C46.3594 217.328 48.0677 217.151 50.7969 217.089V239.714ZM54.1146 217.089C56.8386 217.151 58.5521 217.318 59.5834 217.542V239.714H54.1146V217.089ZM82.1511 180.635H69.3594C70.5 180.047 71.349 178.99 71.9063 177.458H82.1563L82.1511 180.635ZM360.865 239.714H355.396V217.542C356.427 217.328 358.135 217.151 360.865 217.089V239.714ZM364.188 217.089C366.912 217.151 368.625 217.318 369.656 217.542V239.714H364.188V217.089ZM332.823 177.458H343.073C343.63 178.99 344.479 180.052 345.615 180.635H332.828L332.823 177.458ZM302.76 111.974C302.875 111.823 303.031 111.734 303.224 111.714C303.412 111.693 303.583 111.74 303.734 111.859L310.943 117.5C311.115 117.609 311.214 117.766 311.245 117.969C311.276 118.167 311.229 118.344 311.104 118.505C310.979 118.661 310.818 118.75 310.62 118.771C310.417 118.786 310.24 118.729 310.094 118.594L302.88 112.953C302.729 112.833 302.641 112.682 302.62 112.49C302.594 112.297 302.641 112.125 302.76 111.974ZM291.375 112.026C291.505 111.885 291.672 111.813 291.859 111.807C292.052 111.802 292.219 111.865 292.359 112L298.63 117.917C298.76 118.047 298.828 118.208 298.828 118.396C298.833 118.583 298.771 118.745 298.641 118.88C298.51 119.016 298.354 119.089 298.167 119.099C297.979 119.109 297.818 119.052 297.677 118.927C295.589 116.953 293.5 114.984 291.412 113.01C291.266 112.88 291.193 112.719 291.188 112.526C291.177 112.333 291.24 112.167 291.37 112.026H291.375ZM280.802 111.458C280.953 111.344 281.125 111.302 281.318 111.328C281.505 111.354 281.656 111.443 281.776 111.599C283.25 113.563 284.729 115.526 286.214 117.49C286.318 117.641 286.354 117.813 286.323 117.995C286.292 118.177 286.203 118.323 286.052 118.438C285.906 118.547 285.74 118.594 285.557 118.573C285.37 118.552 285.219 118.469 285.099 118.323L280.662 112.432C280.547 112.281 280.505 112.109 280.531 111.917C280.557 111.729 280.646 111.573 280.802 111.458ZM136.276 81.2813L207.49 79.7865L278.703 81.2813L207.49 82.776L136.276 81.2813ZM274.688 118.328C274.521 118.422 274.344 118.443 274.162 118.396C273.974 118.344 273.833 118.234 273.74 118.068L270.083 111.693C269.984 111.526 269.964 111.354 270.016 111.167C270.068 110.984 270.172 110.844 270.339 110.745C270.505 110.651 270.682 110.63 270.87 110.677C271.052 110.729 271.193 110.839 271.292 111.005L274.948 117.375C275.042 117.542 275.063 117.719 275.016 117.906C274.964 118.089 274.854 118.229 274.688 118.328ZM263.417 118.385C263.245 118.464 263.068 118.469 262.885 118.401C262.708 118.339 262.578 118.214 262.495 118.042C261.438 115.734 260.38 113.432 259.323 111.13C259.25 110.958 259.25 110.781 259.318 110.609C259.385 110.432 259.505 110.307 259.677 110.229C259.844 110.151 260.021 110.146 260.198 110.203C260.37 110.266 260.5 110.38 260.589 110.547L263.76 117.458C263.839 117.635 263.849 117.813 263.781 117.995C263.714 118.172 263.594 118.302 263.417 118.385ZM253.25 118.469C253.068 118.536 252.891 118.531 252.719 118.448C252.542 118.37 252.422 118.24 252.359 118.057C251.391 115.422 250.422 112.792 249.453 110.156C249.391 109.979 249.401 109.802 249.484 109.635C249.568 109.464 249.698 109.349 249.875 109.281C250.047 109.219 250.224 109.224 250.396 109.302C250.568 109.38 250.688 109.505 250.76 109.677L253.662 117.578C253.729 117.76 253.719 117.938 253.641 118.109C253.563 118.286 253.432 118.406 253.25 118.469ZM243.115 118.453C242.927 118.505 242.755 118.484 242.589 118.391C242.422 118.292 242.313 118.156 242.26 117.969C241.453 115.073 240.646 112.172 239.833 109.271C239.787 109.089 239.813 108.911 239.906 108.745C240 108.583 240.141 108.474 240.323 108.422C240.505 108.37 240.682 108.391 240.849 108.484C241.01 108.578 241.125 108.714 241.177 108.896C241.984 111.797 242.792 114.698 243.599 117.599C243.651 117.781 243.63 117.958 243.531 118.125C243.438 118.292 243.297 118.401 243.109 118.453H243.115ZM233.13 118.172C232.943 118.208 232.766 118.172 232.609 118.063C232.448 117.953 232.349 117.807 232.313 117.615L230.656 109.016C230.62 108.828 230.656 108.656 230.76 108.495C230.87 108.339 231.021 108.24 231.208 108.203C231.396 108.167 231.568 108.203 231.729 108.313C231.885 108.417 231.984 108.568 232.021 108.755C232.578 111.62 233.13 114.484 233.682 117.354C233.719 117.542 233.682 117.714 233.573 117.875C233.469 118.036 233.318 118.13 233.13 118.172ZM223.927 116.891C223.948 117.078 223.896 117.25 223.776 117.401C223.656 117.547 223.5 117.63 223.307 117.651C223.115 117.672 222.948 117.62 222.797 117.5C222.646 117.375 222.563 117.219 222.542 117.031C222.281 114.396 222.016 111.76 221.745 109.13C221.719 108.932 221.766 108.755 221.885 108.599C222.01 108.443 222.167 108.354 222.365 108.333C222.563 108.313 222.74 108.37 222.891 108.495C223.042 108.625 223.12 108.792 223.13 108.99C223.401 111.62 223.667 114.25 223.927 116.885V116.891ZM213.406 116.417C213.422 116.62 213.359 116.792 213.224 116.938C213.089 117.083 212.922 117.156 212.719 117.161C212.521 117.161 212.349 117.094 212.214 116.948C212.073 116.807 212.01 116.635 212.016 116.438C211.984 113.901 211.948 111.365 211.917 108.833C211.912 108.641 211.979 108.474 212.115 108.339C212.245 108.198 212.412 108.13 212.604 108.125C212.797 108.125 212.958 108.193 213.099 108.323C213.234 108.458 213.307 108.62 213.307 108.813C213.339 111.349 213.37 113.88 213.406 116.417ZM203.063 108.833C203.026 111.37 202.995 113.901 202.958 116.438C202.969 116.635 202.901 116.807 202.766 116.948C202.625 117.094 202.458 117.161 202.255 117.161C202.057 117.156 201.891 117.083 201.755 116.938C201.62 116.792 201.557 116.62 201.568 116.417C201.599 113.88 201.635 111.349 201.667 108.813C201.672 108.62 201.74 108.458 201.88 108.323C202.016 108.193 202.182 108.125 202.375 108.125C202.568 108.13 202.729 108.198 202.865 108.339C203 108.474 203.063 108.641 203.063 108.833ZM193.24 109.125C192.974 111.76 192.708 114.391 192.443 117.026C192.422 117.219 192.339 117.375 192.188 117.495C192.042 117.62 191.87 117.667 191.677 117.651C191.484 117.63 191.328 117.547 191.208 117.396C191.089 117.25 191.037 117.078 191.057 116.885C191.323 114.255 191.589 111.62 191.854 108.984C191.865 108.786 191.943 108.62 192.094 108.495C192.245 108.365 192.422 108.307 192.62 108.328C192.818 108.349 192.979 108.438 193.099 108.594C193.219 108.75 193.266 108.927 193.24 109.125ZM184.328 109.021L182.672 117.62C182.641 117.813 182.542 117.969 182.38 118.078C182.219 118.193 182.047 118.229 181.854 118.193C181.662 118.156 181.51 118.057 181.401 117.891C181.292 117.729 181.26 117.552 181.302 117.359C181.854 114.49 182.412 111.625 182.964 108.76C183 108.568 183.099 108.422 183.255 108.313C183.417 108.208 183.589 108.172 183.776 108.208C183.969 108.245 184.115 108.339 184.224 108.5C184.328 108.656 184.365 108.833 184.328 109.021ZM175.146 109.276C174.333 112.172 173.526 115.068 172.724 117.969C172.667 118.151 172.557 118.286 172.391 118.38C172.224 118.474 172.052 118.495 171.865 118.443C171.682 118.391 171.547 118.281 171.448 118.12C171.354 117.953 171.333 117.781 171.38 117.594C172.188 114.693 172.995 111.797 173.802 108.896C173.859 108.714 173.969 108.573 174.135 108.484C174.302 108.391 174.474 108.37 174.656 108.422C174.844 108.474 174.979 108.578 175.078 108.745C175.172 108.911 175.193 109.083 175.146 109.271V109.276ZM165.526 110.156C164.557 112.792 163.589 115.422 162.62 118.057C162.547 118.224 162.427 118.349 162.255 118.422C162.089 118.495 161.917 118.5 161.74 118.438C161.568 118.37 161.438 118.255 161.359 118.089C161.276 117.922 161.26 117.755 161.318 117.578L164.219 109.672C164.292 109.5 164.412 109.375 164.583 109.297C164.755 109.219 164.927 109.214 165.104 109.281C165.281 109.344 165.412 109.464 165.495 109.63C165.578 109.802 165.589 109.974 165.526 110.151V110.156ZM155.651 111.135C154.599 113.438 153.542 115.745 152.479 118.047C152.406 118.229 152.276 118.359 152.094 118.432C151.906 118.5 151.724 118.495 151.547 118.417C151.365 118.333 151.245 118.198 151.177 118.01C151.115 117.823 151.125 117.641 151.219 117.469L154.391 110.552C154.474 110.385 154.604 110.276 154.781 110.214C154.958 110.151 155.13 110.161 155.302 110.234C155.469 110.313 155.589 110.443 155.656 110.615C155.724 110.786 155.724 110.964 155.651 111.135ZM144.896 111.703L141.24 118.073C141.146 118.25 141.005 118.37 140.818 118.427C140.625 118.479 140.443 118.458 140.271 118.359C140.099 118.26 139.99 118.115 139.943 117.922C139.896 117.729 139.927 117.552 140.031 117.385C141.25 115.26 142.469 113.135 143.688 111.01C143.781 110.844 143.922 110.734 144.109 110.682C144.292 110.63 144.469 110.656 144.635 110.75C144.802 110.844 144.912 110.984 144.964 111.172C145.016 111.359 144.99 111.536 144.896 111.703ZM128.766 117.495L133.203 111.604C133.318 111.448 133.469 111.359 133.662 111.333C133.849 111.307 134.021 111.349 134.177 111.469C134.328 111.583 134.422 111.734 134.448 111.922C134.474 112.115 134.432 112.286 134.313 112.438L129.875 118.333C129.755 118.474 129.604 118.557 129.422 118.578C129.234 118.599 129.068 118.552 128.922 118.443C128.776 118.328 128.682 118.182 128.656 118C128.625 117.818 128.662 117.646 128.766 117.495ZM116.354 117.922L122.62 111.99C122.755 111.859 122.922 111.792 123.115 111.797C123.307 111.802 123.469 111.875 123.604 112.016C123.734 112.156 123.797 112.323 123.792 112.516C123.787 112.708 123.714 112.87 123.573 113L117.307 118.917C117.167 119.042 117 119.099 116.818 119.089C116.63 119.083 116.469 119.01 116.344 118.87C116.214 118.734 116.151 118.573 116.151 118.385C116.156 118.198 116.219 118.042 116.354 117.906V117.922ZM104.031 117.495L111.245 111.854C111.391 111.719 111.568 111.661 111.771 111.677C111.969 111.698 112.13 111.786 112.255 111.943C112.38 112.104 112.427 112.281 112.396 112.479C112.365 112.677 112.266 112.833 112.099 112.948L104.891 118.594C104.74 118.729 104.563 118.786 104.365 118.771C104.162 118.75 104 118.661 103.875 118.505C103.755 118.344 103.708 118.167 103.74 117.969C103.771 117.766 103.87 117.609 104.037 117.5L104.031 117.495ZM77.9584 110.531L71.0521 113.422C70.875 113.51 70.6875 113.521 70.5 113.453C70.3073 113.38 70.1771 113.255 70.099 113.068C70.0209 112.88 70.0209 112.698 70.1042 112.51C70.1875 112.328 70.3282 112.203 70.5157 112.141L77.4219 109.25C77.5938 109.193 77.7657 109.198 77.9323 109.276C78.099 109.349 78.2188 109.474 78.2865 109.641C78.3594 109.807 78.3594 109.979 78.2969 110.151C78.2344 110.323 78.1198 110.448 77.9584 110.531ZM88.125 111.677L80.9896 115.979C80.823 116.068 80.6511 116.089 80.474 116.042C80.2917 115.99 80.1563 115.885 80.0625 115.729C79.9636 115.568 79.9375 115.396 79.9792 115.214C80.0157 115.036 80.1146 114.891 80.2709 114.786C82.6511 113.354 85.0261 111.922 87.4063 110.49C87.5678 110.401 87.7396 110.38 87.9167 110.432C88.0938 110.479 88.2344 110.583 88.3282 110.745C88.4219 110.901 88.4532 111.068 88.4115 111.25C88.375 111.432 88.2761 111.573 88.125 111.677ZM90.3803 117.63C90.2813 117.469 90.25 117.292 90.2917 117.104C90.3334 116.917 90.4323 116.776 90.5938 116.672L99.4011 111.229C99.5625 111.135 99.7344 111.115 99.9167 111.161C100.099 111.203 100.24 111.307 100.339 111.469C100.438 111.625 100.469 111.797 100.427 111.979C100.385 112.167 100.292 112.307 100.135 112.411L91.3334 117.859C91.1719 117.958 91 117.984 90.8125 117.943C90.625 117.896 90.4844 117.797 90.3803 117.635V117.63ZM105.25 397.875H98.2032V341.88H105.25V397.875ZM105.25 331.016H98.2032V278.802H105.25V331.016ZM105.25 267.938H98.2032V248.875H105.25V267.938ZM105.25 238.016H98.2032V220.026H105.25V238.016ZM105.25 209.161H98.2032V191.698H105.25V209.161ZM183.964 169.573C182.589 169.849 181.219 170.161 179.87 170.531C178.635 170.865 177.412 171.245 176.203 171.667C175.094 172.057 174 172.484 172.922 172.948C171.938 173.375 170.969 173.844 170.01 174.354C169.135 174.813 168.276 175.297 167.427 175.807C167.031 176.047 166.641 176.292 166.25 176.536C165.958 176.719 165.677 176.901 165.396 177.089C165.031 177.328 164.667 177.573 164.302 177.823C162.906 178.771 161.547 179.766 160.224 180.813C158.99 181.792 157.792 182.818 156.635 183.885C156.052 184.432 155.484 184.99 154.927 185.563C154.432 186.068 153.943 186.589 153.469 187.115L153.302 187.302H121.87V169.464H184.495L183.964 169.573ZM121.87 156.49V147.203H142.682V156.49H121.87ZM151.427 156.49V147.203H172.781V156.49H151.427ZM203.651 156.49H181.516V147.203H203.651V156.49ZM293.109 187.323H261.703L261.537 187.135C261.063 186.604 260.573 186.089 260.073 185.578C259.516 185.01 258.948 184.453 258.365 183.906C257.214 182.833 256.016 181.807 254.781 180.828C253.458 179.781 252.099 178.781 250.703 177.839C250.339 177.594 249.974 177.349 249.609 177.109C249.323 176.922 249.037 176.74 248.755 176.552C248.365 176.307 247.974 176.068 247.578 175.828C246.729 175.318 245.87 174.833 244.995 174.37C244.042 173.87 243.068 173.401 242.078 172.969C241.005 172.495 239.912 172.068 238.802 171.688C237.594 171.26 236.375 170.88 235.135 170.547C233.787 170.182 232.417 169.865 231.042 169.589L230.5 169.484H293.13L293.109 187.323ZM211.328 156.49V147.203H233.458V156.49H211.328ZM242.208 156.49V147.203H263.563V156.49H242.208ZM293.115 156.49H272.302V147.203H293.115V156.49ZM316.781 397.88H309.734V341.88H316.781V397.88ZM316.781 331.021H309.734V278.802H316.781V331.021ZM316.781 267.943H309.734V248.875H316.781V267.943ZM316.781 238.021H309.734V220.026H316.781V238.021ZM316.781 209.167H309.734V191.698H316.781V209.167ZM207.49 131.917L94.698 130.422L207.49 128.927L320.281 130.422L207.49 131.917ZM324.594 117.635C324.495 117.797 324.349 117.901 324.162 117.943C323.974 117.99 323.802 117.958 323.635 117.859L314.839 112.417C314.682 112.313 314.583 112.167 314.547 111.984C314.505 111.802 314.537 111.63 314.635 111.474C314.734 111.313 314.87 111.208 315.052 111.161C315.234 111.115 315.406 111.141 315.573 111.234L324.37 116.677C324.531 116.781 324.635 116.922 324.677 117.109C324.724 117.297 324.693 117.469 324.594 117.635ZM334.943 115.75C334.844 115.911 334.703 116.016 334.516 116.063C334.328 116.109 334.151 116.083 333.99 115.984L326.854 111.682C326.698 111.578 326.604 111.438 326.563 111.255C326.526 111.073 326.552 110.906 326.651 110.745C326.745 110.589 326.88 110.484 327.057 110.438C327.24 110.385 327.406 110.406 327.573 110.495C329.948 111.927 332.328 113.359 334.703 114.792C334.87 114.891 334.974 115.036 335.021 115.224C335.068 115.406 335.042 115.583 334.943 115.75ZM344.833 113.057C344.76 113.234 344.635 113.359 344.458 113.432C344.276 113.505 344.099 113.505 343.922 113.432L337.016 110.542C336.854 110.458 336.74 110.333 336.677 110.161C336.615 109.99 336.62 109.818 336.688 109.651C336.76 109.484 336.88 109.359 337.047 109.286C337.214 109.208 337.38 109.203 337.552 109.26L344.458 112.151C344.635 112.224 344.76 112.349 344.833 112.526C344.906 112.703 344.906 112.88 344.833 113.057Z" fill="#C13505"/>
</g>
</svg>
