<svg width="374" height="329" viewBox="0 0 374 329" fill="none" xmlns="http://www.w3.org/2000/svg">
<path fill-rule="evenodd" clip-rule="evenodd" d="M349.989 249.889C349.278 293.457 313.738 328.556 270 328.556H80C35.8172 328.556 0 292.739 0 248.556V187.195C65.0689 108.521 187.941 55.9419 350 13V248.36L349.989 249.889Z" fill="#001C47"/>
<mask id="mask0_379_209" style="mask-type:alpha" maskUnits="userSpaceOnUse" x="46" y="0" width="328" height="329">
<path fill-rule="evenodd" clip-rule="evenodd" d="M373.546 0V248.555C373.546 292.738 337.729 328.555 293.546 328.555H125.457C84.4442 328.555 50.6394 297.693 46 257.925C55.1544 126.868 179.479 54.2789 373.546 0Z" fill="#5223D6"/>
</mask>
<g mask="url(#mask0_379_209)">
<mask id="mask1_379_209" style="mask-type:luminance" maskUnits="userSpaceOnUse" x="166" y="209" width="122" height="123">
<path d="M166.038 209.929H287.548V331.959H166.038V209.929Z" fill="white"/>
</mask>
<g mask="url(#mask1_379_209)">
<path fill-rule="evenodd" clip-rule="evenodd" d="M173.568 267.008C171.718 260.751 169.57 254.51 168.051 246.417C167.34 242.622 166.228 237.228 166.339 233.42C166.391 231.679 166.546 229.064 167.5 226.799C168.759 223.81 171.162 221.15 174.091 219.14C178.498 216.124 184.083 215.02 188.764 214.092C191.162 213.618 193.552 212.934 194.948 212.592C197.595 211.944 214.355 225.454 222.299 229.834C223.915 230.724 226.221 230.645 226.804 230.645C227.853 230.645 229.329 229.886 230.634 229.392C240.522 225.652 256.069 210.102 256.069 210.102C256.069 210.102 262.782 210.507 268.198 211.299C271.09 211.724 273.563 212.554 274.561 212.842C278.177 213.875 284.171 218.329 285.847 223.241C289.151 232.929 285.755 246.382 284.919 252.815C284.252 257.955 282.397 266.1 280.715 272.433C279.115 278.454 277.71 282.672 276.178 287.407C274.971 291.15 272.665 294.793 272.693 296.36C272.793 301.997 271.475 309.309 270.835 316.214C270.311 321.858 270.789 328.786 270.789 328.786C270.789 328.786 250.965 331.726 229.985 331.812C209.001 331.899 186.866 329.133 186.866 329.133C186.866 329.133 186.839 324.923 186.142 319.561C185.198 312.3 183.302 301.728 182.079 294.41C181.205 289.178 180.872 285.902 180.581 285.373C179.475 283.344 174.796 271.169 173.568 267.008Z" fill="#BFABAA"/>
</g>
<path fill-rule="evenodd" clip-rule="evenodd" d="M190.045 176.655C189.619 173.395 189.537 169.161 189.92 165.461C190.66 158.344 193.017 151.596 196.85 146.215C201.094 140.259 209 135.887 216.207 134.821C218.076 134.544 219.098 135.578 220.94 135.578C222.562 135.578 222.326 135.892 224.989 134.954C225.467 134.786 228.54 134.355 231.9 134.276C235.092 134.203 238.515 134.414 241.352 136.885C244.889 139.969 247.037 142.906 249.999 147.818C252.766 152.41 253.395 159.231 255.453 164.349C257.867 170.357 261.095 172.983 261.095 176.81C261.095 179.196 260.52 182.25 260.018 184.539C259.497 186.91 262.73 190.737 262.329 193.46C262.047 195.38 259.774 197.038 260.376 199.24C260.525 199.785 263.509 202.95 262.611 204.976C262.41 205.435 261.412 206.145 261.274 206.937C261.146 207.683 261.716 208.711 261.833 209.351C261.971 210.113 261.67 210.667 261.67 210.667L255.556 210.081L195.26 212.655L188.032 214.448C188.032 214.448 186.478 212.823 186.66 210.772C186.847 208.624 189.719 207.073 190.229 203.46C190.633 200.604 186.98 199.706 186.893 196.018C186.817 192.744 189.196 188.985 190.126 184.857C190.75 182.082 190.324 178.784 190.045 176.655Z" fill="#B8886B"/>
<path fill-rule="evenodd" clip-rule="evenodd" d="M196.657 185.727C196.657 185.003 196.76 183.799 197.821 182.89C199.717 181.263 203.215 179.785 204.276 178.025C205.355 176.234 205.369 174.255 205.711 172.619C205.884 171.77 209.166 170.257 211.089 166.839C212.874 163.666 212.874 159.069 213.538 157.018C215.128 152.114 218.93 150.585 222.066 150.585C222.996 150.585 224.083 151.594 225.309 151.653C226.533 151.71 227.894 150.815 228.89 151.819C231.214 154.162 230.875 159.459 232.733 163.644C233.159 164.602 234.919 165.079 236.704 165.765C238.193 166.335 239.714 167.124 240.316 167.772C241.537 169.09 242.679 171.613 243.723 172.421C244.105 172.717 244.824 177.696 246.582 179.061C249.628 181.42 254.214 180.81 254.214 182.964C254.214 184.58 253.983 188.244 253.357 189.845C252.475 192.085 251.401 192.896 250.189 194.135C250.04 194.287 252.565 194.556 253.772 197.688C254.892 200.596 255.304 204.363 255.703 208.155C255.942 210.398 256.405 213.081 256.376 214.437C256.349 215.687 254.141 218.809 252.665 219.994C251.914 220.599 250.875 222.967 249.958 224.402C247.677 227.96 245.31 231.928 243.842 233.96C243.335 234.665 245.825 244.204 247.965 251.009C248.987 254.255 250.498 257.732 250.498 257.732C250.498 257.732 249.866 260.534 248.521 264.318C247.268 267.838 245.369 272.243 243.514 275.129C241.816 277.765 240.354 279.563 238.83 280.513C236.896 281.72 235.095 281.687 235.095 281.687C235.095 281.687 232.643 260.616 231.184 248.56C230.593 243.686 230.202 241.977 230.048 240.558C229.918 239.343 229.21 235.633 229.212 232.628C229.212 230.775 229.622 229.731 229.37 229.888C228.708 230.295 227.52 230.838 226.915 230.838C226.297 230.838 224.574 230.078 224.013 230.529C224.005 230.534 224.341 235.066 224.33 235.72C224.208 242.924 223.595 281.56 223.595 281.56C223.595 281.56 222.207 281.969 220.411 281.196C218.746 280.48 216.75 278.687 214.596 276.01C212.234 273.078 210.001 269.002 208.309 265.419C206.793 262.213 205.689 259.325 205.689 259.325C205.689 259.325 206.817 256.3 207.56 252.658C208.954 245.815 210.292 236.051 209.464 234.893C208.941 234.158 206.429 230.941 203.861 227.683C201.686 224.928 199.792 222.541 199.494 222.27C198.078 220.995 195.876 219.118 195.412 218.22C194.734 216.902 195.092 214.982 195.249 211.638C195.401 208.405 195.136 206.427 195.369 204.087C195.518 202.598 196.188 199.858 196.239 199.568C196.557 197.824 198.331 196.612 199.722 196.17C201.151 195.719 202.182 196.056 201.724 195.624C200.755 194.719 200.061 194.553 199.307 193.577C197.408 191.111 196.657 188.545 196.657 185.727Z" fill="#FEE4D6"/>
<path fill-rule="evenodd" clip-rule="evenodd" d="M216.749 201.027C216.937 200.808 216.814 200.233 216.901 199.94C217.137 199.167 217.718 198.632 218.436 198.326C220.115 197.61 222.247 198.722 223.978 198.773C226.375 198.844 228.672 198.041 231.054 197.848C231.968 197.775 233.85 197.919 234.132 199.045C234.387 200.054 232.234 201.613 231.656 202.294C231.485 202.497 230.78 203.704 230.479 203.729C229.942 203.772 228.879 203.067 228.184 203.037C227.65 203.013 226.633 203.81 226.286 203.696C225.312 203.368 224.195 203.653 223.278 203.371C222.754 203.208 222.396 202.796 221.783 202.79C220.905 202.779 220.14 203.542 219.299 203.517C218.561 203.495 217.718 202.134 217.197 201.694C217.113 201.621 216.706 201.079 216.749 201.027Z" fill="#DC8E8E"/>
<path fill-rule="evenodd" clip-rule="evenodd" d="M201.686 180.3C202.8 179.573 203.793 178.827 204.276 178.025C205.355 176.234 205.369 174.255 205.711 172.619C205.884 171.77 209.166 170.257 211.089 166.839C212.874 163.666 212.874 159.069 213.538 157.018C215.128 152.114 218.93 150.585 222.065 150.585C222.996 150.585 224.083 151.594 225.309 151.653C226.533 151.71 227.894 150.815 228.89 151.819C231.214 154.162 230.875 159.459 232.733 163.644C233.159 164.602 234.919 165.079 236.704 165.765C238.193 166.335 239.714 167.124 240.316 167.772C241.537 169.09 242.679 171.613 243.723 172.421C244.105 172.717 244.824 177.696 246.582 179.061C247.167 179.514 247.463 179.798 248.114 180.072C248.488 180.23 248.046 182.638 247.916 183.232C247.843 183.563 243.142 186.473 237.75 186.655C233.405 186.804 228.664 185.405 224.68 185.405C220.91 185.407 217.701 187.043 213.538 187.482C208.298 188.033 202.518 186.21 202.326 185.543C201.984 184.339 201.488 180.428 201.686 180.3Z" fill="#E7CCBD"/>
<path d="M204.311 195.999C204.102 195.999 203.912 195.852 203.866 195.641C203.644 194.594 203.525 193.577 203.511 192.614C203.508 192.364 203.709 192.158 203.958 192.155C204.241 192.147 204.414 192.353 204.42 192.603C204.43 193.506 204.542 194.464 204.753 195.448C204.807 195.692 204.65 195.934 204.406 195.988C204.373 195.996 204.344 195.999 204.311 195.999Z" fill="#2E2020"/>
<path d="M213.218 210.23C213.115 210.23 213.009 210.192 212.925 210.119C212.711 209.937 212.488 209.772 212.258 209.601C211.564 209.083 210.774 208.5 209.877 207.206C209.733 207.002 209.784 206.718 209.99 206.574C210.194 206.433 210.479 206.484 210.622 206.691C211.433 207.86 212.128 208.375 212.8 208.874C213.05 209.058 213.286 209.237 213.516 209.435C213.706 209.598 213.728 209.883 213.563 210.073C213.473 210.179 213.348 210.23 213.218 210.23Z" fill="#2E2020"/>
<path d="M225.995 215.595C225.787 215.595 225.583 215.589 225.388 215.581C223.78 215.513 221.103 214.694 219.83 213.626C219.638 213.463 219.616 213.178 219.776 212.986C219.936 212.796 220.224 212.771 220.414 212.931C221.496 213.843 223.997 214.616 225.423 214.675C227.034 214.743 229.426 214.524 230.875 213.685C231.095 213.561 231.371 213.637 231.496 213.854C231.621 214.071 231.545 214.347 231.328 214.472C229.888 215.302 227.731 215.595 225.995 215.595Z" fill="#2E2020"/>
<path d="M237.707 210.089C237.588 210.089 237.466 210.043 237.376 209.945C237.208 209.761 237.216 209.476 237.398 209.305L237.509 209.202C238.304 208.462 239.508 207.339 240.259 206.392C240.417 206.194 240.701 206.162 240.897 206.316C241.095 206.474 241.127 206.758 240.973 206.954C240.178 207.957 238.944 209.107 238.127 209.867L238.016 209.967C237.929 210.048 237.818 210.089 237.707 210.089Z" fill="#2E2020"/>
<path d="M247.433 194.076C247.395 194.076 247.355 194.073 247.317 194.06C247.073 193.994 246.932 193.748 246.997 193.506C247.488 191.678 247.737 189.961 247.737 188.404C247.737 188.155 247.94 187.949 248.19 187.949C248.44 187.949 248.643 188.155 248.643 188.404C248.643 190.04 248.383 191.835 247.873 193.742C247.818 193.943 247.634 194.076 247.433 194.076Z" fill="#2E2020"/>
<path d="M224.601 192.76C224.509 192.76 224.417 192.736 224.338 192.676C224.135 192.53 224.089 192.248 224.235 192.044C224.718 191.372 225.852 189.799 225.635 188.594C225.575 188.255 225.288 187.846 225.011 187.45C224.778 187.113 224.534 186.763 224.393 186.411C223.964 185.334 223.994 183.954 224.485 182.315C224.707 181.578 224.976 180.859 225.437 180.601C225.657 180.479 225.933 180.558 226.055 180.778C226.177 180.995 226.099 181.268 225.879 181.393C225.83 181.426 225.646 181.607 225.355 182.576C224.924 184.016 224.884 185.19 225.236 186.075C225.336 186.33 225.54 186.622 225.757 186.932C226.088 187.406 226.43 187.9 226.527 188.432C226.777 189.828 225.882 191.309 224.97 192.573C224.884 192.698 224.742 192.76 224.601 192.76Z" fill="#2E2020"/>
<path d="M250.452 194.42C250.314 194.42 250.178 194.358 250.089 194.241C249.939 194.04 249.977 193.756 250.178 193.607C252.025 192.215 254.043 188.768 253.639 183.628C253.62 183.379 253.804 183.162 254.057 183.143C254.301 183.126 254.526 183.308 254.545 183.558C254.897 188.087 253.4 192.315 250.723 194.328C250.642 194.39 250.547 194.42 250.452 194.42Z" fill="#2E2020"/>
<path d="M201.634 195.928C201.566 195.928 201.496 195.915 201.431 195.882C199.399 194.868 197.104 192.136 196.559 188.323C196.524 188.076 196.695 187.846 196.944 187.81C197.191 187.778 197.422 187.946 197.457 188.193C197.956 191.684 200.015 194.16 201.837 195.071C202.06 195.182 202.152 195.456 202.038 195.679C201.959 195.836 201.799 195.928 201.634 195.928Z" fill="#2E2020"/>
<path fill-rule="evenodd" clip-rule="evenodd" d="M212.326 183.84C212.326 182.229 213.316 180.921 214.542 180.921C215.762 180.921 216.755 182.229 216.755 183.84C216.755 185.448 215.762 186.753 214.542 186.753C213.316 186.753 212.326 185.448 212.326 183.84Z" fill="#2E2020"/>
<path fill-rule="evenodd" clip-rule="evenodd" d="M233.389 183.568C233.389 181.957 234.379 180.653 235.602 180.653C236.823 180.653 237.816 181.957 237.816 183.568C237.816 185.18 236.823 186.484 235.602 186.484C234.379 186.484 233.389 185.18 233.389 183.568Z" fill="#2E2020"/>
<path d="M236.812 173.734C234.127 173.734 230.842 173.454 229.673 172.196C229.288 171.784 229.131 171.274 229.22 170.723C229.261 170.474 229.497 170.305 229.741 170.346C229.988 170.384 230.156 170.62 230.115 170.867C230.072 171.143 230.14 171.369 230.338 171.58C231.67 173.015 237.493 172.925 240.384 172.676C240.642 172.657 240.853 172.839 240.875 173.088C240.897 173.338 240.71 173.557 240.46 173.579C239.901 173.628 238.469 173.734 236.812 173.734Z" fill="#2E2020"/>
<path d="M208.67 175.947C208.455 175.947 208.263 175.792 208.222 175.575C208.176 175.329 208.341 175.093 208.588 175.047C211.68 174.48 214.531 173.745 216.907 173.102C217.202 173.02 217.52 172.966 217.826 172.915C219.147 172.692 219.681 172.508 219.627 171.583C219.614 171.333 219.806 171.119 220.056 171.103C220.302 171.084 220.519 171.279 220.533 171.531C220.639 173.357 219.101 173.62 217.978 173.81C217.682 173.861 217.4 173.907 217.145 173.975C214.75 174.626 211.878 175.367 208.751 175.939C208.724 175.944 208.694 175.947 208.67 175.947Z" fill="#2E2020"/>
<path d="M221.029 173.832C220.878 173.832 220.731 173.756 220.644 173.617C220.511 173.403 220.579 173.126 220.791 172.993L221.474 172.57L221.604 172.313C221.588 172.256 221.583 172.193 221.594 172.131L221.645 171.776C221.675 171.556 221.859 171.39 222.082 171.388C222.087 171.388 222.09 171.388 222.093 171.388C222.31 171.388 222.5 171.542 222.537 171.759L222.605 172.131C222.624 172.226 222.611 172.326 222.567 172.413L222.231 173.091C222.193 173.167 222.133 173.229 222.06 173.275L221.268 173.764C221.195 173.81 221.111 173.832 221.029 173.832Z" fill="#2E2020"/>
<path d="M228.168 173.061C228 173.061 227.84 172.969 227.761 172.812C227.628 172.543 227.533 172.37 227.468 172.245C227.27 171.876 227.254 171.819 227.211 171.388C227.2 171.266 227.184 171.106 227.156 170.881C227.127 170.631 227.303 170.406 227.552 170.373C227.805 170.344 228.027 170.523 228.057 170.769C228.084 171.008 228.103 171.173 228.114 171.298C228.141 171.583 228.141 171.583 228.268 171.816C228.336 171.946 228.434 172.128 228.572 172.408C228.683 172.63 228.591 172.904 228.369 173.015C228.304 173.048 228.236 173.061 228.168 173.061Z" fill="#2E2020"/>
<path d="M226.055 203.954C226.044 203.954 226.034 203.954 226.023 203.954L224.417 203.829C224.168 203.81 223.98 203.593 223.999 203.344C224.018 203.091 224.235 202.907 224.485 202.926L226.088 203.048C226.34 203.067 226.527 203.284 226.508 203.533C226.492 203.772 226.291 203.954 226.055 203.954Z" fill="#2E2020"/>
<path d="M217.089 200.669C217.078 200.669 217.067 200.669 217.059 200.669C216.807 200.653 216.617 200.436 216.636 200.189C216.714 198.904 217.756 198.033 219.288 197.971C220.181 197.935 221.089 198.068 221.968 198.198C222.877 198.331 223.815 198.47 224.713 198.41C225.239 198.375 226.107 198.185 227.026 197.981C229.825 197.374 233.308 196.614 234.122 198.404C234.225 198.632 234.124 198.901 233.894 199.004C233.669 199.107 233.4 199.007 233.294 198.779C232.784 197.653 229.299 198.415 227.219 198.871C226.226 199.085 225.366 199.272 224.772 199.313C223.78 199.378 222.79 199.234 221.835 199.093C220.962 198.966 220.134 198.844 219.323 198.876C218.502 198.909 217.601 199.286 217.539 200.246C217.523 200.485 217.325 200.669 217.089 200.669Z" fill="#2E2020"/>
<path d="M223.937 241.388C223.912 241.388 223.888 241.386 223.864 241.383C223.617 241.34 223.449 241.106 223.492 240.86C224.303 235.983 223.823 230.61 222.065 224.89C221.935 224.469 221.8 224.035 221.659 223.593C220.381 219.533 218.789 214.48 219.863 210.184C220.107 209.207 220.845 208.109 221.558 207.043C221.981 206.408 222.383 205.809 222.64 205.294C222.752 205.069 223.026 204.979 223.248 205.09C223.473 205.204 223.565 205.475 223.451 205.698C223.169 206.267 222.752 206.888 222.31 207.548C221.642 208.548 220.951 209.582 220.745 210.404C219.73 214.453 221.279 219.37 222.524 223.322C222.665 223.764 222.8 224.201 222.931 224.624C224.732 230.477 225.222 235.991 224.384 241.009C224.349 241.231 224.157 241.388 223.937 241.388Z" fill="#2E2020"/>
<path d="M212.006 215.272C211.892 215.272 211.775 215.226 211.686 215.139C211.509 214.96 211.509 214.675 211.686 214.496C212.293 213.892 212.44 212.611 212.578 211.375C212.665 210.596 212.749 209.858 212.95 209.259C214.043 205.974 218.542 203.39 221.119 202.53C221.908 202.269 222.624 202.305 223.251 202.638C224.686 203.409 225.28 205.597 225.711 207.195C225.844 207.686 225.958 208.109 226.077 208.421L226.118 208.529C226.679 209.994 226.953 211.073 226.454 211.575C226.093 211.933 225.665 212.099 225.217 212.058C224.002 211.947 222.904 210.349 222.103 209.18C221.857 208.825 221.623 208.486 221.493 208.353C221.314 208.177 221.314 207.889 221.493 207.713C221.67 207.534 221.957 207.534 222.133 207.713C222.323 207.903 222.556 208.239 222.849 208.668C223.47 209.571 224.509 211.084 225.301 211.155C225.412 211.166 225.589 211.155 225.811 210.932C225.827 210.878 225.898 210.488 225.271 208.855L225.228 208.741C225.095 208.388 224.976 207.944 224.837 207.434C224.447 205.993 223.913 204.024 222.822 203.438C222.418 203.221 221.957 203.208 221.406 203.39C218.816 204.252 214.748 206.734 213.809 209.546C213.639 210.056 213.56 210.745 213.478 211.475C213.321 212.869 213.161 214.306 212.326 215.139C212.239 215.226 212.122 215.272 212.006 215.272Z" fill="#2E2020"/>
<path d="M202.613 216.232C202.374 216.232 202.176 216.045 202.16 215.806C201.978 212.701 201.886 209.603 201.886 206.593C201.886 205.177 202.006 203.609 202.909 202.709C205.247 200.371 210.633 198.101 214.07 198.676C214.859 198.806 215.919 199.796 217.569 201.415C218.152 201.982 218.7 202.519 219.18 202.937C219.372 203.099 219.391 203.387 219.228 203.577C219.063 203.764 218.778 203.786 218.588 203.62C218.084 203.186 217.528 202.638 216.937 202.061C215.9 201.049 214.485 199.663 213.921 199.568C210.793 199.047 205.692 201.212 203.552 203.349C202.792 204.108 202.792 205.787 202.792 206.593C202.792 209.584 202.884 212.666 203.066 215.752C203.082 216.002 202.89 216.216 202.64 216.23C202.632 216.232 202.621 216.232 202.613 216.232Z" fill="#2E2020"/>
<path d="M212.155 215.069C212.131 215.069 212.109 215.069 212.082 215.063C211.046 214.898 210.419 214.225 209.991 212.815C209.307 210.566 209.017 207.013 209.017 205.977C209.017 205.725 209.22 205.521 209.47 205.521C209.719 205.521 209.923 205.725 209.923 205.977C209.923 206.94 210.213 210.425 210.859 212.554C211.271 213.908 211.74 214.092 212.226 214.168C212.475 214.209 212.643 214.439 212.603 214.689C212.567 214.911 212.375 215.069 212.155 215.069Z" fill="#2E2020"/>
<path d="M209.814 207.388C209.676 207.388 209.54 207.325 209.451 207.206C209.299 207.008 209.34 206.723 209.54 206.574C210.235 206.053 211.051 205.73 211.835 205.421C212.605 205.117 213.329 204.83 213.929 204.38C214.129 204.23 214.414 204.271 214.563 204.469C214.715 204.67 214.675 204.955 214.474 205.104C213.774 205.63 212.958 205.95 212.169 206.262C211.404 206.566 210.682 206.851 210.086 207.298C210.004 207.358 209.906 207.388 209.814 207.388Z" fill="#2E2020"/>
<path d="M215.228 206.772C215.16 206.772 215.092 206.758 215.027 206.726C214.175 206.297 213.676 205.831 213.497 205.296C213.416 205.058 213.546 204.803 213.782 204.724C214.021 204.645 214.279 204.773 214.357 205.009C214.422 205.21 214.664 205.53 215.431 205.912C215.656 206.026 215.746 206.297 215.635 206.522C215.556 206.68 215.396 206.772 215.228 206.772Z" fill="#2E2020"/>
<path d="M197.126 216.026C196.877 216.026 196.673 215.823 196.673 215.573C196.673 212.058 196.812 208.462 197.088 204.572C197.102 204.374 197.113 204.163 197.126 203.948C197.208 202.576 197.308 200.865 198.043 199.641C198.705 198.535 199.809 198.068 200.877 197.618C201.189 197.488 201.499 197.355 201.794 197.208C203.449 196.381 205.51 195.351 207.444 195.15C209.741 194.914 211.455 195.907 212.551 198.095C212.662 198.32 212.573 198.592 212.348 198.706C212.122 198.817 211.851 198.727 211.737 198.502C210.804 196.633 209.47 195.855 207.536 196.053C205.768 196.237 203.79 197.225 202.198 198.019C201.889 198.174 201.561 198.312 201.23 198.453C200.254 198.866 199.331 199.254 198.822 200.108C198.2 201.141 198.111 202.66 198.032 204.003C198.019 204.22 198.008 204.434 197.992 204.637C197.715 208.505 197.582 212.08 197.582 215.573C197.582 215.823 197.379 216.026 197.126 216.026Z" fill="#2E2020"/>
<path d="M210.704 236.862C210.566 236.862 210.43 236.802 210.343 236.683C209.001 234.895 207.552 233.121 206.15 231.407C204.268 229.107 202.323 226.726 200.598 224.263C200.243 223.759 199.836 223.276 199.443 222.812C198.284 221.44 197.086 220.021 197.086 217.835C197.086 217.586 197.289 217.38 197.541 217.38C197.791 217.38 197.994 217.586 197.994 217.835C197.994 219.69 199.033 220.922 200.137 222.226C200.544 222.706 200.961 223.205 201.338 223.742C203.047 226.181 204.981 228.546 206.85 230.832C208.26 232.555 209.714 234.337 211.067 236.138C211.216 236.338 211.176 236.623 210.975 236.772C210.894 236.835 210.799 236.862 210.704 236.862Z" fill="#2E2020"/>
<path d="M199.185 222.88C199.068 222.88 198.954 222.837 198.865 222.747C198.537 222.422 198.165 222.099 197.772 221.757C196.695 220.821 195.586 219.856 195.062 218.551C194.455 217.038 194.52 215.391 194.582 213.802C194.598 213.333 194.617 212.872 194.617 212.419C194.617 211.958 194.615 211.48 194.612 210.989C194.588 207.181 194.558 202.44 195.952 198.952C196.901 196.582 202.027 194.358 204.661 195.171C204.9 195.245 205.032 195.5 204.959 195.738C204.886 195.977 204.631 196.113 204.39 196.037C202.193 195.359 197.579 197.33 196.795 199.291C195.466 202.611 195.493 207.255 195.518 210.984C195.521 211.475 195.523 211.958 195.523 212.419C195.523 212.885 195.507 213.36 195.488 213.837C195.431 215.332 195.369 216.88 195.906 218.215C196.345 219.316 197.373 220.208 198.368 221.071C198.773 221.426 199.155 221.757 199.505 222.107C199.684 222.283 199.684 222.571 199.505 222.747C199.418 222.837 199.301 222.88 199.185 222.88Z" fill="#2E2020"/>
<path d="M206.318 258.986C206.294 258.986 206.267 258.983 206.242 258.98C205.995 258.937 205.83 258.703 205.873 258.457C206.058 257.38 206.329 256.089 206.646 254.594C207.639 249.908 208.995 243.485 209.177 236.536C209.182 236.287 209.383 236.097 209.641 236.094C209.893 236.102 210.091 236.308 210.083 236.561C209.901 243.591 208.534 250.059 207.533 254.784C207.219 256.268 206.947 257.551 206.766 258.609C206.728 258.828 206.535 258.986 206.318 258.986Z" fill="#2E2020"/>
<path d="M223.668 281.931C223.432 281.931 223.234 281.75 223.215 281.511C222.971 278.194 223.183 269.116 223.389 260.339C223.574 252.389 223.769 244.168 223.603 240.697C223.59 240.445 223.782 240.233 224.035 240.222C224.276 240.2 224.496 240.401 224.509 240.653C224.675 244.158 224.493 252.026 224.295 260.358C224.089 269.116 223.877 278.172 224.121 281.443C224.14 281.693 223.953 281.91 223.704 281.929C223.69 281.929 223.679 281.931 223.668 281.931Z" fill="#2E2020"/>
<path d="M223.191 282.297C221.442 282.297 219.079 280.993 217.986 280.019C213.666 276.157 209.985 270.719 206.736 263.39L206.625 263.138C205.776 261.245 204.01 257.304 206.18 255.774C206.386 255.63 206.668 255.677 206.812 255.883C206.955 256.086 206.907 256.371 206.703 256.515C205.144 257.616 206.76 261.226 207.452 262.766L207.566 263.021C210.761 270.231 214.368 275.568 218.591 279.344C219.955 280.562 222.893 281.888 223.937 281.221C224.539 280.838 224.355 279.729 224.094 278.864C224.021 278.625 224.157 278.37 224.398 278.297C224.637 278.224 224.892 278.362 224.962 278.601C225.472 280.296 225.29 281.435 224.422 281.985C224.081 282.205 223.658 282.297 223.191 282.297Z" fill="#2E2020"/>
<path d="M221.745 299.778C219.093 299.778 215.404 297.529 212.483 295.381C208.127 292.178 204.818 288.012 201.799 284.017C200.679 282.533 198.591 279.772 198.295 277.331C198.113 275.826 198.726 274.321 199.323 272.861C199.64 272.08 199.942 271.343 200.107 270.64C200.413 269.33 200.696 267.969 200.967 266.653C201.49 264.125 202.033 261.511 202.789 259.024C203.229 257.578 204.053 254.893 206.397 255.291C206.641 255.332 206.806 255.568 206.766 255.815C206.722 256.062 206.486 256.224 206.242 256.184C204.796 255.929 204.175 257.581 203.657 259.287C202.911 261.736 202.374 264.326 201.856 266.838C201.582 268.158 201.298 269.523 200.988 270.846C200.809 271.617 200.481 272.422 200.161 273.203C199.611 274.554 199.044 275.951 199.196 277.22C199.464 279.42 201.452 282.056 202.524 283.472C205.499 287.41 208.765 291.519 213.02 294.652C217.927 298.262 221.507 299.626 223.107 298.5C223.98 297.882 223.945 295.867 223.915 294.391C223.904 293.819 223.896 293.325 223.934 292.929C224.089 291.283 224.52 289.523 224.935 287.822C225.971 283.588 227.042 279.208 224.043 276.029C223.872 275.848 223.88 275.56 224.062 275.389C224.243 275.216 224.531 275.227 224.702 275.406C228.041 278.942 226.91 283.567 225.816 288.039C225.388 289.783 224.987 291.432 224.837 293.016C224.805 293.358 224.813 293.852 224.824 294.375C224.856 296.143 224.897 298.346 223.628 299.241C223.099 299.615 222.459 299.778 221.745 299.778Z" fill="#2E2020"/>
<path d="M196.182 297.624C195.965 297.624 195.776 297.473 195.735 297.253C194.653 291.242 196.239 283.19 198.287 277.876C198.379 277.643 198.64 277.527 198.876 277.619C199.109 277.708 199.223 277.971 199.133 278.205C197.132 283.399 195.578 291.253 196.627 297.093C196.673 297.337 196.508 297.573 196.261 297.616C196.237 297.624 196.207 297.624 196.182 297.624Z" fill="#2E2020"/>
<path d="M211.992 319.271C209.223 319.271 206.229 317.833 203.815 316.673L203.161 316.361C183.557 307.044 169.594 258.899 166.725 242.414C165.596 235.937 165.065 229.213 168.778 223.911C173.709 216.864 180.31 215.513 187.297 214.084C189.621 213.609 192.025 213.119 194.4 212.402C194.639 212.332 194.894 212.465 194.967 212.706C195.038 212.945 194.902 213.197 194.664 213.27C192.247 213.997 189.825 214.494 187.479 214.974C180.674 216.365 174.246 217.681 169.518 224.431C165.998 229.463 166.524 235.972 167.617 242.259C170.465 258.619 184.27 306.38 203.549 315.542L204.205 315.856C207.685 317.527 212.451 319.816 215.526 317.088C217.588 315.259 218.653 312.295 219.595 309.678C219.725 309.317 219.852 308.962 219.98 308.614C220.913 306.092 222.06 302.431 221.257 299.772C221.184 299.534 221.32 299.279 221.561 299.208C221.8 299.132 222.055 299.273 222.125 299.509C223.007 302.431 221.811 306.285 220.831 308.929C220.704 309.274 220.576 309.626 220.449 309.984C219.473 312.705 218.363 315.786 216.128 317.766C214.897 318.856 213.478 319.271 211.992 319.271Z" fill="#2E2020"/>
<path d="M230.36 241.673C230.162 241.673 229.98 241.543 229.923 241.345C228.534 236.447 228.404 230.916 229.543 224.898C229.627 224.464 229.714 224.016 229.804 223.561C230.598 219.495 231.591 214.434 230.134 210.523C229.836 209.728 229.033 208.782 228.258 207.859C227.745 207.255 227.262 206.682 226.918 206.151C226.782 205.939 226.842 205.66 227.053 205.521C227.262 205.386 227.542 205.445 227.677 205.657C227.994 206.14 228.458 206.693 228.952 207.276C229.776 208.253 230.631 209.264 230.983 210.208C232.529 214.358 231.51 219.557 230.693 223.734C230.604 224.19 230.517 224.635 230.436 225.069C229.323 230.943 229.443 236.338 230.796 241.095C230.864 241.337 230.723 241.589 230.484 241.657C230.444 241.668 230.4 241.673 230.36 241.673Z" fill="#2E2020"/>
<path d="M225.586 212.698C225.537 212.698 225.488 212.693 225.442 212.69C225.193 212.666 225.008 212.443 225.035 212.194C225.06 211.944 225.28 211.762 225.532 211.787C226.326 211.857 227.319 210.024 227.848 209.031C228.092 208.575 228.285 208.215 228.453 208.003C228.61 207.808 228.898 207.775 229.09 207.933C229.286 208.087 229.318 208.375 229.163 208.567C229.044 208.717 228.852 209.077 228.648 209.46C227.916 210.832 226.918 212.698 225.586 212.698Z" fill="#2E2020"/>
<path d="M239.307 214.391C239.207 214.391 239.109 214.358 239.025 214.293C238.106 213.558 237.783 212.148 237.474 210.783C237.308 210.065 237.157 209.386 236.929 208.898C235.684 206.208 231.363 204.198 228.692 203.628C228.136 203.509 227.685 203.571 227.314 203.818C226.481 204.371 226.126 205.812 225.931 206.848C225.884 207.095 225.646 207.257 225.402 207.209C225.155 207.162 224.992 206.926 225.041 206.68C225.285 205.38 225.708 203.799 226.812 203.064C227.39 202.679 228.084 202.571 228.882 202.741C231.54 203.308 236.3 205.378 237.753 208.519C238.019 209.094 238.182 209.815 238.358 210.58C238.632 211.795 238.92 213.048 239.59 213.585C239.785 213.74 239.817 214.024 239.663 214.22C239.573 214.334 239.44 214.391 239.307 214.391Z" fill="#2E2020"/>
<path d="M248.749 214.301C248.507 214.301 248.309 214.111 248.296 213.87C248.136 210.791 247.884 207.718 247.547 204.738C247.458 203.937 247.271 202.269 246.432 201.599C244.067 199.712 238.757 198.131 235.708 198.996C235.158 199.153 233.902 200.688 232.988 201.811C232.464 202.451 231.971 203.056 231.52 203.544C231.352 203.729 231.065 203.739 230.88 203.571C230.696 203.4 230.685 203.113 230.853 202.928C231.287 202.462 231.77 201.868 232.285 201.239C233.747 199.446 234.688 198.342 235.459 198.125C238.814 197.173 244.417 198.828 246.999 200.889C247.997 201.686 248.293 203.232 248.448 204.637C248.787 207.634 249.039 210.724 249.202 213.821C249.215 214.073 249.023 214.285 248.773 214.301C248.765 214.301 248.757 214.301 248.749 214.301Z" fill="#2E2020"/>
<path d="M238.795 213.59C238.559 213.59 238.361 213.409 238.342 213.167C238.325 212.918 238.515 212.701 238.765 212.685C238.987 212.668 239.191 212.552 239.378 212.324C240.536 210.932 240.571 206.525 240.392 204.919C240.365 204.67 240.544 204.447 240.791 204.418C241.038 204.391 241.266 204.57 241.295 204.816C241.401 205.776 241.624 211.044 240.075 212.904C239.725 213.325 239.305 213.555 238.827 213.588C238.816 213.59 238.806 213.59 238.795 213.59Z" fill="#2E2020"/>
<path d="M240.609 206.313C240.531 206.313 240.452 206.294 240.379 206.251C239.736 205.871 238.987 205.668 238.193 205.454C237.373 205.231 236.527 205.003 235.776 204.559C235.559 204.434 235.486 204.155 235.613 203.938C235.741 203.723 236.02 203.65 236.234 203.778C236.883 204.16 237.634 204.363 238.429 204.578C239.245 204.8 240.091 205.028 240.84 205.47C241.054 205.597 241.127 205.874 241 206.088C240.916 206.232 240.764 206.313 240.609 206.313Z" fill="#2E2020"/>
<path d="M235.158 206.305C235.008 206.305 234.865 206.232 234.778 206.097C234.642 205.888 234.702 205.608 234.911 205.47C235.632 205.004 235.836 204.659 235.879 204.453C235.931 204.206 236.172 204.052 236.419 204.103C236.663 204.157 236.818 204.396 236.766 204.643C236.649 205.191 236.205 205.711 235.404 206.229C235.328 206.281 235.244 206.305 235.158 206.305Z" fill="#2E2020"/>
<path d="M254.176 213.485C253.948 213.485 253.753 213.314 253.726 213.081C253.338 209.614 252.806 206.075 252.101 202.259C252.066 202.058 252.028 201.846 251.99 201.629C251.762 200.309 251.504 198.809 250.775 197.854C250.17 197.059 249.21 196.774 248.193 196.473C247.851 196.373 247.509 196.273 247.184 196.151C245.513 195.538 243.449 194.759 241.659 194.792C239.717 194.811 238.477 195.733 237.756 197.694C237.672 197.93 237.411 198.047 237.175 197.962C236.94 197.876 236.817 197.615 236.904 197.379C237.75 195.082 239.345 193.908 241.651 193.886C243.606 193.859 245.757 194.662 247.496 195.299C247.805 195.413 248.128 195.511 248.45 195.605C249.562 195.934 250.712 196.275 251.496 197.303C252.359 198.434 252.652 200.121 252.882 201.475C252.92 201.689 252.955 201.898 252.993 202.096C253.701 205.931 254.236 209.492 254.629 212.98C254.656 213.23 254.477 213.455 254.23 213.482C254.211 213.485 254.195 213.485 254.176 213.485Z" fill="#2E2020"/>
<path d="M243.007 235.706C242.928 235.706 242.85 235.684 242.776 235.641C242.562 235.516 242.489 235.237 242.616 235.02C243.758 233.078 245.009 231.15 246.215 229.281C247.818 226.799 249.478 224.233 250.902 221.619C251.217 221.041 251.58 220.501 251.93 219.978C252.88 218.559 253.777 217.219 253.571 215.375C253.541 215.126 253.72 214.903 253.97 214.876C254.214 214.849 254.444 215.025 254.472 215.275C254.716 217.447 253.682 218.991 252.684 220.485C252.345 220.989 251.995 221.513 251.697 222.055C250.257 224.694 248.591 227.276 246.978 229.772C245.773 231.632 244.531 233.555 243.397 235.481C243.313 235.625 243.161 235.706 243.007 235.706Z" fill="#2E2020"/>
<path d="M252.896 220.526C252.798 220.526 252.698 220.493 252.616 220.428C252.418 220.271 252.386 219.986 252.543 219.791C252.85 219.403 253.194 219.031 253.557 218.635C254.45 217.667 255.372 216.663 255.689 215.522C256.072 214.136 255.838 212.603 255.613 211.12C255.543 210.648 255.47 210.181 255.421 209.72C255.369 209.262 255.318 208.784 255.266 208.296C254.873 204.586 254.387 199.967 252.695 196.812C251.686 194.933 246.66 193.474 244.669 194.48C244.442 194.594 244.17 194.504 244.056 194.282C243.945 194.059 244.035 193.786 244.257 193.672C246.717 192.427 252.242 194.049 253.495 196.384C255.269 199.696 255.768 204.412 256.167 208.201C256.221 208.687 256.27 209.161 256.321 209.617C256.373 210.067 256.441 210.523 256.511 210.984C256.75 212.56 256.997 214.19 256.563 215.76C256.188 217.116 255.19 218.201 254.225 219.248C253.875 219.633 253.538 219.994 253.251 220.355C253.161 220.466 253.029 220.526 252.896 220.526Z" fill="#2E2020"/>
<path d="M249.828 257.201C249.633 257.201 249.451 257.071 249.394 256.875C249.096 255.842 248.681 254.6 248.206 253.16C246.685 248.576 244.607 242.3 243.641 235.329C243.606 235.082 243.78 234.855 244.029 234.819C244.273 234.787 244.507 234.958 244.539 235.207C245.491 242.091 247.558 248.324 249.066 252.872C249.546 254.323 249.961 255.573 250.265 256.62C250.335 256.862 250.194 257.111 249.956 257.185C249.915 257.195 249.872 257.201 249.828 257.201Z" fill="#2E2020"/>
<path d="M235.144 281.934C234.9 281.934 234.699 281.741 234.688 281.497C234.566 278.218 233.346 269.238 232.166 260.553C231.043 252.3 229.985 244.502 229.76 241.003C229.747 240.754 229.936 240.539 230.183 240.523C230.433 240.496 230.65 240.697 230.666 240.946C230.888 244.413 231.995 252.558 233.064 260.434C234.246 269.138 235.472 278.14 235.597 281.462C235.605 281.712 235.41 281.923 235.16 281.931C235.155 281.934 235.149 281.934 235.144 281.934Z" fill="#2E2020"/>
<path d="M235.361 282.262C235.03 282.262 234.721 282.202 234.45 282.07C233.525 281.619 233.218 280.505 233.538 278.769C233.582 278.522 233.823 278.356 234.065 278.403C234.311 278.449 234.474 278.685 234.431 278.931C234.268 279.818 234.208 280.944 234.848 281.256C235.96 281.801 238.732 280.155 239.95 278.796C243.726 274.573 246.717 268.866 249.09 261.348L249.175 261.079C249.69 259.471 250.894 255.704 249.223 254.784C249.004 254.665 248.922 254.388 249.044 254.169C249.164 253.949 249.44 253.87 249.66 253.99C251.987 255.27 250.669 259.379 250.04 261.356L249.953 261.622C247.542 269.265 244.491 275.08 240.626 279.398C239.584 280.564 237.14 282.262 235.361 282.262Z" fill="#2E2020"/>
<path d="M238.654 299.49C238.098 299.493 237.599 299.371 237.159 299.13C235.8 298.381 235.597 296.19 235.431 294.429C235.383 293.909 235.339 293.415 235.269 293.079C234.943 291.522 234.36 289.93 233.739 288.24C232.155 283.919 230.514 279.447 233.438 275.563C233.59 275.362 233.872 275.321 234.075 275.473C234.276 275.625 234.317 275.907 234.165 276.108C231.537 279.599 233.091 283.835 234.591 287.928C235.193 289.572 235.817 291.272 236.156 292.894C236.237 293.279 236.283 293.773 236.337 294.345C236.473 295.81 236.66 297.82 237.599 298.335C239.31 299.276 242.717 297.519 247.192 293.388C251.076 289.799 253.859 285.354 256.378 281.109C257.284 279.582 258.968 276.743 258.987 274.527C259.001 273.247 258.279 271.923 257.582 270.643C257.178 269.902 256.761 269.137 256.498 268.392C256.042 267.109 255.608 265.78 255.188 264.497C254.393 262.064 253.571 259.547 252.559 257.201C251.854 255.563 251.043 253.992 249.644 254.404C249.405 254.47 249.153 254.337 249.082 254.098C249.012 253.857 249.153 253.604 249.391 253.534C251.681 252.872 252.795 255.454 253.392 256.843C254.42 259.227 255.25 261.763 256.05 264.215C256.468 265.495 256.902 266.816 257.352 268.088C257.591 268.766 257.973 269.466 258.38 270.209C259.131 271.592 259.91 273.021 259.896 274.535C259.874 276.995 258.106 279.973 257.159 281.57C254.607 285.872 251.781 290.383 247.807 294.052C243.891 297.67 240.823 299.49 238.654 299.49Z" fill="#2E2020"/>
<path d="M264.209 294.47C264.198 294.47 264.187 294.47 264.176 294.47C263.927 294.454 263.737 294.237 263.756 293.987C264.149 288.066 261.73 280.434 259.161 275.498C259.044 275.275 259.131 275.001 259.354 274.885C259.576 274.768 259.85 274.855 259.964 275.077C262.595 280.128 265.066 287.952 264.659 294.047C264.643 294.288 264.445 294.47 264.209 294.47Z" fill="#2E2020"/>
<mask id="mask2_379_209" style="mask-type:luminance" maskUnits="userSpaceOnUse" x="238" y="209" width="50" height="109">
<path d="M238.342 209.549H287.52V317.966H238.342V209.549Z" fill="white"/>
</mask>
<g mask="url(#mask2_379_209)">
<path d="M250.135 317.785C248.941 317.785 247.772 317.475 246.679 316.705C244.236 314.986 242.793 312.045 241.518 309.453C241.35 309.111 241.184 308.774 241.019 308.444C239.752 305.924 238.136 302.23 238.684 299.23C238.73 298.986 238.968 298.82 239.212 298.867C239.457 298.913 239.622 299.149 239.576 299.395C239.077 302.127 240.623 305.636 241.83 308.037C241.995 308.368 242.163 308.709 242.332 309.054C243.56 311.549 244.949 314.378 247.2 315.965C250.563 318.332 255.044 315.525 258.318 313.478L258.931 313.092C277.07 301.842 285.47 252.842 286.476 236.268C286.864 229.899 286.661 223.371 282.6 218.76C277.154 212.579 270.618 211.987 263.699 211.361C261.317 211.147 258.852 210.924 256.37 210.469C256.123 210.423 255.961 210.187 256.007 209.942C256.05 209.696 256.294 209.533 256.536 209.576C258.977 210.024 261.418 210.246 263.78 210.458C270.886 211.101 277.594 211.708 283.281 218.163C287.561 223.016 287.781 229.758 287.382 236.322C286.368 253.021 277.854 302.425 259.411 313.865L258.798 314.245C256.3 315.81 253.14 317.785 250.135 317.785Z" fill="#2E2020"/>
</g>
<path d="M212.809 188.201C212.722 188.201 212.632 188.177 212.556 188.125L212.469 188.068C212.28 187.943 212.247 187.916 212.12 187.778C212.057 187.71 211.957 187.599 211.74 187.385C211.564 187.208 211.564 186.921 211.74 186.745C211.919 186.568 212.206 186.568 212.383 186.745C212.611 186.975 212.722 187.094 212.787 187.165C212.849 187.23 212.849 187.23 212.969 187.311L213.058 187.371C213.267 187.512 213.324 187.791 213.186 188C213.099 188.13 212.952 188.201 212.809 188.201Z" fill="#2E2020"/>
<path d="M237.533 187.458C237.417 187.458 237.303 187.412 237.213 187.325C237.037 187.146 237.037 186.858 237.213 186.682C237.525 186.373 237.807 186.042 238.106 185.692L238.247 185.527C238.41 185.337 238.694 185.318 238.887 185.481C239.077 185.643 239.098 185.928 238.933 186.118L238.795 186.283C238.496 186.628 238.193 186.986 237.853 187.325C237.767 187.412 237.65 187.458 237.533 187.458Z" fill="#2E2020"/>
<path d="M195.024 180.07C194.992 180.07 194.959 180.067 194.927 180.059C194.682 180.005 194.528 179.76 194.582 179.516C195.808 174.092 199.551 172.825 203.172 171.599C205.773 170.718 208.461 169.806 210.357 167.357C211.829 165.451 212.13 163.064 212.418 160.756C212.733 158.228 213.061 155.616 214.897 153.582C216.706 151.577 221.211 148.667 223.926 150.671C224.127 150.821 224.17 151.103 224.021 151.306C223.872 151.507 223.59 151.55 223.386 151.401C221.271 149.839 217.235 152.345 215.572 154.189C213.926 156.012 213.63 158.372 213.318 160.867C213.015 163.297 212.7 165.811 211.073 167.913C209.011 170.579 206.191 171.534 203.462 172.456C199.923 173.655 196.581 174.786 195.466 179.717C195.42 179.929 195.233 180.07 195.024 180.07Z" fill="#2E2020"/>
<path d="M194.87 195.779C194.701 195.779 194.541 195.687 194.463 195.529C193.448 193.501 194.493 191.759 195.415 190.222C195.596 189.918 195.778 189.617 195.944 189.316C196.188 188.865 196.02 188.274 195.824 187.588C195.564 186.682 195.268 185.654 195.846 184.599C196.969 182.54 198.726 181.513 200.43 180.52C202.657 179.218 204.582 178.095 204.829 174.862C204.851 174.613 205.068 174.415 205.317 174.444C205.567 174.463 205.754 174.683 205.735 174.93C205.447 178.638 203.128 179.994 200.885 181.301C199.293 182.234 197.644 183.197 196.641 185.036C196.245 185.763 196.462 186.528 196.695 187.338C196.925 188.141 197.164 188.974 196.738 189.75C196.57 190.062 196.38 190.373 196.193 190.688C195.312 192.153 194.482 193.541 195.274 195.123C195.385 195.348 195.295 195.619 195.07 195.733C195.005 195.765 194.937 195.779 194.87 195.779Z" fill="#2E2020"/>
<path d="M251.298 179.481C251.092 179.481 250.902 179.337 250.856 179.126C250.105 175.727 248.507 175.082 246.487 174.263C245.356 173.804 244.067 173.284 242.833 172.199C242.109 171.561 241.64 170.726 241.187 169.92C240.726 169.107 240.295 168.336 239.63 167.788C238.58 166.915 237.455 166.557 236.264 166.18C235.434 165.917 234.58 165.643 233.715 165.187C231.868 164.214 231.355 161.401 230.813 158.426C230.319 155.735 229.812 152.952 228.285 152.087C227.574 151.686 226.657 151.707 225.486 152.15C225.25 152.239 224.992 152.117 224.903 151.884C224.813 151.651 224.93 151.387 225.166 151.301C226.606 150.758 227.772 150.755 228.732 151.298C230.628 152.372 231.173 155.366 231.705 158.266C232.182 160.894 232.681 163.617 234.138 164.385C234.932 164.805 235.749 165.063 236.538 165.315C237.759 165.703 239.023 166.107 240.211 167.091C241.003 167.748 241.496 168.627 241.976 169.476C242.413 170.251 242.825 170.981 243.433 171.518C244.55 172.5 245.708 172.969 246.828 173.422C248.917 174.268 250.889 175.065 251.743 178.93C251.795 179.175 251.643 179.416 251.399 179.47C251.363 179.478 251.331 179.481 251.298 179.481Z" fill="#2E2020"/>
<path d="M257.745 190.574C257.496 190.574 257.292 190.371 257.292 190.121C257.292 186.972 255.025 183.275 252.237 181.884C251.602 181.564 250.807 181.352 249.964 181.13C248.523 180.745 247.032 180.346 246.028 179.343C245.459 178.773 245.057 177.482 244.631 176.112C244.36 175.234 243.945 173.905 243.682 173.728C243.46 173.614 243.373 173.346 243.484 173.121C243.595 172.898 243.872 172.809 244.097 172.92C244.653 173.199 244.976 174.162 245.499 175.844C245.836 176.934 246.259 178.29 246.668 178.7C247.501 179.535 248.873 179.899 250.2 180.254C251.087 180.49 251.925 180.712 252.643 181.073C255.708 182.603 258.198 186.663 258.198 190.121C258.198 190.371 257.995 190.574 257.745 190.574Z" fill="#2E2020"/>
<path d="M229.649 168.382C229.592 168.382 229.535 168.374 229.481 168.35C223.986 166.153 221.607 160.346 223.112 152.814C223.161 152.567 223.405 152.407 223.647 152.459C223.891 152.508 224.051 152.746 224.002 152.99C223.324 156.386 222.529 164.593 229.817 167.509C230.05 167.601 230.162 167.867 230.069 168.098C229.999 168.277 229.828 168.382 229.649 168.382Z" fill="#2E2020"/>
<path d="M200.812 269.113C200.622 269.113 200.446 268.994 200.381 268.804C199.318 265.609 198.908 262.164 198.515 258.834C198.097 255.31 197.666 251.668 196.451 248.332C195.152 244.754 193.288 241.738 191.471 239.012C191.333 238.804 191.387 238.524 191.596 238.383C191.805 238.245 192.087 238.299 192.225 238.508C194.075 241.283 195.971 244.356 197.305 248.023C198.553 251.456 198.992 255.15 199.415 258.725C199.803 262.012 200.205 265.408 201.243 268.516C201.322 268.755 201.195 269.013 200.956 269.091C200.907 269.105 200.858 269.113 200.812 269.113Z" fill="#2E2020"/>
<path d="M256.972 267.833C256.926 267.833 256.877 267.827 256.829 267.811C256.593 267.733 256.462 267.475 256.541 267.239C258.033 262.764 259.115 258.039 260.162 253.469C260.851 250.455 261.564 247.339 262.389 244.309C262.766 242.932 264.775 236.018 267.442 235.131C267.68 235.052 267.933 235.18 268.014 235.416C268.093 235.655 267.965 235.912 267.726 235.991C266.121 236.525 264.287 240.802 263.265 244.548C262.443 247.559 261.732 250.664 261.043 253.669C259.994 258.261 258.909 263.01 257.404 267.524C257.341 267.716 257.165 267.833 256.972 267.833Z" fill="#2E2020"/>
<path d="M187.061 329.285C186.812 329.285 186.608 329.078 186.608 328.829C186.608 322.379 184.213 308.926 182.467 299.103C181.374 292.967 180.514 288.123 180.514 286.642C180.514 286.39 180.715 286.187 180.967 286.187C181.216 286.187 181.42 286.39 181.42 286.642C181.42 288.042 182.32 293.095 183.359 298.945C185.114 308.802 187.517 322.301 187.517 328.829C187.517 329.078 187.311 329.285 187.061 329.285Z" fill="#2E2020"/>
<path d="M270.761 326.469C270.531 326.469 270.333 326.296 270.311 326.062C269.82 321.191 270.677 313.353 271.431 306.439C271.898 302.165 272.302 298.479 272.302 296.252C272.302 296 272.503 295.796 272.755 295.796C273.004 295.796 273.208 296 273.208 296.252C273.208 298.528 272.801 302.238 272.334 306.534C271.583 313.407 270.734 321.197 271.212 325.97C271.239 326.22 271.054 326.442 270.807 326.467C270.791 326.469 270.775 326.469 270.761 326.469Z" fill="#2E2020"/>
<path d="M226.82 231.112C226.392 231.112 225.979 231.06 225.559 231.006C225.106 230.949 224.639 230.892 224.113 230.892C223.864 230.892 223.658 230.686 223.658 230.436C223.658 230.187 223.864 229.983 224.113 229.983C224.696 229.983 225.217 230.051 225.673 230.108C226.657 230.23 227.433 230.331 228.515 229.788C228.74 229.677 229.012 229.769 229.126 229.991C229.237 230.214 229.144 230.488 228.922 230.599C228.127 230.998 227.455 231.112 226.82 231.112Z" fill="#2E2020"/>
<path d="M224.314 149.568C224.265 149.568 224.214 149.562 224.165 149.543C223.929 149.462 223.804 149.201 223.888 148.965C224.45 147.346 226.085 141.797 223.403 138.382C223.248 138.184 223.283 137.899 223.481 137.745C223.677 137.59 223.964 137.625 224.119 137.823C227.083 141.599 225.345 147.536 224.743 149.264C224.677 149.451 224.501 149.568 224.314 149.568Z" fill="#2E2020"/>
<path d="M187.875 214.141C187.758 214.141 187.641 214.095 187.552 214.005C185.027 211.437 186.619 209.08 188.027 207C189.057 205.473 190.034 204.03 189.551 202.552C189.277 201.724 188.77 201.022 188.235 200.279C187.671 199.495 187.083 198.687 186.779 197.699C185.944 195.012 187.113 192.196 188.241 189.473C189.025 187.591 189.762 185.812 189.86 184.119C190.001 181.716 189.749 179.316 189.505 176.997C189.391 175.917 189.274 174.802 189.196 173.69C188.512 163.929 191.414 153.012 196.595 145.879C200.462 140.557 206.576 136.589 213.37 134.995C216.061 134.363 218.933 133.869 221.878 135.369C222.101 135.483 222.19 135.757 222.076 135.979C221.965 136.202 221.691 136.291 221.466 136.177C218.794 134.818 216.104 135.282 213.576 135.876C206.991 137.422 201.07 141.263 197.33 146.413C192.266 153.381 189.429 164.065 190.101 173.628C190.177 174.724 190.294 175.83 190.405 176.902C190.655 179.259 190.91 181.694 190.766 184.171C190.66 186.018 189.857 187.949 189.079 189.823C188.01 192.394 186.906 195.055 187.644 197.428C187.907 198.277 188.423 198.99 188.97 199.747C189.524 200.515 190.096 201.307 190.413 202.27C191.034 204.171 189.887 205.866 188.778 207.51C187.392 209.557 186.193 211.328 188.2 213.368C188.374 213.55 188.371 213.835 188.195 214.011C188.105 214.098 187.991 214.141 187.875 214.141Z" fill="#2E2020"/>
<path d="M261.895 210.645C261.827 210.645 261.759 210.631 261.697 210.599C261.472 210.488 261.377 210.216 261.488 209.991C261.656 209.655 261.504 209.278 261.241 208.695C260.965 208.071 260.647 207.36 260.91 206.555C261.125 205.898 261.488 205.475 261.811 205.101C262.267 204.567 262.543 204.247 262.343 203.422C262.164 202.701 261.689 202.099 261.187 201.461C260.387 200.447 259.478 199.297 259.904 197.569C260.102 196.758 260.512 196.018 260.908 195.299C261.464 194.293 261.99 193.341 261.89 192.307C261.77 191.125 261.323 190.203 260.851 189.223C260.268 188.027 259.671 186.793 259.671 185.047C259.671 183.59 259.872 182.324 260.064 181.098C260.379 179.118 260.675 177.246 260.018 174.908C259.47 172.955 258.459 171.154 257.39 169.248C256.427 167.534 255.434 165.762 254.816 163.877C254.263 162.182 253.761 160.414 253.275 158.702C252.006 154.208 250.691 149.559 248.214 145.597C244.271 139.291 240.384 135.892 236.335 135.206C232.779 134.601 225.022 134.702 223.327 136.427C223.15 136.608 222.863 136.611 222.684 136.435C222.505 136.258 222.502 135.971 222.678 135.795C224.802 133.633 233.319 133.774 236.484 134.311C240.807 135.043 244.895 138.577 248.982 145.117C251.529 149.188 252.863 153.899 254.149 158.458C254.632 160.159 255.128 161.916 255.679 163.595C256.267 165.394 257.238 167.129 258.182 168.803C259.229 170.674 260.314 172.605 260.891 174.664C261.602 177.192 261.29 179.158 260.962 181.239C260.772 182.429 260.577 183.661 260.577 185.047C260.577 186.584 261.106 187.672 261.667 188.828C262.153 189.834 262.657 190.875 262.79 192.218C262.92 193.531 262.299 194.653 261.702 195.738C261.317 196.433 260.954 197.092 260.786 197.786C260.466 199.083 261.13 199.923 261.898 200.9C262.44 201.583 262.999 202.294 263.224 203.205C263.536 204.48 262.985 205.123 262.497 205.69C262.207 206.031 261.933 206.351 261.773 206.837C261.618 207.312 261.838 207.802 262.071 208.323C262.348 208.947 262.665 209.655 262.302 210.393C262.223 210.553 262.063 210.645 261.895 210.645Z" fill="#2E2020"/>
<path d="M249.237 187.58C249.18 187.58 249.123 187.572 249.069 187.547C248.835 187.455 248.724 187.192 248.816 186.959C249.335 185.66 250.539 184.247 252.036 183.178C252.242 183.031 252.521 183.08 252.668 183.281C252.814 183.487 252.768 183.772 252.565 183.916C251.512 184.664 250.197 185.947 249.657 187.295C249.587 187.474 249.416 187.58 249.237 187.58Z" fill="#2E2020"/>
<path d="M201.583 190.691C201.414 190.691 201.254 190.599 201.176 190.441C200.565 189.221 199.38 187.642 198.219 187.062C197.997 186.951 197.905 186.677 198.019 186.454C198.13 186.232 198.404 186.142 198.626 186.251C200.172 187.024 201.466 188.993 201.987 190.034C202.098 190.26 202.006 190.531 201.783 190.645C201.718 190.677 201.65 190.691 201.583 190.691Z" fill="#2E2020"/>
<path d="M202.952 189.02C202.754 189.02 202.575 188.89 202.518 188.689C201.78 186.118 201.398 183.335 201.097 180.713C201.067 180.466 201.246 180.238 201.496 180.211C201.745 180.181 201.97 180.36 201.997 180.609C202.296 183.194 202.673 185.931 203.389 188.442C203.459 188.684 203.318 188.933 203.08 189.001C203.036 189.015 202.996 189.02 202.952 189.02Z" fill="#2E2020"/>
<path d="M248.174 184.16C248.163 184.16 248.157 184.16 248.149 184.16C247.897 184.146 247.707 183.932 247.718 183.682C247.729 183.465 247.748 183.232 247.767 182.991C247.832 182.166 247.902 181.23 247.683 180.569C247.604 180.333 247.732 180.078 247.97 179.996C248.209 179.915 248.464 180.045 248.545 180.284C248.822 181.116 248.743 182.15 248.67 183.064C248.654 183.292 248.635 183.517 248.624 183.728C248.613 183.97 248.412 184.16 248.174 184.16Z" fill="#2E2020"/>
<mask id="mask3_379_209" style="mask-type:luminance" maskUnits="userSpaceOnUse" x="163" y="219" width="6" height="10">
<path d="M163.139 219.65H168.121V228.676H163.139V219.65Z" fill="white"/>
</mask>
<g mask="url(#mask3_379_209)">
<path d="M163.592 228.082C163.345 228.082 163.139 227.879 163.139 227.629C163.139 226.864 163.348 226.626 163.782 226.403C163.901 226.344 164.023 226.284 164.167 226.143C164.24 225.931 164.256 225.199 164.267 224.798C164.283 224.242 164.294 223.889 164.349 223.669C164.468 223.189 165.002 223.173 165.322 223.162C165.352 223.159 165.39 223.157 165.431 223.157C165.423 223.097 165.412 223.032 165.401 222.978C165.336 222.593 165.26 222.156 165.461 221.82C165.656 221.494 166.036 221.537 166.442 221.589C166.421 221.483 166.394 221.369 166.372 221.274C166.201 220.523 166.076 219.978 166.502 219.745C166.89 219.53 167.248 219.888 167.367 220.008C167.544 220.184 167.544 220.469 167.367 220.648C167.313 220.699 167.253 220.735 167.186 220.756C167.21 220.87 167.234 220.984 167.256 221.074C167.416 221.773 167.514 222.197 167.164 222.43C166.955 222.568 166.703 222.536 166.35 222.492C166.32 222.487 166.282 222.481 166.242 222.479C166.255 222.593 166.28 222.734 166.296 222.826C166.361 223.214 166.426 223.58 166.171 223.832C165.957 224.046 165.648 224.057 165.349 224.068C165.309 224.068 165.254 224.071 165.203 224.073C165.189 224.271 165.181 224.567 165.173 224.819C165.146 225.988 165.108 226.49 164.842 226.753C164.579 227.016 164.346 227.136 164.191 227.214C164.151 227.236 164.088 227.266 164.075 227.279C164.077 227.279 164.048 227.353 164.048 227.629C164.048 227.879 163.844 228.082 163.592 228.082Z" fill="#2E2020"/>
</g>
<path d="M282.698 215.204C282.448 215.204 282.245 215.001 282.245 214.751C282.183 214.523 281.198 214.171 280.827 214.038C280.181 213.807 279.79 213.666 279.639 213.363C279.069 212.229 278.895 212.194 277.52 211.922L277.298 211.879C277.168 211.852 277.013 211.738 276.948 211.624C276.804 211.369 276.907 211.092 277.024 210.772C277.029 210.762 277.035 210.751 277.038 210.734C276.891 210.8 276.747 210.865 276.661 210.908C276.435 211.022 276.164 210.93 276.053 210.707C275.939 210.485 276.031 210.211 276.254 210.1C277.439 209.503 277.623 209.628 277.773 209.728C278.25 210.048 278.036 210.656 277.884 211.071C279.175 211.328 279.704 211.488 280.42 212.899C280.539 212.975 280.878 213.094 281.13 213.184C282.08 213.523 283.151 213.908 283.151 214.751C283.151 215.001 282.95 215.204 282.698 215.204Z" fill="#2E2020"/>
<path d="M202.499 231.798C202.309 231.798 202.133 231.678 202.068 231.486C201.873 230.905 201.314 230.219 200.774 229.555C199.86 228.435 198.914 227.276 199.437 226.229C199.551 226.004 199.822 225.918 200.045 226.026C200.27 226.14 200.359 226.411 200.248 226.636C199.988 227.157 200.777 228.128 201.474 228.982C202.068 229.709 202.684 230.461 202.928 231.201C203.006 231.437 202.879 231.695 202.643 231.773C202.594 231.79 202.545 231.798 202.499 231.798Z" fill="#2E2020"/>
<path d="M248.705 229.541C248.637 229.541 248.57 229.525 248.505 229.492C248.279 229.381 248.187 229.107 248.301 228.885C248.751 227.984 249.362 227.946 249.687 227.927C249.698 227.925 249.706 227.925 249.714 227.925C249.714 227.83 249.706 227.629 249.698 227.496C249.682 227.06 249.66 226.563 249.98 226.243C250.102 226.121 250.27 226.07 250.433 226.094C250.501 226.105 250.56 226.129 250.612 226.159C250.617 226.121 250.62 226.089 250.625 226.059C250.696 225.562 250.734 225.297 250.853 225.12C250.984 224.922 251.203 224.833 251.428 224.882C251.428 224.798 251.431 224.711 251.436 224.624L251.439 224.442C251.439 224.193 251.643 223.987 251.892 223.987C252.144 223.987 252.348 224.193 252.348 224.442C252.348 224.488 252.345 224.559 252.342 224.654C252.318 225.364 252.334 225.85 252.388 226.099C252.47 226.292 252.516 226.449 252.511 226.517C252.5 226.721 252.348 226.891 252.15 226.935C252.02 226.962 251.781 226.956 251.621 226.636C251.586 226.569 251.559 226.49 251.531 226.403C251.523 226.381 251.512 226.36 251.502 226.338C251.415 226.959 251.339 227.304 251.081 227.475C250.951 227.559 250.796 227.586 250.647 227.548C250.634 227.542 250.62 227.54 250.609 227.534C250.625 227.936 250.625 228.34 250.354 228.614C250.162 228.804 249.923 228.82 249.747 228.831C249.503 228.847 249.329 228.858 249.112 229.292C249.033 229.449 248.871 229.541 248.705 229.541Z" fill="#2E2020"/>
<path d="M170.358 145.719C168.65 145.932 168.635 149.768 168.392 150.838C167.661 154.051 167.71 156.491 170.358 158.516C175.224 162.237 183.888 159.597 185.527 153.522C186.243 150.869 187.307 143.768 185.714 141.162C183.237 137.108 174.551 137.853 170.483 137.853C158.882 137.853 158.78 152.614 160.807 161.2C161.792 165.373 163.339 168.192 168.173 168.192C169.825 168.192 177.599 169.342 178.785 167.817C180.839 165.176 183.68 163.175 185.433 160.295C187.237 157.332 188.329 154.007 189.741 150.869C190.432 149.333 191.641 144.946 189.772 143.596C188.435 142.631 187.575 141.188 186.307 140.101C183.781 137.935 179.967 136.054 176.788 135.076C173.827 134.165 170.398 133.83 167.299 133.921C163.987 134.018 160.198 135.747 159.122 138.977" stroke="#B2442B" stroke-width="3" stroke-linecap="round"/>
<path d="M252.344 100C251.746 107.326 249.072 114.96 246.543 121.858C245.669 124.24 243.953 127.298 243.953 129.835" stroke="#B2442B" stroke-width="3" stroke-linecap="round"/>
<path d="M260.269 101.865C258.875 106.932 257.502 112.36 255.374 117.17C254.331 119.529 253.425 122.626 251.515 124.344C250.028 125.683 248.149 129.115 248.149 131.233" stroke="#B2442B" stroke-width="3" stroke-linecap="round"/>
<path d="M241.622 105.128C245.967 105.383 250.282 108.245 254.571 109.22C256.738 109.712 257.693 111.188 259.803 111.188" stroke="#B2442B" stroke-width="3" stroke-linecap="round"/>
<path d="M240.224 116.782C244.254 116.782 248.987 117.211 252.836 118.413C255.506 119.248 259.438 119.491 261.667 120.977" stroke="#B2442B" stroke-width="3" stroke-linecap="round"/>
<path d="M268.419 153.565C271.778 152.605 275.478 150.717 278.996 150.717" stroke="#B2442B" stroke-width="3" stroke-linecap="round"/>
<path d="M277.775 175.938C278.68 175.938 284.442 175.623 283.877 176.752" stroke="#B2442B" stroke-width="3" stroke-linecap="round"/>
<path d="M166.735 201.534C157.951 198.997 149.439 196.855 140.291 196.855C136.697 196.855 134.673 199.027 131.452 200.235C129.192 201.082 136.088 208.227 137.1 209.569C139.804 213.155 142.922 208.765 144.757 206.639C145.613 205.648 153.758 194.664 151.327 193.854C147.643 192.626 144.831 192.733 142.678 196.264C139.611 201.294 139.46 204.196 141.874 209.782C143.593 213.761 148.174 219.662 152.06 214.201C152.804 213.155 155.665 209.391 154.21 207.679C153.252 206.552 151.788 205.156 150.145 205.977C145.571 208.264 143.637 215.715 148.491 218.951C151.558 220.996 154.746 218.786 155.817 215.903C156.98 212.773 156.951 209.199 156.951 205.906C156.951 205.267 157.307 203.355 156.762 202.811C155.078 201.126 149.201 202.032 151.421 205.363" stroke="#B2442B" stroke-width="3" stroke-linecap="round"/>
</g>
</svg>
