<svg width="40" height="40" viewBox="0 0 45 45" fill="none" xmlns="http://www.w3.org/2000/svg">
<path d="M26.75 5.625V5.125H26.25H18.75H18.25V5.625V6.5C18.25 6.50908 18.25 6.51815 18.25 6.5272C18.25 6.73924 18.2499 6.9453 18.2728 7.11526C18.2985 7.30686 18.3613 7.5255 18.5429 7.70711C18.7245 7.88871 18.9431 7.95148 19.1347 7.97724C19.3047 8.00009 19.5108 8.00005 19.7228 8C19.7319 8 19.7409 8 19.75 8H25.25C25.2591 8 25.2681 8 25.2772 8C25.4892 8.00005 25.6953 8.00009 25.8653 7.97724C26.0569 7.95148 26.2755 7.88871 26.4571 7.70711C26.6387 7.5255 26.7015 7.30686 26.7272 7.11526C26.7501 6.9453 26.75 6.73923 26.75 6.52719C26.75 6.51814 26.75 6.50907 26.75 6.5V5.625Z" stroke="black"/>
<rect x="11.75" y="4.25" width="21.5" height="36.5" rx="1.5" stroke="black"/>
<circle cx="22.5" cy="33.75" r="1.875" fill="black"/>
</svg>
