<svg width="395" height="433" viewBox="0 0 395 433" fill="none" xmlns="http://www.w3.org/2000/svg">
<mask id="mask0_828_279" style="mask-type:luminance" maskUnits="userSpaceOnUse" x="0" y="0" width="395" height="395">
<path d="M394.7 0.200195H0.700195V394.9H394.7V0.200195Z" fill="white"/>
</mask>
<g mask="url(#mask0_828_279)">
<path d="M394.7 197C394.7 305.6 306.5 393.7 197.7 393.7C88.9002 393.7 0.700195 305.6 0.700195 197C0.700195 88.3998 88.9002 0.299805 197.7 0.299805C306.6 0.299805 394.7 88.3998 394.7 197Z" fill="white"/>
</g>
<path d="M286 342.8H114V179.2H286V342.8Z" fill="#23255D"/>
<mask id="mask1_828_279" style="mask-type:luminance" maskUnits="userSpaceOnUse" x="81" y="284" width="233" height="149">
<path d="M313.9 284.2H81.8999V432.2H313.9V284.2Z" fill="white"/>
</mask>
<g mask="url(#mask1_828_279)">
<path d="M312.7 394.301C303 401.601 292.5 407.901 281.5 413.301C279.8 414.101 278.1 414.901 276.4 415.701C252.4 426.401 225.8 432.401 197.8 432.401C169.8 432.401 143.2 426.401 119.2 415.701C117.5 414.901 115.8 414.201 114.1 413.301C103.1 408.001 92.5999 401.601 82.8999 394.301C84.5999 356.301 104.8 323.101 134.8 303.401C152.9 291.501 174.5 284.601 197.8 284.601C201.4 284.601 204.9 284.801 208.3 285.101C227.6 286.801 245.5 293.301 260.8 303.401C274.6 312.401 286.3 324.301 295.1 338.301C305.4 354.601 311.8 373.801 312.7 394.301Z" fill="black"/>
</g>
<path d="M260.8 303.4C259 316.7 253.2 328.6 244.5 338C232.9 350.6 216.3 358.4 197.8 358.4C168.2 358.4 143.3 338.2 136.2 310.8C135.6 308.4 135.1 305.9 134.7 303.3C152.8 291.4 174.4 284.5 197.7 284.5C201.3 284.5 204.8 284.7 208.2 285C208.8 285 209.4 285.1 210 285.2C210.4 285.2 210.8 285.3 211.1 285.3C211.5 285.3 211.9 285.4 212.3 285.4C212.5 285.4 212.8 285.5 213.1 285.5C213.5 285.5 213.8 285.6 214.2 285.6C214.5 285.6 214.8 285.7 215.1 285.7C215.3 285.7 215.6 285.8 215.9 285.8C216.3 285.9 216.7 285.9 217.2 286C219 286.3 220.8 286.7 222.6 287.1L223.8 287.4C224 287.5 224.3 287.5 224.5 287.6C224.9 287.7 225.4 287.8 225.8 287.9C225.9 287.9 225.9 287.9 226 287.9C226.5 288 227.1 288.2 227.6 288.3C228.2 288.4 228.7 288.6 229.3 288.8C229.9 289 230.6 289.2 231.2 289.4C231.7 289.5 232.2 289.7 232.7 289.9C233 290 233.3 290.1 233.6 290.2C234.1 290.4 234.6 290.5 235.1 290.7C235.7 290.9 236.3 291.1 237 291.4H237.1C237.7 291.6 238.4 291.9 239 292.1C239.5 292.3 239.9 292.5 240.4 292.7C241.6 293.2 242.9 293.7 244.1 294.2L245.7 294.9C246.2 295.1 246.7 295.3 247.1 295.6C247.5 295.8 248 296 248.4 296.2C248.8 296.4 249.2 296.6 249.6 296.8C249.8 296.9 250.1 297 250.4 297.2C251.4 297.7 252.5 298.3 253.5 298.8C253.9 299 254.2 299.2 254.6 299.4C254.8 299.5 255.1 299.7 255.3 299.8L256.2 300.3L257.1 300.8L257.7 301.1C258.2 301.4 258.8 301.7 259.3 302.1C259.7 302.7 260.2 303 260.8 303.4Z" fill="#FBD5C0"/>
<path d="M219.9 258.9V302.4C219.9 313.4 210.9 322.4 199.9 322.4H195.7C184.7 322.4 175.7 313.4 175.7 302.4V258.9C175.7 247.9 184.7 238.9 195.7 238.9H199.9C210.9 238.9 219.9 247.9 219.9 258.9Z" fill="#FBD5C0"/>
<path d="M219.9 258.9V281.9C213.3 285.6 206.3 287.7 199.2 287.7C190.8 287.7 182.9 285.4 175.6 281.3V258.9C175.6 247.9 184.6 238.9 195.6 238.9H199.8C210.9 238.9 219.9 247.9 219.9 258.9Z" fill="#F8A29E"/>
<path d="M266.1 231.9C266.1 231.9 279.2 227.4 287.6 212.8C296.7 196.9 291 187.1 289.2 184.9C284.3 179.1 276.7 182.8 275.4 184.9C274.1 187.1 255.9 220 266.1 231.9Z" fill="#FBD5C0"/>
<path d="M278.9 190.2C278.9 190.2 287.2 191.3 284.3 203C281.4 214.7 273.7 219.3 263.2 225.3C252.8 231.2 268.5 192.6 278.9 190.2Z" fill="#F8A29E"/>
<path d="M132.9 231.9C132.9 231.9 119.8 227.4 111.4 212.8C102.3 196.9 108 187.1 109.8 184.9C114.7 179.1 122.3 182.8 123.6 184.9C124.9 187.1 143 220 132.9 231.9Z" fill="#FBD5C0"/>
<path d="M120 190.2C120 190.2 111.7 191.3 114.6 203C117.5 214.7 125.2 219.3 135.7 225.3C146.2 231.2 130.5 192.6 120 190.2Z" fill="#F8A29E"/>
<path d="M278.9 182.5C278.9 134.5 243.4 95.5996 199.6 95.5996C155.8 95.5996 120.3 134.5 120.3 182.5C120.3 230.5 155.8 280.7 199.6 280.7C240.8 280.7 278.9 230.1 278.9 182.5Z" fill="#FBD5C0"/>
<path d="M158.6 215.8C163.5 214.3 169 214 173.7 216.2C174.9 216.8 176.1 217.5 176.7 218.7C176.7 218.7 172.5 216.7 168.6 216.3" fill="black"/>
<path d="M241.5 215.8C236.6 214.3 231.1 214 226.4 216.2C225.2 216.8 224 217.5 223.4 218.7C223.4 218.7 227.6 216.7 231.5 216.3" fill="black"/>
<path d="M170.5 234.2C173.593 234.2 176.1 231.155 176.1 227.4C176.1 223.644 173.593 220.6 170.5 220.6C167.407 220.6 164.9 223.644 164.9 227.4C164.9 231.155 167.407 234.2 170.5 234.2Z" fill="black"/>
<path d="M230.3 233.7C233.393 233.7 235.9 230.655 235.9 226.9C235.9 223.144 233.393 220.1 230.3 220.1C227.207 220.1 224.7 223.144 224.7 226.9C224.7 230.655 227.207 233.7 230.3 233.7Z" fill="black"/>
<path d="M284.9 153.1C281.5 121.8 259.8 72.7003 206.8 79.0003C184.2 74.0003 114 83.8003 114 181.9C114 181.9 128 193.2 159.9 199.1C161.4 176.6 165.5 159.7 165.5 159.7C162.3 177.7 169.3 189.7 169.6 200.6C196.4 204.2 233.6 203.9 283 192.3C282.9 192.4 288.3 183.8 284.9 153.1Z" fill="#23255D"/>
<path d="M139.2 294H114V179.2H139.1V294" fill="#23255D"/>
<path d="M286 294H260.9V179.2H286V294Z" fill="#23255D"/>
<path d="M166 218.8C166.1 219.3 166.3 219.8 166.6 220.3C166.9 220.8 167.2 221.2 167.7 221.4C167.9 221.5 168.2 221.6 168.4 221.5C168.6 221.5 168.9 221.3 169 221.1C169 221.3 168.8 221.4 168.6 221.4C168.7 221.3 168.8 221.2 168.9 221.1C169 221 169 220.8 168.9 220.7C168.8 220.6 168.7 220.6 168.6 220.6C167.7 220.5 166.8 219.8 166.6 218.9C166.8 219.1 166.8 219.4 166.9 219.6C167 219.8 167.2 220.1 167.4 220.2C167 220 166.7 219.9 166.4 219.6C166.1 219.4 165.9 219 166 218.8Z" fill="black"/>
<path d="M168.3 221.2C168.1 220.8 167.6 220.6 167.1 220.6C166.6 220.6 166.2 220.6 165.7 220.6C165.2 220.6 164.8 220.5 164.3 220.4C164 220.3 163.7 220.1 163.4 219.9C163.1 219.7 163 219.3 163 219C163 219.5 163.2 219.9 163.6 220.2C163.9 220.5 164.3 220.7 164.8 220.9C166 221.3 167.2 221.5 168.3 221.2Z" fill="black"/>
<path d="M170 220.9C170.1 220.7 170.1 220.6 170.1 220.4C169.6 220.5 169.2 220.3 168.8 220.1C168.6 220 168.3 219.9 168.2 219.7C168 219.5 168 219.2 168.1 219C168 219.4 168 219.8 168.2 220.2C168.4 220.6 168.7 220.9 169.1 221C169.5 221.1 169.8 221.1 170 220.9Z" fill="black"/>
<path d="M170.8 220.8C170.8 220.7 170.7 220.5 170.6 220.4C170.5 220.3 170.3 220.3 170.2 220.2C169.7 220 169.3 219.4 169.3 218.8C169.2 219.1 169.2 219.4 169.3 219.7C169.3 219.9 169.4 220.1 169.4 220.2C169.5 220.4 169.7 220.6 169.9 220.7C170.3 220.9 170.5 220.9 170.8 220.8Z" fill="black"/>
<path d="M169 224.6C169.552 224.6 170 224.197 170 223.7C170 223.203 169.552 222.8 169 222.8C168.448 222.8 168 223.203 168 223.7C168 224.197 168.448 224.6 169 224.6Z" fill="white"/>
<path d="M232.4 224.6C232.952 224.6 233.4 224.197 233.4 223.7C233.4 223.203 232.952 222.8 232.4 222.8C231.848 222.8 231.4 223.203 231.4 223.7C231.4 224.197 231.848 224.6 232.4 224.6Z" fill="#FAFAFA"/>
<path d="M185.5 259.2C186.9 261 189.1 262.2 191.3 262.8C193.5 263.4 196 263.7 198.3 263.8C202.6 264 206.7 263.7 210.6 261.9C211.1 261.6 211.9 261.6 212.3 261.1C212.7 260.5 212.3 259.7 211.7 259.7C211.4 259.7 211.2 259.8 210.9 259.9C209.1 260.8 207.3 261.8 205.4 262.3C203.3 262.9 200.9 262.9 198.7 262.9C196.2 262.9 193.6 262.3 191.1 261.6C190.4 261.4 189.8 261.2 189.2 260.8C188.6 260.4 188.1 259.8 187.5 259.4C186.9 258.9 186.1 258.7 185.5 259.2Z" fill="black"/>
<path d="M230 220.2C229.9 220.1 229.9 219.9 230 219.7C230.1 219.5 230.3 219.5 230.4 219.4C231.2 219.1 232.2 219.2 232.9 218.7C233.4 218.4 233.7 217.8 233.7 217.2C234.1 217.6 233.9 218.3 233.6 218.7C233.3 219.1 232.7 219.2 232.1 219.3C231.7 219.4 231.2 219.5 231 219.8C230.8 220.1 230.7 220.5 230.3 220.6H230.2L230.1 220.5C230.1 220.5 230 220.3 230 220.2Z" fill="black"/>
<path d="M230.8 220.7C230.8 220.5 230.9 220.3 231 220.2C231.1 220.1 231.2 220.1 231.3 220.1C232.6 219.9 234 219.6 235 218.7C234.7 219.3 234.2 219.8 233.7 220C233.4 220.1 233.1 220.2 232.8 220.3C232.4 220.4 231.9 220.5 231.5 220.6C231.3 220.7 231 220.8 230.8 220.7Z" fill="black"/>
<path d="M230.5 220.7C230.4 220.4 230.5 220.1 230.7 220C230.9 219.9 231.2 219.7 231.4 219.7C231.7 219.7 231.9 219.7 232.2 219.6C232.8 219.5 233.4 219.1 233.9 218.8C233.8 219.2 233.5 219.4 233.1 219.6C232.8 219.8 232.4 219.8 232 219.9C231.9 219.9 231.8 220 231.7 220C231.6 220.1 231.6 220.2 231.5 220.2C231.4 220.6 230.9 220.8 230.5 220.7Z" fill="black"/>
<path d="M231.6 220.7C231.7 220.4 232 220.3 232.2 220.3C232.7 220.3 233.1 220.3 233.6 220.3C234.1 220.3 234.5 220.2 235 220C234.7 220.4 234.2 220.6 233.8 220.6C233.6 220.6 233.3 220.6 233.1 220.6C232.9 220.6 232.6 220.7 232.4 220.7C232.1 220.9 231.9 220.8 231.6 220.7Z" fill="black"/>
</svg>
