<svg width="210" height="250" viewBox="0 0 271 324" fill="none" xmlns="http://www.w3.org/2000/svg">
<mask id="mask0_135_2" style="mask-type:luminance" maskUnits="userSpaceOnUse" x="0" y="0" width="271" height="324">
<path d="M0 0H271V323.336H0V0Z" fill="white"/>
</mask>
<g mask="url(#mask0_135_2)">
<path d="M268.093 86.3566C264.783 77.2549 253.206 76.4316 253.206 76.4316C189.55 65.6776 159.4 12.7423 148.651 6.11631C137.903 -0.498505 136.038 0.946559 136.038 0.946559C136.038 0.946559 131.288 -1.12022 122.606 6.11631C112.917 14.1986 80.4251 65.672 16.7583 76.4316C16.7583 76.4316 5.18655 77.2549 1.87635 86.3566C-1.42826 95.4527 6.00991 273.302 139.942 322.938C284.627 259.238 271.398 95.4527 268.093 86.3566Z" fill="#711717"/>
</g>
<path d="M246.16 98.847C243.398 91.2576 233.742 90.5631 233.742 90.5631C180.622 81.5903 155.462 37.415 146.495 31.8924C137.528 26.3698 135.976 27.5796 135.976 27.5796C135.976 27.5796 132.005 25.8545 124.763 31.8924C116.675 38.636 89.5606 81.5959 36.4405 90.5631C36.4405 90.5631 26.7843 91.2576 24.023 98.847C21.2673 106.442 27.4733 254.841 139.231 296.25C259.955 243.107 248.921 106.442 246.16 98.847Z" fill="url(#paint0_linear_135_2)"/>
<path d="M233.742 90.563C180.622 81.5901 155.462 37.4149 146.495 31.8922C146.495 31.8922 156.896 83.8754 227.587 100.006C227.587 100.006 244.098 229.233 128.42 291.763C131.915 293.371 135.511 294.877 139.236 296.255C259.955 243.113 248.921 106.442 246.16 98.8469C243.398 91.2575 233.742 90.563 233.742 90.563Z" fill="#AA634D"/>
<defs>
<linearGradient id="paint0_linear_135_2" x1="135.629" y1="27.3515" x2="135.629" y2="296.25" gradientUnits="userSpaceOnUse">
<stop stop-color="#B2442B"/>
<stop offset="1" stop-color="#6A2414"/>
</linearGradient>
</defs>
</svg>
