<svg width="660" height="533" viewBox="0 0 660 533" fill="none" xmlns="http://www.w3.org/2000/svg">
<circle cx="266.5" cy="266.5" r="266.5" fill="white"/>
<path d="M246.36 139.167C246.36 139.167 246.015 149.986 239.299 148.654C232.578 147.331 235.216 138.941 236.054 137.879C236.893 136.816 246.36 139.167 246.36 139.167Z" fill="#E74757"/>
<path d="M236.469 140.533C236.469 140.533 246.055 143.076 244.985 139.206C242.046 136.243 235.622 134.347 236.469 140.533Z" fill="white"/>
<path d="M241.094 147.366C237.583 147.895 236.858 141.523 237.351 140.382C237.849 139.245 245.404 140.269 245.404 140.382C245.443 141.748 244.605 146.832 241.094 147.366ZM249.146 125.667C249.146 125.667 247.391 104.631 237.77 100.605C228.154 96.5797 206.546 104.705 205.175 114.878C203.8 125.046 216.473 143.227 216.473 143.227C216.473 143.227 213.114 149.643 212.883 149.717C212.656 149.795 229.984 160.953 229.984 161.183C229.984 161.408 233.801 151.162 234.565 151.162C235.329 151.162 242.736 153.058 245.408 151.392C248.077 149.717 249.679 136.282 249.679 136.282C249.679 136.282 253.422 135.067 253.955 133.471C254.492 131.879 249.146 125.667 249.146 125.667Z" fill="#F9B08D"/>
<path d="M211.28 101.972C211.28 101.972 200.974 106.297 200.594 117.455C200.21 128.617 216.32 143.041 216.473 143.227C217.578 142.013 218.075 138.56 218.075 138.56C218.075 138.56 218.765 140.23 219.372 140.043C219.984 139.848 222.276 130.629 221.931 128.955C216.892 128.803 211.32 122.543 214.219 118.973C217.119 115.407 221.77 119.203 221.966 119.658C222.158 120.114 223.918 124.704 224.757 124.365C225.595 124.023 225.521 119.086 225.521 119.086C225.521 119.086 226.473 121.784 227.124 121.138C227.77 120.496 226.892 110.774 225.748 108.878C227.312 109.525 230.709 109.446 230.862 108.878C231.015 108.31 230.137 107.664 230.521 107.776C230.901 107.889 239.565 109.182 240.482 107.854C240.522 107.247 237.618 104.21 237.736 104.21C237.849 104.21 244.452 104.132 244.605 103.525C244.758 102.918 240.177 100.87 240.29 100.87C240.404 100.87 248.308 99.9591 248.653 99.4689C248.994 98.9743 241.587 94.7577 238.115 94.723C230.595 92.4064 213.573 99.6944 211.28 101.972Z" fill="#A16348"/>
<path d="M245.775 117.242C244.74 115.902 242.033 116.726 240.784 117.238C239.766 117.659 238.81 118.223 237.91 118.847C237.351 119.238 236.845 119.633 236.701 120.292C236.395 120.439 236.356 120.886 236.81 120.96C238.893 121.29 241.19 120.908 243.133 120.127C244.111 119.737 246.906 118.713 245.775 117.242Z" fill="#A16348"/>
<path d="M242.635 126.816C242.653 126.708 242.727 126.508 242.718 126.456C242.74 126.395 242.753 126.33 242.744 126.261C242.731 126.174 242.714 126.079 242.666 126.005C242.46 125.68 242.115 125.606 241.749 125.71C240.657 126.035 240.827 128.144 240.954 128.998C241.011 129.384 241.351 129.549 241.692 129.619C241.941 129.666 242.146 129.58 242.351 129.449C242.57 129.311 242.744 129.02 242.692 128.755C242.605 128.317 242.548 127.875 242.57 127.424C242.578 127.22 242.609 127.02 242.635 126.816Z" fill="#242526"/>
<path d="M220.613 124.86C220.613 124.86 218.115 123.91 218.307 122.825C218.495 121.745 220.211 122.031 220.289 121.554C220.364 121.081 217.521 118.444 215.957 120.153C214.394 121.858 215.272 125.463 218.783 126.452C222.294 127.441 221.255 125.142 220.613 124.86Z" fill="#E18583"/>
<path d="M206.424 124.291C205.311 120.201 203.175 116.505 205.149 112.262C205.328 111.876 204.686 111.724 204.512 112.049C202.424 115.984 203.568 120.799 205.782 124.456C205.931 124.704 206.52 124.639 206.424 124.291Z" fill="#81503C"/>
<path d="M209.625 124.613C208.931 122.335 207.717 120.244 207.049 117.932C206.918 117.476 206.07 117.576 206.184 118.053C206.743 120.335 207.424 123.012 208.896 124.89C209.088 125.137 209.734 124.973 209.625 124.613Z" fill="#81503C"/>
<path d="M219.595 108.839C218.529 106.991 216.625 105.425 215.031 104.033C214.717 103.764 214.049 104.141 214.403 104.462C215.219 105.195 216.01 105.95 216.765 106.74C217.516 107.525 218.215 108.423 219.04 109.13C219.241 109.303 219.783 109.165 219.595 108.839Z" fill="#81503C"/>
<path d="M223.001 109.793C222.119 107.733 220.473 105.915 219.198 104.08C218.94 103.707 218.088 104.093 218.368 104.514C219.604 106.379 220.774 108.561 222.438 110.088C222.652 110.288 223.145 110.132 223.001 109.793Z" fill="#81503C"/>
<path d="M236.757 101.183C232.63 100.176 227.888 100.515 223.678 100.801C223.276 100.827 223.237 101.439 223.665 101.434C227.988 101.347 232.368 101.916 236.666 101.712C236.954 101.699 237.072 101.261 236.757 101.183Z" fill="#81503C"/>
<path d="M233.403 104.388C232.443 103.729 230.954 103.603 229.818 103.516C229.312 103.477 229.146 104.18 229.692 104.228C230.329 104.28 230.958 104.367 231.578 104.519C232.102 104.649 232.604 104.848 233.141 104.913C233.434 104.948 233.687 104.588 233.403 104.388Z" fill="#81503C"/>
<path d="M234.788 97.5038C233.491 97.1828 231.941 97.3867 230.617 97.4648C230.015 97.5038 230.137 98.289 230.726 98.2587C232.015 98.1936 233.421 98.3541 234.687 98.1112C234.984 98.0548 235.181 97.6036 234.788 97.5038Z" fill="#81503C"/>
<path d="M218.674 114.713C217.944 113.463 217.001 112.37 216.32 111.086C216.11 110.696 215.342 110.956 215.56 111.377C216.254 112.713 217.071 114.066 218.32 114.956C218.464 115.056 218.787 114.908 218.674 114.713Z" fill="#81503C"/>
<path d="M234.486 150.619C229.871 147.509 224.377 143.774 223.862 137.709C223.774 136.703 221.962 136.95 222.054 137.961C222.652 144.824 228.534 148.407 234.281 150.923C234.465 151.006 234.683 150.75 234.486 150.619Z" fill="#E18583"/>
<path d="M250.173 133.926C249.863 133.892 249.548 133.992 249.256 134.091C248.932 134.208 248.531 134.56 248.736 134.946C249.09 135.614 250.212 135.367 250.653 134.933C251.068 134.529 250.644 133.979 250.173 133.926Z" fill="#E18583"/>
<mask id="mask0_506_175" style="mask-type:luminance" maskUnits="userSpaceOnUse" x="192" y="423" width="31" height="30">
<path d="M192 423.356H222.896V452.231H192V423.356Z" fill="white"/>
</mask>
<g mask="url(#mask0_506_175)">
<path d="M202.883 424.211C202.533 424.636 192.118 436.509 192.502 438.331C192.882 440.153 213.726 451.875 213.726 451.875C213.726 451.875 222.351 452.222 222.809 451.237C223.268 450.248 215.481 444.4 215.481 444.4L208.149 425.274L202.883 424.211Z" fill="#6592CE"/>
</g>
<path d="M213.774 353.721C213.774 353.721 208.992 369.477 208.188 377.107C207.389 384.738 199.372 421.4 199.372 422.311C199.372 423.226 213.647 431.043 214.259 430.965C214.87 430.891 214.639 427.169 214.717 426.944C214.791 426.714 223.875 396.959 224.028 394.529C224.18 392.1 239.404 351.053 213.774 353.721Z" fill="#3A444F"/>
<path d="M213.687 265.35C213.687 265.35 208.992 292.281 214.639 300.779C213.573 312.926 212.962 348.147 214.639 350.121C211.739 355.587 215.556 353.309 218.765 358.623C221.971 363.937 222.835 398.703 222.835 398.703C222.835 398.703 238.002 365.759 240.749 330.235C243.496 294.706 234.832 260.187 213.687 265.35Z" fill="#272D34"/>
<path d="M224.853 432.332C224.853 432.332 220.957 451.237 221.128 451.689C221.302 452.144 257.832 451.632 258.116 451.407C258.404 451.181 237.102 437.911 236.242 436.831C235.386 435.75 232.294 431.933 232.294 431.933L224.853 432.332Z" fill="#6592CE"/>
<path d="M213.8 264.382C213.8 264.382 211.966 286.016 215.171 290.797C218.381 295.582 221.014 298.883 221.128 299.226C221.241 299.564 223.189 353.309 224.565 355.361C225.94 357.408 219.756 429.829 222.962 433.928C225.709 435.295 236.242 432.332 237.39 432.106C238.535 431.876 236.705 429.143 237.39 428.462C238.076 427.781 251.587 363.33 249.072 354.675C252.736 319.151 252.094 267.913 251.155 265.636C250.216 263.358 213.8 264.382 213.8 264.382Z" fill="#3A444F"/>
<mask id="mask1_506_175" style="mask-type:luminance" maskUnits="userSpaceOnUse" x="265" y="177" width="36" height="23">
<path d="M265.379 177.924H301V199.024H265.379V177.924Z" fill="white"/>
</mask>
<g mask="url(#mask1_506_175)">
<path d="M265.675 193.272C265.675 193.103 272.086 178.869 273.06 178.583C274.034 178.301 272.374 186.903 272.431 186.474C272.488 186.044 295.105 180.518 295.506 181.316C295.904 182.114 289.895 186.474 289.895 186.474C289.895 186.474 300.886 185.936 300.886 186.474C300.886 187.008 292.528 190.482 292.528 190.482C292.528 190.482 298.83 191.563 298.485 192.018C298.14 192.478 289.379 195.575 289.379 195.575C289.379 195.575 294.76 196.061 293.672 197.029C292.585 197.996 269.855 198.968 269.855 198.968L265.675 193.272Z" fill="#F9B08D"/>
</g>
<path d="M212.883 149.717C212.883 149.717 197.236 160.953 195.708 181.754C194.179 202.551 208.992 257.51 212.044 258.269C215.097 259.029 212.35 263.432 212.883 265.406C213.42 267.379 250.369 272.845 251.592 267.835C252.81 262.824 249.299 258.421 250.522 256.903C251.74 255.385 248.234 228.818 248.234 228.818C248.234 228.818 267.239 207.032 267.392 205.21C267.545 203.388 270.828 199.666 271.287 198.833C271.741 197.996 266.859 191.467 266.169 191.168C265.483 190.86 262.278 196.326 260.064 196.022C257.85 195.718 244.57 204.147 243.88 204.299C243.194 204.447 232.809 169.911 231.892 167.859C230.98 165.811 231.39 162.575 230.827 161.56C230.259 160.545 218.154 151.313 212.883 149.717Z" fill="#6592CE"/>
<path d="M240.578 195.215C237.133 197.445 233.456 199.419 230.333 202.156C228.403 203.848 226.508 205.618 224.495 207.214C223.455 208.034 222.32 208.72 221.237 209.479C220.329 210.116 219.268 211.418 218.254 211.808C216.914 212.329 214.931 211.57 213.507 211.427C210.748 211.153 207.704 211.279 205.171 212.494C204.044 213.032 203.38 213.86 202.407 214.55C201.586 215.136 200.542 215.396 199.507 215.609C199.69 216.511 199.874 217.413 200.062 218.315C200.974 218.09 201.896 217.882 202.808 217.977C204.228 218.129 205.533 218.78 206.992 218.888C209.603 219.092 212.106 219.105 214.717 219.465C217.56 219.864 220.53 219.634 223.036 218.151C225.421 216.741 227.089 214.537 228.897 212.515C230.7 210.49 232.858 208.663 234.901 206.88C236.784 205.24 238.67 203.887 241.05 203.093C241.753 202.859 242.391 202.616 242.976 202.347C242.382 200.711 241.539 198.182 240.578 195.215Z" fill="#BADCF4"/>
<path d="M253.155 217.396C251.793 214.312 250.382 211.249 249.094 208.139C248.339 206.321 247.461 204.56 246.605 202.781C245.098 203.662 244.033 204.286 243.849 204.325C243.81 204.334 243.74 204.226 243.64 204.022C243.893 205.783 244.181 207.536 244.653 209.288C245.535 212.598 246.448 215.852 247.605 219.084C248.478 221.513 249.404 223.921 250.408 226.298C251.592 224.931 253.147 223.122 254.841 221.131C254.273 219.89 253.706 218.645 253.155 217.396Z" fill="#BADCF4"/>
<path d="M261.876 208.564C259.784 204.985 257.924 201.198 255.789 197.632C254.068 198.499 252.077 199.605 250.216 200.677C251.142 204.108 253.352 207.522 254.832 210.36C255.985 212.563 257.195 214.724 258.439 216.871C260.16 214.824 261.846 212.776 263.287 210.98C262.815 210.173 262.348 209.371 261.876 208.564Z" fill="#BADCF4"/>
<path d="M197.948 207.275C198.472 207.653 198.979 208.06 199.572 208.334C203.677 210.234 209.822 207.882 213.586 206.047C217.743 204.022 221.687 201.549 225.67 199.211C228.032 197.822 231.862 196.187 233.858 193.706C235.971 193.766 238.067 193.888 240.159 193.909C239.5 191.853 238.797 189.636 238.089 187.389C236.22 187.493 234.373 187.337 232.661 186.717C231.032 186.127 228.757 186.634 227.63 187.988C225.285 190.799 221.87 192.304 218.726 194.152C215.237 196.204 211.796 198.503 208.031 200.031C206.346 200.712 204.686 201.15 202.874 201.31C201.415 201.445 200.49 201.588 199.158 202.2C198.568 202.469 197.891 202.694 197.223 202.829C197.446 204.291 197.69 205.774 197.948 207.275Z" fill="#BADCF4"/>
<path d="M243.02 204.455C242.535 204.711 242.05 204.976 241.565 205.236C241.64 203.848 240.548 202.655 238.95 202.516C238.085 199.193 235.465 196.512 233.74 193.601C231.513 189.849 229.224 185.971 227.517 181.949C226.119 178.657 224.953 175.971 221.761 174.054C218.997 172.392 215.678 171.568 212.473 171.386C211.446 171.334 211.114 172.666 212.215 172.835C215.468 173.321 218.752 173.902 221.495 175.841C224.469 177.945 226.067 181.476 227.613 184.643C229.176 187.832 230.783 190.981 232.574 194.048C234.264 196.946 236.648 200.091 237.299 203.423C237.391 203.878 237.862 204.13 238.308 204.061C239.889 204.62 240.334 205.375 239.635 206.321C239.177 206.993 240.05 207.618 240.657 207.167C241.622 206.455 242.592 205.744 243.557 205.032C244.037 204.677 243.448 204.225 243.02 204.455Z" fill="#4B6E9B"/>
<path d="M247.531 228.823C245.696 231.209 243.705 233.425 241.557 235.538C239.88 237.187 238.072 239.759 235.386 238.21C234.32 237.594 233.32 236.215 232.451 235.339C227.752 230.597 223.407 225.495 218.957 220.528C214.529 215.583 210.071 210.663 205.673 205.692C203.485 203.215 202.11 200.699 201.712 197.384C201.341 194.274 201.773 191.177 202.027 188.079C202.105 187.112 200.52 187.025 200.367 187.927C199.31 194.161 199.205 200.703 203.455 205.8C204.49 207.045 205.551 208.273 206.616 209.492C206.586 209.553 206.581 209.622 206.638 209.696C209.228 213.101 209.992 217.513 212.673 220.875C213.883 222.389 215.442 223.517 217.11 224.485C218.647 225.374 220.337 226.467 222.137 226.693C224.097 228.896 226.058 231.096 228.063 233.256C229.399 234.697 230.77 236.106 232.172 237.486C233.15 238.449 234.133 239.659 235.382 240.284C237.923 241.568 239.762 238.861 241.364 237.291C243.893 234.805 246.081 232.011 248.024 229.053C248.194 228.788 247.692 228.61 247.531 228.823Z" fill="#4B6E9B"/>
<path d="M243.391 211.865C243.002 210.603 242.81 209.184 241.242 209.327C240.819 209.366 240.308 209.978 240.744 210.342C240.771 210.364 240.788 210.394 240.814 210.416C240.701 212.273 240.627 214.103 240.282 215.943C239.98 217.548 239.482 219.058 239.557 220.71C239.578 221.235 240.373 221.222 240.644 220.927C241.351 220.146 241.365 219.031 241.561 218.029C241.779 216.936 241.972 215.843 242.164 214.745C242.561 215.96 243.007 217.166 243.308 218.402C243.452 219.005 244.487 219.014 244.579 218.372C244.919 216.125 244.05 213.982 243.391 211.865Z" fill="#4B6E9B"/>
<path d="M222.77 160.923C225.831 162.61 228.613 164.823 231.534 166.736C231.381 166.042 231.307 165.295 231.255 164.588C229.01 163.022 226.818 161.348 224.46 160.033C219.853 157.469 212.922 156.953 209.062 153.17C208.892 153.344 208.717 153.517 208.538 153.704C212.162 157.352 218.381 158.506 222.77 160.923Z" fill="#4B6E9B"/>
<path d="M251.155 261.406C250.985 260.825 250.815 260.283 250.666 259.784C249.57 260.096 248.456 260.248 247.172 260.322C242.587 260.595 238.002 260.846 233.416 261.124C228.884 261.397 223.861 262.139 219.508 260.512C217.176 259.645 215.01 258.534 212.66 258.556C212.957 258.73 213.167 258.959 213.302 259.237C216.512 259.549 219.643 261.762 222.73 262.421C226.473 263.219 230.294 262.833 234.076 262.621C238.22 262.387 242.36 262.144 246.504 261.901C248.041 261.814 249.653 261.827 251.155 261.406Z" fill="#4B6E9B"/>
<path d="M261.618 195.575C261.37 195.74 261.125 195.87 260.885 195.962C262.466 198.248 264.077 200.538 265.911 202.568C266.47 203.193 267.086 203.727 267.71 204.23C267.889 203.818 268.138 203.371 268.422 202.916C265.741 201.128 263.614 198.317 261.618 195.575Z" fill="#4B6E9B"/>
<path d="M237.164 282.442C235.757 283.552 234.225 284.468 232.596 285.214C232.181 285.4 231.08 286.107 230.696 285.986C230.133 285.812 229.836 284.888 229.543 284.242C234.788 281.804 239.194 278.216 242.67 273.596C242.705 273.553 242.727 273.51 242.753 273.466C242.779 273.484 242.81 273.497 242.841 273.514C243.12 273.674 243.417 273.87 243.727 273.991C243.71 274.013 243.688 274.034 243.675 274.065C242.216 277.331 239.98 280.221 237.164 282.442ZM244.531 273.418C244.221 273.136 243.788 272.989 243.408 272.815C243.024 272.642 242.614 272.408 242.186 272.39C242.089 272.386 242.002 272.416 241.937 272.464C241.718 272.477 241.509 272.568 241.351 272.763C237.936 277.171 233.727 280.858 228.949 283.747C228.871 283.778 228.818 283.83 228.805 283.917C228.77 284.012 228.788 284.116 228.853 284.203C229.032 285.079 229.403 285.838 229.827 286.65C229.927 286.841 230.155 286.871 230.347 286.815C236.753 284.932 241.779 280.394 244.435 274.316C244.491 274.178 244.461 274.069 244.387 273.987C244.622 273.87 244.78 273.644 244.531 273.418Z" fill="#272D34"/>
<path d="M237.316 350.485C237.631 350.047 237.142 349.621 236.683 349.799C234.604 350.589 232.827 352.446 231.155 353.873C229.412 355.352 227.709 356.896 226.115 358.536C225.504 359.161 226.639 359.655 227.163 359.196C227.198 359.17 227.229 359.135 227.264 359.105C230.058 358.992 233.727 358.64 236.137 357.109C236.775 356.706 236.225 355.99 235.622 356.051C234.19 356.185 232.792 356.784 231.39 357.113C230.582 357.3 229.77 357.465 228.954 357.621C230.181 356.541 231.412 355.465 232.679 354.424C234.19 353.174 236.168 352.072 237.316 350.485Z" fill="#272D34"/>
<path d="M525.885 112.63L522.099 122.667C522.099 125.181 522.099 147.765 522.099 146.513L530.932 154.041C532.198 154.041 548.609 155.299 548.609 155.299L559.969 150.28C559.969 149.023 565.021 140.237 566.281 138.985C566.281 137.728 566.281 132.709 565.021 131.452C563.755 130.2 561.229 115.139 559.969 113.887C558.708 112.63 551.13 106.354 551.13 106.354C551.13 106.354 534.719 105.102 533.458 106.354C532.198 107.611 525.885 112.63 525.885 112.63Z" fill="#3D3D3D"/>
<path d="M525.885 120.158C525.885 120.158 532.198 130.2 527.146 150.28L547.344 159.06C547.344 159.06 575.12 140.238 562.495 138.986C551.13 137.728 551.13 106.354 551.13 106.354L525.885 120.158Z" fill="#E5AD70"/>
<path d="M513.26 318.437H586.479C596.578 277.025 596.578 245.65 582.693 230.594C565.021 211.767 580.167 177.888 580.167 177.888C572.594 149.023 583.953 142.747 583.953 142.747C572.594 142.747 561.229 127.691 561.229 127.691C563.755 142.747 544.823 146.514 544.823 146.514C527.146 146.514 527.146 132.71 527.146 132.71C522.099 136.471 510.734 140.238 510.734 140.238C519.573 157.808 500.635 179.14 514.521 211.767C518.313 221.809 517.047 228.085 515.786 233.104C503.161 258.202 503.161 292.081 513.26 318.437Z" fill="#B2442B"/>
<path d="M523.359 96.3165L530.932 86.2792L546.083 83.7646C546.083 83.7646 558.708 86.2792 558.708 107.611C558.708 113.887 556.182 120.158 553.656 126.434C551.13 127.691 551.13 128.943 551.13 130.2C551.13 133.962 542.297 137.728 534.719 131.452C527.146 125.182 523.359 125.182 523.359 113.887C522.099 102.592 523.359 96.3165 523.359 96.3165Z" fill="#FFC280"/>
<path d="M657.172 412.555V433.887C649.599 455.224 640.76 475.304 633.187 496.636C559.969 486.593 494.323 467.77 442.568 438.911C390.807 408.788 351.672 374.91 335.26 332.24V302.123C351.672 344.792 390.807 386.204 442.568 416.321C494.323 446.439 559.969 466.518 633.187 476.556C642.026 453.967 649.599 433.887 657.172 412.555Z" fill="#3D3D3D"/>
<path d="M525.885 251.926C508.208 253.178 496.849 197.963 513.26 180.397L494.323 172.864C477.911 208.005 489.276 264.473 520.833 268.239C520.833 261.964 523.359 256.945 525.885 251.926Z" fill="#FFC280"/>
<path d="M501.901 140.238C509.474 136.471 518.313 140.238 520.833 150.28C525.885 171.612 514.521 184.159 514.521 184.159C506.948 174.121 490.536 177.888 490.536 177.888C490.536 177.888 485.49 146.514 501.901 140.238Z" fill="#9B2E15"/>
<mask id="mask2_506_175" style="mask-type:luminance" maskUnits="userSpaceOnUse" x="633" y="302" width="27" height="185">
<path d="M633.844 302.082H659.177V486.189H633.844V302.082Z" fill="white"/>
</mask>
<g mask="url(#mask2_506_175)">
<mask id="mask3_506_175" style="mask-type:luminance" maskUnits="userSpaceOnUse" x="634" y="303" width="25" height="183">
<path d="M658.437 303.375V421.34C650.859 442.672 642.026 464.009 634.448 485.341V367.376C642.026 346.044 650.859 324.712 658.437 303.375Z" fill="white"/>
</mask>
<g mask="url(#mask3_506_175)">
<path d="M658.437 303.375V421.34C650.859 442.672 642.026 464.009 634.448 485.341V367.376C642.026 346.044 650.859 324.712 658.437 303.375Z" fill="#929393"/>
</g>
</g>
<path d="M634.448 367.376V485.341C559.969 475.304 493.062 453.966 441.302 423.849C389.547 393.732 351.672 356.082 334 312.161V194.201C350.411 236.865 388.281 275.767 441.302 305.89C494.323 336.007 559.969 357.339 634.448 367.376Z" fill="#AFAFAF"/>
<path d="M658.438 303.376C650.859 324.713 642.026 346.045 634.448 367.377C559.969 357.339 493.062 336.007 441.302 305.89C389.547 275.768 351.672 238.123 334 194.201C370.609 189.183 407.219 184.159 445.089 180.397C474.125 255.693 578.906 293.338 658.438 303.376Z" fill="#D8D8D8"/>
<path d="M629.401 287.062V322.203C629.401 323.455 629.401 323.455 628.141 323.455C626.875 324.713 623.089 324.713 621.828 323.455C620.562 323.455 620.562 322.203 620.562 322.203V287.062C620.562 288.32 620.562 288.32 621.828 288.32C623.089 289.572 626.875 289.572 628.141 288.32C629.401 288.32 629.401 288.32 629.401 287.062Z" fill="#4F4D4D"/>
<path d="M631.927 283.301C635.713 285.81 635.713 289.572 631.927 290.829C628.141 293.338 621.828 293.338 618.042 290.829C609.203 285.81 623.088 278.277 631.927 283.301Z" fill="#929393"/>
<path d="M634.448 287.062V289.572C634.448 290.829 633.188 292.081 631.927 293.338C628.141 295.848 621.828 295.848 618.042 293.338C615.516 292.081 615.516 290.829 615.516 289.572V287.062C615.516 288.32 616.776 289.572 618.042 290.829C621.828 293.338 628.141 293.338 631.927 290.829C634.448 290.829 634.448 289.572 634.448 287.062Z" fill="#BFBFBF"/>
<path d="M456.453 259.454V299.614C456.453 300.866 456.453 300.866 455.193 302.123C452.667 303.375 450.141 303.375 447.615 302.123C446.354 302.123 446.354 300.866 446.354 299.614V259.454C446.354 260.712 446.354 260.712 447.615 261.964C450.141 263.221 456.453 261.964 456.453 259.454Z" fill="#4F4D4D"/>
<path d="M458.979 263.221C455.193 265.73 447.615 265.73 443.828 263.221C440.042 260.712 440.042 256.945 443.828 254.436C453.927 248.16 469.078 256.945 458.979 263.221Z" fill="#929393"/>
<path d="M461.5 259.454C461.5 260.712 462.766 264.473 457.714 266.988C453.927 269.497 446.354 269.497 442.568 266.988C440.042 265.73 438.781 264.473 438.781 261.964V259.454C438.781 260.712 440.042 263.221 442.568 264.473C446.354 266.988 453.927 266.988 457.714 264.473C460.24 261.964 461.5 260.712 461.5 259.454Z" fill="#BFBFBF"/>
<path d="M428.682 165.336V205.496C428.682 206.748 428.682 206.748 427.417 208.005C424.891 209.257 422.37 209.257 419.844 208.005C418.578 208.005 418.578 206.748 418.578 205.496V165.336C418.578 166.593 418.578 166.593 419.844 167.845C422.37 169.103 424.891 169.103 427.417 167.845C427.417 166.593 428.682 166.593 428.682 165.336Z" fill="#4F4D4D"/>
<path d="M431.203 161.57C434.99 164.084 434.99 167.845 431.203 170.355C427.417 172.864 419.844 172.864 416.057 170.355C412.271 167.845 412.271 164.084 416.057 161.57C419.844 159.06 426.156 159.06 431.203 161.57Z" fill="#929393"/>
<path d="M433.729 165.336V167.845C433.729 169.103 432.469 171.612 429.943 172.864C426.156 175.373 418.578 175.373 414.792 172.864C413.531 171.612 412.271 169.103 412.271 167.845V165.336C412.271 166.593 413.531 169.103 416.057 170.355C419.844 172.864 427.417 172.864 431.203 170.355C432.469 169.103 433.729 166.593 433.729 165.336Z" fill="#BFBFBF"/>
<path d="M658.437 261.964V278.277C650.859 299.614 642.026 320.946 634.448 342.278V325.965C642.026 304.633 650.859 283.301 658.437 261.964Z" fill="#0092BF" fill-opacity="0.4"/>
<path d="M634.448 325.964V342.278C559.969 332.24 493.062 310.908 441.302 280.791C389.547 250.669 351.672 213.024 334 169.103V152.789C350.411 195.453 388.281 234.356 441.302 264.473C494.323 294.595 559.969 315.927 634.448 325.964Z" fill="#0092BF" fill-opacity="0.4"/>
<path d="M658.438 261.964C650.859 283.301 642.026 304.633 634.448 325.965C559.969 315.927 493.062 294.595 441.302 264.473C389.547 234.356 351.672 196.711 334 152.79C370.609 147.766 407.219 142.747 445.089 138.986C474.125 214.276 578.906 251.926 658.438 261.964Z" fill="#3DBDFC" fill-opacity="0.4"/>
<mask id="mask4_506_175" style="mask-type:luminance" maskUnits="userSpaceOnUse" x="348" y="166" width="268" height="129">
<path d="M615.177 166.981H348.51V294.135H615.177V166.981Z" fill="white"/>
</mask>
<g mask="url(#mask4_506_175)">
<path d="M485.49 285.81L606.677 251.926C594.052 248.16 581.432 244.398 570.068 240.632L456.453 273.258C465.292 277.025 475.391 282.044 485.49 285.81Z" fill="white"/>
<path d="M441.302 264.473L552.396 233.104C547.344 230.594 543.557 229.337 539.771 226.828L431.203 256.945C433.729 260.712 437.516 261.964 441.302 264.473Z" fill="white"/>
<path d="M394.594 231.847L498.109 202.987C490.536 197.963 484.224 191.692 479.177 186.668L376.922 215.533C381.969 220.552 387.021 226.828 394.594 231.847Z" fill="white"/>
<path d="M366.823 205.496L469.078 176.631C466.552 174.121 464.026 171.612 462.766 169.103L360.51 197.963C361.771 200.472 364.297 202.987 366.823 205.496Z" fill="white"/>
</g>
<path d="M578.906 146.514C570.068 145.256 568.807 137.728 568.807 133.962C568.807 115.139 562.495 68.7088 541.031 74.9847C539.771 74.9847 538.51 74.9847 535.984 74.9847C519.573 73.7274 515.786 101.335 515.786 112.63C515.786 123.924 513.26 140.238 513.26 140.238C506.948 150.28 508.208 160.318 508.208 160.318C505.688 172.864 513.26 200.472 513.26 200.472C515.786 182.907 519.573 176.631 519.573 176.631C519.573 184.159 525.885 187.925 525.885 187.925C524.62 176.631 525.885 170.355 525.885 170.355C530.932 175.374 532.198 180.397 532.198 180.397C532.198 180.397 530.932 169.103 528.411 164.084C524.62 159.06 523.359 145.256 525.885 141.495C525.885 137.728 525.885 125.182 525.885 125.182C509.474 82.5127 551.13 80.0034 552.396 102.593C552.396 115.139 559.969 123.924 553.656 146.514C548.609 165.336 558.708 167.846 558.708 167.846C548.609 162.827 556.182 146.514 556.182 146.514C556.182 157.808 571.328 162.827 571.328 162.827C551.13 154.042 559.969 135.219 559.969 135.219C562.495 149.023 578.906 146.514 578.906 146.514Z" fill="#4F4D4D"/>
<path d="M563.755 254.436C524.62 275.768 520.833 282.043 514.521 279.534L433.729 233.104C432.469 231.846 432.469 230.594 433.729 229.337C472.865 208.005 476.651 201.729 482.964 204.239C558.708 249.417 570.068 250.669 563.755 254.436Z" fill="#BFBFBF"/>
<path d="M565.021 251.926C565.021 254.436 566.281 255.693 563.755 256.945C524.62 278.277 520.833 284.553 514.521 282.044L433.729 235.613C432.469 235.613 432.469 234.356 432.469 233.104V230.594C432.469 231.847 432.469 231.847 433.729 233.104C513.26 277.025 514.521 283.301 520.833 279.534C563.755 253.178 565.021 254.436 565.021 251.926Z" fill="#4F4D4D"/>
<path d="M489.276 245.65L484.224 243.141L480.438 245.65L484.224 248.16L489.276 245.65Z" fill="#4F4D4D"/>
<path d="M477.911 228.085L481.698 225.57L477.911 223.061L472.865 225.57L477.911 228.085Z" fill="#4F4D4D"/>
<path d="M470.339 224.318L475.391 221.809L470.339 219.3L466.552 221.809L470.339 224.318Z" fill="#4F4D4D"/>
<path d="M461.5 221.809L456.453 219.3L452.667 221.809L457.714 224.318L461.5 221.809Z" fill="#4F4D4D"/>
<path d="M469.078 218.042L464.026 215.533L458.979 218.042L464.026 220.552L469.078 218.042Z" fill="#4F4D4D"/>
<path d="M452.667 229.337L457.714 231.846L461.5 229.337L457.714 226.828L452.667 229.337Z" fill="#4F4D4D"/>
<path d="M514.521 273.258L519.573 275.768L523.359 273.258L519.573 270.749L514.521 273.258Z" fill="#4F4D4D"/>
<path d="M512 266.987L508.208 269.497L512 272.006L517.047 269.497L512 266.987Z" fill="#4F4D4D"/>
<path d="M520.833 269.497L525.885 272.006L530.932 269.497L525.885 266.987L520.833 269.497Z" fill="#4F4D4D"/>
<path d="M523.359 265.73L519.573 261.964L514.521 265.73L519.573 268.24L523.359 265.73Z" fill="#4F4D4D"/>
<path d="M528.411 265.73L533.458 268.24L537.245 265.73L532.198 261.964L528.411 265.73Z" fill="#4F4D4D"/>
<path d="M498.109 258.202L494.323 260.711L498.109 263.221L503.161 260.711L498.109 258.202Z" fill="#4F4D4D"/>
<path d="M517.047 260.711L512 258.202L508.208 260.711L512 264.473L517.047 260.711Z" fill="#4F4D4D"/>
<path d="M530.932 260.711L525.885 258.202L520.833 260.711L525.885 264.473L530.932 260.711Z" fill="#4F4D4D"/>
<path d="M539.771 258.202L534.719 260.711L539.771 264.473L544.823 260.711L539.771 258.202Z" fill="#4F4D4D"/>
<path d="M491.802 254.436L486.75 256.945L491.802 259.454L496.849 256.945L491.802 254.436Z" fill="#4F4D4D"/>
<path d="M509.474 256.945L505.687 254.436L500.635 256.945L505.687 259.454L509.474 256.945Z" fill="#4F4D4D"/>
<path d="M514.521 256.945L519.573 259.454L523.359 256.945L519.573 254.436L514.521 256.945Z" fill="#4F4D4D"/>
<path d="M537.245 256.945L532.198 254.436L528.411 256.945L532.198 259.454L537.245 256.945Z" fill="#4F4D4D"/>
<path d="M484.224 250.669L480.438 253.178L484.224 255.693L489.276 253.178L484.224 250.669Z" fill="#4F4D4D"/>
<path d="M503.161 253.178L498.109 250.669L494.323 253.178L498.109 255.693L503.161 253.178Z" fill="#4F4D4D"/>
<path d="M506.948 253.178L512 255.693L517.047 253.178L512 250.669L506.948 253.178Z" fill="#4F4D4D"/>
<path d="M530.932 253.178L525.885 250.669L520.833 253.178L525.885 255.693L530.932 253.178Z" fill="#4F4D4D"/>
<path d="M514.521 249.417L519.573 251.926L523.359 249.417L519.573 246.908L514.521 249.417Z" fill="#4F4D4D"/>
<path d="M496.849 249.417L491.802 246.908L486.75 249.417L491.802 251.926L496.849 249.417Z" fill="#4F4D4D"/>
<path d="M500.635 249.417L505.687 251.926L509.474 249.417L505.687 246.908L500.635 249.417Z" fill="#4F4D4D"/>
<path d="M494.323 245.65L498.109 248.16L503.161 245.65L498.109 243.141L494.323 245.65Z" fill="#4F4D4D"/>
<path d="M482.964 241.889L477.911 239.374L472.865 241.889L477.911 244.398L482.964 241.889Z" fill="#4F4D4D"/>
<path d="M486.75 241.889L491.802 244.398L495.589 241.889L491.802 239.374L486.75 241.889Z" fill="#4F4D4D"/>
<path d="M475.391 236.865L470.339 234.356L466.552 236.865L470.339 240.632L475.391 236.865Z" fill="#4F4D4D"/>
<path d="M480.438 236.865L484.224 240.632L489.276 236.865L484.224 234.356L480.438 236.865Z" fill="#4F4D4D"/>
<path d="M469.078 233.104L464.026 230.594L458.979 233.104L464.026 235.613L469.078 233.104Z" fill="#4F4D4D"/>
<path d="M472.865 233.104L477.911 235.613L482.964 233.104L477.911 230.594L472.865 233.104Z" fill="#4F4D4D"/>
<path d="M443.828 226.828L438.781 229.337L443.828 231.846L447.615 229.337L443.828 226.828Z" fill="#4F4D4D"/>
<path d="M466.552 229.337L470.339 231.846L475.391 229.337L470.339 226.828L466.552 229.337Z" fill="#4F4D4D"/>
<path d="M455.193 225.57L450.141 223.061L445.089 225.57L450.141 228.085L455.193 225.57Z" fill="#4F4D4D"/>
<path d="M458.979 225.57L464.026 228.085L469.078 225.57L464.026 223.061L458.979 225.57Z" fill="#4F4D4D"/>
<path d="M522.099 244.398C528.411 240.632 534.719 238.122 532.198 236.865C510.734 225.57 509.474 221.809 505.688 223.061C499.375 226.828 493.063 229.337 495.589 230.594C496.849 230.594 519.573 245.65 522.099 244.398Z" fill="#4F4D4D"/>
<path d="M505.687 261.964L500.635 265.73L505.687 268.24L509.474 265.73L505.687 261.964Z" fill="#4F4D4D"/>
<path d="M477.911 246.908L472.865 249.417L477.911 251.926L482.964 249.417L477.911 246.908Z" fill="#4F4D4D"/>
<path d="M457.714 234.356L452.667 236.865L457.714 240.632L461.5 236.865L457.714 234.356Z" fill="#4F4D4D"/>
<path d="M450.141 230.594L445.089 233.104L450.141 235.613L455.193 233.104L450.141 230.594Z" fill="#4F4D4D"/>
<path d="M464.026 239.374L458.979 241.889L464.026 244.398L469.078 241.889L464.026 239.374Z" fill="#4F4D4D"/>
<path d="M470.339 243.141L466.552 245.65L470.339 248.16L475.391 245.65L470.339 243.141Z" fill="#4F4D4D"/>
<path d="M512 248.16L517.047 245.65L484.224 226.828L480.438 229.337L512 248.16Z" fill="#4F4D4D"/>
<path d="M567.542 181.649C567.542 185.416 565.021 187.925 563.755 195.453C559.969 228.085 566.281 215.533 535.984 226.828C533.458 228.085 529.672 228.085 527.146 228.085C510.734 225.57 491.802 236.865 494.323 241.889C496.849 245.65 499.375 239.374 508.208 236.865C504.422 238.122 499.375 244.398 495.589 248.16C494.323 249.417 494.323 250.669 495.589 250.669C498.109 253.178 496.849 249.417 512 240.632C509.474 243.141 504.422 246.908 501.901 249.417C499.375 251.926 503.162 254.436 504.422 251.926C509.474 246.908 517.047 241.889 517.047 241.889C512 248.16 506.948 249.417 509.474 251.926C510.734 253.178 512 251.926 515.787 248.16C518.313 245.65 520.833 244.398 524.62 244.398C535.984 241.889 517.047 239.374 561.229 240.632C570.068 240.632 575.12 235.613 575.12 233.104C578.906 219.3 589.005 192.944 589.005 174.121L567.542 181.649Z" fill="#FFC280"/>
<path d="M590.266 145.256C583.953 140.238 573.854 141.495 570.068 150.28C559.969 170.355 567.542 185.416 567.542 185.416C577.641 177.888 591.531 185.416 591.531 185.416C591.531 185.416 604.151 156.551 590.266 145.256Z" fill="#9B2E15"/>
<path d="M508.208 229.337C506.948 275.768 510.734 288.319 504.422 284.553L423.63 238.122C422.37 236.865 419.844 234.356 419.844 233.104V179.14C419.844 176.631 421.104 176.631 423.63 177.888C501.901 223.061 508.208 221.809 508.208 229.337Z" fill="#686868"/>
<path d="M427.417 175.374C426.156 175.374 426.156 175.374 424.891 175.374L421.104 176.631C421.104 176.631 422.37 176.631 423.63 176.631L504.422 223.061C510.734 226.828 506.948 233.104 506.948 282.044C506.948 283.301 506.948 283.301 505.687 284.553C508.208 283.301 509.474 283.301 509.474 280.791V226.828C510.734 220.552 504.422 221.809 427.417 175.374Z" fill="#E8E8E8"/>
<path d="M469.078 235.613C469.078 245.65 455.193 238.122 455.193 228.085C455.193 223.061 469.078 225.571 469.078 235.613Z" fill="#929393"/>
</svg>
