<svg width="334" height="227" viewBox="0 0 334 227" fill="none" xmlns="http://www.w3.org/2000/svg">
<path fill-rule="evenodd" clip-rule="evenodd" d="M334 48.2303V188.317C334 209.304 316.987 226.317 296 226.317H1.31726C0.447101 218.681 0 210.916 0 203.046C0 90.907 90.7903 0 202.786 0C252.826 0 298.633 18.1484 334 48.2303Z" fill="#FFF5F1"/>
<path d="M225.792 58.7867C225.792 51.7762 231.477 46.0911 238.49 46.0911C245.498 46.0911 251.185 51.7762 251.185 58.7867C251.185 65.7994 245.498 71.4823 238.49 71.4823C231.477 71.4823 225.792 65.7994 225.792 58.7867ZM265.308 144.68L265.145 144.725C265.145 144.725 254.082 143.321 252.989 143.147L250.537 142.756L233.324 140.088C233.313 140.359 233.29 140.618 233.259 140.86C232.755 144.689 233.385 151.108 231.387 162.424C229.208 174.77 226.117 191.916 226.117 191.916H173.524C173.524 191.916 166.168 154.048 165.904 153.269L161.901 161.067L155.437 173.661L165.834 191.916H143.078C143.078 191.916 135.069 181.88 134.087 175.628C133.014 168.816 139.321 152.957 142.965 144.547C143.037 144.35 143.109 144.154 143.188 143.955L143.608 142.926C146.247 136.8 151.847 124.145 156.385 116.27C162.547 105.584 176.852 104.202 176.852 104.202C177.676 103.683 178.441 103.225 179.128 102.832L183.885 100.897C183.885 100.897 184.657 98.1582 185.287 96.966C185.919 95.7694 188.055 93.2407 188.055 93.2407C188.055 93.2407 195.964 95.1372 198.281 96.1216C200.599 97.106 204.463 102.441 204.463 102.441C206.007 101.529 207.572 94.3718 207.572 94.3718C210.888 96.6274 210.714 103.146 210.714 103.146L215.356 105.826C215.799 105.993 216.293 106.185 216.824 106.401L253.834 117.368L258.553 118.878L260.607 117.844L261.124 98.3523L258.767 97.2483L259.528 89.4634C259.528 89.4634 271.079 90.809 276.385 89.3866L277.367 96.5416L275.574 97.6818C275.574 97.6818 281.609 128.869 279.417 136.444C277.439 143.287 269.943 144.849 265.308 144.68ZM296.068 154.325V157.622C296.068 158.295 295.524 158.839 294.849 158.839H291.48L290.835 160.774L290.189 158.839H286.818C286.145 158.839 285.601 158.295 285.601 157.622V154.325C285.601 153.653 286.145 153.106 286.818 153.106H294.849C295.524 153.106 296.068 153.653 296.068 154.325ZM284.179 163.467V167.075C284.179 167.811 283.583 168.41 282.847 168.41H279.155L278.448 170.527L277.739 168.41H274.05C273.314 168.41 272.716 167.811 272.716 167.075V163.467C272.716 162.731 273.314 162.133 274.05 162.133H282.847C283.583 162.133 284.179 162.731 284.179 163.467ZM210.602 79.7661C210.238 79.3394 209.163 79.5991 208.691 79.6149C207.603 79.6442 206.486 79.66 205.406 79.8361C204.11 80.0461 202.528 80.8634 202.78 82.3513C202.539 82.5319 202.516 82.9767 202.891 83.058C203.243 83.137 203.609 83.2206 203.982 83.3041C204.061 83.356 204.153 83.3809 204.25 83.3628C205.826 83.6992 207.499 83.916 208.899 83.0603C209.649 82.5997 211.441 80.7505 210.602 79.7661Z" fill="#E3E3E3"/>
<mask id="mask0_800_306" style="mask-type:luminance" maskUnits="userSpaceOnUse" x="72" y="47" width="243" height="180">
<path d="M72.9638 47.78H315V226.925H72.9638V47.78Z" fill="white"/>
</mask>
<g mask="url(#mask0_800_306)">
<path d="M134.017 83.889C134.015 78.4409 132.215 62.1735 132.215 62.1735C132.215 62.1735 105.596 77.6033 89.2832 77.6033V90.2244C105.596 90.2244 132.215 105.654 132.215 105.654C132.215 105.654 134.017 89.3483 134.017 83.889ZM120.73 129.088H96.5962C89.1387 128.02 82.871 127.767 78.9018 129.088H73.9911V160.702C72.8554 173.77 72.4197 185.072 73.9911 191.349V194.512H92.8708C101.448 195.16 109.671 195.594 115.39 194.512H120.73V163.156C121.373 151.709 121.655 141.059 120.73 133.102V129.088ZM136.92 90.6511C137.916 90.6511 138.72 87.6347 138.72 83.9161C138.72 80.1952 137.916 77.1788 136.92 77.1788C135.927 77.1788 135.121 80.1952 135.121 83.9161C135.121 87.6347 135.927 90.6511 136.92 90.6511ZM295.395 161.216H286.274V179.635H295.395V161.216ZM283.009 170.426H273.885V179.635H283.009V170.426ZM275.181 166.755C275.181 167.175 275.522 167.516 275.94 167.516H278.044L278.448 168.724L278.85 167.516H280.955C281.374 167.516 281.715 167.175 281.715 166.755V164.698C281.715 164.278 281.374 163.937 280.955 163.937H275.94C275.522 163.937 275.181 164.278 275.181 164.698V166.755ZM287.568 157.367C287.568 157.784 287.909 158.128 288.328 158.128H290.43L290.835 159.333L291.237 158.128H293.341C293.761 158.128 294.102 157.784 294.102 157.367V155.308C294.102 154.89 293.761 154.549 293.341 154.549H288.328C287.909 154.549 287.568 154.89 287.568 155.308V157.367ZM314.928 137.218V183.451H264.4V137.218H279.162C279.257 136.968 279.34 136.71 279.417 136.444C279.388 136.731 279.351 136.986 279.309 137.218H314.928ZM128.221 226.577H215.977C215.98 226.553 215.977 226.528 215.977 226.501C216.074 215.119 225.088 205.9 236.331 205.42C236.697 205.404 237.07 205.397 237.442 205.399C249.099 205.499 258.483 214.954 258.539 226.577H281.616V191.81H128.221V226.577ZM203.329 81.8344C204.013 81.8163 207.68 81.7125 208.45 81.4144C208.922 81.2316 208.989 80.7461 208.956 80.351C207.671 80.4142 206.445 80.4233 205.307 80.6829C204.557 80.8568 203.909 81.3625 203.329 81.8344ZM179.95 64.937C182.758 59.3174 199.967 48.3603 208.958 57.3508C208.958 57.3508 215.067 67.1858 215.347 79.265C215.63 91.3465 207.481 92.0261 207.481 92.0261L207.572 94.3719C207.572 94.3719 206.007 101.529 204.463 102.441C204.463 102.441 200.599 97.1061 198.281 96.1217C195.964 95.1373 188.055 93.2408 188.055 93.2408L188.098 79.5472C181.939 81.9698 177.141 70.5567 179.95 64.937ZM255.735 61.7942C257.559 60.7217 260.65 66.4813 260.65 66.4813C260.65 66.4813 262.197 58.4752 263.741 55.3843C265.285 52.2956 265.568 52.7155 266.55 49.9068C267.534 47.0959 269.501 48.0803 269.923 49.2047C270.343 50.3268 271.467 56.0864 271.467 56.0864C271.467 56.0864 273.574 57.8091 274.276 61.7942C274.978 65.7792 276.385 66.1991 276.385 69.8522C276.385 73.5054 273.698 85.5868 273.698 85.5868C273.851 86.5171 274.08 87.9508 274.366 89.7683C270.295 90.2989 264.565 89.9286 261.558 89.6644V85.5868C261.558 85.5868 257.699 79.6466 257.839 76.7882C257.981 73.9276 253.908 62.8666 255.735 61.7942Z" fill="#FFAF74"/>
</g>
<mask id="mask1_800_306" style="mask-type:luminance" maskUnits="userSpaceOnUse" x="77" y="44" width="238" height="183">
<path d="M77.5879 44.312H315V226.925H77.5879V44.312Z" fill="white"/>
</mask>
<g mask="url(#mask1_800_306)">
<path d="M132.215 83.9157V105.654H136.921V62.1731H132.215V83.9157ZM300.715 146.847H302.817L303.221 148.053L303.278 147.881L303.623 146.847H305.727C305.96 146.847 306.167 146.739 306.307 146.572C306.418 146.441 306.488 146.272 306.488 146.086V144.03C306.488 143.61 306.147 143.269 305.727 143.269H300.715C300.401 143.269 300.128 143.461 300.013 143.734C299.977 143.824 299.954 143.923 299.954 144.03V146.086C299.954 146.242 300.004 146.389 300.083 146.511C300.22 146.712 300.453 146.847 300.715 146.847ZM227.54 58.7864C227.54 64.8328 232.441 69.7344 238.49 69.7344C244.534 69.7344 249.436 64.8328 249.436 58.7864C249.436 52.7422 244.534 47.8383 238.49 47.8383C232.441 47.8383 227.54 52.7422 227.54 58.7864ZM224.474 59.4931C224.46 59.2605 224.453 59.0234 224.453 58.7864C224.453 55.639 225.492 52.7332 227.242 50.3896C227.377 50.2113 227.517 50.0329 227.659 49.8613C227.944 49.5136 228.249 49.1794 228.565 48.8633C228.915 48.5134 229.287 48.1815 229.676 47.8677C229.937 47.6577 230.206 47.4567 230.484 47.2648C232.755 45.6844 235.512 44.7542 238.49 44.7542C241.463 44.7542 244.223 45.6844 246.492 47.2648C246.772 47.4567 247.04 47.6577 247.3 47.8677C247.521 48.046 247.738 48.2312 247.948 48.4208C250.759 50.9879 252.522 54.6794 252.522 58.7864C252.522 59.0234 252.515 59.2605 252.504 59.4953C252.5 59.5698 252.493 59.6443 252.486 59.7188C252.477 59.8769 252.466 60.0349 252.452 60.1952C252.441 60.2856 252.43 60.3781 252.418 60.4684C252.403 60.6062 252.387 60.7439 252.366 60.8816C252.351 60.981 252.333 61.078 252.314 61.1774C252.294 61.3061 252.272 61.4325 252.247 61.5589C252.224 61.6628 252.202 61.7621 252.179 61.8638C252.152 61.9857 252.127 62.1053 252.095 62.225C252.071 62.3266 252.039 62.4327 252.012 62.5366C251.98 62.6495 251.949 62.7624 251.915 62.8752C251.883 62.9814 251.847 63.0852 251.813 63.1913C251.775 63.2975 251.741 63.4081 251.705 63.5142C251.664 63.6203 251.624 63.7264 251.585 63.8326C251.545 63.9319 251.504 64.0358 251.463 64.1374C251.42 64.2435 251.373 64.3518 251.326 64.458C251.283 64.5528 251.24 64.6499 251.195 64.7447C251.143 64.8508 251.091 64.9592 251.039 65.0653C250.994 65.1556 250.949 65.2459 250.901 65.334C250.842 65.4424 250.784 65.553 250.72 65.6591C250.675 65.7449 250.628 65.8239 250.58 65.9075C250.515 66.0181 250.45 66.1265 250.382 66.2348C250.332 66.3116 250.285 66.3861 250.235 66.4606C250.163 66.5713 250.088 66.6819 250.012 66.7903C249.964 66.8603 249.914 66.928 249.865 66.998C249.786 67.1109 249.702 67.2193 249.619 67.3276C249.571 67.3908 249.524 67.4495 249.476 67.5128C249.386 67.6257 249.296 67.7363 249.203 67.8447C249.156 67.8988 249.111 67.9508 249.066 68.005C248.966 68.1179 248.865 68.2307 248.761 68.3414C248.72 68.3888 248.679 68.4317 248.637 68.4746C248.524 68.5897 248.413 68.7049 248.298 68.8178C248.262 68.8516 248.228 68.8855 248.192 68.9194C248.068 69.039 247.943 69.1564 247.812 69.2693C247.788 69.2919 247.763 69.3145 247.736 69.3371C247.596 69.4612 247.453 69.5832 247.309 69.7006C247.298 69.7096 247.286 69.7164 247.275 69.7254C245.103 71.4729 242.4 72.586 239.443 72.7847C239.443 72.7847 239.441 72.7847 239.438 72.7847V81.3711H237.537V72.7847C237.535 72.7847 237.533 72.7847 237.53 72.7847C234.577 72.586 231.875 71.4729 229.703 69.7277C229.689 69.7164 229.678 69.7096 229.666 69.7006C229.522 69.5809 229.382 69.4612 229.24 69.3371C229.215 69.3145 229.188 69.2919 229.163 69.2693C229.032 69.1564 228.908 69.0368 228.784 68.9194C228.748 68.8832 228.714 68.8516 228.678 68.8178C228.562 68.7049 228.452 68.5897 228.341 68.4746C228.296 68.4317 228.255 68.3888 228.215 68.3414C228.111 68.2307 228.012 68.1201 227.91 68.005C227.865 67.9508 227.82 67.8988 227.774 67.8447C227.682 67.7363 227.589 67.6257 227.499 67.5128C227.452 67.4495 227.404 67.3908 227.357 67.3276C227.273 67.2193 227.19 67.1109 227.111 66.9957C227.061 66.928 227.011 66.8603 226.964 66.7903C226.887 66.6819 226.813 66.5713 226.74 66.4606C226.691 66.3861 226.643 66.3116 226.596 66.2371C226.528 66.1265 226.46 66.0181 226.395 65.9075C226.348 65.8239 226.3 65.7449 226.255 65.6614C226.194 65.553 226.133 65.4424 226.077 65.334C226.029 65.2459 225.984 65.1556 225.939 65.0676C225.885 64.9615 225.833 64.8508 225.781 64.7424C225.736 64.6499 225.695 64.555 225.652 64.458C225.605 64.3518 225.557 64.2435 225.512 64.1374C225.472 64.0358 225.433 63.9342 225.392 63.8348C225.352 63.7264 225.311 63.6226 225.273 63.5119C225.234 63.4081 225.201 63.2997 225.164 63.1936C225.131 63.0875 225.092 62.9814 225.063 62.873C225.027 62.7624 224.995 62.6517 224.966 62.5366C224.936 62.4327 224.907 62.3266 224.88 62.2227C224.851 62.1053 224.826 61.9879 224.799 61.8683C224.776 61.7644 224.751 61.6628 224.731 61.5567C224.706 61.4325 224.686 61.3083 224.661 61.1819C224.645 61.0826 224.625 60.981 224.611 60.8816C224.591 60.7461 224.575 60.6107 224.559 60.4752C224.548 60.3804 224.535 60.2878 224.523 60.193C224.51 60.0395 224.498 59.8837 224.489 59.7279C224.485 59.6511 224.476 59.5721 224.474 59.4931ZM264.4 137.218V139.99H314.928V137.218H264.4ZM298.66 179.373V179.635H307.782V151.002H298.66V179.373ZM98.2716 109.04C98.1091 108.478 97.732 107.995 97.224 107.674C97.1856 107.647 97.145 107.618 97.1021 107.595C97.0727 107.58 97.0456 107.559 97.0163 107.539C96.7137 107.358 96.4225 107.128 96.1515 106.857C96.1403 106.848 96.129 106.835 96.1177 106.823C95.9935 106.699 95.8761 106.568 95.7587 106.428C95.551 106.182 95.3523 105.918 95.1671 105.647C95.1039 105.552 95.0407 105.455 94.9797 105.36C94.8556 105.166 94.7382 104.97 94.6298 104.778C94.4921 104.534 94.3634 104.292 94.2482 104.062C93.9592 103.482 93.7425 102.965 93.607 102.622C93.5799 102.554 93.5664 102.482 93.546 102.412C93.4851 102.199 93.4444 101.983 93.4444 101.761V101.443L95.0723 90.321L93.4444 87.5349C93.4444 86.2389 92.3946 85.1891 91.0986 85.1891H90.8367V77.709C90.8367 77.6864 90.8299 77.6661 90.8277 77.6458C90.8254 77.6164 90.8254 77.5893 90.8186 77.56C90.8028 77.4674 90.769 77.3816 90.7238 77.3026C90.7215 77.2958 90.7193 77.2868 90.7148 77.2823C90.6696 77.2078 90.6132 77.1423 90.5499 77.0858C90.5387 77.0768 90.5319 77.0723 90.5206 77.0633C90.4551 77.0091 90.3829 76.9662 90.3016 76.9346C90.2926 76.93 90.2813 76.93 90.2722 76.9255C90.1864 76.8962 90.0984 76.8759 90.0036 76.8759H80.7737C80.0828 76.8759 79.4461 77.0994 78.9245 77.4764C78.7981 77.569 78.6762 77.6706 78.5633 77.779C78.5565 77.788 78.5475 77.7948 78.5407 77.8016C77.9695 78.3728 77.615 79.163 77.615 80.0345V87.7923C77.615 89.5376 79.0307 90.951 80.7737 90.951H85.2531V109.673C85.2531 109.754 85.2712 109.828 85.2757 109.91C85.3976 111.093 86.3843 112.021 87.6013 112.021H96.0138C97.2308 112.021 98.2174 111.093 98.3371 109.91C98.3439 109.828 98.3619 109.754 98.3619 109.673C98.3619 109.564 98.3529 109.456 98.3394 109.35C98.3235 109.244 98.301 109.142 98.2716 109.04ZM261.594 221.009C259.047 220.741 258.047 217.568 259.98 215.889C262.387 213.796 260.185 209.905 257.153 210.894C254.717 211.685 252.511 209.192 253.592 206.871C254.938 203.981 251.35 201.323 248.977 203.459C247.076 205.173 244.046 203.791 244.092 201.233C244.146 198.043 239.786 197.077 238.49 199.991H238.488C237.447 202.33 234.119 202.303 233.116 199.944C231.87 197.011 227.494 197.901 227.494 201.091C227.494 203.649 224.442 204.979 222.57 203.234C220.236 201.057 216.601 203.654 217.897 206.568C218.94 208.905 216.691 211.362 214.271 210.529C211.254 209.49 208.99 213.339 211.358 215.473C213.261 217.187 212.205 220.343 209.656 220.567C206.479 220.844 205.973 225.283 209.008 226.268C209.172 226.322 209.324 226.387 209.47 226.464H211.446C211.566 213.143 222.457 202.439 235.781 202.552C248.966 202.662 259.585 213.33 259.7 226.464H262.746C265.114 225.166 264.538 221.319 261.594 221.009ZM208.502 82.5384C208.276 82.2607 207.908 81.9085 207.364 81.6082C205.975 81.7595 203.837 81.8204 203.329 81.834C203.332 81.8317 203.334 81.8272 203.338 81.825C203.325 81.8385 203.309 81.8453 203.295 81.8588C202.988 82.1117 203.122 82.6107 203.517 82.6807C204.456 82.8477 205.537 83.0555 206.323 82.9967H207.041C207.556 82.9629 208.057 82.7981 208.502 82.5384ZM181.492 52.9951L178.792 70.8001C178.792 70.8001 172.185 68.9194 173.524 60.8974C174.998 52.0491 181.492 52.9951 181.492 52.9951Z" fill="#AD2F14"/>
</g>
<mask id="mask2_800_306" style="mask-type:luminance" maskUnits="userSpaceOnUse" x="68" y="47" width="246" height="180">
<path d="M68.918 47.78H313.345V226.925H68.918V47.78Z" fill="white"/>
</mask>
<g mask="url(#mask2_800_306)">
<path d="M73.9912 191.552V160.313L69.076 190.758L73.9912 191.552ZM78.9787 169.157H87.9376C88.0844 169.157 88.2018 169.04 88.2018 168.893C88.2018 168.749 88.0844 168.631 87.9376 168.631H78.9787C78.8319 168.631 78.7145 168.749 78.7145 168.893C78.7145 169.04 78.8319 169.157 78.9787 169.157ZM78.9787 172.298H95.1197C95.2665 172.298 95.3839 172.18 95.3839 172.034C95.3839 171.889 95.2665 171.769 95.1197 171.769H78.9787C78.8319 171.769 78.7145 171.889 78.7145 172.034C78.7145 172.18 78.8319 172.298 78.9787 172.298ZM78.9787 185.258C78.8319 185.258 78.7145 185.375 78.7145 185.522C78.7145 185.666 78.8319 185.786 78.9787 185.786H87.2919C87.4387 185.786 87.5561 185.666 87.5561 185.522C87.5561 185.375 87.4387 185.258 87.2919 185.258H78.9787ZM94.5756 182.381C94.5756 182.234 94.4582 182.117 94.3114 182.117H78.9787C78.8319 182.117 78.7145 182.234 78.7145 182.381C78.7145 182.526 78.8319 182.643 78.9787 182.643H94.3114C94.4582 182.643 94.5756 182.526 94.5756 182.381ZM83.614 177.148C83.7517 177.109 84.0858 177.041 84.1874 177.181C84.2529 177.267 84.2281 177.448 84.122 177.662C84.1152 177.676 84.1084 177.692 84.1016 177.703C83.2708 178.094 82.5099 178.593 82.1712 179.405C82.1328 179.502 82.1532 179.611 82.2232 179.688C82.2954 179.764 82.4038 179.791 82.5031 179.755C82.7086 179.681 82.9095 179.588 83.0992 179.482C83.6681 179.155 84.1513 178.678 84.481 178.107C84.56 178.071 84.639 178.039 84.718 178.003C84.9777 177.893 85.1944 177.802 85.4089 177.811C85.5737 177.811 85.7747 177.897 85.8289 178.046C85.8379 178.071 85.8379 178.1 85.8311 178.13C85.7273 178.188 85.6279 178.252 85.5353 178.31C85.4405 178.371 85.3954 178.484 85.4179 178.59C85.4428 178.701 85.5331 178.78 85.6437 178.796C85.6957 178.803 85.7453 178.803 85.795 178.796C85.9463 178.773 86.0863 178.692 86.1924 178.561C86.2059 178.545 86.2172 178.529 86.2308 178.514C86.3549 178.448 86.4814 178.396 86.6123 178.369C86.8742 178.31 87.1339 178.369 87.2693 178.518C87.3348 178.59 87.3687 178.705 87.3529 178.809C87.3506 178.818 87.3506 178.827 87.3484 178.836C87.2784 178.906 87.2197 178.985 87.1723 179.069C87.1113 179.175 87.1339 179.306 87.2197 179.392C87.3077 179.473 87.4409 179.487 87.5425 179.421C87.6509 179.353 87.7344 179.259 87.7954 179.146C87.8789 179.082 87.9805 179.037 88.0844 179.022C88.0934 179.037 88.1025 179.051 88.116 179.062C88.1792 179.137 88.2786 179.168 88.3757 179.146C89.8071 178.803 91.2408 179.019 92.7558 179.25C93.9637 179.435 95.21 179.624 96.4608 179.505C96.5692 179.493 96.6573 179.419 96.6889 179.322C96.6979 179.29 96.7024 179.254 96.6979 179.218C96.6844 179.073 96.5534 178.967 96.4112 178.981C95.2258 179.092 94.0111 178.909 92.8348 178.73C91.4282 178.516 89.9742 178.295 88.5337 178.572C88.4998 178.543 88.4592 178.52 88.414 178.511C88.2266 178.471 88.0347 178.482 87.8564 178.536C87.8202 178.396 87.7525 178.267 87.6577 178.164C87.3935 177.872 86.9487 177.755 86.4972 177.854C86.443 177.866 86.3865 177.881 86.3324 177.899C86.3324 177.89 86.3301 177.884 86.3256 177.877C86.1879 177.475 85.7679 177.29 85.4157 177.285C85.1809 177.281 84.9641 177.339 84.7451 177.425C84.7745 177.166 84.7 176.985 84.6119 176.868C84.481 176.691 84.2213 176.513 83.7133 176.588C83.6433 176.599 83.5643 176.615 83.4808 176.635C82.9615 176.773 82.4602 176.956 81.9748 177.186C80.5276 177.877 79.2722 178.972 78.4097 180.329C78.3894 180.36 78.3781 180.392 78.3736 180.426C78.3555 180.525 78.3984 180.634 78.491 180.69C78.5339 180.719 78.5836 180.733 78.6333 180.733C78.7191 180.733 78.8048 180.69 78.8523 180.611C79.9337 178.915 81.6677 177.651 83.614 177.148ZM78.9787 160.291H89.2562C89.4007 160.291 89.5181 160.173 89.5181 160.027C89.5181 159.88 89.4007 159.762 89.2562 159.762H78.9787C78.8319 159.762 78.7145 159.88 78.7145 160.027C78.7145 160.173 78.8319 160.291 78.9787 160.291ZM106.621 171.769H98.7931C98.6486 171.769 98.529 171.889 98.529 172.034C98.529 172.18 98.6486 172.298 98.7931 172.298H106.621C106.768 172.298 106.885 172.18 106.885 172.034C106.885 171.889 106.768 171.769 106.621 171.769ZM78.8748 157.128C78.9087 157.141 78.9426 157.15 78.9787 157.15H87.2919C87.328 157.15 87.3642 157.141 87.3935 157.128C87.4883 157.089 87.5561 156.997 87.5561 156.886C87.5561 156.778 87.4883 156.683 87.3935 156.644C87.3642 156.631 87.328 156.622 87.2919 156.622H78.9787C78.9426 156.622 78.9087 156.631 78.8748 156.644C78.7823 156.683 78.7145 156.778 78.7145 156.886C78.7145 156.997 78.7823 157.089 78.8748 157.128ZM78.9787 166.017H99.1499C99.2944 166.017 99.414 165.899 99.414 165.752C99.414 165.608 99.2944 165.491 99.1499 165.491H78.9787C78.8319 165.491 78.7145 165.608 78.7145 165.752C78.7145 165.899 78.8319 166.017 78.9787 166.017ZM107.115 168.893C107.115 168.749 106.998 168.631 106.851 168.631H91.4485C91.304 168.631 91.1866 168.749 91.1866 168.893C91.1866 169.04 91.304 169.157 91.4485 169.157H106.851C106.998 169.157 107.115 169.04 107.115 168.893ZM94.5756 185.522C94.5756 185.375 94.4582 185.258 94.3114 185.258H89.6016C89.4549 185.258 89.3375 185.375 89.3375 185.522C89.3375 185.666 89.4549 185.786 89.6016 185.786H94.3114C94.4582 185.786 94.5756 185.666 94.5756 185.522ZM117.23 153.504C117.199 153.49 117.165 153.481 117.126 153.481H96.9553C96.9214 153.481 96.8853 153.49 96.8537 153.504C96.7611 153.542 96.6911 153.637 96.6911 153.745C96.6911 153.856 96.7611 153.949 96.8537 153.987C96.8853 154.001 96.9214 154.007 96.9553 154.007H117.126C117.165 154.007 117.199 154.001 117.23 153.987C117.325 153.949 117.391 153.856 117.391 153.745C117.391 153.637 117.325 153.542 117.23 153.504ZM120.73 164.064L124.776 139.002L125.645 133.619L120.73 132.827V164.064ZM128.901 63.8625C128.894 63.858 128.887 63.8557 128.881 63.8534C128.844 63.8309 128.804 63.8151 128.759 63.8151C128.756 63.8151 128.756 63.8151 128.756 63.8151C128.61 63.8151 128.492 63.9325 128.492 64.0792V103.751C128.492 103.898 128.61 104.015 128.756 104.015C128.756 104.015 128.756 104.015 128.759 104.015C128.804 104.015 128.844 103.999 128.881 103.977C128.887 103.975 128.894 103.97 128.901 103.966C128.935 103.941 128.964 103.911 128.984 103.873C129.005 103.837 129.021 103.796 129.021 103.751V64.0792C129.021 64.0341 129.005 63.9934 128.984 63.955C128.964 63.9189 128.935 63.8873 128.901 63.8625ZM141.384 84.1556C141.416 84.1714 141.452 84.1782 141.486 84.1782H152.558C152.594 84.1782 152.628 84.1714 152.662 84.1556C152.757 84.1172 152.822 84.0246 152.822 83.9162C152.822 83.8056 152.757 83.7108 152.662 83.6724C152.628 83.6589 152.594 83.6521 152.558 83.6521H141.486C141.452 83.6521 141.416 83.6589 141.384 83.6724C141.292 83.7108 141.224 83.8056 141.224 83.9162C141.224 84.0246 141.292 84.1172 141.384 84.1556ZM148.794 91.9043C148.81 91.8705 148.817 91.8389 148.819 91.8027C148.821 91.7011 148.765 91.6018 148.666 91.5566L145.132 89.9107L141.599 88.2693C141.531 88.2377 141.459 88.2377 141.396 88.2603C141.335 88.2828 141.278 88.3302 141.247 88.398C141.233 88.4296 141.224 88.4657 141.224 88.4996C141.222 88.6012 141.276 88.7028 141.375 88.7479L148.442 92.033C148.481 92.0488 148.517 92.0579 148.555 92.0579C148.654 92.0579 148.749 92.0014 148.794 91.9043ZM92.3313 194.512L103.9 196.382L115.216 198.208L115.593 195.887L115.815 194.512H92.3313ZM78.8748 153.987C78.9087 154.001 78.9426 154.007 78.9787 154.007H94.3114C94.3498 154.007 94.3814 154.001 94.4153 153.987C94.5101 153.949 94.5756 153.856 94.5756 153.745C94.5756 153.637 94.5101 153.542 94.4153 153.504C94.3814 153.49 94.3498 153.481 94.3114 153.481H78.9787C78.9426 153.481 78.9087 153.49 78.8748 153.504C78.7823 153.542 78.7145 153.637 78.7145 153.745C78.7145 153.856 78.7823 153.949 78.8748 153.987ZM89.2562 188.398H78.9787C78.8319 188.398 78.7145 188.516 78.7145 188.662C78.7145 188.807 78.8319 188.926 78.9787 188.926H89.2562C89.4007 188.926 89.5181 188.807 89.5181 188.662C89.5181 188.516 89.4007 188.398 89.2562 188.398ZM117.126 165.491H101.794C101.647 165.491 101.53 165.608 101.53 165.752C101.53 165.899 101.647 166.017 101.794 166.017H117.126C117.273 166.017 117.391 165.899 117.391 165.752C117.391 165.608 117.273 165.491 117.126 165.491ZM117.23 156.644C117.199 156.631 117.165 156.622 117.126 156.622H108.168C108.131 156.622 108.098 156.631 108.066 156.644C107.971 156.683 107.903 156.778 107.903 156.886C107.903 156.997 107.971 157.089 108.066 157.128C108.098 157.141 108.131 157.15 108.168 157.15H117.126C117.165 157.15 117.199 157.141 117.23 157.128C117.325 157.089 117.391 156.997 117.391 156.886C117.391 156.778 117.325 156.683 117.23 156.644ZM117.126 168.631H108.816C108.669 168.631 108.551 168.749 108.551 168.893C108.551 169.04 108.669 169.157 108.816 169.157H117.126C117.273 169.157 117.391 169.04 117.391 168.893C117.391 168.749 117.273 168.631 117.126 168.631ZM92.6632 160.027C92.6632 160.173 92.7806 160.291 92.9274 160.291H106.621C106.768 160.291 106.885 160.173 106.885 160.027C106.885 159.88 106.768 159.762 106.621 159.762H92.9274C92.7806 159.762 92.6632 159.88 92.6632 160.027ZM107.12 136.832C107.104 138.39 108.041 139.734 109.387 140.316C109.497 140.363 109.613 140.409 109.73 140.445C110.082 140.558 110.457 140.621 110.848 140.623C112.922 140.643 114.62 138.973 114.636 136.896C114.654 134.821 112.986 133.123 110.911 133.105C108.834 133.089 107.136 134.757 107.12 136.832ZM106.368 135.803C106.813 135.762 106.998 135.213 106.666 134.915C106.253 134.545 106.648 133.875 107.172 134.055C107.33 134.107 107.483 134.085 107.603 134.008C107.725 133.933 107.813 133.807 107.84 133.665C107.858 133.57 107.849 133.468 107.804 133.367C107.718 133.177 107.754 132.994 107.854 132.859C107.888 132.816 107.926 132.777 107.971 132.743C108.154 132.617 108.414 132.599 108.615 132.786C108.94 133.091 109.473 132.859 109.473 132.414C109.473 131.858 110.233 131.703 110.45 132.215C110.624 132.624 111.204 132.628 111.385 132.222C111.608 131.716 112.369 131.883 112.36 132.439C112.351 132.883 112.88 133.123 113.209 132.827C113.622 132.454 114.248 132.917 114.013 133.421C113.823 133.823 114.207 134.256 114.632 134.118C115.16 133.947 115.542 134.624 115.122 134.988C114.997 135.098 114.943 135.243 114.948 135.385C114.95 135.432 114.957 135.48 114.973 135.525C115.027 135.706 115.183 135.855 115.404 135.877C115.955 135.936 116.031 136.708 115.499 136.871C115.074 137.002 115.009 137.577 115.395 137.801C115.876 138.076 115.627 138.815 115.076 138.747C114.636 138.693 114.343 139.192 114.602 139.553C114.93 140 114.406 140.573 113.929 140.289C113.548 140.059 113.076 140.395 113.169 140.831C113.284 141.375 112.572 141.682 112.254 141.23C111.999 140.862 111.43 140.98 111.337 141.416C111.225 141.957 110.446 141.951 110.34 141.407C110.256 140.971 109.689 140.844 109.427 141.206C109.102 141.655 108.396 141.332 108.52 140.79C108.619 140.357 108.154 140.011 107.768 140.237C107.287 140.512 106.772 139.932 107.106 139.487C107.375 139.133 107.091 138.629 106.648 138.675C106.095 138.733 105.862 137.993 106.345 137.722C106.736 137.507 106.68 136.932 106.255 136.794C105.729 136.622 105.817 135.85 106.368 135.803ZM240.235 76.8087C240.226 76.7048 240.197 76.6077 240.161 76.5174C240.154 76.5039 240.149 76.4881 240.143 76.4745C240.102 76.3887 240.05 76.3075 239.987 76.2352C239.98 76.2262 239.973 76.2194 239.967 76.2104C239.827 76.0591 239.646 75.9485 239.438 75.9011C239.364 75.883 239.282 75.8694 239.199 75.8694H237.776C237.693 75.8694 237.614 75.883 237.537 75.9011C237.332 75.9485 237.149 76.0591 237.009 76.2104C237.004 76.2194 236.995 76.2262 236.989 76.2352C236.925 76.3075 236.873 76.3887 236.833 76.4745C236.826 76.4881 236.821 76.5039 236.815 76.5174C236.779 76.6077 236.749 76.7048 236.74 76.8087L235.833 85.727C235.808 85.9889 235.884 86.2327 236.024 86.4314C236.214 86.6979 236.519 86.874 236.871 86.874H240.104C240.335 86.874 240.547 86.7995 240.721 86.673C240.779 86.6301 240.829 86.5827 240.879 86.5308C240.926 86.4789 240.967 86.4201 241.003 86.3592C241.111 86.1763 241.165 85.955 241.143 85.727L240.61 80.4663L240.235 76.8087ZM141.346 79.5451C141.389 79.5722 141.436 79.5835 141.486 79.5835C141.524 79.5835 141.563 79.5745 141.599 79.5587L148.666 76.2736C148.765 76.2284 148.821 76.1291 148.819 76.0275C148.817 75.9914 148.81 75.9575 148.794 75.9236C148.763 75.8582 148.709 75.8107 148.645 75.7882C148.582 75.7656 148.51 75.7656 148.442 75.7972L141.375 79.08C141.276 79.1275 141.222 79.2268 141.224 79.3307C141.224 79.3623 141.233 79.3984 141.247 79.4323C141.269 79.4797 141.305 79.5181 141.346 79.5451ZM228.863 58.7869C228.863 61.8417 230.299 64.5624 232.523 66.3257L240.267 58.5837C240.371 58.4799 240.538 58.4799 240.639 58.5837C240.743 58.6876 240.743 58.8524 240.639 58.954L232.949 66.6441C234.518 67.7527 236.426 68.4119 238.49 68.4119C241.141 68.4119 243.547 67.3305 245.288 65.5897C245.507 65.3707 245.715 65.1426 245.911 64.9056C247.286 63.2416 248.113 61.1102 248.113 58.7869C248.113 56.0166 246.927 53.5218 245.047 51.7629L237.264 59.5433C237.214 59.5952 237.144 59.6223 237.077 59.6223C237.011 59.6223 236.943 59.5952 236.891 59.5433C236.79 59.4417 236.79 59.2746 236.891 59.1708L244.654 51.4085C242.983 50.0086 240.834 49.1642 238.49 49.1642C233.18 49.1642 228.863 53.4811 228.863 58.7869ZM228.339 58.7869C228.339 57.7393 228.497 56.7256 228.793 55.7728C230.082 51.6433 233.94 48.6381 238.49 48.6381C243.037 48.6381 246.893 51.6433 248.183 55.7728C248.478 56.7256 248.639 57.7393 248.639 58.7869C248.639 59.8368 248.478 60.8506 248.183 61.8034C246.893 65.9329 243.037 68.938 238.49 68.938C236.239 68.938 234.166 68.1952 232.482 66.9511C232.43 66.9444 232.378 66.924 232.337 66.8834C232.315 66.8608 232.301 66.8337 232.288 66.8066C229.89 64.9485 228.339 62.0495 228.339 58.7869ZM241.692 57.7935C241.759 57.7935 241.827 57.7687 241.879 57.7167L244.595 55.0006C244.697 54.8968 244.697 54.7297 244.595 54.6281C244.491 54.5242 244.324 54.5242 244.225 54.6281L241.506 57.3442C241.403 57.4458 241.403 57.6129 241.506 57.7167C241.558 57.7687 241.626 57.7935 241.692 57.7935ZM312.787 179.374H303.348C303.311 179.351 303.266 179.338 303.221 179.338C303.174 179.338 303.131 179.351 303.095 179.374H290.961C290.923 179.351 290.88 179.338 290.835 179.338C290.787 179.338 290.744 179.351 290.708 179.374H278.575C278.537 179.351 278.496 179.338 278.448 179.338C278.401 179.338 278.358 179.351 278.322 179.374H269.144V175.696H270.126C270.271 175.696 270.388 175.578 270.388 175.432C270.388 175.287 270.271 175.167 270.126 175.167H269.144V170.733H270.126C270.271 170.733 270.388 170.616 270.388 170.471C270.388 170.327 270.271 170.209 270.126 170.209H269.144V165.773H270.126C270.16 165.773 270.196 165.766 270.228 165.752C270.323 165.712 270.388 165.619 270.388 165.511C270.388 165.4 270.323 165.305 270.228 165.267C270.196 165.253 270.16 165.247 270.126 165.247H269.144V160.81H270.126C270.271 160.81 270.388 160.693 270.388 160.548C270.388 160.401 270.271 160.284 270.126 160.284H269.144V155.847H270.126C270.16 155.847 270.196 155.841 270.228 155.827C270.323 155.789 270.388 155.696 270.388 155.586C270.388 155.477 270.323 155.382 270.228 155.344C270.196 155.328 270.16 155.321 270.126 155.321H269.144V150.887H270.126C270.271 150.887 270.388 150.767 270.388 150.625C270.388 150.478 270.271 150.361 270.126 150.361H269.144V145.927H270.126C270.16 145.927 270.196 145.918 270.228 145.906C270.323 145.863 270.388 145.771 270.388 145.663C270.388 145.554 270.323 145.459 270.228 145.419C270.196 145.407 270.16 145.398 270.126 145.398H269.144V143.956C269.144 143.809 269.024 143.691 268.882 143.691C268.735 143.691 268.618 143.809 268.618 143.956V145.398H267.71C267.674 145.398 267.638 145.407 267.609 145.419C267.514 145.459 267.446 145.554 267.446 145.663C267.446 145.771 267.514 145.863 267.609 145.906C267.638 145.918 267.674 145.927 267.71 145.927H268.618V150.361H267.71C267.564 150.361 267.446 150.478 267.446 150.625C267.446 150.767 267.564 150.887 267.71 150.887H268.618V155.321H267.71C267.674 155.321 267.638 155.328 267.609 155.344C267.514 155.382 267.446 155.477 267.446 155.586C267.446 155.696 267.514 155.789 267.609 155.827C267.638 155.841 267.674 155.847 267.71 155.847H268.618V160.284H267.71C267.564 160.284 267.446 160.401 267.446 160.548C267.446 160.693 267.564 160.81 267.71 160.81H268.618V165.247H267.71C267.674 165.247 267.638 165.253 267.609 165.267C267.514 165.305 267.446 165.4 267.446 165.511C267.446 165.619 267.514 165.712 267.609 165.752C267.638 165.766 267.674 165.773 267.71 165.773H268.618V170.209H267.71C267.564 170.209 267.446 170.327 267.446 170.471C267.446 170.616 267.564 170.733 267.71 170.733H268.618V175.167H267.71C267.564 175.167 267.446 175.287 267.446 175.432C267.446 175.578 267.564 175.696 267.71 175.696H268.618V179.636C268.618 179.782 268.735 179.9 268.882 179.9H278.184V180.807C278.184 180.952 278.302 181.069 278.448 181.069C278.593 181.069 278.71 180.952 278.71 180.807V179.9H290.571V180.807C290.571 180.952 290.688 181.069 290.835 181.069C290.979 181.069 291.097 180.952 291.097 180.807V179.9H302.959V180.807C302.959 180.952 303.077 181.069 303.221 181.069C303.366 181.069 303.483 180.952 303.483 180.807V179.9H312.787C312.934 179.9 313.052 179.782 313.052 179.636C313.052 179.491 312.934 179.374 312.787 179.374ZM78.9787 141.355H89.2562C89.4007 141.355 89.5181 141.235 89.5181 141.093C89.5181 140.946 89.4007 140.829 89.2562 140.829H78.9787C78.8319 140.829 78.7145 140.946 78.7145 141.093C78.7145 141.235 78.8319 141.355 78.9787 141.355ZM80.8459 90.4887C80.9927 90.4887 81.1101 90.3713 81.1101 90.2245V77.6034C81.1101 77.4589 80.9927 77.3393 80.8459 77.3393C80.6991 77.3393 80.5817 77.4589 80.5817 77.6034V90.2245C80.5817 90.3713 80.6991 90.4887 80.8459 90.4887ZM78.9787 138.214H87.2919C87.4387 138.214 87.5561 138.097 87.5561 137.952C87.5561 137.805 87.4387 137.688 87.2919 137.688H78.9787C78.8319 137.688 78.7145 137.805 78.7145 137.952C78.7145 138.097 78.8319 138.214 78.9787 138.214ZM104.761 156.644C104.729 156.631 104.693 156.622 104.657 156.622H89.2562C89.2178 156.622 89.184 156.631 89.1523 156.644C89.0575 156.683 88.992 156.778 88.992 156.886C88.992 156.997 89.0575 157.089 89.1523 157.128C89.184 157.141 89.2178 157.15 89.2562 157.15H104.657C104.693 157.15 104.729 157.141 104.761 157.128C104.855 157.089 104.921 156.997 104.921 156.886C104.921 156.778 104.855 156.683 104.761 156.644ZM94.3114 137.688H89.6016C89.4549 137.688 89.3375 137.805 89.3375 137.952C89.3375 138.097 89.4549 138.214 89.6016 138.214H94.3114C94.4582 138.214 94.5756 138.097 94.5756 137.952C94.5756 137.805 94.4582 137.688 94.3114 137.688ZM78.9787 135.073H94.3114C94.4582 135.073 94.5756 134.956 94.5756 134.812C94.5756 134.665 94.4582 134.547 94.3114 134.547H78.9787C78.8319 134.547 78.7145 134.665 78.7145 134.812C78.7145 134.956 78.8319 135.073 78.9787 135.073ZM97.3775 99.0051V91.2044C96.0364 90.9154 94.7223 90.6829 93.4444 90.5158V101.444H94.9413C96.287 101.444 97.3775 100.351 97.3775 99.0051ZM91.0444 128.034L79.5048 126.171L79.0848 128.774L79.0329 129.088H97.5785L91.0444 128.034ZM208.396 119.197C209.026 121.669 209.64 124.146 210.218 126.629C211.053 130.212 211.794 133.814 212.41 137.435C212.722 139.244 212.968 141.061 213.16 142.883C213.32 144.71 213.424 146.523 213.257 148.349C212.972 152.002 212.451 155.649 211.918 159.284C211.372 162.921 210.766 166.549 210.15 170.175C209.525 173.799 208.874 177.421 208.211 181.04C207.567 184.632 206.903 188.224 206.219 191.81H206.465C207.192 188.247 207.899 184.68 208.59 181.11C209.272 177.493 209.936 173.874 210.577 170.25C211.211 166.624 211.83 162.993 212.392 159.356C212.941 155.714 213.485 152.07 213.781 148.385C213.941 146.543 213.826 144.667 213.654 142.836C213.453 140.998 213.196 139.169 212.871 137.356C212.234 133.723 211.475 130.118 210.62 126.534C210.015 123.99 209.371 121.454 208.71 118.923C208.443 117.894 208.179 116.86 207.899 115.832C207.014 112.62 206.093 109.42 205.131 106.23C205.673 106.957 206.246 107.655 206.869 108.321C207.296 108.779 207.748 109.217 208.238 109.617C208.482 109.82 208.734 110.012 209.005 110.181C209.143 110.267 209.26 110.357 209.441 110.432C209.606 110.509 209.82 110.547 210.03 110.491C210.464 110.348 210.626 109.971 210.739 109.675C210.857 109.362 210.913 109.048 210.963 108.734C211.053 108.104 211.069 107.479 211.069 106.853C211.064 105.636 210.976 104.426 210.841 103.218C210.836 103.191 210.834 103.162 210.832 103.132C210.823 103.074 210.773 103.031 210.715 103.031C210.71 103.031 210.705 103.026 210.701 103.029C210.635 103.033 210.588 103.094 210.595 103.157C210.701 104.385 210.755 105.623 210.728 106.851C210.71 107.465 210.672 108.079 210.575 108.673C210.527 108.969 210.464 109.267 210.362 109.533C210.265 109.802 210.1 110.041 209.92 110.086C209.739 110.141 209.498 109.992 209.245 109.818C208.994 109.655 208.757 109.47 208.524 109.271C208.062 108.883 207.63 108.449 207.219 107.996C206.398 107.093 205.632 106.122 204.946 105.112C204.926 105.083 204.896 105.056 204.862 105.036C204.745 104.966 204.589 105.009 204.519 105.131C203.97 106.07 203.372 106.995 202.729 107.876C202.083 108.757 201.392 109.61 200.597 110.326C200.2 110.673 199.766 111.001 199.301 111.145C199.067 111.213 198.848 111.238 198.631 111.161C198.4 111.069 198.168 110.985 197.938 110.836C197.005 110.303 196.116 109.642 195.242 108.98C193.494 107.646 191.785 106.255 190.094 104.837C188.407 103.417 186.721 101.992 185.061 100.543C185.018 100.504 184.958 100.509 184.921 100.549C184.883 100.59 184.885 100.653 184.926 100.692C186.552 102.189 188.179 103.679 189.848 105.126C191.519 106.569 193.196 108.009 194.953 109.362C195.831 110.037 196.712 110.703 197.694 111.272C197.926 111.425 198.209 111.538 198.495 111.647C198.798 111.755 199.157 111.721 199.448 111.633C200.044 111.448 200.509 111.084 200.943 110.719C201.796 109.962 202.489 109.077 203.146 108.179C203.722 107.379 204.25 106.555 204.754 105.706C204.756 105.711 204.761 105.718 204.765 105.72C205.741 109.109 206.666 112.514 207.556 115.923C207.845 117.013 208.118 118.106 208.396 119.197ZM193.941 191.654C193.833 191.654 193.743 191.717 193.702 191.81C193.686 191.844 193.677 191.877 193.677 191.916V226.681C193.677 226.828 193.797 226.946 193.941 226.946C194.086 226.946 194.205 226.828 194.205 226.681V191.916C194.205 191.877 194.196 191.844 194.183 191.81C194.142 191.717 194.05 191.654 193.941 191.654ZM212.437 164.707C212.437 165.357 212.966 165.886 213.618 165.886C214.268 165.886 214.797 165.357 214.797 164.707C214.797 164.055 214.268 163.529 213.618 163.529C212.966 163.529 212.437 164.055 212.437 164.707ZM215.357 140.388C216.007 140.388 216.535 139.862 216.535 139.21C216.535 138.56 216.007 138.031 215.357 138.031C214.704 138.031 214.178 138.56 214.178 139.21C214.178 139.862 214.704 140.388 215.357 140.388ZM209.177 183.557C209.177 184.208 209.703 184.736 210.356 184.736C211.006 184.736 211.534 184.208 211.534 183.557C211.534 182.907 211.006 182.381 210.356 182.381C209.703 182.381 209.177 182.907 209.177 183.557ZM208.502 82.539C208.698 82.4261 208.886 82.2997 209.055 82.1461C209.608 81.6517 209.92 80.9427 210.053 80.2112C209.744 80.2631 209.34 80.306 208.892 80.3534C208.915 80.3534 208.935 80.3534 208.956 80.3512C208.99 80.7463 208.922 81.2317 208.45 81.4146C208.249 81.4914 207.852 81.5568 207.364 81.6088C207.908 81.9091 208.276 82.2613 208.502 82.539ZM209.373 69.9879C208.906 70.0172 208.561 70.5501 208.601 71.1732C208.642 71.7964 209.055 72.275 209.522 72.2434C209.992 72.2118 210.337 71.6835 210.297 71.0603C210.256 70.4372 209.843 69.9563 209.373 69.9879ZM187.735 74.5667C187.999 74.8557 188.283 75.1605 188.64 75.3727C188.683 75.3976 188.742 75.3953 188.782 75.3592C188.832 75.314 188.836 75.2395 188.794 75.1876C188.541 74.9009 188.324 74.5938 188.098 74.2732C187.872 73.9548 187.619 73.6275 187.306 73.3475C186.99 73.0743 186.592 72.8305 186.141 72.7853C185.705 72.7311 185.217 72.8485 184.926 73.1894C184.899 73.2211 184.897 73.2685 184.919 73.3068C184.946 73.3543 185.009 73.3701 185.057 73.343L185.061 73.3407C185.371 73.1556 185.732 73.1398 186.064 73.2233C186.391 73.3091 186.689 73.4988 186.956 73.7426C187.229 73.9819 187.468 74.2754 187.735 74.5667ZM208.5 78.8949C208.556 78.9333 208.631 78.9152 208.667 78.861C209.091 78.2198 209.516 77.5199 209.608 76.671C209.665 76.251 209.572 75.804 209.396 75.4224C209.222 75.0386 208.981 74.7112 208.746 74.4019C208.254 73.8103 207.861 73.1849 207.533 72.5031C207.21 71.8235 206.976 71.101 206.813 70.3536C206.802 70.3062 206.759 70.2724 206.709 70.2746C206.655 70.2769 206.61 70.3243 206.614 70.3785C206.65 71.1642 206.833 71.9431 207.127 72.6814C207.414 73.4152 207.856 74.1084 208.33 74.7202C208.565 75.0228 208.789 75.3185 208.94 75.6346C209.096 75.9507 209.157 76.2871 209.145 76.6371C209.114 77.3461 208.777 78.0482 208.459 78.7459C208.434 78.7956 208.45 78.8633 208.5 78.8949ZM186.434 74.1648C186.319 74.1829 186.217 74.2393 186.125 74.3071C186.035 74.3793 185.955 74.4628 185.906 74.569C185.854 74.6706 185.82 74.7834 185.834 74.9054C185.836 74.9189 185.84 74.9325 185.845 74.946C185.876 75.0025 185.949 75.025 186.007 74.9957L186.016 74.9912C186.109 74.9415 186.179 74.8941 186.247 74.8534C186.317 74.8128 186.375 74.7676 186.436 74.7293C186.495 74.6841 186.556 74.6457 186.615 74.5938C186.676 74.5441 186.741 74.4967 186.811 74.4222L186.825 74.4087C186.836 74.3974 186.847 74.3816 186.854 74.3658C186.883 74.2958 186.852 74.2167 186.78 74.1851C186.667 74.1377 186.549 74.1422 186.434 74.1648ZM247.424 203.46C247.067 203.781 246.672 203.993 246.264 204.11C247.155 204.354 248.169 204.189 248.977 203.46C249.345 203.128 249.745 202.923 250.149 202.805C249.273 202.552 248.271 202.697 247.424 203.46ZM227.494 201.092C227.494 199.563 228.501 198.57 229.689 198.265C227.991 197.802 225.939 198.908 225.939 201.092C225.939 202.539 224.966 203.589 223.78 203.918C225.526 204.406 227.494 203.148 227.494 201.092ZM207.531 84.2165C207.56 84.1894 207.576 84.1488 207.572 84.1059C207.56 84.0359 207.499 83.9885 207.432 83.9975L206.865 84.0788C206.68 84.0969 206.499 84.1217 206.319 84.1307C206.138 84.1511 205.955 84.1511 205.768 84.1578L205.194 84.1623C205.16 84.1623 205.126 84.1759 205.106 84.2075C205.075 84.2549 205.084 84.3204 205.133 84.3543C205.309 84.4762 205.51 84.5507 205.716 84.6004C205.926 84.6545 206.138 84.6658 206.352 84.6568C206.565 84.6433 206.777 84.6049 206.978 84.5304C207.177 84.4559 207.368 84.3588 207.531 84.2165ZM214.471 210.581C216.813 211.213 218.91 208.843 217.897 206.569C217.072 204.713 218.244 202.995 219.807 202.546C217.632 201.918 215.255 204.124 216.343 206.569C217.122 208.314 216.065 210.12 214.471 210.581ZM236.932 199.992C236.544 200.868 235.833 201.412 235.045 201.627C236.341 201.972 237.849 201.432 238.488 199.992H238.49C238.89 199.093 239.58 198.565 240.348 198.355C239.077 198.028 237.6 198.493 236.932 199.992ZM212.496 210.473C209.592 209.691 207.493 213.392 209.805 215.474C211.706 217.187 210.651 220.344 208.1 220.567C204.926 220.845 204.42 225.284 207.454 226.268C207.619 226.322 207.77 226.388 207.915 226.465H209.47C209.324 226.388 209.172 226.322 209.008 226.268C205.973 225.284 206.479 220.845 209.656 220.567C212.205 220.344 213.261 217.187 211.358 215.474C209.489 213.792 210.507 211.055 212.496 210.473ZM255.597 210.895C255.545 210.911 255.496 210.917 255.444 210.931C255.97 211.085 256.552 211.087 257.153 210.895C257.209 210.875 257.268 210.87 257.325 210.852C256.803 210.703 256.22 210.692 255.597 210.895ZM271.126 99.5064C271.244 99.5041 271.345 99.4206 271.37 99.3009V99.2986C271.571 98.3007 271.756 97.3027 271.942 96.3048C272.21 97.3073 272.608 98.2623 272.969 99.2083L272.971 99.2128C273.009 99.3099 273.113 99.3641 273.215 99.3348C274.12 99.0729 274.983 98.5694 275.608 97.8604C275.719 97.7362 275.82 97.603 275.915 97.4676C275.985 97.366 276.053 97.2621 276.114 97.1537C276.143 97.0973 276.127 97.0273 276.073 96.9912C276.017 96.9596 275.942 96.9754 275.908 97.0318C275.599 97.5263 275.177 97.9372 274.692 98.2555C274.26 98.5378 273.782 98.7387 273.287 98.8877C273.064 98.2691 272.842 97.6527 272.65 97.0341C272.445 96.3522 272.258 95.6681 272.181 94.9795C272.165 94.8711 272.088 94.7808 271.978 94.7605C271.842 94.7356 271.713 94.8237 271.686 94.9591C271.427 96.3048 271.154 97.6482 270.903 98.9938C269.198 99.0593 267.491 98.9825 265.794 98.811C264.03 98.619 262.276 98.3165 260.549 97.8853C260.497 97.8694 260.443 97.9011 260.429 97.9507C260.42 97.9778 260.424 98.0049 260.436 98.0275C260.447 98.0501 260.467 98.0681 260.494 98.0772C260.533 98.0885 260.576 98.0997 260.614 98.111C262.285 98.6281 264.003 99.0142 265.746 99.2422C267.525 99.4905 269.329 99.5583 271.126 99.5064ZM214.293 226.465H215.977C216.095 215.099 225.101 205.901 236.334 205.42C236.14 205.413 235.95 205.402 235.756 205.399C224.015 205.3 214.415 214.726 214.293 226.465ZM261.79 121.141C261.617 120.788 261.45 120.436 261.298 120.075C261.14 119.716 261.005 119.35 260.869 118.982C260.745 118.607 260.571 118.239 260.741 117.968L260.743 117.959C260.765 117.923 260.765 117.88 260.741 117.846C260.711 117.801 260.653 117.797 260.61 117.822C260.605 117.824 260.601 117.822 260.601 117.824C260.578 117.837 260.569 117.858 260.551 117.874C260.506 117.916 260.472 117.964 260.443 118.014C260.368 118.16 260.343 118.332 260.343 118.476C260.354 118.704 260.404 118.903 260.443 119.102C260.528 119.506 260.657 119.899 260.813 120.28C260.975 120.657 261.158 121.028 261.384 121.371C261.61 121.716 261.858 122.046 262.152 122.333C262.188 122.369 262.247 122.38 262.294 122.355C262.35 122.324 262.373 122.249 262.344 122.19C262.158 121.836 261.967 121.491 261.79 121.141ZM227.804 130.093C228.296 130.533 228.65 131.07 228.865 131.651C229.319 131.348 229.773 131.046 230.229 130.748L230.233 128.253C228.793 128.307 227.352 128.352 225.912 128.397L227.804 130.093ZM259.598 187.007L261.452 191.81H208.416L210.27 187.007H243.803L241.208 156.489C240.761 151.228 238.16 146.297 234.069 142.958L233.505 142.497C233.457 142.793 233.403 143.084 233.342 143.378C233.326 143.443 233.263 143.482 233.2 143.47C233.137 143.454 233.098 143.4 233.107 143.337V143.332L233.234 142.276L233.134 142.195L226.842 137.058L226.817 137.09C225.368 138.709 222.88 138.844 221.263 137.392L214.553 131.38C212.934 129.932 212.796 127.444 214.248 125.826L215.539 124.383C216.991 122.766 219.477 122.628 221.096 124.08L225.44 127.973C227.117 127.887 228.797 127.808 230.477 127.738C230.615 127.733 230.732 127.842 230.739 127.979V127.991L230.748 130.887C230.748 130.976 230.701 131.057 230.633 131.104C230.095 131.465 229.556 131.82 229.016 132.172C229.231 133.139 229.079 134.173 228.549 135.053L233.365 138.982C233.36 138.88 233.358 138.781 233.353 138.681C233.333 138.162 233.333 137.645 233.272 137.128C233.132 135.055 232.785 133.001 232.385 130.962C232.001 128.916 231.482 126.898 230.933 124.889C230.662 123.884 230.364 122.884 230.055 121.888C229.755 120.892 229.438 119.897 229.093 118.914C229.073 118.862 229.098 118.804 229.149 118.786C229.201 118.768 229.258 118.792 229.28 118.84C230.073 120.779 230.752 122.759 231.36 124.764C231.773 126.144 232.146 127.535 232.475 128.937C232.534 128.625 232.586 128.311 232.617 127.998C232.685 127.395 232.744 126.792 232.757 126.182C232.807 124.97 232.762 123.748 232.667 122.527V122.522C232.663 122.468 232.708 122.418 232.76 122.414C232.809 122.409 232.852 122.441 232.866 122.486C233.042 123.091 233.143 123.705 233.211 124.329C233.283 124.949 233.299 125.575 233.283 126.203C233.247 127.359 233.049 128.524 232.631 129.607C232.724 130.025 232.816 130.44 232.9 130.858C233.286 132.92 233.638 134.994 233.735 137.096C233.771 137.837 233.789 138.578 233.776 139.32L235.045 140.357L235.735 140.919C240.375 144.703 243.326 150.298 243.834 156.265L246.446 187.007H259.598ZM202.399 128.21C202.392 128.068 202.275 127.959 202.137 127.966L194.307 128.248C191.695 128.345 189.087 128.472 186.479 128.591C186.414 128.594 186.362 128.648 186.364 128.711C186.364 128.779 186.421 128.831 186.486 128.831C189.098 128.785 191.708 128.749 194.318 128.682L201.891 128.481L201.884 130.957C200.383 131.736 198.89 132.527 197.382 133.283L196.213 133.861C196.018 133.956 195.824 134.046 195.63 134.132C195.538 134.175 195.422 134.211 195.407 134.225C195.346 134.225 195.255 134.202 195.14 134.179C194.298 134.015 193.445 133.811 192.598 133.622C190.9 133.233 189.204 132.831 187.529 132.371C187.111 132.258 186.692 132.143 186.283 132.007C186.177 131.978 186.08 131.94 185.983 131.904C185.879 131.867 185.786 131.827 185.725 131.788C185.585 131.705 185.486 131.497 185.387 131.319C185.009 130.551 184.734 129.718 184.472 128.894V128.892C184.454 128.84 184.4 128.81 184.348 128.824C184.294 128.84 184.262 128.896 184.278 128.948C184.517 129.792 184.763 130.63 185.134 131.441C185.238 131.637 185.317 131.863 185.538 132.025C185.655 132.109 185.764 132.152 185.865 132.193C185.967 132.235 186.073 132.281 186.177 132.314C186.594 132.461 187.01 132.594 187.43 132.719C189.107 133.211 190.798 133.644 192.494 134.064C193.343 134.274 194.185 134.475 195.05 134.654C195.152 134.674 195.276 134.708 195.427 134.708C195.628 134.672 195.711 134.62 195.82 134.579C196.028 134.489 196.226 134.398 196.423 134.304L197.603 133.73C199.168 132.951 200.722 132.161 202.266 131.348C202.347 131.303 202.406 131.215 202.406 131.116L202.399 128.219V128.21ZM258.474 122.498C258.494 122.54 258.541 122.57 258.591 122.568C258.659 122.563 258.709 122.502 258.704 122.437C258.686 122.116 258.668 121.802 258.681 121.493C258.695 121.181 258.718 120.874 258.772 120.572C258.817 120.267 258.894 119.969 258.979 119.666C259 119.596 259.027 119.526 259.049 119.456C259.128 119.23 259.212 119.005 259.305 118.777C259.323 118.741 259.314 118.695 259.282 118.664C259.244 118.625 259.178 118.625 259.138 118.666C258.9 118.908 258.713 119.197 258.566 119.506C258.453 119.732 258.379 119.973 258.318 120.215C258.295 120.303 258.268 120.393 258.252 120.484C258.196 120.822 258.176 121.17 258.216 121.509C258.252 121.85 258.329 122.188 258.474 122.498ZM221.146 107.786L221.15 107.788C221.97 108.127 222.764 108.547 223.507 109.023C224.25 109.506 224.954 110.044 225.573 110.671C226.217 111.269 226.738 111.983 227.185 112.737L227.506 113.313L227.761 113.92C227.96 114.318 228.032 114.758 228.19 115.178L228.197 115.194C228.217 115.248 228.271 115.279 228.328 115.27C228.391 115.259 228.436 115.198 228.425 115.135C228.273 114.236 228.048 113.322 227.592 112.514C227.163 111.694 226.603 110.94 225.941 110.296C225.273 109.662 224.537 109.095 223.74 108.644C223.435 108.474 223.128 108.319 222.812 108.174C222.295 107.939 221.762 107.736 221.207 107.596C221.159 107.585 221.109 107.607 221.089 107.655C221.087 107.657 221.091 107.662 221.089 107.666C221.076 107.713 221.098 107.765 221.146 107.786ZM155.936 173.246C155.934 173.113 155.897 172.986 155.848 172.865C155.769 172.677 155.651 172.506 155.518 172.375C155.051 171.941 154.529 171.718 153.992 171.487C153.45 171.277 152.883 171.131 152.31 171.065C151.827 171.011 151.341 171.009 150.865 171.063C150.77 171.074 150.677 171.085 150.585 171.101C150.531 171.11 150.488 171.155 150.485 171.214C150.483 171.28 150.533 171.336 150.598 171.338C150.842 171.347 151.084 171.37 151.321 171.392C152.177 171.485 153.01 171.67 153.8 171.977C154.297 172.174 154.827 172.406 155.216 172.702C155.407 172.858 155.55 173.047 155.584 173.275C155.59 173.305 155.588 173.336 155.59 173.366C155.599 173.508 155.572 173.65 155.498 173.765C155.466 173.815 155.426 173.858 155.378 173.894L155.374 173.896C155.369 173.901 155.369 173.908 155.365 173.912C154.936 173.783 154.502 173.682 154.06 173.61C153.47 173.515 152.876 173.472 152.283 173.461C151.687 173.456 151.088 173.483 150.499 173.564C149.91 173.639 149.323 173.754 148.756 173.937C148.713 173.953 148.681 173.996 148.686 174.043C148.693 174.1 148.742 174.14 148.797 174.133C149.381 174.079 149.957 174.032 150.537 174.007C151.115 173.987 151.696 173.973 152.271 173.989C152.852 173.996 153.427 174.03 154.005 174.072C154.581 174.118 155.157 174.19 155.733 174.271C155.751 174.271 155.764 174.264 155.78 174.262C155.816 174.251 155.85 174.23 155.864 174.192C155.886 174.129 155.855 174.061 155.794 174.039C155.737 174.018 155.681 174.007 155.624 173.989C155.617 173.987 155.613 173.984 155.606 173.984C155.611 173.98 155.615 173.98 155.615 173.975C155.834 173.804 155.943 173.515 155.936 173.246ZM176.464 127.553L176.461 127.562C176.448 127.623 176.484 127.686 176.547 127.704C176.608 127.72 176.674 127.686 176.692 127.62C177.272 125.613 177.398 123.514 177.249 121.436C177.051 119.357 176.61 117.318 175.682 115.388C175.129 114.457 174.391 113.703 173.635 112.988C172.867 112.281 172.052 111.642 171.214 111.03C169.535 109.822 167.776 108.736 165.951 107.763C165.904 107.738 165.845 107.754 165.818 107.802C165.789 107.849 165.807 107.912 165.854 107.939C167.609 109.003 169.313 110.156 170.95 111.387C172.544 112.64 174.197 113.952 175.224 115.647C175.326 115.869 175.461 116.065 175.543 116.307L175.804 117.025C175.981 117.496 176.105 117.991 176.249 118.479C176.5 119.465 176.667 120.468 176.784 121.479C176.884 122.491 176.913 123.511 176.861 124.527C176.816 125.543 176.705 126.571 176.464 127.553ZM272.488 86.8288C272.465 86.8582 272.456 86.8988 272.47 86.9372C272.49 87.0049 272.56 87.041 272.626 87.0207C272.822 86.9598 272.994 86.8491 273.152 86.7204C273.31 86.5895 273.438 86.4292 273.549 86.2576C273.628 86.1244 273.691 85.9821 273.741 85.8331C273.755 85.788 273.773 85.7451 273.786 85.6977C273.834 85.5012 273.856 85.2958 273.822 85.0948C273.822 85.088 273.815 85.0835 273.811 85.0768C273.802 85.0542 273.793 85.0316 273.77 85.0203C273.721 84.991 273.653 85.009 273.626 85.0587V85.0632C273.621 85.0677 273.619 85.0722 273.617 85.0768C273.529 85.2371 273.454 85.3928 273.368 85.5396C273.28 85.6864 273.199 85.8354 273.104 85.9776C273.014 86.1221 272.912 86.2553 272.813 86.3976C272.711 86.5376 272.601 86.673 272.49 86.8243L272.488 86.8288ZM266.265 87.461C266.164 87.2646 266.055 87.0681 265.918 86.8853C265.895 86.8582 265.864 86.8424 265.825 86.8424C265.769 86.8469 265.724 86.8988 265.728 86.9575C265.746 87.1855 265.796 87.4023 265.85 87.619C265.9 87.8335 265.974 88.0435 266.046 88.2512C266.125 88.4567 266.207 88.6621 266.311 88.8608C266.408 89.0595 266.514 89.2537 266.649 89.4388C266.674 89.4704 266.715 89.4908 266.76 89.4885C266.83 89.484 266.877 89.423 266.873 89.353C266.855 89.125 266.803 88.9105 266.744 88.6938C266.69 88.4793 266.615 88.2715 266.539 88.0661C266.453 87.8606 266.372 87.6574 266.265 87.461ZM271.797 67.9333C271.905 68.8951 271.966 69.8592 271.905 70.8233C271.901 70.8842 271.942 70.9384 272 70.9497C272.066 70.961 272.129 70.9181 272.14 70.8549C272.33 69.8773 272.325 68.8725 272.26 67.8904C272.194 66.906 272.052 65.9351 271.971 64.9688C271.862 64.0092 271.829 63.0452 271.903 62.0901C271.978 61.1396 272.194 60.1981 272.621 59.3311C272.641 59.2859 272.628 59.234 272.587 59.2046C272.54 59.173 272.477 59.1866 272.447 59.2317C271.887 60.0626 271.592 61.0538 271.461 62.0427C271.327 63.0361 271.366 64.0363 271.447 65.0207C271.551 66.0029 271.689 66.9692 271.797 67.9333ZM177.105 135.012C176.64 135.76 176.161 136.491 175.649 137.2C175.132 137.907 174.61 138.609 174.05 139.284C173.506 139.973 172.932 140.637 172.361 141.305C172.072 141.637 171.777 141.967 171.481 142.296L174.118 136.753C174.992 134.902 175.847 133.039 176.687 131.167C176.712 131.111 176.687 131.041 176.633 131.014C176.572 130.982 176.5 131.005 176.473 131.064C175.531 132.886 174.608 134.717 173.7 136.552L171.004 142.077L168.372 147.631C167.502 149.49 166.651 151.352 165.811 153.222C165.791 153.271 165.809 153.33 165.857 153.355C165.857 153.355 165.857 153.355 165.859 153.355C165.879 153.364 165.904 153.364 165.927 153.362C165.956 153.353 165.978 153.339 165.994 153.312C166.936 151.49 167.861 149.661 168.771 147.826L171.068 143.145C171.63 142.653 172.167 142.138 172.689 141.605C173.307 140.969 173.885 140.293 174.459 139.616C175.012 138.921 175.545 138.207 176.035 137.464C176.516 136.715 176.958 135.938 177.317 135.123C177.34 135.069 177.322 135.003 177.27 134.97C177.211 134.936 177.137 134.956 177.105 135.012ZM261.156 68.8974C261.447 69.805 261.684 70.7262 261.858 71.6609C261.876 71.7399 261.93 71.8122 262.014 71.8438C262.689 72.1147 263.312 72.4963 263.899 72.9298C264.479 73.3678 265.01 73.8803 265.48 74.4448C266.423 75.5646 267.139 76.8855 267.555 78.3101C267.57 78.3688 267.631 78.4072 267.69 78.3937C267.756 78.3824 267.798 78.3214 267.785 78.2537C267.505 76.7545 266.812 75.3366 265.859 74.1332C265.374 73.5349 264.825 72.9908 264.211 72.5189C263.64 72.0696 262.996 71.7106 262.319 71.4351C262.131 70.523 261.874 69.6266 261.54 68.7619C261.194 67.8497 260.77 66.9737 260.273 66.1406C260.246 66.0977 260.192 66.0774 260.145 66.1C260.095 66.1225 260.072 66.1857 260.097 66.2354C260.506 67.1024 260.858 67.9897 261.156 68.8974ZM265.726 65.4226C266.566 66.0638 267.385 66.7276 268.155 67.4456C268.941 68.15 269.681 68.9019 270.395 69.6786C271.106 70.453 271.781 71.2681 272.436 72.1012C272.472 72.1486 272.54 72.1621 272.589 72.1283C272.648 72.0944 272.666 72.0222 272.632 71.9657C272.072 71.0536 271.434 70.1888 270.745 69.3692C270.052 68.5497 269.295 67.7865 268.507 67.0573C268.392 66.9557 268.27 66.8586 268.153 66.7592C268.336 65.8968 268.492 65.032 268.645 64.165C268.808 63.2167 268.948 62.264 269.097 61.3112L269.494 58.4618C269.571 58.0057 269.702 57.5587 269.959 57.2042C270.21 56.843 270.603 56.5653 271.047 56.5337C271.097 56.5291 271.138 56.4908 271.142 56.4388C271.147 56.3846 271.104 56.335 271.05 56.3305C270.515 56.2921 270.016 56.5946 269.681 56.9852C269.341 57.3916 269.171 57.8906 269.058 58.3738C268.86 59.3401 268.742 60.2793 268.577 61.2367C268.446 62.1872 268.302 63.14 268.182 64.095C268.081 64.9146 267.988 65.7319 267.911 66.5538C267.29 66.03 266.656 65.522 265.988 65.0636C265.827 64.953 265.665 64.8469 265.502 64.7408C265.764 63.5667 265.979 62.3836 266.164 61.196C266.358 59.952 266.5 58.7011 266.631 57.4481C266.735 56.1927 266.828 54.9374 266.866 53.6821C266.907 52.4222 266.916 51.1624 266.873 49.907C266.871 49.8573 266.83 49.8144 266.778 49.8099C266.721 49.8054 266.674 49.8483 266.67 49.9048L266.423 53.6572C266.329 54.908 266.241 56.1543 266.107 57.3984C265.999 58.647 265.85 59.891 265.701 61.1328L265.267 64.5872C264.608 64.165 263.929 63.7767 263.226 63.4335C263.181 63.4087 263.125 63.4245 263.098 63.4674C263.068 63.5125 263.08 63.5757 263.127 63.6051C264.017 64.1853 264.888 64.7837 265.726 65.4226ZM210.1 116.027C209.45 116.027 208.922 116.553 208.922 117.205C208.922 117.632 209.152 118.002 209.491 118.208C209.669 118.318 209.877 118.384 210.1 118.384C210.751 118.384 211.279 117.855 211.279 117.205C211.279 116.964 211.207 116.74 211.083 116.553C210.87 116.237 210.509 116.027 210.1 116.027ZM193.975 86.0047C193.02 84.6704 192.309 83.1621 191.88 81.5614C191.866 81.5117 191.817 81.4801 191.767 81.4869C191.711 81.4981 191.672 81.5501 191.684 81.6043C191.979 83.2637 192.634 84.8645 193.585 86.2757C194.531 87.6913 195.788 88.8857 197.172 89.8497C198.556 90.8274 200.087 91.6086 201.715 92.0805C203.334 92.5839 205.036 92.7578 206.714 92.7284C206.777 92.7262 206.829 92.6743 206.831 92.611C206.833 92.5456 206.779 92.4914 206.714 92.4914C205.056 92.4349 203.411 92.1775 201.846 91.6605C200.286 91.148 198.805 90.3939 197.473 89.4321C196.138 88.4657 194.91 87.3571 193.975 86.0047ZM201.351 69.9879C200.884 70.0172 200.539 70.5501 200.579 71.1732C200.62 71.7964 201.035 72.275 201.503 72.2434C201.97 72.2118 202.315 71.6835 202.275 71.0603C202.234 70.4372 201.821 69.9563 201.351 69.9879ZM201.708 66.7028C201.528 66.5831 201.36 66.4318 201.148 66.3483C200.753 66.1338 200.261 66.0729 199.807 66.1519C199.353 66.2377 198.938 66.4477 198.601 66.7276C198.263 67.0098 197.978 67.3327 197.777 67.7211C197.759 67.7572 197.762 67.8046 197.795 67.8385C197.834 67.8768 197.899 67.8768 197.938 67.8385L197.944 67.8339C198.227 67.554 198.538 67.2943 198.863 67.0889C199.193 66.8857 199.538 66.7276 199.895 66.6712C200.252 66.608 200.618 66.6418 200.97 66.7796C201.327 66.8924 201.649 67.1205 201.99 67.3395L202.004 67.3485C202.047 67.3756 202.106 67.3734 202.146 67.3372C202.196 67.2943 202.2 67.2176 202.157 67.1679C202.017 67.0098 201.871 66.8518 201.708 66.7028ZM181.492 52.9957C181.492 52.9957 174.998 52.0497 173.524 60.898C172.75 65.54 174.635 68.1252 176.362 69.4799C175.084 63.8805 175.296 57.2584 181.492 52.9957ZM188.067 89.186C185.698 95.2978 179.717 100.574 173.734 101.669C166.254 103.04 161.619 98.5084 161.619 98.5084C161.619 98.5084 164.147 98.0885 168.57 94.7921C172.996 91.4957 169.309 78.7007 167.624 73.0133C167.024 70.9903 166.281 68.1816 165.933 65.1517C165.303 59.6585 165.976 53.4337 171.205 49.837C173.684 48.1301 176.017 47.6831 178.058 47.884C178.67 47.945 179.259 48.0714 179.83 48.2498C181.643 48.8097 183.212 49.9251 184.377 51.3904C185.797 50.7537 187.423 50.2028 189.29 49.767C210.924 44.7096 212.056 63.7947 212.056 63.7947C212.101 64.4405 208.466 60.0897 208.466 60.0897C208.466 60.0897 209.238 61.7063 207.341 62.4784C205.713 63.1422 202.356 61.2141 202.356 61.2141C202.356 61.2141 202.496 63.6706 198.94 63.2506C195.384 62.8284 189.29 60.0197 189.29 60.0197C189.29 60.0197 191.609 64.095 191.889 68.3081C192.031 70.4372 191.636 72.4195 191.209 73.8645C191.191 73.9277 191.157 73.9819 191.13 74.0361C191.498 74.2348 191.844 74.4719 192.149 74.7564C192.684 75.2486 193.119 75.8491 193.37 76.5287C193.395 76.5897 193.361 76.6597 193.3 76.6823C193.244 76.7026 193.183 76.6777 193.153 76.6281C192.815 76.0388 192.368 75.5217 191.848 75.1018C191.598 74.9009 191.331 74.7202 191.056 74.5644C191.3 74.9483 191.494 75.3614 191.618 75.7949C191.833 76.5761 191.846 77.4183 191.605 78.1814C191.586 78.2311 191.53 78.2627 191.478 78.2447C191.431 78.2289 191.401 78.1814 191.408 78.134C191.507 77.3844 191.431 76.6236 191.185 75.9304C191.006 75.4066 190.735 74.9212 190.385 74.5012C190.051 74.517 189.712 74.359 189.539 74.0045C188.911 72.7243 187.906 71.3629 186.482 71.399C183.756 71.4713 182.268 73.0856 184.375 76.5965C185.251 78.055 188.096 79.5474 188.098 79.5474L188.096 79.649C188.252 79.7032 188.41 79.7596 188.568 79.8071C188.834 79.8906 189.103 79.9583 189.376 80.0328L190.209 80.2338C190.272 80.2496 190.313 80.3151 190.297 80.3805C190.286 80.4302 190.245 80.4641 190.198 80.4708C189.9 80.5228 189.595 80.5205 189.297 80.4934C188.994 80.4663 188.699 80.3986 188.41 80.306C188.304 80.2722 188.2 80.2315 188.096 80.1886L188.067 89.186ZM211.383 67.3327C211.419 67.3553 211.469 67.353 211.502 67.3259C211.543 67.2876 211.548 67.2243 211.514 67.1837C211.374 67.0211 211.229 66.8631 211.069 66.7163C210.888 66.5944 210.724 66.4431 210.511 66.3596C210.118 66.1429 209.629 66.0751 209.175 66.1519C208.719 66.2332 208.303 66.4409 207.962 66.7186C207.624 66.9986 207.335 67.3214 207.129 67.7075C207.104 67.7527 207.111 67.8114 207.152 67.8497C207.197 67.8972 207.271 67.8972 207.319 67.8497L207.326 67.8452C207.606 67.5653 207.915 67.3034 208.238 67.0956C208.563 66.8924 208.906 66.7321 209.263 66.6712C209.619 66.6034 209.988 66.6373 210.34 66.7683C210.703 66.8789 211.026 67.1069 211.372 67.3259L211.383 67.3327Z" fill="#1D1B19"/>
</g>
</svg>
