<svg width="11" height="11" viewBox="0 0 11 11" fill="none" xmlns="http://www.w3.org/2000/svg">
<path fill-rule="evenodd" clip-rule="evenodd" d="M5.95807 7.67851V6.41665H4.04115C3.30015 6.41665 2.6719 6.96153 2.5671 7.69509C2.42825 8.66704 3.25161 9.50496 4.22584 9.38318L4.48142 9.35123C5.32501 9.24578 5.95807 8.52867 5.95807 7.67851Z" fill="#222222"/>
<path d="M5.95807 3.66665V3.38638C5.95807 2.64464 5.95807 2.27377 6.1753 2.01734C6.39253 1.76091 6.75836 1.69994 7.49001 1.578L8.57016 1.39797C8.63241 1.38759 8.66354 1.38241 8.68033 1.4006C8.69712 1.41879 8.68947 1.4494 8.67416 1.51062L8.26381 3.15204C8.25697 3.17939 8.25355 3.19307 8.24394 3.20223C8.23432 3.2114 8.2205 3.21417 8.19285 3.21969L5.95807 3.66665ZM5.95807 3.66665V6.41665M5.95807 6.41665V7.67851C5.95807 8.52867 5.32501 9.24578 4.48142 9.35123L4.22584 9.38318C3.25161 9.50496 2.42826 8.66704 2.5671 7.69509C2.6719 6.96153 3.30015 6.41665 4.04115 6.41665H5.95807Z" stroke="#222222" stroke-width="2"/>
</svg>
