<svg width="671" height="167" viewBox="0 0 892 221" fill="none" xmlns="http://www.w3.org/2000/svg">
<path d="M73.2782 137.484C76.5177 126.989 80.7365 113.167 77.3042 109.598C76.1584 108.747 72.6323 108.985 71.1063 109.406C59.5959 112.565 57.1219 119.506 53.7677 128.573C37.8146 129.317 26.6636 144.025 25.4552 156.874C24.9292 160.221 28.7834 161.633 32.1115 160.722C35.5802 159.77 39.0125 157.664 41.4969 154.358C42.1636 148.936 44.4657 141.903 45.8511 141.519C50.2886 140.304 59.5698 153.183 64.7834 171.111C60.9448 169.253 57.5229 168.301 52.3927 169.708C37.2782 173.86 30.4396 183.302 35.2573 199.882C39.0177 212.823 47.9657 219.394 61.5542 215.663C74.7313 212.043 76.6375 202.641 76.9136 202.565C94.1115 197.842 95.1011 191.458 88.5229 168.812C85.7417 159.243 81.5282 151.958 73.2782 137.484ZM66.1167 207.132C61.1219 208.504 56.2625 198.485 54.5802 192.688C53.4448 188.78 51.2729 180.785 51.4084 180.75C52.6584 180.406 57.174 186.152 61.7469 191.589C65.3146 196.141 69.0229 200.657 72.6427 202.282C70.7886 205.704 67.3615 206.788 66.1167 207.132Z" fill="#FF8C22" fill-opacity="0.4"/>
<path d="M40.336 93.6909C34.1433 93.5036 28.6173 93.5644 22.7944 95.1642C13.6433 97.6753 4.13291 106.692 6.83603 115.992C9.85166 126.371 24.7267 123.45 36.5131 120.215C48.2996 116.98 68.9506 103.011 64.6381 88.1827C61.4662 77.2673 59.2892 70.2959 49.7267 71.9008C37.1069 75.3688 38.3881 82.8718 40.336 93.6909ZM28.4975 114.266C24.8881 115.253 23.034 113 22.6069 111.517C21.4715 107.608 23.1017 103.953 26.8465 102.925C28.7892 102.394 36.5496 102.303 40.0027 105.426C37.9506 109.193 32.3777 113.198 28.4975 114.266Z" fill="#FF8C22" fill-opacity="0.4"/>
<path d="M136.665 183.724C136.264 185.694 132.827 192.123 131.452 189.567C125.936 174.004 122.139 158.178 117.863 141.025C115.045 129.725 110.837 118.182 104.254 119.731C90.811 122.895 93.2537 136.879 96.1756 148.584C102.113 172.409 107.769 206.385 126.535 201.965C136.478 199.621 150.061 191.668 147.243 180.368C146.905 179.006 145.165 177.973 142.228 178.667C138.582 179.527 137.624 181.623 137.019 183.355L136.665 183.724Z" fill="#FF8C22" fill-opacity="0.4"/>
<path d="M183.51 113.192C187.551 102.96 192.822 89.4884 189.676 85.6761C188.598 84.7446 185.067 84.7294 183.515 85.0331C171.791 87.3468 168.791 94.0853 164.744 102.889C148.775 102.464 136.525 116.316 134.327 129.039C133.546 132.34 137.281 134.031 140.671 133.362C144.202 132.669 147.786 130.816 150.515 127.707C151.603 122.346 154.437 115.496 155.848 115.217C160.369 114.326 168.635 127.849 172.442 146.105C168.765 143.974 165.426 142.774 160.202 143.802C144.807 146.839 137.26 155.76 140.786 172.644C143.536 185.823 151.952 193.027 165.791 190.293C179.208 187.65 181.838 178.411 182.119 178.355C199.63 174.902 201.109 168.604 196.296 145.543C194.26 135.797 190.619 128.229 183.51 113.192ZM170.994 182.122C165.911 183.124 161.838 172.781 160.609 166.878C159.775 162.898 158.228 154.768 158.369 154.742C159.64 154.489 163.697 160.549 167.838 166.306C171.046 171.105 174.395 175.879 177.88 177.763C175.765 181.038 172.265 181.874 170.994 182.122Z" fill="#FF8C22" fill-opacity="0.4"/>
<path d="M133.232 63.226C128.258 63.3475 123.706 63.388 118.763 64.3651C105.493 66.9825 100.399 74.9918 102.263 83.9124C105.701 100.387 120.93 98.6653 134.909 95.9111C148.039 93.319 161.3 85.6995 158.206 70.8758C155.539 58.1075 153.946 53.2776 141.941 55.647C136.149 56.7861 136.013 57.5304 133.232 63.226ZM126.68 74.8096C128.513 74.445 135.102 75.0019 138.503 77.908C137.831 80.328 134.592 84.5351 128.659 85.7097C128.154 85.3806 122.055 87.1526 120.961 81.9379C119.873 76.7233 125.831 74.9766 126.68 74.8096ZM179.821 69.4683L179.42 67.5496C178.357 61.7527 177.034 53.2979 167.998 55.08C158.394 56.9735 160.055 64.2233 161.513 71.2251L161.972 73.4173C163.003 78.3585 164.55 85.7755 172.883 84.1301C182.066 82.3176 181.571 77.8421 179.821 69.4683Z" fill="#FF8C22" fill-opacity="0.4"/>
<path d="M138.456 13.6006C131.394 14.9928 122.404 22.6275 123.779 29.2141C124.868 34.4288 131.196 33.7554 134.868 33.0314C138.112 32.3885 139.607 30.3786 140.477 28.2066C140.717 32.1606 139.795 36.2007 140.68 40.4585C142.112 47.3236 152.987 45.177 157.368 44.3113C167.816 42.2507 186.013 21.6554 190.013 7.71764C185.232 5.94061 179.352 5.96086 176.388 6.54308C170.034 7.79865 162.545 16.9926 156.941 23.959C153.045 15.1498 148.763 11.5653 138.456 13.6006Z" fill="#FF8C22" fill-opacity="0.4"/>
<path d="M225.492 92.5374C216.659 93.8638 202.127 98.7393 197.487 108.085C198.018 111.406 201.586 111.862 206.143 111.178C213.549 110.065 219.607 105.042 224.445 104.318C227.721 103.827 232.471 108.92 235.232 113.467L231.388 114.044C213.018 116.803 202.539 127.025 206.039 149.038C209.122 168.413 223.638 180.832 244.43 177.708C267.638 174.225 268.18 145.509 266.044 132.083C262.653 110.768 251.976 88.5581 225.492 92.5374ZM224.565 143.56C222.778 132.346 225.862 122.387 238.778 120.165C241.377 126.433 243.935 132.427 245.101 139.768C246.2 146.689 246.94 169.679 238.888 171.314C232.747 172.094 226.19 153.802 224.565 143.56Z" fill="#FF8C22" fill-opacity="0.4"/>
<path d="M328.97 43.2863C328.314 41.2409 325.069 40.7296 323.35 40.9017C309.449 42.3244 308.668 52.541 309.809 63.1272C312.199 85.2768 314.376 106.748 316.262 128.244C316.944 135.92 317.355 143.767 318.204 152.976C316.642 153.275 314.652 153.619 314.079 153.675C303.902 154.713 302.21 148.409 300.647 133.92C299.564 123.89 299.361 120.671 298.986 117.187C297.6 104.374 293.564 91.1243 282.381 92.2634C278.517 92.6583 264.855 98.9817 265.517 105.113C267.21 108.743 270.168 106.606 273.527 104.151C275.126 102.865 276.725 101.574 277.168 101.67C280.527 101.888 282.126 112.712 282.97 120.514C284.126 131.242 284.35 138.679 285.147 146.065C287.267 165.709 288.387 165.309 315.637 164.079C325.668 163.056 337.439 159.325 337.913 148.992L337.928 149.133C339.517 122.21 337.658 100.992 334.939 75.7791C333.751 64.7726 332.579 53.9079 328.97 43.2863Z" fill="#FF8C22" fill-opacity="0.4"/>
<path d="M380.411 100.994C392.036 97.6373 397.468 89.8761 398.385 74.6625C398.604 71.2806 397.041 69.4124 392.296 69.6959C382.083 70.3035 379.302 76.5003 377.036 81.8263L375.927 84.8437C373.177 84.7222 370.281 84.6159 367.692 84.7678C352.447 85.6791 344.104 93.0504 344.916 105.915C345.416 113.884 349.166 125.305 357.656 124.799C361.968 124.546 365.307 122.521 368.9 122.308C371.921 122.126 373.453 128.07 373.921 135.481C374.229 140.372 374.484 149.06 374.213 151.601C374.025 150.913 373.369 149.688 372.723 148.604C370.614 144.939 367.604 140.63 363.718 140.858C358.255 141.182 353.192 143.308 353.552 149.045C353.999 156.173 362.312 164.38 370.796 163.873C387.916 162.856 394.114 151.257 393.156 136.018C392.546 126.374 388.312 111.889 376.661 112.583C373.499 112.77 369.775 113.276 366.619 113.6C364.166 108.978 364.473 104.75 364.619 100.108C369.765 101.627 375.552 101.844 380.411 100.994Z" fill="#FF8C22" fill-opacity="0.4"/>
<path d="M409.753 144.677C409.034 144.692 402.867 145.958 402.925 148.201C403.154 157.44 412.107 158.068 421.331 157.85C430.117 157.643 436.784 153.421 440.211 146.333C443.222 140.095 447.602 130.744 447.414 123.322C447.305 118.984 442.263 119.1 438.373 119.196C432.899 119.323 428.617 121.11 426.44 126.203C423.32 133.985 420.492 141.756 416.32 147.882C413.227 145.153 412.06 144.622 409.753 144.677ZM408.68 101.968C407.956 101.983 401.794 103.249 401.857 105.912C402.102 115.571 410.607 115.652 420.982 115.404C438.555 114.989 444.128 95.938 446.784 81.1649C446.654 75.9806 441.758 76.2388 437.727 76.335C428.216 76.5628 424.69 85.3315 421.305 93.9585C419.544 98.4846 417.784 102.869 415.69 105.583C412.3 102.58 410.982 101.912 408.68 101.968Z" fill="#FF8C22" fill-opacity="0.4"/>
<path d="M483.419 140.975C485.727 153.106 486.331 156.493 494.393 156.766C506.924 157.186 506.721 146.666 507.049 137.426C507.622 121.469 508.326 77.4833 484.273 76.6732C470.883 76.2226 456.753 84.2977 453.133 96.7876C454.904 99.648 457.076 99.4455 459.523 99.5265C467.159 99.7847 471.789 95.1725 477.904 89.4921L481.336 86.2469C485.497 90.8692 487.753 104.402 488.56 114.239C485.372 110.487 481.279 108.108 476.383 107.941C470.477 107.743 461.201 109.11 459.034 117.307C460.419 118.897 463.576 119.286 465.164 119.337C468.904 119.464 472.029 116.765 473.695 114.578C477.862 114.998 480.945 129.539 483.419 140.975Z" fill="#FF8C22" fill-opacity="0.4"/>
<path d="M486.71 24.6198C473.028 24.1591 464.585 34.5226 464.028 41.9345C463.622 53.4117 471.7 61.3957 486.965 61.907C490.278 62.0184 507.799 59.9478 508.424 42.3091C508.918 28.4523 496.481 25.5109 486.851 24.6249L486.71 24.6198ZM486.892 35.5554C488.913 35.6263 489.507 39.1499 489.444 40.8308C489.382 42.6483 488.465 48.0857 484.58 47.9541C482.564 47.8832 482.434 43.3976 482.507 41.2966C482.606 38.6335 483.439 35.4389 486.892 35.5554Z" fill="#FF8C22" fill-opacity="0.4"/>
<path d="M542.002 87.312C543.439 87.3576 543.08 101.503 542.83 108.5C542.294 123.622 540.455 138.694 541.627 154.434C542.335 162.864 547.955 162.914 552.564 163.071C568.403 163.603 567.012 154.166 567.814 131.631C569.023 97.7514 567.835 78.5129 545.08 77.7434C533.419 77.3485 516.023 83.9098 515.57 96.6528C515.403 101.412 521.887 101.488 526.205 101.635C537.439 102.014 540.273 87.2513 542.002 87.312Z" fill="#FF8C22" fill-opacity="0.4"/>
<path d="M620.264 149.717C625.337 142.31 628.061 132.291 628.925 123.507C630.113 111.519 627.404 84.6709 612.774 83.304C596.566 81.7953 579.904 92.1992 575.118 106.952C574.285 109.549 576.472 112.283 579.774 112.592C588.951 113.448 595.925 104.39 600.936 99.0897C604.482 99.8389 603.337 117.321 602.482 125.968C601.743 133.496 597.566 156.749 592.113 156.238C588.816 155.929 587.107 152.679 582.738 145.657C574.628 147.15 571.503 147.986 571.092 152.168C570.456 158.582 576.66 163.24 583.54 163.883C597.17 165.154 613.285 161.731 620.264 149.717Z" fill="#FF8C22" fill-opacity="0.4"/>
<path d="M631.715 62.9772C639.486 56.107 661.98 37.9418 639.605 35.856C635.158 35.4408 630.428 36.4078 626.772 39.7239C621.475 44.9993 613.949 52.315 610.934 54.9932C611.47 49.5558 609.381 44.2956 602.642 43.6628C597.194 43.1565 593.288 46.0271 592.475 54.2541C591.267 66.5262 603.246 68.3437 612.855 69.2398C620.314 69.9385 626.501 67.4172 631.715 62.9772Z" fill="#FF8C22" fill-opacity="0.4"/>
<path d="M648.56 161.826C656.363 163.198 664.295 158.783 670.331 155.381L670.185 155.36L670.347 155.239C670.31 155.517 670.514 156.11 670.613 156.408C671.769 164.352 673.498 173.369 682.201 174.579C693.894 176.209 704.842 169.106 706.232 159.679C707.482 151.219 702.92 144.643 693.529 141.21L695.8 126.806C697.373 116.134 700.399 96.6021 692.555 95.5085C686.993 94.7339 677.269 97.483 676.066 101.7C672.717 116.514 672.217 130.735 670.17 144.602C670.029 145.574 666.587 147.214 661.284 149.589L663.758 132.811C665.435 121.445 668.696 94.4453 656.571 92.7544C650.149 91.8583 630.706 98.3487 637.587 105.958C641.602 106.373 645.149 105.032 647.842 103.563C649.243 108.854 648.628 114.995 647.79 120.681L646.295 130.801C645.519 136.071 641.493 160.413 648.56 161.826ZM692.805 159.927C692.394 162.701 690.925 163.77 689.378 164.403C688.748 160.778 689.076 157.568 689.404 153.371C689.467 152.951 689.67 152.556 690.019 152.181C692.113 153.745 693.337 156.322 692.805 159.927Z" fill="#FF8C22" fill-opacity="0.4"/>
<path d="M740.056 174.275C738.863 175.916 733.025 180.416 732.837 177.536C734.348 161.142 737.535 145.19 740.843 127.835C743.02 116.403 744.025 104.192 737.369 102.992C723.765 100.546 720.124 114.277 717.869 126.123C713.275 150.222 704.155 183.484 723.14 186.902C733.202 188.714 748.947 186.846 751.124 175.414C751.384 174.037 750.228 172.402 747.254 171.87C743.572 171.207 741.811 172.741 740.53 174.078L740.056 174.275Z" fill="#FF8C22" fill-opacity="0.4"/>
<path d="M774.585 191.295C776.299 186.501 777.898 181.539 779.08 176.487C782.33 162.554 784.58 145.958 775.674 132.213C773.716 129.196 772.648 126.806 773.476 123.257C774.434 119.156 780.929 117.288 785.007 118.184C799.341 121.348 798.158 140.334 796.012 158.387C794.2 171.206 791.794 180.871 790.622 190.956C790.158 193.579 789.762 200.965 795.528 202.236C807.049 204.777 811.815 198.93 813.596 191.28C818.924 168.472 828.512 116.007 794.929 108.595C782.981 105.963 760.601 105.618 757.096 120.645C755.981 125.429 757.315 130.461 760.669 135.078C767.096 144.252 764.518 158.479 761.773 170.224L757.913 186.754C757.247 189.625 758.466 195.781 764.648 197.148C770.835 198.51 772.893 195.376 774.585 191.295Z" fill="#FF8C22" fill-opacity="0.4"/>
<path d="M834.118 93.2542C837.05 80.6884 820.29 65.7887 802.3 61.8195C790.92 59.3084 773.123 60.8424 770.191 73.4082C766.842 87.751 784.842 95.4565 797.769 98.3068C804.238 99.7345 810.212 98.1803 816.337 95.3654C819.738 94.1047 821.222 93.4263 822.347 93.6744C825.3 94.3275 832.873 98.5853 834.118 93.2542ZM809.863 82.592C808.519 86.46 790.566 88.6724 791.936 82.7996C793.113 77.747 798.056 73.6664 801.993 74.5321C804.941 75.1852 808.488 78.9823 809.863 82.592Z" fill="#FF8C22" fill-opacity="0.4"/>
<path d="M861.312 193.118C859.572 201.229 857.963 209.375 857.051 217.708C859.234 218.447 861.234 219.288 863.176 219.819C877.192 223.642 880.15 218.052 883.932 204.97L886.661 195.533C893.52 171.799 894.817 138.83 872.062 132.618C851.531 127.014 834.609 136.36 826.505 164.407C821.515 181.671 821.822 196.156 840.963 201.386C849.702 203.77 856.989 199.796 861.312 193.118ZM855.057 153.148C858.176 148.034 862.994 140.182 866.322 141.093C870.208 142.151 869.27 153.679 867.77 163.02C865.968 158.889 861.041 155.218 855.057 153.148ZM854.041 160.286C855.567 160.706 854.473 169.136 853.15 173.723C851.281 180.193 846.145 191.741 844.067 191.174C843.65 191.058 846.307 179.272 848.176 172.801L848.801 170.645C849.989 166.022 851.541 159.608 854.041 160.286Z" fill="#FF8C22" fill-opacity="0.4"/>
<path d="M66.9095 131.294C70.1491 120.798 74.3678 106.977 70.9355 103.408C69.7897 102.557 66.2637 102.795 64.7376 103.215C53.2272 106.375 50.7533 113.316 47.3991 122.383C31.446 123.127 20.2949 137.835 19.0866 150.684C18.5605 154.03 22.4147 155.443 25.7428 154.532C29.2116 153.58 32.6439 151.474 35.1283 148.168C35.7949 142.745 38.097 135.713 39.4824 135.329C43.9199 134.113 53.2012 146.993 58.4147 164.92C54.5762 163.062 51.1543 162.111 46.0241 163.518C30.9095 167.669 24.071 177.111 28.8887 193.692C32.6491 206.632 41.597 213.204 55.1855 209.473C68.3626 205.853 70.2689 196.451 70.5449 196.375C87.7428 191.652 88.7324 185.268 82.1543 162.622C79.3731 153.053 75.1595 145.768 66.9095 131.294ZM59.748 200.942C54.7533 202.314 49.8939 192.295 48.2116 186.498C47.0762 182.589 44.9043 174.595 45.0397 174.56C46.2897 174.216 50.8053 179.962 55.3783 185.399C58.946 189.951 62.6543 194.467 66.2741 196.092C64.4199 199.514 60.9928 200.598 59.748 200.942Z" fill="#FF9E45"/>
<path d="M33.9674 87.4998C27.7747 87.3125 22.2486 87.3732 16.4257 88.973C7.27467 91.4842 -2.23574 100.501 0.467381 109.801C3.48301 120.18 18.358 117.259 30.1445 114.024C41.9309 110.788 62.582 96.8203 58.2695 81.9915C55.0976 71.0762 52.9205 64.1048 43.358 65.7097C30.7382 69.1776 32.0195 76.6807 33.9674 87.4998ZM22.1288 108.075C18.5195 109.062 16.6653 106.809 16.2382 105.326C15.1028 101.417 16.733 97.762 20.4778 96.7342C22.4205 96.2027 30.1809 96.1115 33.634 99.2353C31.582 103.002 26.0091 107.007 22.1288 108.075Z" fill="#FF9E45"/>
<path d="M130.296 177.533C129.895 179.502 126.458 185.932 125.083 183.376C119.567 167.813 115.77 151.986 111.494 134.834C108.677 123.534 104.468 111.991 97.8849 113.54C84.4421 116.704 86.8849 130.687 89.8067 142.392C95.7442 166.218 101.4 200.194 120.166 195.774C130.109 193.43 143.692 185.477 140.874 174.176C140.536 172.815 138.796 171.782 135.859 172.475C132.213 173.336 131.255 175.432 130.65 177.163L130.296 177.533Z" fill="#FF9E45"/>
<path d="M177.141 107.001C181.182 96.7692 186.453 83.2972 183.307 79.4849C182.229 78.5534 178.698 78.5382 177.146 78.842C165.422 81.1557 162.422 87.8942 158.375 96.6983C142.406 96.2731 130.156 110.125 127.959 122.847C127.177 126.148 130.912 127.839 134.302 127.171C137.834 126.477 141.417 124.625 144.146 121.516C145.235 116.155 148.068 109.305 149.479 109.026C154 108.135 162.266 121.658 166.073 139.914C162.396 137.783 159.057 136.583 153.834 137.61C138.438 140.648 130.891 149.569 134.417 166.453C137.167 179.631 145.584 186.836 159.422 184.102C172.839 181.459 175.469 172.22 175.75 172.164C193.261 168.711 194.74 162.413 189.927 139.352C187.891 129.606 184.25 122.037 177.141 107.001ZM164.625 175.931C159.542 176.933 155.469 166.59 154.24 160.687C153.406 156.707 151.86 148.576 152 148.551C153.271 148.298 157.328 154.358 161.469 160.114C164.677 164.914 168.026 169.688 171.511 171.571C169.396 174.847 165.896 175.682 164.625 175.931Z" fill="#FF9E45"/>
<path d="M126.864 57.0355C121.89 57.157 117.338 57.1975 112.395 58.1747C99.124 60.7921 94.0302 68.8014 95.8948 77.722C99.3323 94.1962 114.561 92.4748 128.541 89.7207C141.671 87.1286 154.931 79.5091 151.838 64.6854C149.171 51.9171 147.577 47.0872 135.572 49.4566C129.78 50.5957 129.645 51.3399 126.864 57.0355ZM120.311 68.6191C122.145 68.2546 128.733 68.8115 132.134 71.7175C131.463 74.1375 128.223 78.3447 122.291 79.5192C121.785 79.1902 115.686 80.9621 114.593 75.7475C113.504 70.5328 119.463 68.7862 120.311 68.6191ZM173.452 63.2779L173.051 61.3591C171.989 55.5623 170.666 47.1075 161.629 48.8896C152.025 50.783 153.686 58.0329 155.145 65.0347L155.603 67.2269C156.634 72.1681 158.181 79.5851 166.515 77.9397C175.697 76.1272 175.202 71.6517 173.452 63.2779Z" fill="#FF9E45"/>
<path d="M132.087 7.41038C125.025 8.80264 116.035 16.4373 117.41 23.0239C118.499 28.2386 124.827 27.5652 128.499 26.8413C131.744 26.1983 133.239 24.1884 134.108 22.0164C134.348 25.9705 133.426 30.0105 134.311 34.2683C135.744 41.1334 146.619 38.9868 150.999 38.1211C161.447 36.0605 179.645 15.4652 183.645 1.52746C178.864 -0.249574 172.983 -0.229323 170.02 0.352895C163.666 1.60846 156.176 10.8024 150.572 17.7688C146.676 8.95959 142.395 5.37515 132.087 7.41038Z" fill="#FF9E45"/>
<path d="M219.123 86.3472C210.29 87.6737 195.759 92.5491 191.118 101.895C191.649 105.216 195.217 105.672 199.774 104.988C207.181 103.874 213.238 98.8522 218.076 98.1283C221.353 97.6372 226.103 102.73 228.863 107.277L225.019 107.854C206.649 110.613 196.17 120.835 199.67 142.848C202.754 162.223 217.269 174.642 238.061 171.518C261.269 168.035 261.811 139.319 259.675 125.892C256.285 104.578 245.608 82.3679 219.123 86.3472ZM218.196 137.37C216.41 126.156 219.493 116.197 232.41 113.975C235.009 120.242 237.566 126.237 238.733 133.578C239.832 140.498 240.571 163.488 232.519 165.124C226.379 165.903 219.821 147.612 218.196 137.37Z" fill="#FF9E45"/>
<path d="M322.601 37.0951C321.945 35.0498 318.7 34.5384 316.982 34.7106C303.081 36.1332 302.299 46.3498 303.44 56.9361C305.831 79.0856 308.008 100.557 309.893 122.053C310.575 129.728 310.987 137.576 311.836 146.785C310.273 147.084 308.284 147.428 307.711 147.484C297.534 148.521 295.841 142.218 294.278 127.729C293.195 117.699 292.992 114.479 292.617 110.996C291.232 98.1824 287.195 84.9331 276.013 86.0723C272.148 86.4671 258.487 92.7905 259.148 98.9215C260.841 102.552 263.799 100.415 267.159 97.9596C268.758 96.6737 270.357 95.3827 270.799 95.4789C274.159 95.6966 275.758 106.521 276.601 114.322C277.758 125.05 277.982 132.488 278.778 139.874C280.898 159.518 282.018 159.118 309.268 157.887C319.299 156.865 331.07 153.134 331.544 142.8L331.56 142.942C333.148 116.018 331.289 94.8004 328.57 69.5879C327.383 58.5815 326.211 47.7168 322.601 37.0951Z" fill="#FF9E45"/>
<path d="M374.042 94.8037C385.667 91.4471 391.1 83.6859 392.016 68.4723C392.235 65.0904 390.672 63.2222 385.928 63.5057C375.714 64.1133 372.933 70.3101 370.667 75.6361L369.558 78.6535C366.808 78.532 363.912 78.4257 361.323 78.5776C346.079 79.4889 337.735 86.8603 338.547 99.7247C339.047 107.694 342.797 119.115 351.287 118.609C355.6 118.356 358.938 116.331 362.532 116.118C365.553 115.936 367.084 121.879 367.553 129.291C367.86 134.182 368.115 142.87 367.844 145.411C367.657 144.723 367.001 143.497 366.355 142.414C364.245 138.748 361.235 134.44 357.35 134.668C351.886 134.992 346.823 137.118 347.183 142.854C347.631 149.983 355.943 158.189 364.428 157.683C381.547 156.666 387.745 145.067 386.787 129.828C386.178 120.183 381.943 105.699 370.292 106.392C367.131 106.58 363.407 107.086 360.251 107.41C357.797 102.788 358.105 98.5603 358.251 93.9177C363.396 95.4366 369.183 95.6543 374.042 94.8037Z" fill="#FF9E45"/>
<path d="M403.384 138.486C402.665 138.501 396.499 139.767 396.556 142.01C396.785 151.249 405.738 151.877 414.962 151.659C423.749 151.452 430.415 147.229 433.842 140.142C436.853 133.904 441.233 124.553 441.046 117.131C440.936 112.793 435.895 112.909 432.004 113.005C426.53 113.132 422.249 114.919 420.072 120.012C416.952 127.793 414.124 135.565 409.952 141.691C406.858 138.962 405.691 138.43 403.384 138.486ZM402.311 95.7766C401.587 95.7918 395.426 97.0575 395.488 99.7205C395.733 109.38 404.238 109.461 414.613 109.213C432.186 108.798 437.759 89.7468 440.415 74.9737C440.285 69.7894 435.389 70.0476 431.358 70.1438C421.848 70.3717 418.322 79.1404 414.936 87.7673C413.176 92.2934 411.415 96.6778 409.322 99.3914C405.931 96.3892 404.613 95.7209 402.311 95.7766Z" fill="#FF9E45"/>
<path d="M477.051 134.784C479.358 146.915 479.962 150.302 488.025 150.575C500.556 150.995 500.353 140.475 500.681 131.235C501.254 115.277 501.957 71.2921 477.905 70.482C464.514 70.0315 450.384 78.1066 446.764 90.5964C448.535 93.4569 450.707 93.2543 453.155 93.3353C460.79 93.5935 465.42 88.9814 471.535 83.301L474.967 80.0557C479.129 84.678 481.384 98.2108 482.191 108.048C479.004 104.296 474.91 101.917 470.014 101.75C464.108 101.552 454.832 102.919 452.665 111.116C454.051 112.705 457.207 113.095 458.795 113.146C462.535 113.272 465.66 110.574 467.327 108.387C471.493 108.807 474.577 123.347 477.051 134.784Z" fill="#FF9E45"/>
<path d="M480.341 18.4288C466.659 17.9681 458.216 28.3315 457.659 35.7434C457.252 47.2207 465.331 55.2047 480.596 55.716C483.909 55.8274 501.429 53.7567 502.054 36.1181C502.549 22.2613 490.112 19.3198 480.482 18.4338L480.341 18.4288ZM480.523 29.3643C482.544 29.4352 483.138 32.9589 483.075 34.6397C483.013 36.4573 482.096 41.8947 478.211 41.763C476.195 41.6922 476.065 37.2066 476.138 35.1055C476.237 32.4425 477.07 29.2479 480.523 29.3643Z" fill="#FF9E45"/>
<path d="M535.633 81.1207C537.07 81.1663 536.711 95.3116 536.461 102.308C535.924 117.431 534.086 132.503 535.258 148.243C535.966 156.672 541.586 156.723 546.195 156.88C562.034 157.411 560.643 147.974 561.445 125.44C562.654 91.5601 561.466 72.3216 538.711 71.5521C527.049 71.1572 509.654 77.7186 509.2 90.4615C509.034 95.2205 515.518 95.2965 519.836 95.4433C531.07 95.823 533.904 81.06 535.633 81.1207Z" fill="#FF9E45"/>
<path d="M613.895 143.527C618.968 136.12 621.692 126.101 622.556 117.317C623.744 105.329 621.036 78.4807 606.405 77.1138C590.197 75.6051 573.536 86.0091 568.749 100.762C567.916 103.359 570.103 106.093 573.405 106.402C582.583 107.257 589.556 98.2002 594.567 92.8995C598.114 93.6488 596.968 111.13 596.114 119.778C595.374 127.306 591.197 150.559 585.744 150.048C582.447 149.739 580.739 146.489 576.369 139.467C568.26 140.96 565.135 141.796 564.723 145.977C564.088 152.392 570.291 157.05 577.171 157.693C590.801 158.963 606.916 155.541 613.895 143.527Z" fill="#FF9E45"/>
<path d="M625.346 56.787C633.117 49.9168 655.612 31.7517 633.237 29.6658C628.789 29.2507 624.06 30.2176 620.403 33.5337C615.107 38.8091 607.581 46.1248 604.565 48.803C605.101 43.3656 603.013 38.1054 596.273 37.4726C590.825 36.9663 586.919 39.8369 586.107 48.0639C584.898 60.336 596.877 62.1535 606.487 63.0496C613.945 63.7483 620.133 61.227 625.346 56.787Z" fill="#FF9E45"/>
<path d="M642.192 155.634C649.994 157.006 657.926 152.592 663.963 149.19L663.817 149.169L663.978 149.048C663.942 149.326 664.145 149.919 664.244 150.217C665.4 158.161 667.129 167.178 675.832 168.388C687.525 170.018 698.473 162.915 699.864 153.488C701.114 145.028 696.551 138.451 687.161 135.019L689.431 120.615C691.004 109.943 694.03 90.4109 686.187 89.3174C680.624 88.5428 670.9 91.2918 669.697 95.5091C666.348 110.323 665.848 124.544 663.801 138.411C663.661 139.383 660.218 141.023 654.916 143.398L657.39 126.62C659.067 115.254 662.327 88.2542 650.202 86.5632C643.78 85.6671 624.338 92.1576 631.218 99.7669C635.233 100.182 638.78 98.8404 641.473 97.3722C642.874 102.663 642.26 108.804 641.421 114.489L639.926 124.61C639.15 129.88 635.124 154.222 642.192 155.634ZM686.437 153.736C686.025 156.51 684.556 157.579 683.01 158.211C682.379 154.586 682.707 151.377 683.036 147.18C683.098 146.759 683.301 146.365 683.65 145.99C685.744 147.554 686.968 150.131 686.437 153.736Z" fill="#FF9E45"/>
<path d="M733.688 168.085C732.495 169.725 726.656 174.226 726.469 171.346C727.979 154.952 731.167 139 734.474 121.644C736.651 110.213 737.656 98.0013 731 96.8015C717.396 94.3561 713.755 108.086 711.5 119.933C706.906 144.032 697.787 177.294 716.771 180.712C726.833 182.524 742.578 180.656 744.755 169.224C745.016 167.847 743.859 166.212 740.885 165.68C737.203 165.017 735.443 166.551 734.162 167.888L733.688 168.085Z" fill="#FF9E45"/>
<path d="M768.216 185.105C769.93 180.311 771.529 175.349 772.711 170.297C775.961 156.364 778.211 139.768 769.305 126.023C767.346 123.005 766.279 120.616 767.107 117.067C768.065 112.966 774.56 111.098 778.638 111.994C792.971 115.158 791.789 134.143 789.643 152.197C787.831 165.016 785.425 174.681 784.253 184.766C783.789 187.388 783.393 194.775 789.159 196.046C800.68 198.587 805.445 192.74 807.227 185.09C812.555 162.282 822.143 109.817 788.56 102.405C776.612 99.7723 754.232 99.4281 750.727 114.454C749.612 119.239 750.945 124.271 754.3 128.888C760.727 138.062 758.149 152.288 755.404 164.034L751.544 180.564C750.878 183.434 752.096 189.591 758.279 190.958C764.466 192.32 766.524 189.186 768.216 185.105Z" fill="#FF9E45"/>
<path d="M827.749 87.063C830.682 74.4973 813.921 59.5976 795.932 55.6284C784.552 53.1172 766.755 54.6513 763.822 67.217C760.473 81.5598 778.473 89.2653 791.4 92.1157C797.869 93.5434 803.843 91.9891 809.968 89.1742C813.369 87.9136 814.854 87.2352 815.979 87.4832C818.932 88.1363 826.505 92.3941 827.749 87.063ZM803.494 76.4009C802.15 80.2688 784.197 82.4812 785.567 76.6084C786.744 71.5558 791.687 67.4752 795.624 68.341C798.572 68.9941 802.119 72.7911 803.494 76.4009Z" fill="#FF9E45"/>
<path d="M854.943 186.927C853.204 195.038 851.594 203.184 850.683 211.517C852.865 212.256 854.865 213.096 856.808 213.628C870.823 217.45 873.782 211.861 877.563 198.779L880.292 189.342C887.151 165.608 888.448 132.639 865.693 126.427C845.162 120.823 828.24 130.168 820.136 158.216C815.146 175.48 815.454 189.965 834.594 195.195C843.334 197.579 850.62 193.605 854.943 186.927ZM848.688 146.957C851.808 141.843 856.625 133.991 859.954 134.902C863.839 135.96 862.901 147.488 861.401 156.829C859.599 152.698 854.672 149.027 848.688 146.957ZM847.672 154.095C849.198 154.515 848.105 162.945 846.782 167.532C844.912 174.002 839.776 185.55 837.698 184.983C837.282 184.867 839.938 173.08 841.808 166.61L842.433 164.453C843.62 159.831 845.172 153.417 847.672 154.095Z" fill="#FF9E45"/>
</svg>
