<svg width="394" height="433" viewBox="0 0 394 433" fill="none" xmlns="http://www.w3.org/2000/svg">
<mask id="mask0_828_281" style="mask-type:luminance" maskUnits="userSpaceOnUse" x="0" y="0" width="394" height="395">
<path d="M394 0.200195H0V394.9H394V0.200195Z" fill="white"/>
</mask>
<g mask="url(#mask0_828_281)">
<path d="M394 197C394 305.6 305.8 393.7 197 393.7C88.2 393.7 0 305.6 0 197C0 88.3998 88.2 0.299805 197 0.299805C305.9 0.299805 394 88.3998 394 197Z" fill="white"/>
</g>
<mask id="mask1_828_281" style="mask-type:luminance" maskUnits="userSpaceOnUse" x="81" y="284" width="232" height="149">
<path d="M312.6 284.2H81.8999V432.2H312.6V284.2Z" fill="white"/>
</mask>
<g mask="url(#mask1_828_281)">
<path d="M312 394.301C302.3 401.601 291.8 407.901 280.8 413.301C279.1 414.101 277.4 414.901 275.7 415.701C251.7 426.401 225.1 432.401 197.1 432.401C169.1 432.401 142.5 426.401 118.5 415.701C116.8 414.901 115.1 414.201 113.4 413.301C102.4 408.001 91.8997 401.601 82.1997 394.301C83.8997 356.301 104.1 323.101 134.1 303.401C152.2 291.501 173.8 284.601 197.1 284.601C200.7 284.601 204.2 284.801 207.6 285.101C226.9 286.801 244.8 293.301 260.1 303.401C273.9 312.401 285.6 324.301 294.4 338.301C304.7 354.601 311 373.801 312 394.301Z" fill="black"/>
</g>
<path d="M260.1 303.4C258.3 316.7 252.5 328.6 243.8 338C232.2 350.6 215.6 358.4 197.1 358.4C167.5 358.4 142.6 338.2 135.5 310.8C134.9 308.4 134.4 305.9 134 303.3C152.1 291.4 173.7 284.5 197 284.5C200.6 284.5 204.1 284.7 207.5 285C208.1 285 208.7 285.1 209.3 285.2C209.7 285.2 210.1 285.3 210.4 285.3C210.8 285.3 211.2 285.4 211.6 285.4C211.8 285.4 212.1 285.5 212.4 285.5C212.8 285.5 213.1 285.6 213.5 285.6C213.8 285.6 214.1 285.7 214.4 285.7C214.6 285.7 214.9 285.8 215.2 285.8C215.6 285.9 216 285.9 216.5 286C218.3 286.3 220.1 286.7 221.9 287.1L223.1 287.4C223.3 287.5 223.6 287.5 223.8 287.6C224.2 287.7 224.7 287.8 225.1 287.9C225.2 287.9 225.2 287.9 225.3 287.9C225.8 288 226.4 288.2 226.9 288.3C227.5 288.4 228 288.6 228.6 288.8C229.2 289 229.9 289.2 230.5 289.4C231 289.5 231.5 289.7 232 289.9C232.3 290 232.6 290.1 232.9 290.2C233.4 290.4 233.9 290.5 234.4 290.7C235 290.9 235.6 291.1 236.3 291.4H236.4C237 291.6 237.7 291.9 238.3 292.1C238.8 292.3 239.2 292.5 239.7 292.7C240.9 293.2 242.2 293.7 243.4 294.2L245 294.9C245.5 295.1 246 295.3 246.4 295.6C246.8 295.8 247.3 296 247.7 296.2C248.1 296.4 248.5 296.6 248.9 296.8C249.1 296.9 249.4 297 249.7 297.2C250.7 297.7 251.8 298.3 252.8 298.8C253.2 299 253.5 299.2 253.9 299.4C254.1 299.5 254.4 299.7 254.6 299.8L255.5 300.3L256.4 300.8L257 301.1C257.5 301.4 258.1 301.7 258.6 302.1C258.9 302.7 259.5 303 260.1 303.4Z" fill="#FBD5C0"/>
<path d="M225.1 253.2V308.2C225.1 322.1 213.7 333.5 199.8 333.5H194.5C180.6 333.5 169.2 322.1 169.2 308.2V253.2C169.2 239.3 180.6 227.9 194.5 227.9H199.8C213.7 227.9 225.1 239.2 225.1 253.2Z" fill="#FBD5C0"/>
<path d="M225.1 253.2V282.3C216.8 286.9 207.9 289.6 199 289.6C188.4 289.6 178.3 286.7 169.1 281.5V253.1C169.1 239.2 180.5 227.8 194.4 227.8H199.7C213.7 227.9 225.1 239.2 225.1 253.2Z" fill="#F8A29E"/>
<path d="M265.4 231.9C265.4 231.9 278.5 227.4 286.9 212.8C296 196.9 290.3 187.1 288.5 184.9C283.6 179.1 276 182.8 274.7 184.9C273.4 187.1 255.2 220 265.4 231.9Z" fill="#FBD5C0"/>
<path d="M278.2 190.2C278.2 190.2 286.5 191.3 283.6 203C280.7 214.7 273 219.3 262.5 225.3C252.1 231.2 267.8 192.6 278.2 190.2Z" fill="#F8A29E"/>
<path d="M132.2 231.9C132.2 231.9 119.1 227.4 110.7 212.8C101.6 196.9 107.3 187.1 109.1 184.9C114 179.1 121.6 182.8 122.9 184.9C124.2 187.1 142.3 220 132.2 231.9Z" fill="#FBD5C0"/>
<path d="M119.3 190.2C119.3 190.2 111 191.3 113.9 203C116.8 214.7 124.5 219.3 135 225.3C145.5 231.2 129.8 192.6 119.3 190.2Z" fill="#F8A29E"/>
<path d="M278.2 182.5C278.2 134.5 242.7 95.5996 198.9 95.5996C155.1 95.5996 119.6 134.5 119.6 182.5C119.6 230.5 155.1 280.7 198.9 280.7C240.1 280.7 278.2 230.1 278.2 182.5Z" fill="#FBD5C0"/>
<path d="M206.1 147.4C206.1 147.4 221 195.3 277.1 190.6C277.1 190.6 286.9 176.5 283.6 145.7C279.9 111 249.1 81.8996 199 92.2996C198.9 92.2996 194.4 116.9 206.1 147.4Z" fill="#23255D"/>
<path d="M208.6 95.4997C208.6 95.4997 210.7 86.3997 203.2 79.2997C195.7 72.1997 96.0002 86.7997 119.7 182.4C119.7 182.4 142.9 125.2 204.4 120.2L208.6 95.4997Z" fill="#23255D"/>
<path d="M146.5 179.1C154.8 175.9 158.1 175.3 166.4 175.3C168.9 175.3 173 176.4 175 177.5C175.3 177.7 177.5 180.3 177.6 180.6C178 181.8 171 180.9 169.7 180.9C162.3 180.9 158.7 180.5 151.3 182.4C148.4 183.2 147 184.4 144.1 183.9C143.6 183.8 142.9 183.5 142.8 183C142.5 182 142.8 180.5 143.8 180.2C144.8 180 146.6 179.1 146.5 179.1Z" fill="black"/>
<path d="M250.5 179.1C242.2 175.9 238.9 175.3 230.6 175.3C228.1 175.3 224 176.4 222 177.5C221.7 177.7 219.5 180.3 219.4 180.6C219 181.8 226 180.9 227.3 180.9C234.7 180.9 238.3 180.5 245.7 182.4C248.6 183.2 250 184.4 252.9 183.9C253.4 183.8 254.1 183.5 254.2 183C254.5 182 254.2 180.5 253.2 180.2C252.2 180 250.4 179.1 250.5 179.1Z" fill="black"/>
<path d="M166.7 213.7C171.726 213.7 175.8 207.701 175.8 200.3C175.8 192.9 171.726 186.9 166.7 186.9C161.674 186.9 157.6 192.9 157.6 200.3C157.6 207.701 161.674 213.7 166.7 213.7Z" fill="black"/>
<path d="M230.9 213.7C235.926 213.7 240 207.701 240 200.3C240 192.9 235.926 186.9 230.9 186.9C225.874 186.9 221.8 192.9 221.8 200.3C221.8 207.701 225.874 213.7 230.9 213.7Z" fill="black"/>
<path d="M164 195C164.828 195 165.5 194.195 165.5 193.2C165.5 192.206 164.828 191.4 164 191.4C163.172 191.4 162.5 192.206 162.5 193.2C162.5 194.195 163.172 195 164 195Z" fill="white"/>
<path d="M233.5 195C234.328 195 235 194.195 235 193.2C235 192.206 234.328 191.4 233.5 191.4C232.672 191.4 232 192.206 232 193.2C232 194.195 232.672 195 233.5 195Z" fill="white"/>
<path d="M182.5 248.8C184.1 251.2 187.8 252.6 191.9 253.1C197.3 253.8 203 253.9 208.4 253.1C210.3 252.8 212 252.4 213.6 251.6C215.1 250.8 216.5 249.5 216.3 248.3C216.3 248.1 216.2 247.9 216 247.8C215.8 247.7 215.5 247.6 215.3 247.6C213.3 247.4 211.6 249.3 209.8 249.8C206.8 250.7 203.4 250.1 200.2 250.3C196.9 250.5 193.3 250.7 190.5 249.6C188.1 248.7 186.4 246 183.8 246.5C183.1 246.6 182.6 246.7 182.4 247.2C182.2 247.7 182.5 249 182.5 248.8Z" fill="black"/>
</svg>
