<svg width="40" height="40" viewBox="0 0 40 40" fill="none" xmlns="http://www.w3.org/2000/svg">
<rect x="9.5" y="9.5" width="21" height="17.6667" rx="2.5" stroke="white"/>
<path d="M25 8.83331H25.5V8.33331V5.33331L25.5 5.30041C25.5 4.85716 25.5 4.47525 25.4589 4.16942C25.4149 3.84166 25.3155 3.52748 25.0607 3.27265C24.8058 3.01782 24.4917 2.91845 24.1639 2.87438C23.8581 2.83327 23.4762 2.83329 23.0329 2.83331L23 2.83331H17C16.989 2.83331 16.978 2.83331 16.9671 2.83331C16.5238 2.83329 16.1419 2.83327 15.8361 2.87438C15.5083 2.91845 15.1942 3.01782 14.9393 3.27265C14.6845 3.52748 14.5851 3.84166 14.5411 4.16942C14.5 4.47525 14.5 4.85715 14.5 5.3004C14.5 5.31133 14.5 5.3223 14.5 5.33331V8.33331V8.83331H15H25Z" stroke="white"/>
<path d="M25 27.8334H25.5V28.3334V34.6667L25.5 34.6996C25.5 35.1428 25.5 35.5247 25.4589 35.8306C25.4149 36.1583 25.3155 36.4725 25.0607 36.7273C24.8058 36.9822 24.4917 37.0816 24.1639 37.1256C23.8581 37.1667 23.4762 37.1667 23.0329 37.1667L23 37.1667H17C16.989 37.1667 16.978 37.1667 16.9671 37.1667C16.5238 37.1667 16.1419 37.1667 15.8361 37.1256C15.5083 37.0816 15.1942 36.9822 14.9393 36.7273C14.6845 36.4725 14.5851 36.1583 14.5411 35.8306C14.5 35.5248 14.5 35.1428 14.5 34.6996C14.5 34.6887 14.5 34.6777 14.5 34.6667V28.3334V27.8334H15H25Z" stroke="white"/>
</svg>
